<?xml version="1.0" encoding="UTF-8"?>
<!DOCTYPE xmeml>
<xmeml version="4">
  <sequence authoringapp="Storyboard Pro" projectpath="C:/Users/usuario/Dropbox (BigBangBoxSL)/PROYECTOS/My preschool monster serie/PRODUCCION/Story/EQUIPO/JUANMA/WIP/episodio 45 fotos/MM_145_FOTOS_R3/MM_145_FOTOS_R3/MM_145_FOTOS_R3.sboard" id="MM_145_FOTOS_R3">
    <uuid>12E41231-6098-3AD1-1610-40AD48B06CD4</uuid>
    <updatebehavior>add</updatebehavior>
    <name>MM_145_FOTOS_R3</name>
    <duration>7290</duration>
    <rate>
      <ntsc>FALSE</ntsc>
      <timebase>25</timebase>
    </rate>
    <timecode>
      <rate>
        <ntsc>FALSE</ntsc>
        <timebase>25</timebase>
      </rate>
      <string>00:00:00:00</string>
      <frame>0</frame>
      <source>source</source>
    </timecode>
    <in>-1</in>
    <out>-1</out>
    <media>
      <video>
        <format>
          <samplecharacteristics>
            <width>1920</width>
            <height>1080</height>
            <anamorphic>FALSE</anamorphic>
            <pixelaspectratio>Square</pixelaspectratio>
            <rate>
              <ntsc>FALSE</ntsc>
              <timebase>25</timebase>
            </rate>
          </samplecharacteristics>
        </format>
        <track>
          <clipitem id="MM_145_FOTOS_R1-TITLE">
            <name>MM_145_FOTOS_R1-TITLE</name>
            <duration>24</duration>
            <rate>
              <ntsc>FALSE</ntsc>
              <timebase>25</timebase>
            </rate>
            <in>0</in>
            <out>24</out>
            <start>0</start>
            <end>24</end>
            <pixelaspectratio>Square</pixelaspectratio>
            <stillframe>FALSE</stillframe>
            <enabled>TRUE</enabled>
            <anamorphic>FALSE</anamorphic>
            <alphatype>straight</alphatype>
            <file id="MM_145_FOTOS_R1-TITLE 1">
              <name>MM_145_FOTOS_R1-TITLE.mov</name>
              <pathurl>file://localhost/C:/Users/usuario/Dropbox%20(BigBangBoxSL)/PROYECTOS/My%20preschool%20monster%20serie/PRODUCCION/Story/EPISODIOS/FOTOS/XML/MM_145_FOTOS_R1-TITLE.mov</pathurl>
              <rate>
                <timebase>25</timebase>
              </rate>
              <duration>24</duration>
              <width>1920</width>
              <height>1080</height>
              <media>
                <video>
                  <duration>24</duration>
                  <stillframe>FALSE</stillframe>
                  <samplecharacteristics>
                    <width>1920</width>
                    <height>1080</height>
                  </samplecharacteristics>
                </video>
              </media>
            </file>
            <sourcetrack>
              <mediatype>video</mediatype>
            </sourcetrack>
            <itemhistory>
              <uuid>115E1144-356D-5623-1B76-955A23ED2B70</uuid>
            </itemhistory>
          </clipitem>
          <clipitem id="MM_145_FOTOS_R1-00001">
            <name>MM_145_FOTOS_R1-00001</name>
            <duration>116</duration>
            <rate>
              <ntsc>FALSE</ntsc>
              <timebase>25</timebase>
            </rate>
            <in>0</in>
            <out>116</out>
            <start>24</start>
            <end>140</end>
            <pixelaspectratio>Square</pixelaspectratio>
            <stillframe>FALSE</stillframe>
            <enabled>TRUE</enabled>
            <anamorphic>FALSE</anamorphic>
            <alphatype>straight</alphatype>
            <file id="MM_145_FOTOS_R1-00001 1">
              <name>MM_145_FOTOS_R1-00001.mov</name>
              <pathurl>file://localhost/C:/Users/usuario/Dropbox%20(BigBangBoxSL)/PROYECTOS/My%20preschool%20monster%20serie/PRODUCCION/Story/EPISODIOS/FOTOS/XML/MM_145_FOTOS_R1-00001.mov</pathurl>
              <rate>
                <timebase>25</timebase>
              </rate>
              <duration>116</duration>
              <width>1920</width>
              <height>1080</height>
              <media>
                <video>
                  <duration>116</duration>
                  <stillframe>FALSE</stillframe>
                  <samplecharacteristics>
                    <width>1920</width>
                    <height>1080</height>
                  </samplecharacteristics>
                </video>
              </media>
            </file>
            <sourcetrack>
              <mediatype>video</mediatype>
            </sourcetrack>
            <itemhistory>
              <uuid>6DA94391-6238-5A99-47DE-1FC5215B4E3C</uuid>
            </itemhistory>
          </clipitem>
          <clipitem id="MM_145_FOTOS_R1-00002">
            <name>MM_145_FOTOS_R1-00002</name>
            <duration>35</duration>
            <rate>
              <ntsc>FALSE</ntsc>
              <timebase>25</timebase>
            </rate>
            <in>0</in>
            <out>35</out>
            <start>140</start>
            <end>175</end>
            <pixelaspectratio>Square</pixelaspectratio>
            <stillframe>FALSE</stillframe>
            <enabled>TRUE</enabled>
            <anamorphic>FALSE</anamorphic>
            <alphatype>straight</alphatype>
            <file id="MM_145_FOTOS_R1-00002 1">
              <name>MM_145_FOTOS_R1-00002.mov</name>
              <pathurl>file://localhost/C:/Users/usuario/Dropbox%20(BigBangBoxSL)/PROYECTOS/My%20preschool%20monster%20serie/PRODUCCION/Story/EPISODIOS/FOTOS/XML/MM_145_FOTOS_R1-00002.mov</pathurl>
              <rate>
                <timebase>25</timebase>
              </rate>
              <duration>35</duration>
              <width>1920</width>
              <height>1080</height>
              <media>
                <video>
                  <duration>35</duration>
                  <stillframe>FALSE</stillframe>
                  <samplecharacteristics>
                    <width>1920</width>
                    <height>1080</height>
                  </samplecharacteristics>
                </video>
              </media>
            </file>
            <sourcetrack>
              <mediatype>video</mediatype>
            </sourcetrack>
            <itemhistory>
              <uuid>650A532D-6D37-6398-6420-497E5FBD281B</uuid>
            </itemhistory>
          </clipitem>
          <clipitem id="MM_145_FOTOS_R1-00003">
            <name>MM_145_FOTOS_R1-00003</name>
            <duration>38</duration>
            <rate>
              <ntsc>FALSE</ntsc>
              <timebase>25</timebase>
            </rate>
            <in>0</in>
            <out>38</out>
            <start>175</start>
            <end>213</end>
            <pixelaspectratio>Square</pixelaspectratio>
            <stillframe>FALSE</stillframe>
            <enabled>TRUE</enabled>
            <anamorphic>FALSE</anamorphic>
            <alphatype>straight</alphatype>
            <file id="MM_145_FOTOS_R1-00003 1">
              <name>MM_145_FOTOS_R1-00003.mov</name>
              <pathurl>file://localhost/C:/Users/usuario/Dropbox%20(BigBangBoxSL)/PROYECTOS/My%20preschool%20monster%20serie/PRODUCCION/Story/EPISODIOS/FOTOS/XML/MM_145_FOTOS_R1-00003.mov</pathurl>
              <rate>
                <timebase>25</timebase>
              </rate>
              <duration>38</duration>
              <width>1920</width>
              <height>1080</height>
              <media>
                <video>
                  <duration>38</duration>
                  <stillframe>FALSE</stillframe>
                  <samplecharacteristics>
                    <width>1920</width>
                    <height>1080</height>
                  </samplecharacteristics>
                </video>
              </media>
            </file>
            <sourcetrack>
              <mediatype>video</mediatype>
            </sourcetrack>
            <itemhistory>
              <uuid>67682921-515B-1F08-6BBC-04A65B2458EC</uuid>
            </itemhistory>
          </clipitem>
          <clipitem id="MM_145_FOTOS_R1-00004">
            <name>MM_145_FOTOS_R1-00004</name>
            <duration>44</duration>
            <rate>
              <ntsc>FALSE</ntsc>
              <timebase>25</timebase>
            </rate>
            <in>0</in>
            <out>44</out>
            <start>213</start>
            <end>257</end>
            <pixelaspectratio>Square</pixelaspectratio>
            <stillframe>FALSE</stillframe>
            <enabled>TRUE</enabled>
            <anamorphic>FALSE</anamorphic>
            <alphatype>straight</alphatype>
            <file id="MM_145_FOTOS_R1-00004 1">
              <name>MM_145_FOTOS_R1-00004.mov</name>
              <pathurl>file://localhost/C:/Users/usuario/Dropbox%20(BigBangBoxSL)/PROYECTOS/My%20preschool%20monster%20serie/PRODUCCION/Story/EPISODIOS/FOTOS/XML/MM_145_FOTOS_R1-00004.mov</pathurl>
              <rate>
                <timebase>25</timebase>
              </rate>
              <duration>44</duration>
              <width>1920</width>
              <height>1080</height>
              <media>
                <video>
                  <duration>44</duration>
                  <stillframe>FALSE</stillframe>
                  <samplecharacteristics>
                    <width>1920</width>
                    <height>1080</height>
                  </samplecharacteristics>
                </video>
              </media>
            </file>
            <sourcetrack>
              <mediatype>video</mediatype>
            </sourcetrack>
            <itemhistory>
              <uuid>2F0E75A1-7CD6-33BE-6C3A-778C33F82058</uuid>
            </itemhistory>
          </clipitem>
          <clipitem id="MM_145_FOTOS_R1-00005">
            <name>MM_145_FOTOS_R1-00005</name>
            <duration>194</duration>
            <rate>
              <ntsc>FALSE</ntsc>
              <timebase>25</timebase>
            </rate>
            <in>0</in>
            <out>194</out>
            <start>257</start>
            <end>451</end>
            <pixelaspectratio>Square</pixelaspectratio>
            <stillframe>FALSE</stillframe>
            <enabled>TRUE</enabled>
            <anamorphic>FALSE</anamorphic>
            <alphatype>straight</alphatype>
            <file id="MM_145_FOTOS_R1-00005 1">
              <name>MM_145_FOTOS_R1-00005.mov</name>
              <pathurl>file://localhost/C:/Users/usuario/Dropbox%20(BigBangBoxSL)/PROYECTOS/My%20preschool%20monster%20serie/PRODUCCION/Story/EPISODIOS/FOTOS/XML/MM_145_FOTOS_R1-00005.mov</pathurl>
              <rate>
                <timebase>25</timebase>
              </rate>
              <duration>194</duration>
              <width>1920</width>
              <height>1080</height>
              <media>
                <video>
                  <duration>194</duration>
                  <stillframe>FALSE</stillframe>
                  <samplecharacteristics>
                    <width>1920</width>
                    <height>1080</height>
                  </samplecharacteristics>
                </video>
              </media>
            </file>
            <sourcetrack>
              <mediatype>video</mediatype>
            </sourcetrack>
            <itemhistory>
              <uuid>20CA2CFB-6240-14F2-53FE-62A51010465D</uuid>
            </itemhistory>
          </clipitem>
          <clipitem id="MM_145_FOTOS_R1-00006">
            <name>MM_145_FOTOS_R1-00006</name>
            <duration>79</duration>
            <rate>
              <ntsc>FALSE</ntsc>
              <timebase>25</timebase>
            </rate>
            <in>0</in>
            <out>79</out>
            <start>451</start>
            <end>530</end>
            <pixelaspectratio>Square</pixelaspectratio>
            <stillframe>FALSE</stillframe>
            <enabled>TRUE</enabled>
            <anamorphic>FALSE</anamorphic>
            <alphatype>straight</alphatype>
            <file id="MM_145_FOTOS_R1-00006 1">
              <name>MM_145_FOTOS_R1-00006.mov</name>
              <pathurl>file://localhost/C:/Users/usuario/Dropbox%20(BigBangBoxSL)/PROYECTOS/My%20preschool%20monster%20serie/PRODUCCION/Story/EPISODIOS/FOTOS/XML/MM_145_FOTOS_R1-00006.mov</pathurl>
              <rate>
                <timebase>25</timebase>
              </rate>
              <duration>79</duration>
              <width>1920</width>
              <height>1080</height>
              <media>
                <video>
                  <duration>79</duration>
                  <stillframe>FALSE</stillframe>
                  <samplecharacteristics>
                    <width>1920</width>
                    <height>1080</height>
                  </samplecharacteristics>
                </video>
              </media>
            </file>
            <sourcetrack>
              <mediatype>video</mediatype>
            </sourcetrack>
            <itemhistory>
              <uuid>73753B2C-388E-5913-21CF-6677DE1406EF</uuid>
            </itemhistory>
          </clipitem>
          <clipitem id="MM_145_FOTOS_R1-00007">
            <name>MM_145_FOTOS_R1-00007</name>
            <duration>154</duration>
            <rate>
              <ntsc>FALSE</ntsc>
              <timebase>25</timebase>
            </rate>
            <in>0</in>
            <out>154</out>
            <start>530</start>
            <end>684</end>
            <pixelaspectratio>Square</pixelaspectratio>
            <stillframe>FALSE</stillframe>
            <enabled>TRUE</enabled>
            <anamorphic>FALSE</anamorphic>
            <alphatype>straight</alphatype>
            <file id="MM_145_FOTOS_R1-00007 1">
              <name>MM_145_FOTOS_R1-00007.mov</name>
              <pathurl>file://localhost/C:/Users/usuario/Dropbox%20(BigBangBoxSL)/PROYECTOS/My%20preschool%20monster%20serie/PRODUCCION/Story/EPISODIOS/FOTOS/XML/MM_145_FOTOS_R1-00007.mov</pathurl>
              <rate>
                <timebase>25</timebase>
              </rate>
              <duration>154</duration>
              <width>1920</width>
              <height>1080</height>
              <media>
                <video>
                  <duration>154</duration>
                  <stillframe>FALSE</stillframe>
                  <samplecharacteristics>
                    <width>1920</width>
                    <height>1080</height>
                  </samplecharacteristics>
                </video>
              </media>
            </file>
            <sourcetrack>
              <mediatype>video</mediatype>
            </sourcetrack>
            <itemhistory>
              <uuid>452E641A-6923-3FE3-4DB4-2D72225428C0</uuid>
            </itemhistory>
          </clipitem>
          <clipitem id="MM_145_FOTOS_R1-00008">
            <name>MM_145_FOTOS_R1-00008</name>
            <duration>65</duration>
            <rate>
              <ntsc>FALSE</ntsc>
              <timebase>25</timebase>
            </rate>
            <in>0</in>
            <out>65</out>
            <start>684</start>
            <end>749</end>
            <pixelaspectratio>Square</pixelaspectratio>
            <stillframe>FALSE</stillframe>
            <enabled>TRUE</enabled>
            <anamorphic>FALSE</anamorphic>
            <alphatype>straight</alphatype>
            <file id="MM_145_FOTOS_R1-00008 1">
              <name>MM_145_FOTOS_R1-00008.mov</name>
              <pathurl>file://localhost/C:/Users/usuario/Dropbox%20(BigBangBoxSL)/PROYECTOS/My%20preschool%20monster%20serie/PRODUCCION/Story/EPISODIOS/FOTOS/XML/MM_145_FOTOS_R1-00008.mov</pathurl>
              <rate>
                <timebase>25</timebase>
              </rate>
              <duration>65</duration>
              <width>1920</width>
              <height>1080</height>
              <media>
                <video>
                  <duration>65</duration>
                  <stillframe>FALSE</stillframe>
                  <samplecharacteristics>
                    <width>1920</width>
                    <height>1080</height>
                  </samplecharacteristics>
                </video>
              </media>
            </file>
            <sourcetrack>
              <mediatype>video</mediatype>
            </sourcetrack>
            <itemhistory>
              <uuid>53073A0A-2E69-4CE3-3C10-7EDF55E0711F</uuid>
            </itemhistory>
          </clipitem>
          <clipitem id="MM_145_FOTOS_R1-00009">
            <name>MM_145_FOTOS_R1-00009</name>
            <duration>64</duration>
            <rate>
              <ntsc>FALSE</ntsc>
              <timebase>25</timebase>
            </rate>
            <in>0</in>
            <out>64</out>
            <start>749</start>
            <end>813</end>
            <pixelaspectratio>Square</pixelaspectratio>
            <stillframe>FALSE</stillframe>
            <enabled>TRUE</enabled>
            <anamorphic>FALSE</anamorphic>
            <alphatype>straight</alphatype>
            <file id="MM_145_FOTOS_R1-00009 1">
              <name>MM_145_FOTOS_R1-00009.mov</name>
              <pathurl>file://localhost/C:/Users/usuario/Dropbox%20(BigBangBoxSL)/PROYECTOS/My%20preschool%20monster%20serie/PRODUCCION/Story/EPISODIOS/FOTOS/XML/MM_145_FOTOS_R1-00009.mov</pathurl>
              <rate>
                <timebase>25</timebase>
              </rate>
              <duration>64</duration>
              <width>1920</width>
              <height>1080</height>
              <media>
                <video>
                  <duration>64</duration>
                  <stillframe>FALSE</stillframe>
                  <samplecharacteristics>
                    <width>1920</width>
                    <height>1080</height>
                  </samplecharacteristics>
                </video>
              </media>
            </file>
            <sourcetrack>
              <mediatype>video</mediatype>
            </sourcetrack>
            <itemhistory>
              <uuid>5306268A-2128-2DD4-586D-E677B9C24A44</uuid>
            </itemhistory>
          </clipitem>
          <clipitem id="MM_145_FOTOS_R1-00010">
            <name>MM_145_FOTOS_R1-00010</name>
            <duration>112</duration>
            <rate>
              <ntsc>FALSE</ntsc>
              <timebase>25</timebase>
            </rate>
            <in>0</in>
            <out>112</out>
            <start>813</start>
            <end>925</end>
            <pixelaspectratio>Square</pixelaspectratio>
            <stillframe>FALSE</stillframe>
            <enabled>TRUE</enabled>
            <anamorphic>FALSE</anamorphic>
            <alphatype>straight</alphatype>
            <file id="MM_145_FOTOS_R1-00010 1">
              <name>MM_145_FOTOS_R1-00010.mov</name>
              <pathurl>file://localhost/C:/Users/usuario/Dropbox%20(BigBangBoxSL)/PROYECTOS/My%20preschool%20monster%20serie/PRODUCCION/Story/EPISODIOS/FOTOS/XML/MM_145_FOTOS_R1-00010.mov</pathurl>
              <rate>
                <timebase>25</timebase>
              </rate>
              <duration>112</duration>
              <width>1920</width>
              <height>1080</height>
              <media>
                <video>
                  <duration>112</duration>
                  <stillframe>FALSE</stillframe>
                  <samplecharacteristics>
                    <width>1920</width>
                    <height>1080</height>
                  </samplecharacteristics>
                </video>
              </media>
            </file>
            <sourcetrack>
              <mediatype>video</mediatype>
            </sourcetrack>
            <itemhistory>
              <uuid>596372EB-4FD0-357C-26E9-34E21C273781</uuid>
            </itemhistory>
          </clipitem>
          <clipitem id="MM_145_FOTOS_R1-00011">
            <name>MM_145_FOTOS_R1-00011</name>
            <duration>76</duration>
            <rate>
              <ntsc>FALSE</ntsc>
              <timebase>25</timebase>
            </rate>
            <in>0</in>
            <out>76</out>
            <start>925</start>
            <end>1001</end>
            <pixelaspectratio>Square</pixelaspectratio>
            <stillframe>FALSE</stillframe>
            <enabled>TRUE</enabled>
            <anamorphic>FALSE</anamorphic>
            <alphatype>straight</alphatype>
            <file id="MM_145_FOTOS_R1-00011 1">
              <name>MM_145_FOTOS_R1-00011.mov</name>
              <pathurl>file://localhost/C:/Users/usuario/Dropbox%20(BigBangBoxSL)/PROYECTOS/My%20preschool%20monster%20serie/PRODUCCION/Story/EPISODIOS/FOTOS/XML/MM_145_FOTOS_R1-00011.mov</pathurl>
              <rate>
                <timebase>25</timebase>
              </rate>
              <duration>76</duration>
              <width>1920</width>
              <height>1080</height>
              <media>
                <video>
                  <duration>76</duration>
                  <stillframe>FALSE</stillframe>
                  <samplecharacteristics>
                    <width>1920</width>
                    <height>1080</height>
                  </samplecharacteristics>
                </video>
              </media>
            </file>
            <sourcetrack>
              <mediatype>video</mediatype>
            </sourcetrack>
            <itemhistory>
              <uuid>3D161D0D-364B-205A-5630-7882263D33C5</uuid>
            </itemhistory>
          </clipitem>
          <clipitem id="MM_145_FOTOS_R1-00012">
            <name>MM_145_FOTOS_R1-00012</name>
            <duration>28</duration>
            <rate>
              <ntsc>FALSE</ntsc>
              <timebase>25</timebase>
            </rate>
            <in>0</in>
            <out>28</out>
            <start>1001</start>
            <end>1029</end>
            <pixelaspectratio>Square</pixelaspectratio>
            <stillframe>FALSE</stillframe>
            <enabled>TRUE</enabled>
            <anamorphic>FALSE</anamorphic>
            <alphatype>straight</alphatype>
            <file id="MM_145_FOTOS_R1-00012 1">
              <name>MM_145_FOTOS_R1-00012.mov</name>
              <pathurl>file://localhost/C:/Users/usuario/Dropbox%20(BigBangBoxSL)/PROYECTOS/My%20preschool%20monster%20serie/PRODUCCION/Story/EPISODIOS/FOTOS/XML/MM_145_FOTOS_R1-00012.mov</pathurl>
              <rate>
                <timebase>25</timebase>
              </rate>
              <duration>28</duration>
              <width>1920</width>
              <height>1080</height>
              <media>
                <video>
                  <duration>28</duration>
                  <stillframe>FALSE</stillframe>
                  <samplecharacteristics>
                    <width>1920</width>
                    <height>1080</height>
                  </samplecharacteristics>
                </video>
              </media>
            </file>
            <sourcetrack>
              <mediatype>video</mediatype>
            </sourcetrack>
            <itemhistory>
              <uuid>26FD139E-4ACC-184F-5838-7594426A5997</uuid>
            </itemhistory>
          </clipitem>
          <clipitem id="MM_145_FOTOS_R1-00013">
            <name>MM_145_FOTOS_R1-00013</name>
            <duration>77</duration>
            <rate>
              <ntsc>FALSE</ntsc>
              <timebase>25</timebase>
            </rate>
            <in>0</in>
            <out>77</out>
            <start>1029</start>
            <end>1106</end>
            <pixelaspectratio>Square</pixelaspectratio>
            <stillframe>FALSE</stillframe>
            <enabled>TRUE</enabled>
            <anamorphic>FALSE</anamorphic>
            <alphatype>straight</alphatype>
            <file id="MM_145_FOTOS_R1-00013 1">
              <name>MM_145_FOTOS_R1-00013.mov</name>
              <pathurl>file://localhost/C:/Users/usuario/Dropbox%20(BigBangBoxSL)/PROYECTOS/My%20preschool%20monster%20serie/PRODUCCION/Story/EPISODIOS/FOTOS/XML/MM_145_FOTOS_R1-00013.mov</pathurl>
              <rate>
                <timebase>25</timebase>
              </rate>
              <duration>77</duration>
              <width>1920</width>
              <height>1080</height>
              <media>
                <video>
                  <duration>77</duration>
                  <stillframe>FALSE</stillframe>
                  <samplecharacteristics>
                    <width>1920</width>
                    <height>1080</height>
                  </samplecharacteristics>
                </video>
              </media>
            </file>
            <sourcetrack>
              <mediatype>video</mediatype>
            </sourcetrack>
            <itemhistory>
              <uuid>185E4CB6-1BD0-5388-7DCA-758F15EF6921</uuid>
            </itemhistory>
          </clipitem>
          <clipitem id="MM_145_FOTOS_R1-00014">
            <name>MM_145_FOTOS_R1-00014</name>
            <duration>51</duration>
            <rate>
              <ntsc>FALSE</ntsc>
              <timebase>25</timebase>
            </rate>
            <in>0</in>
            <out>51</out>
            <start>1106</start>
            <end>1157</end>
            <pixelaspectratio>Square</pixelaspectratio>
            <stillframe>FALSE</stillframe>
            <enabled>TRUE</enabled>
            <anamorphic>FALSE</anamorphic>
            <alphatype>straight</alphatype>
            <file id="MM_145_FOTOS_R1-00014 1">
              <name>MM_145_FOTOS_R1-00014.mov</name>
              <pathurl>file://localhost/C:/Users/usuario/Dropbox%20(BigBangBoxSL)/PROYECTOS/My%20preschool%20monster%20serie/PRODUCCION/Story/EPISODIOS/FOTOS/XML/MM_145_FOTOS_R1-00014.mov</pathurl>
              <rate>
                <timebase>25</timebase>
              </rate>
              <duration>51</duration>
              <width>1920</width>
              <height>1080</height>
              <media>
                <video>
                  <duration>51</duration>
                  <stillframe>FALSE</stillframe>
                  <samplecharacteristics>
                    <width>1920</width>
                    <height>1080</height>
                  </samplecharacteristics>
                </video>
              </media>
            </file>
            <sourcetrack>
              <mediatype>video</mediatype>
            </sourcetrack>
            <itemhistory>
              <uuid>76A11DCD-7B49-6A98-64E0-731A315C2F3A</uuid>
            </itemhistory>
          </clipitem>
          <clipitem id="MM_145_FOTOS_R1-00015">
            <name>MM_145_FOTOS_R1-00015</name>
            <duration>136</duration>
            <rate>
              <ntsc>FALSE</ntsc>
              <timebase>25</timebase>
            </rate>
            <in>0</in>
            <out>136</out>
            <start>1157</start>
            <end>1293</end>
            <pixelaspectratio>Square</pixelaspectratio>
            <stillframe>FALSE</stillframe>
            <enabled>TRUE</enabled>
            <anamorphic>FALSE</anamorphic>
            <alphatype>straight</alphatype>
            <file id="MM_145_FOTOS_R1-00015 1">
              <name>MM_145_FOTOS_R1-00015.mov</name>
              <pathurl>file://localhost/C:/Users/usuario/Dropbox%20(BigBangBoxSL)/PROYECTOS/My%20preschool%20monster%20serie/PRODUCCION/Story/EPISODIOS/FOTOS/XML/MM_145_FOTOS_R1-00015.mov</pathurl>
              <rate>
                <timebase>25</timebase>
              </rate>
              <duration>136</duration>
              <width>1920</width>
              <height>1080</height>
              <media>
                <video>
                  <duration>136</duration>
                  <stillframe>FALSE</stillframe>
                  <samplecharacteristics>
                    <width>1920</width>
                    <height>1080</height>
                  </samplecharacteristics>
                </video>
              </media>
            </file>
            <sourcetrack>
              <mediatype>video</mediatype>
            </sourcetrack>
            <itemhistory>
              <uuid>325351DE-46B8-64A5-3B05-0754F5BA7741</uuid>
            </itemhistory>
          </clipitem>
          <clipitem id="MM_145_FOTOS_R1-00016">
            <name>MM_145_FOTOS_R1-00016</name>
            <duration>54</duration>
            <rate>
              <ntsc>FALSE</ntsc>
              <timebase>25</timebase>
            </rate>
            <in>0</in>
            <out>54</out>
            <start>1293</start>
            <end>1347</end>
            <pixelaspectratio>Square</pixelaspectratio>
            <stillframe>FALSE</stillframe>
            <enabled>TRUE</enabled>
            <anamorphic>FALSE</anamorphic>
            <alphatype>straight</alphatype>
            <file id="MM_145_FOTOS_R1-00016 1">
              <name>MM_145_FOTOS_R1-00016.mov</name>
              <pathurl>file://localhost/C:/Users/usuario/Dropbox%20(BigBangBoxSL)/PROYECTOS/My%20preschool%20monster%20serie/PRODUCCION/Story/EPISODIOS/FOTOS/XML/MM_145_FOTOS_R1-00016.mov</pathurl>
              <rate>
                <timebase>25</timebase>
              </rate>
              <duration>54</duration>
              <width>1920</width>
              <height>1080</height>
              <media>
                <video>
                  <duration>54</duration>
                  <stillframe>FALSE</stillframe>
                  <samplecharacteristics>
                    <width>1920</width>
                    <height>1080</height>
                  </samplecharacteristics>
                </video>
              </media>
            </file>
            <sourcetrack>
              <mediatype>video</mediatype>
            </sourcetrack>
            <itemhistory>
              <uuid>8F982975-28AD-1CDC-7A39-415B68FC2E81</uuid>
            </itemhistory>
          </clipitem>
          <clipitem id="MM_145_FOTOS_R1-00017">
            <name>MM_145_FOTOS_R1-00017</name>
            <duration>87</duration>
            <rate>
              <ntsc>FALSE</ntsc>
              <timebase>25</timebase>
            </rate>
            <in>0</in>
            <out>87</out>
            <start>1347</start>
            <end>1434</end>
            <pixelaspectratio>Square</pixelaspectratio>
            <stillframe>FALSE</stillframe>
            <enabled>TRUE</enabled>
            <anamorphic>FALSE</anamorphic>
            <alphatype>straight</alphatype>
            <file id="MM_145_FOTOS_R1-00017 1">
              <name>MM_145_FOTOS_R1-00017.mov</name>
              <pathurl>file://localhost/C:/Users/usuario/Dropbox%20(BigBangBoxSL)/PROYECTOS/My%20preschool%20monster%20serie/PRODUCCION/Story/EPISODIOS/FOTOS/XML/MM_145_FOTOS_R1-00017.mov</pathurl>
              <rate>
                <timebase>25</timebase>
              </rate>
              <duration>87</duration>
              <width>1920</width>
              <height>1080</height>
              <media>
                <video>
                  <duration>87</duration>
                  <stillframe>FALSE</stillframe>
                  <samplecharacteristics>
                    <width>1920</width>
                    <height>1080</height>
                  </samplecharacteristics>
                </video>
              </media>
            </file>
            <sourcetrack>
              <mediatype>video</mediatype>
            </sourcetrack>
            <itemhistory>
              <uuid>5FCC110C-3CC9-2D8D-39B0-3E1717642813</uuid>
            </itemhistory>
          </clipitem>
          <clipitem id="MM_145_FOTOS_R1-00018">
            <name>MM_145_FOTOS_R1-00018</name>
            <duration>95</duration>
            <rate>
              <ntsc>FALSE</ntsc>
              <timebase>25</timebase>
            </rate>
            <in>0</in>
            <out>95</out>
            <start>1434</start>
            <end>1529</end>
            <pixelaspectratio>Square</pixelaspectratio>
            <stillframe>FALSE</stillframe>
            <enabled>TRUE</enabled>
            <anamorphic>FALSE</anamorphic>
            <alphatype>straight</alphatype>
            <file id="MM_145_FOTOS_R1-00018 1">
              <name>MM_145_FOTOS_R1-00018.mov</name>
              <pathurl>file://localhost/C:/Users/usuario/Dropbox%20(BigBangBoxSL)/PROYECTOS/My%20preschool%20monster%20serie/PRODUCCION/Story/EPISODIOS/FOTOS/XML/MM_145_FOTOS_R1-00018.mov</pathurl>
              <rate>
                <timebase>25</timebase>
              </rate>
              <duration>95</duration>
              <width>1920</width>
              <height>1080</height>
              <media>
                <video>
                  <duration>95</duration>
                  <stillframe>FALSE</stillframe>
                  <samplecharacteristics>
                    <width>1920</width>
                    <height>1080</height>
                  </samplecharacteristics>
                </video>
              </media>
            </file>
            <sourcetrack>
              <mediatype>video</mediatype>
            </sourcetrack>
            <itemhistory>
              <uuid>72F62B56-2E09-3033-7D9E-49262D364C1B</uuid>
            </itemhistory>
          </clipitem>
          <clipitem id="MM_145_FOTOS_R1-00019">
            <name>MM_145_FOTOS_R1-00019</name>
            <duration>370</duration>
            <rate>
              <ntsc>FALSE</ntsc>
              <timebase>25</timebase>
            </rate>
            <in>0</in>
            <out>370</out>
            <start>1529</start>
            <end>1899</end>
            <pixelaspectratio>Square</pixelaspectratio>
            <stillframe>FALSE</stillframe>
            <enabled>TRUE</enabled>
            <anamorphic>FALSE</anamorphic>
            <alphatype>straight</alphatype>
            <file id="MM_145_FOTOS_R1-00019 1">
              <name>MM_145_FOTOS_R1-00019.mov</name>
              <pathurl>file://localhost/C:/Users/usuario/Dropbox%20(BigBangBoxSL)/PROYECTOS/My%20preschool%20monster%20serie/PRODUCCION/Story/EPISODIOS/FOTOS/XML/MM_145_FOTOS_R1-00019.mov</pathurl>
              <rate>
                <timebase>25</timebase>
              </rate>
              <duration>370</duration>
              <width>1920</width>
              <height>1080</height>
              <media>
                <video>
                  <duration>370</duration>
                  <stillframe>FALSE</stillframe>
                  <samplecharacteristics>
                    <width>1920</width>
                    <height>1080</height>
                  </samplecharacteristics>
                </video>
              </media>
            </file>
            <sourcetrack>
              <mediatype>video</mediatype>
            </sourcetrack>
            <itemhistory>
              <uuid>4B9921A4-4C87-1586-3C83-657363552332</uuid>
            </itemhistory>
          </clipitem>
          <clipitem id="MM_145_FOTOS_R1-00020">
            <name>MM_145_FOTOS_R1-00020</name>
            <duration>174</duration>
            <rate>
              <ntsc>FALSE</ntsc>
              <timebase>25</timebase>
            </rate>
            <in>0</in>
            <out>174</out>
            <start>1899</start>
            <end>2073</end>
            <pixelaspectratio>Square</pixelaspectratio>
            <stillframe>FALSE</stillframe>
            <enabled>TRUE</enabled>
            <anamorphic>FALSE</anamorphic>
            <alphatype>straight</alphatype>
            <file id="MM_145_FOTOS_R1-00020 1">
              <name>MM_145_FOTOS_R1-00020.mov</name>
              <pathurl>file://localhost/C:/Users/usuario/Dropbox%20(BigBangBoxSL)/PROYECTOS/My%20preschool%20monster%20serie/PRODUCCION/Story/EPISODIOS/FOTOS/XML/MM_145_FOTOS_R1-00020.mov</pathurl>
              <rate>
                <timebase>25</timebase>
              </rate>
              <duration>174</duration>
              <width>1920</width>
              <height>1080</height>
              <media>
                <video>
                  <duration>174</duration>
                  <stillframe>FALSE</stillframe>
                  <samplecharacteristics>
                    <width>1920</width>
                    <height>1080</height>
                  </samplecharacteristics>
                </video>
              </media>
            </file>
            <sourcetrack>
              <mediatype>video</mediatype>
            </sourcetrack>
            <itemhistory>
              <uuid>715457C6-290A-57A6-428F-74494A3C3A32</uuid>
            </itemhistory>
          </clipitem>
          <clipitem id="MM_145_FOTOS_R1-00021">
            <name>MM_145_FOTOS_R1-00021</name>
            <duration>167</duration>
            <rate>
              <ntsc>FALSE</ntsc>
              <timebase>25</timebase>
            </rate>
            <in>0</in>
            <out>167</out>
            <start>2073</start>
            <end>2240</end>
            <pixelaspectratio>Square</pixelaspectratio>
            <stillframe>FALSE</stillframe>
            <enabled>TRUE</enabled>
            <anamorphic>FALSE</anamorphic>
            <alphatype>straight</alphatype>
            <file id="MM_145_FOTOS_R1-00021 1">
              <name>MM_145_FOTOS_R1-00021.mov</name>
              <pathurl>file://localhost/C:/Users/usuario/Dropbox%20(BigBangBoxSL)/PROYECTOS/My%20preschool%20monster%20serie/PRODUCCION/Story/EPISODIOS/FOTOS/XML/MM_145_FOTOS_R1-00021.mov</pathurl>
              <rate>
                <timebase>25</timebase>
              </rate>
              <duration>167</duration>
              <width>1920</width>
              <height>1080</height>
              <media>
                <video>
                  <duration>167</duration>
                  <stillframe>FALSE</stillframe>
                  <samplecharacteristics>
                    <width>1920</width>
                    <height>1080</height>
                  </samplecharacteristics>
                </video>
              </media>
            </file>
            <sourcetrack>
              <mediatype>video</mediatype>
            </sourcetrack>
            <itemhistory>
              <uuid>5FC84E7A-4866-4EDE-36FC-486F24A276F2</uuid>
            </itemhistory>
          </clipitem>
          <clipitem id="MM_145_FOTOS_R1-00022">
            <name>MM_145_FOTOS_R1-00022</name>
            <duration>33</duration>
            <rate>
              <ntsc>FALSE</ntsc>
              <timebase>25</timebase>
            </rate>
            <in>0</in>
            <out>33</out>
            <start>2240</start>
            <end>2273</end>
            <pixelaspectratio>Square</pixelaspectratio>
            <stillframe>FALSE</stillframe>
            <enabled>TRUE</enabled>
            <anamorphic>FALSE</anamorphic>
            <alphatype>straight</alphatype>
            <file id="MM_145_FOTOS_R1-00022 1">
              <name>MM_145_FOTOS_R1-00022.mov</name>
              <pathurl>file://localhost/C:/Users/usuario/Dropbox%20(BigBangBoxSL)/PROYECTOS/My%20preschool%20monster%20serie/PRODUCCION/Story/EPISODIOS/FOTOS/XML/MM_145_FOTOS_R1-00022.mov</pathurl>
              <rate>
                <timebase>25</timebase>
              </rate>
              <duration>33</duration>
              <width>1920</width>
              <height>1080</height>
              <media>
                <video>
                  <duration>33</duration>
                  <stillframe>FALSE</stillframe>
                  <samplecharacteristics>
                    <width>1920</width>
                    <height>1080</height>
                  </samplecharacteristics>
                </video>
              </media>
            </file>
            <sourcetrack>
              <mediatype>video</mediatype>
            </sourcetrack>
            <itemhistory>
              <uuid>23ED38B8-71FE-3321-723A-52D04BFC379E</uuid>
            </itemhistory>
          </clipitem>
          <clipitem id="MM_145_FOTOS_R1-00023">
            <name>MM_145_FOTOS_R1-00023</name>
            <duration>548</duration>
            <rate>
              <ntsc>FALSE</ntsc>
              <timebase>25</timebase>
            </rate>
            <in>0</in>
            <out>548</out>
            <start>2273</start>
            <end>2821</end>
            <pixelaspectratio>Square</pixelaspectratio>
            <stillframe>FALSE</stillframe>
            <enabled>TRUE</enabled>
            <anamorphic>FALSE</anamorphic>
            <alphatype>straight</alphatype>
            <file id="MM_145_FOTOS_R1-00023 1">
              <name>MM_145_FOTOS_R1-00023.mov</name>
              <pathurl>file://localhost/C:/Users/usuario/Dropbox%20(BigBangBoxSL)/PROYECTOS/My%20preschool%20monster%20serie/PRODUCCION/Story/EPISODIOS/FOTOS/XML/MM_145_FOTOS_R1-00023.mov</pathurl>
              <rate>
                <timebase>25</timebase>
              </rate>
              <duration>548</duration>
              <width>1920</width>
              <height>1080</height>
              <media>
                <video>
                  <duration>548</duration>
                  <stillframe>FALSE</stillframe>
                  <samplecharacteristics>
                    <width>1920</width>
                    <height>1080</height>
                  </samplecharacteristics>
                </video>
              </media>
            </file>
            <sourcetrack>
              <mediatype>video</mediatype>
            </sourcetrack>
            <itemhistory>
              <uuid>3B9A397D-144E-499F-13AF-FE8EB12D9418</uuid>
            </itemhistory>
          </clipitem>
          <clipitem id="MM_145_FOTOS_R1-00024">
            <name>MM_145_FOTOS_R1-00024</name>
            <duration>190</duration>
            <rate>
              <ntsc>FALSE</ntsc>
              <timebase>25</timebase>
            </rate>
            <in>0</in>
            <out>190</out>
            <start>2821</start>
            <end>3011</end>
            <pixelaspectratio>Square</pixelaspectratio>
            <stillframe>FALSE</stillframe>
            <enabled>TRUE</enabled>
            <anamorphic>FALSE</anamorphic>
            <alphatype>straight</alphatype>
            <file id="MM_145_FOTOS_R1-00024 1">
              <name>MM_145_FOTOS_R1-00024.mov</name>
              <pathurl>file://localhost/C:/Users/usuario/Dropbox%20(BigBangBoxSL)/PROYECTOS/My%20preschool%20monster%20serie/PRODUCCION/Story/EPISODIOS/FOTOS/XML/MM_145_FOTOS_R1-00024.mov</pathurl>
              <rate>
                <timebase>25</timebase>
              </rate>
              <duration>190</duration>
              <width>1920</width>
              <height>1080</height>
              <media>
                <video>
                  <duration>190</duration>
                  <stillframe>FALSE</stillframe>
                  <samplecharacteristics>
                    <width>1920</width>
                    <height>1080</height>
                  </samplecharacteristics>
                </video>
              </media>
            </file>
            <sourcetrack>
              <mediatype>video</mediatype>
            </sourcetrack>
            <itemhistory>
              <uuid>25E77C91-240A-4047-1747-336F3DF97BAD</uuid>
            </itemhistory>
          </clipitem>
          <clipitem id="MM_145_FOTOS_R1-00025">
            <name>MM_145_FOTOS_R1-00025</name>
            <duration>106</duration>
            <rate>
              <ntsc>FALSE</ntsc>
              <timebase>25</timebase>
            </rate>
            <in>0</in>
            <out>106</out>
            <start>3011</start>
            <end>3117</end>
            <pixelaspectratio>Square</pixelaspectratio>
            <stillframe>FALSE</stillframe>
            <enabled>TRUE</enabled>
            <anamorphic>FALSE</anamorphic>
            <alphatype>straight</alphatype>
            <file id="MM_145_FOTOS_R1-00025 1">
              <name>MM_145_FOTOS_R1-00025.mov</name>
              <pathurl>file://localhost/C:/Users/usuario/Dropbox%20(BigBangBoxSL)/PROYECTOS/My%20preschool%20monster%20serie/PRODUCCION/Story/EPISODIOS/FOTOS/XML/MM_145_FOTOS_R1-00025.mov</pathurl>
              <rate>
                <timebase>25</timebase>
              </rate>
              <duration>106</duration>
              <width>1920</width>
              <height>1080</height>
              <media>
                <video>
                  <duration>106</duration>
                  <stillframe>FALSE</stillframe>
                  <samplecharacteristics>
                    <width>1920</width>
                    <height>1080</height>
                  </samplecharacteristics>
                </video>
              </media>
            </file>
            <sourcetrack>
              <mediatype>video</mediatype>
            </sourcetrack>
            <itemhistory>
              <uuid>14896A2C-30EF-5D6A-78DC-14D61B1A3376</uuid>
            </itemhistory>
          </clipitem>
          <clipitem id="MM_145_FOTOS_R1-00026">
            <name>MM_145_FOTOS_R1-00026</name>
            <duration>345</duration>
            <rate>
              <ntsc>FALSE</ntsc>
              <timebase>25</timebase>
            </rate>
            <in>0</in>
            <out>345</out>
            <start>3117</start>
            <end>3462</end>
            <pixelaspectratio>Square</pixelaspectratio>
            <stillframe>FALSE</stillframe>
            <enabled>TRUE</enabled>
            <anamorphic>FALSE</anamorphic>
            <alphatype>straight</alphatype>
            <file id="MM_145_FOTOS_R1-00026 1">
              <name>MM_145_FOTOS_R1-00026.mov</name>
              <pathurl>file://localhost/C:/Users/usuario/Dropbox%20(BigBangBoxSL)/PROYECTOS/My%20preschool%20monster%20serie/PRODUCCION/Story/EPISODIOS/FOTOS/XML/MM_145_FOTOS_R1-00026.mov</pathurl>
              <rate>
                <timebase>25</timebase>
              </rate>
              <duration>345</duration>
              <width>1920</width>
              <height>1080</height>
              <media>
                <video>
                  <duration>345</duration>
                  <stillframe>FALSE</stillframe>
                  <samplecharacteristics>
                    <width>1920</width>
                    <height>1080</height>
                  </samplecharacteristics>
                </video>
              </media>
            </file>
            <sourcetrack>
              <mediatype>video</mediatype>
            </sourcetrack>
            <itemhistory>
              <uuid>48C52FD9-2A03-4D6B-336D-E392A10E6537</uuid>
            </itemhistory>
          </clipitem>
          <clipitem id="MM_145_FOTOS_R1-00027">
            <name>MM_145_FOTOS_R1-00027</name>
            <duration>43</duration>
            <rate>
              <ntsc>FALSE</ntsc>
              <timebase>25</timebase>
            </rate>
            <in>0</in>
            <out>43</out>
            <start>3462</start>
            <end>3505</end>
            <pixelaspectratio>Square</pixelaspectratio>
            <stillframe>FALSE</stillframe>
            <enabled>TRUE</enabled>
            <anamorphic>FALSE</anamorphic>
            <alphatype>straight</alphatype>
            <file id="MM_145_FOTOS_R1-00027 1">
              <name>MM_145_FOTOS_R1-00027.mov</name>
              <pathurl>file://localhost/C:/Users/usuario/Dropbox%20(BigBangBoxSL)/PROYECTOS/My%20preschool%20monster%20serie/PRODUCCION/Story/EPISODIOS/FOTOS/XML/MM_145_FOTOS_R1-00027.mov</pathurl>
              <rate>
                <timebase>25</timebase>
              </rate>
              <duration>43</duration>
              <width>1920</width>
              <height>1080</height>
              <media>
                <video>
                  <duration>43</duration>
                  <stillframe>FALSE</stillframe>
                  <samplecharacteristics>
                    <width>1920</width>
                    <height>1080</height>
                  </samplecharacteristics>
                </video>
              </media>
            </file>
            <sourcetrack>
              <mediatype>video</mediatype>
            </sourcetrack>
            <itemhistory>
              <uuid>35975135-67B4-4D09-47FD-806D1831B75F</uuid>
            </itemhistory>
          </clipitem>
          <clipitem id="MM_145_FOTOS_R1-00028">
            <name>MM_145_FOTOS_R1-00028</name>
            <duration>116</duration>
            <rate>
              <ntsc>FALSE</ntsc>
              <timebase>25</timebase>
            </rate>
            <in>0</in>
            <out>116</out>
            <start>3505</start>
            <end>3621</end>
            <pixelaspectratio>Square</pixelaspectratio>
            <stillframe>FALSE</stillframe>
            <enabled>TRUE</enabled>
            <anamorphic>FALSE</anamorphic>
            <alphatype>straight</alphatype>
            <file id="MM_145_FOTOS_R1-00028 1">
              <name>MM_145_FOTOS_R1-00028.mov</name>
              <pathurl>file://localhost/C:/Users/usuario/Dropbox%20(BigBangBoxSL)/PROYECTOS/My%20preschool%20monster%20serie/PRODUCCION/Story/EPISODIOS/FOTOS/XML/MM_145_FOTOS_R1-00028.mov</pathurl>
              <rate>
                <timebase>25</timebase>
              </rate>
              <duration>116</duration>
              <width>1920</width>
              <height>1080</height>
              <media>
                <video>
                  <duration>116</duration>
                  <stillframe>FALSE</stillframe>
                  <samplecharacteristics>
                    <width>1920</width>
                    <height>1080</height>
                  </samplecharacteristics>
                </video>
              </media>
            </file>
            <sourcetrack>
              <mediatype>video</mediatype>
            </sourcetrack>
            <itemhistory>
              <uuid>12DC5225-487F-428E-1A26-93F45DC36F96</uuid>
            </itemhistory>
          </clipitem>
          <clipitem id="MM_145_FOTOS_R1-00029">
            <name>MM_145_FOTOS_R1-00029</name>
            <duration>51</duration>
            <rate>
              <ntsc>FALSE</ntsc>
              <timebase>25</timebase>
            </rate>
            <in>0</in>
            <out>51</out>
            <start>3621</start>
            <end>3672</end>
            <pixelaspectratio>Square</pixelaspectratio>
            <stillframe>FALSE</stillframe>
            <enabled>TRUE</enabled>
            <anamorphic>FALSE</anamorphic>
            <alphatype>straight</alphatype>
            <file id="MM_145_FOTOS_R1-00029 1">
              <name>MM_145_FOTOS_R1-00029.mov</name>
              <pathurl>file://localhost/C:/Users/usuario/Dropbox%20(BigBangBoxSL)/PROYECTOS/My%20preschool%20monster%20serie/PRODUCCION/Story/EPISODIOS/FOTOS/XML/MM_145_FOTOS_R1-00029.mov</pathurl>
              <rate>
                <timebase>25</timebase>
              </rate>
              <duration>51</duration>
              <width>1920</width>
              <height>1080</height>
              <media>
                <video>
                  <duration>51</duration>
                  <stillframe>FALSE</stillframe>
                  <samplecharacteristics>
                    <width>1920</width>
                    <height>1080</height>
                  </samplecharacteristics>
                </video>
              </media>
            </file>
            <sourcetrack>
              <mediatype>video</mediatype>
            </sourcetrack>
            <itemhistory>
              <uuid>CB9C4C81-4820-7AF6-39F9-605B1BFA170C</uuid>
            </itemhistory>
          </clipitem>
          <clipitem id="MM_145_FOTOS_R1-00030">
            <name>MM_145_FOTOS_R1-00030</name>
            <duration>209</duration>
            <rate>
              <ntsc>FALSE</ntsc>
              <timebase>25</timebase>
            </rate>
            <in>0</in>
            <out>209</out>
            <start>3672</start>
            <end>3881</end>
            <pixelaspectratio>Square</pixelaspectratio>
            <stillframe>FALSE</stillframe>
            <enabled>TRUE</enabled>
            <anamorphic>FALSE</anamorphic>
            <alphatype>straight</alphatype>
            <file id="MM_145_FOTOS_R1-00030 1">
              <name>MM_145_FOTOS_R1-00030.mov</name>
              <pathurl>file://localhost/C:/Users/usuario/Dropbox%20(BigBangBoxSL)/PROYECTOS/My%20preschool%20monster%20serie/PRODUCCION/Story/EPISODIOS/FOTOS/XML/MM_145_FOTOS_R1-00030.mov</pathurl>
              <rate>
                <timebase>25</timebase>
              </rate>
              <duration>209</duration>
              <width>1920</width>
              <height>1080</height>
              <media>
                <video>
                  <duration>209</duration>
                  <stillframe>FALSE</stillframe>
                  <samplecharacteristics>
                    <width>1920</width>
                    <height>1080</height>
                  </samplecharacteristics>
                </video>
              </media>
            </file>
            <sourcetrack>
              <mediatype>video</mediatype>
            </sourcetrack>
            <itemhistory>
              <uuid>2F73143D-4A1D-66BD-6D41-266441BA38A7</uuid>
            </itemhistory>
          </clipitem>
          <clipitem id="MM_145_FOTOS_R1-00031">
            <name>MM_145_FOTOS_R1-00031</name>
            <duration>196</duration>
            <rate>
              <ntsc>FALSE</ntsc>
              <timebase>25</timebase>
            </rate>
            <in>0</in>
            <out>196</out>
            <start>3881</start>
            <end>4077</end>
            <pixelaspectratio>Square</pixelaspectratio>
            <stillframe>FALSE</stillframe>
            <enabled>TRUE</enabled>
            <anamorphic>FALSE</anamorphic>
            <alphatype>straight</alphatype>
            <file id="MM_145_FOTOS_R1-00031 1">
              <name>MM_145_FOTOS_R1-00031.mov</name>
              <pathurl>file://localhost/C:/Users/usuario/Dropbox%20(BigBangBoxSL)/PROYECTOS/My%20preschool%20monster%20serie/PRODUCCION/Story/EPISODIOS/FOTOS/XML/MM_145_FOTOS_R1-00031.mov</pathurl>
              <rate>
                <timebase>25</timebase>
              </rate>
              <duration>196</duration>
              <width>1920</width>
              <height>1080</height>
              <media>
                <video>
                  <duration>196</duration>
                  <stillframe>FALSE</stillframe>
                  <samplecharacteristics>
                    <width>1920</width>
                    <height>1080</height>
                  </samplecharacteristics>
                </video>
              </media>
            </file>
            <sourcetrack>
              <mediatype>video</mediatype>
            </sourcetrack>
            <itemhistory>
              <uuid>65DB2A39-4510-2BCE-4608-1DEE355C7B7E</uuid>
            </itemhistory>
          </clipitem>
          <clipitem id="MM_145_FOTOS_R1-00032">
            <name>MM_145_FOTOS_R1-00032</name>
            <duration>202</duration>
            <rate>
              <ntsc>FALSE</ntsc>
              <timebase>25</timebase>
            </rate>
            <in>0</in>
            <out>202</out>
            <start>4077</start>
            <end>4279</end>
            <pixelaspectratio>Square</pixelaspectratio>
            <stillframe>FALSE</stillframe>
            <enabled>TRUE</enabled>
            <anamorphic>FALSE</anamorphic>
            <alphatype>straight</alphatype>
            <file id="MM_145_FOTOS_R1-00032 1">
              <name>MM_145_FOTOS_R1-00032.mov</name>
              <pathurl>file://localhost/C:/Users/usuario/Dropbox%20(BigBangBoxSL)/PROYECTOS/My%20preschool%20monster%20serie/PRODUCCION/Story/EPISODIOS/FOTOS/XML/MM_145_FOTOS_R1-00032.mov</pathurl>
              <rate>
                <timebase>25</timebase>
              </rate>
              <duration>202</duration>
              <width>1920</width>
              <height>1080</height>
              <media>
                <video>
                  <duration>202</duration>
                  <stillframe>FALSE</stillframe>
                  <samplecharacteristics>
                    <width>1920</width>
                    <height>1080</height>
                  </samplecharacteristics>
                </video>
              </media>
            </file>
            <sourcetrack>
              <mediatype>video</mediatype>
            </sourcetrack>
            <itemhistory>
              <uuid>4BE86E18-7A6E-227F-22B5-6392741E5CE6</uuid>
            </itemhistory>
          </clipitem>
          <clipitem id="MM_145_FOTOS_R1-00033">
            <name>MM_145_FOTOS_R1-00033</name>
            <duration>82</duration>
            <rate>
              <ntsc>FALSE</ntsc>
              <timebase>25</timebase>
            </rate>
            <in>0</in>
            <out>82</out>
            <start>4279</start>
            <end>4361</end>
            <pixelaspectratio>Square</pixelaspectratio>
            <stillframe>FALSE</stillframe>
            <enabled>TRUE</enabled>
            <anamorphic>FALSE</anamorphic>
            <alphatype>straight</alphatype>
            <file id="MM_145_FOTOS_R1-00033 1">
              <name>MM_145_FOTOS_R1-00033.mov</name>
              <pathurl>file://localhost/C:/Users/usuario/Dropbox%20(BigBangBoxSL)/PROYECTOS/My%20preschool%20monster%20serie/PRODUCCION/Story/EPISODIOS/FOTOS/XML/MM_145_FOTOS_R1-00033.mov</pathurl>
              <rate>
                <timebase>25</timebase>
              </rate>
              <duration>82</duration>
              <width>1920</width>
              <height>1080</height>
              <media>
                <video>
                  <duration>82</duration>
                  <stillframe>FALSE</stillframe>
                  <samplecharacteristics>
                    <width>1920</width>
                    <height>1080</height>
                  </samplecharacteristics>
                </video>
              </media>
            </file>
            <sourcetrack>
              <mediatype>video</mediatype>
            </sourcetrack>
            <itemhistory>
              <uuid>50AA4DE2-1C13-7BB8-349D-E8FC7AFE62D9</uuid>
            </itemhistory>
          </clipitem>
          <clipitem id="MM_145_FOTOS_R1-00034">
            <name>MM_145_FOTOS_R1-00034</name>
            <duration>74</duration>
            <rate>
              <ntsc>FALSE</ntsc>
              <timebase>25</timebase>
            </rate>
            <in>0</in>
            <out>74</out>
            <start>4361</start>
            <end>4435</end>
            <pixelaspectratio>Square</pixelaspectratio>
            <stillframe>FALSE</stillframe>
            <enabled>TRUE</enabled>
            <anamorphic>FALSE</anamorphic>
            <alphatype>straight</alphatype>
            <file id="MM_145_FOTOS_R1-00034 1">
              <name>MM_145_FOTOS_R1-00034.mov</name>
              <pathurl>file://localhost/C:/Users/usuario/Dropbox%20(BigBangBoxSL)/PROYECTOS/My%20preschool%20monster%20serie/PRODUCCION/Story/EPISODIOS/FOTOS/XML/MM_145_FOTOS_R1-00034.mov</pathurl>
              <rate>
                <timebase>25</timebase>
              </rate>
              <duration>74</duration>
              <width>1920</width>
              <height>1080</height>
              <media>
                <video>
                  <duration>74</duration>
                  <stillframe>FALSE</stillframe>
                  <samplecharacteristics>
                    <width>1920</width>
                    <height>1080</height>
                  </samplecharacteristics>
                </video>
              </media>
            </file>
            <sourcetrack>
              <mediatype>video</mediatype>
            </sourcetrack>
            <itemhistory>
              <uuid>0C6C3FED-5AE7-33E2-703F-3172308843A0</uuid>
            </itemhistory>
          </clipitem>
          <clipitem id="MM_145_FOTOS_R1-00035">
            <name>MM_145_FOTOS_R1-00035</name>
            <duration>150</duration>
            <rate>
              <ntsc>FALSE</ntsc>
              <timebase>25</timebase>
            </rate>
            <in>0</in>
            <out>150</out>
            <start>4435</start>
            <end>4585</end>
            <pixelaspectratio>Square</pixelaspectratio>
            <stillframe>FALSE</stillframe>
            <enabled>TRUE</enabled>
            <anamorphic>FALSE</anamorphic>
            <alphatype>straight</alphatype>
            <file id="MM_145_FOTOS_R1-00035 1">
              <name>MM_145_FOTOS_R1-00035.mov</name>
              <pathurl>file://localhost/C:/Users/usuario/Dropbox%20(BigBangBoxSL)/PROYECTOS/My%20preschool%20monster%20serie/PRODUCCION/Story/EPISODIOS/FOTOS/XML/MM_145_FOTOS_R1-00035.mov</pathurl>
              <rate>
                <timebase>25</timebase>
              </rate>
              <duration>150</duration>
              <width>1920</width>
              <height>1080</height>
              <media>
                <video>
                  <duration>150</duration>
                  <stillframe>FALSE</stillframe>
                  <samplecharacteristics>
                    <width>1920</width>
                    <height>1080</height>
                  </samplecharacteristics>
                </video>
              </media>
            </file>
            <sourcetrack>
              <mediatype>video</mediatype>
            </sourcetrack>
            <itemhistory>
              <uuid>DB1A4398-12D0-7A03-2ABF-774A2745720C</uuid>
            </itemhistory>
          </clipitem>
          <clipitem id="MM_145_FOTOS_R1-00036">
            <name>MM_145_FOTOS_R1-00036</name>
            <duration>89</duration>
            <rate>
              <ntsc>FALSE</ntsc>
              <timebase>25</timebase>
            </rate>
            <in>0</in>
            <out>89</out>
            <start>4585</start>
            <end>4674</end>
            <pixelaspectratio>Square</pixelaspectratio>
            <stillframe>FALSE</stillframe>
            <enabled>TRUE</enabled>
            <anamorphic>FALSE</anamorphic>
            <alphatype>straight</alphatype>
            <file id="MM_145_FOTOS_R1-00036 1">
              <name>MM_145_FOTOS_R1-00036.mov</name>
              <pathurl>file://localhost/C:/Users/usuario/Dropbox%20(BigBangBoxSL)/PROYECTOS/My%20preschool%20monster%20serie/PRODUCCION/Story/EPISODIOS/FOTOS/XML/MM_145_FOTOS_R1-00036.mov</pathurl>
              <rate>
                <timebase>25</timebase>
              </rate>
              <duration>89</duration>
              <width>1920</width>
              <height>1080</height>
              <media>
                <video>
                  <duration>89</duration>
                  <stillframe>FALSE</stillframe>
                  <samplecharacteristics>
                    <width>1920</width>
                    <height>1080</height>
                  </samplecharacteristics>
                </video>
              </media>
            </file>
            <sourcetrack>
              <mediatype>video</mediatype>
            </sourcetrack>
            <itemhistory>
              <uuid>26951667-2F60-232B-5D6E-B474FCEE760C</uuid>
            </itemhistory>
          </clipitem>
          <clipitem id="MM_145_FOTOS_R1-00037">
            <name>MM_145_FOTOS_R1-00037</name>
            <duration>92</duration>
            <rate>
              <ntsc>FALSE</ntsc>
              <timebase>25</timebase>
            </rate>
            <in>0</in>
            <out>92</out>
            <start>4674</start>
            <end>4766</end>
            <pixelaspectratio>Square</pixelaspectratio>
            <stillframe>FALSE</stillframe>
            <enabled>TRUE</enabled>
            <anamorphic>FALSE</anamorphic>
            <alphatype>straight</alphatype>
            <file id="MM_145_FOTOS_R1-00037 1">
              <name>MM_145_FOTOS_R1-00037.mov</name>
              <pathurl>file://localhost/C:/Users/usuario/Dropbox%20(BigBangBoxSL)/PROYECTOS/My%20preschool%20monster%20serie/PRODUCCION/Story/EPISODIOS/FOTOS/XML/MM_145_FOTOS_R1-00037.mov</pathurl>
              <rate>
                <timebase>25</timebase>
              </rate>
              <duration>92</duration>
              <width>1920</width>
              <height>1080</height>
              <media>
                <video>
                  <duration>92</duration>
                  <stillframe>FALSE</stillframe>
                  <samplecharacteristics>
                    <width>1920</width>
                    <height>1080</height>
                  </samplecharacteristics>
                </video>
              </media>
            </file>
            <sourcetrack>
              <mediatype>video</mediatype>
            </sourcetrack>
            <itemhistory>
              <uuid>3F477C13-59CE-1E85-5A53-4D5A12111BF7</uuid>
            </itemhistory>
          </clipitem>
          <clipitem id="MM_145_FOTOS_R1-00038">
            <name>MM_145_FOTOS_R1-00038</name>
            <duration>511</duration>
            <rate>
              <ntsc>FALSE</ntsc>
              <timebase>25</timebase>
            </rate>
            <in>0</in>
            <out>511</out>
            <start>4766</start>
            <end>-1</end>
            <pixelaspectratio>Square</pixelaspectratio>
            <stillframe>FALSE</stillframe>
            <enabled>TRUE</enabled>
            <anamorphic>FALSE</anamorphic>
            <alphatype>straight</alphatype>
            <file id="MM_145_FOTOS_R1-00038 1">
              <name>MM_145_FOTOS_R1-00038.mov</name>
              <pathurl>file://localhost/C:/Users/usuario/Dropbox%20(BigBangBoxSL)/PROYECTOS/My%20preschool%20monster%20serie/PRODUCCION/Story/EPISODIOS/FOTOS/XML/MM_145_FOTOS_R1-00038.mov</pathurl>
              <rate>
                <timebase>25</timebase>
              </rate>
              <duration>511</duration>
              <width>1920</width>
              <height>1080</height>
              <media>
                <video>
                  <duration>511</duration>
                  <stillframe>FALSE</stillframe>
                  <samplecharacteristics>
                    <width>1920</width>
                    <height>1080</height>
                  </samplecharacteristics>
                </video>
              </media>
            </file>
            <sourcetrack>
              <mediatype>video</mediatype>
            </sourcetrack>
            <itemhistory>
              <uuid>3AA964BA-4BF6-4B5C-6B4C-24795B957F48</uuid>
            </itemhistory>
          </clipitem>
          <transitionitem>
            <rate>
              <ntsc>FALSE</ntsc>
              <timebase>25</timebase>
            </rate>
            <start>5260</start>
            <end>5277</end>
            <effect>
              <name>Cross Dissolve</name>
              <effectid>Cross Dissolve</effectid>
              <effectcategory>Dissolve</effectcategory>
              <effecttype>transition</effecttype>
              <mediatype>video</mediatype>
            </effect>
          </transitionitem>
          <clipitem id="MM_145_FOTOS_R1-00039">
            <name>MM_145_FOTOS_R1-00039</name>
            <duration>43</duration>
            <rate>
              <ntsc>FALSE</ntsc>
              <timebase>25</timebase>
            </rate>
            <in>0</in>
            <out>43</out>
            <start>-1</start>
            <end>5303</end>
            <pixelaspectratio>Square</pixelaspectratio>
            <stillframe>FALSE</stillframe>
            <enabled>TRUE</enabled>
            <anamorphic>FALSE</anamorphic>
            <alphatype>straight</alphatype>
            <file id="MM_145_FOTOS_R1-00039 1">
              <name>MM_145_FOTOS_R1-00039.mov</name>
              <pathurl>file://localhost/C:/Users/usuario/Dropbox%20(BigBangBoxSL)/PROYECTOS/My%20preschool%20monster%20serie/PRODUCCION/Story/EPISODIOS/FOTOS/XML/MM_145_FOTOS_R1-00039.mov</pathurl>
              <rate>
                <timebase>25</timebase>
              </rate>
              <duration>43</duration>
              <width>1920</width>
              <height>1080</height>
              <media>
                <video>
                  <duration>43</duration>
                  <stillframe>FALSE</stillframe>
                  <samplecharacteristics>
                    <width>1920</width>
                    <height>1080</height>
                  </samplecharacteristics>
                </video>
              </media>
            </file>
            <sourcetrack>
              <mediatype>video</mediatype>
            </sourcetrack>
            <itemhistory>
              <uuid>FAA354E5-5A95-310F-6956-7D3A2FD22330</uuid>
            </itemhistory>
          </clipitem>
          <clipitem id="MM_145_FOTOS_R1-00040">
            <name>MM_145_FOTOS_R1-00040</name>
            <duration>374</duration>
            <rate>
              <ntsc>FALSE</ntsc>
              <timebase>25</timebase>
            </rate>
            <in>0</in>
            <out>374</out>
            <start>5303</start>
            <end>5677</end>
            <pixelaspectratio>Square</pixelaspectratio>
            <stillframe>FALSE</stillframe>
            <enabled>TRUE</enabled>
            <anamorphic>FALSE</anamorphic>
            <alphatype>straight</alphatype>
            <file id="MM_145_FOTOS_R1-00040 1">
              <name>MM_145_FOTOS_R1-00040.mov</name>
              <pathurl>file://localhost/C:/Users/usuario/Dropbox%20(BigBangBoxSL)/PROYECTOS/My%20preschool%20monster%20serie/PRODUCCION/Story/EPISODIOS/FOTOS/XML/MM_145_FOTOS_R1-00040.mov</pathurl>
              <rate>
                <timebase>25</timebase>
              </rate>
              <duration>374</duration>
              <width>1920</width>
              <height>1080</height>
              <media>
                <video>
                  <duration>374</duration>
                  <stillframe>FALSE</stillframe>
                  <samplecharacteristics>
                    <width>1920</width>
                    <height>1080</height>
                  </samplecharacteristics>
                </video>
              </media>
            </file>
            <sourcetrack>
              <mediatype>video</mediatype>
            </sourcetrack>
            <itemhistory>
              <uuid>FC8B62BB-1F57-11C1-14F8-572BF88D5E42</uuid>
            </itemhistory>
          </clipitem>
          <clipitem id="MM_145_FOTOS_R1-00041">
            <name>MM_145_FOTOS_R1-00041</name>
            <duration>48</duration>
            <rate>
              <ntsc>FALSE</ntsc>
              <timebase>25</timebase>
            </rate>
            <in>0</in>
            <out>48</out>
            <start>5677</start>
            <end>5725</end>
            <pixelaspectratio>Square</pixelaspectratio>
            <stillframe>FALSE</stillframe>
            <enabled>TRUE</enabled>
            <anamorphic>FALSE</anamorphic>
            <alphatype>straight</alphatype>
            <file id="MM_145_FOTOS_R1-00041 1">
              <name>MM_145_FOTOS_R1-00041.mov</name>
              <pathurl>file://localhost/C:/Users/usuario/Dropbox%20(BigBangBoxSL)/PROYECTOS/My%20preschool%20monster%20serie/PRODUCCION/Story/EPISODIOS/FOTOS/XML/MM_145_FOTOS_R1-00041.mov</pathurl>
              <rate>
                <timebase>25</timebase>
              </rate>
              <duration>48</duration>
              <width>1920</width>
              <height>1080</height>
              <media>
                <video>
                  <duration>48</duration>
                  <stillframe>FALSE</stillframe>
                  <samplecharacteristics>
                    <width>1920</width>
                    <height>1080</height>
                  </samplecharacteristics>
                </video>
              </media>
            </file>
            <sourcetrack>
              <mediatype>video</mediatype>
            </sourcetrack>
            <itemhistory>
              <uuid>206F4A16-444A-3DCC-3C43-01ED25F94F2E</uuid>
            </itemhistory>
          </clipitem>
          <clipitem id="MM_145_FOTOS_R1-00042">
            <name>MM_145_FOTOS_R1-00042</name>
            <duration>62</duration>
            <rate>
              <ntsc>FALSE</ntsc>
              <timebase>25</timebase>
            </rate>
            <in>0</in>
            <out>62</out>
            <start>5725</start>
            <end>5787</end>
            <pixelaspectratio>Square</pixelaspectratio>
            <stillframe>FALSE</stillframe>
            <enabled>TRUE</enabled>
            <anamorphic>FALSE</anamorphic>
            <alphatype>straight</alphatype>
            <file id="MM_145_FOTOS_R1-00042 1">
              <name>MM_145_FOTOS_R1-00042.mov</name>
              <pathurl>file://localhost/C:/Users/usuario/Dropbox%20(BigBangBoxSL)/PROYECTOS/My%20preschool%20monster%20serie/PRODUCCION/Story/EPISODIOS/FOTOS/XML/MM_145_FOTOS_R1-00042.mov</pathurl>
              <rate>
                <timebase>25</timebase>
              </rate>
              <duration>62</duration>
              <width>1920</width>
              <height>1080</height>
              <media>
                <video>
                  <duration>62</duration>
                  <stillframe>FALSE</stillframe>
                  <samplecharacteristics>
                    <width>1920</width>
                    <height>1080</height>
                  </samplecharacteristics>
                </video>
              </media>
            </file>
            <sourcetrack>
              <mediatype>video</mediatype>
            </sourcetrack>
            <itemhistory>
              <uuid>345943F8-2D86-31B5-53EF-2C135DB424B6</uuid>
            </itemhistory>
          </clipitem>
          <clipitem id="MM_145_FOTOS_R1-00043">
            <name>MM_145_FOTOS_R1-00043</name>
            <duration>91</duration>
            <rate>
              <ntsc>FALSE</ntsc>
              <timebase>25</timebase>
            </rate>
            <in>0</in>
            <out>91</out>
            <start>5787</start>
            <end>5878</end>
            <pixelaspectratio>Square</pixelaspectratio>
            <stillframe>FALSE</stillframe>
            <enabled>TRUE</enabled>
            <anamorphic>FALSE</anamorphic>
            <alphatype>straight</alphatype>
            <file id="MM_145_FOTOS_R1-00043 1">
              <name>MM_145_FOTOS_R1-00043.mov</name>
              <pathurl>file://localhost/C:/Users/usuario/Dropbox%20(BigBangBoxSL)/PROYECTOS/My%20preschool%20monster%20serie/PRODUCCION/Story/EPISODIOS/FOTOS/XML/MM_145_FOTOS_R1-00043.mov</pathurl>
              <rate>
                <timebase>25</timebase>
              </rate>
              <duration>91</duration>
              <width>1920</width>
              <height>1080</height>
              <media>
                <video>
                  <duration>91</duration>
                  <stillframe>FALSE</stillframe>
                  <samplecharacteristics>
                    <width>1920</width>
                    <height>1080</height>
                  </samplecharacteristics>
                </video>
              </media>
            </file>
            <sourcetrack>
              <mediatype>video</mediatype>
            </sourcetrack>
            <itemhistory>
              <uuid>1C264D78-65FE-3E95-435A-300445983864</uuid>
            </itemhistory>
          </clipitem>
          <clipitem id="MM_145_FOTOS_R1-00044">
            <name>MM_145_FOTOS_R1-00044</name>
            <duration>69</duration>
            <rate>
              <ntsc>FALSE</ntsc>
              <timebase>25</timebase>
            </rate>
            <in>0</in>
            <out>69</out>
            <start>5878</start>
            <end>5947</end>
            <pixelaspectratio>Square</pixelaspectratio>
            <stillframe>FALSE</stillframe>
            <enabled>TRUE</enabled>
            <anamorphic>FALSE</anamorphic>
            <alphatype>straight</alphatype>
            <file id="MM_145_FOTOS_R1-00044 1">
              <name>MM_145_FOTOS_R1-00044.mov</name>
              <pathurl>file://localhost/C:/Users/usuario/Dropbox%20(BigBangBoxSL)/PROYECTOS/My%20preschool%20monster%20serie/PRODUCCION/Story/EPISODIOS/FOTOS/XML/MM_145_FOTOS_R1-00044.mov</pathurl>
              <rate>
                <timebase>25</timebase>
              </rate>
              <duration>69</duration>
              <width>1920</width>
              <height>1080</height>
              <media>
                <video>
                  <duration>69</duration>
                  <stillframe>FALSE</stillframe>
                  <samplecharacteristics>
                    <width>1920</width>
                    <height>1080</height>
                  </samplecharacteristics>
                </video>
              </media>
            </file>
            <sourcetrack>
              <mediatype>video</mediatype>
            </sourcetrack>
            <itemhistory>
              <uuid>25292EBB-27CF-2333-70C3-735074D175E4</uuid>
            </itemhistory>
          </clipitem>
          <clipitem id="MM_145_FOTOS_R1-00045">
            <name>MM_145_FOTOS_R1-00045</name>
            <duration>220</duration>
            <rate>
              <ntsc>FALSE</ntsc>
              <timebase>25</timebase>
            </rate>
            <in>0</in>
            <out>220</out>
            <start>5947</start>
            <end>6167</end>
            <pixelaspectratio>Square</pixelaspectratio>
            <stillframe>FALSE</stillframe>
            <enabled>TRUE</enabled>
            <anamorphic>FALSE</anamorphic>
            <alphatype>straight</alphatype>
            <file id="MM_145_FOTOS_R1-00045 1">
              <name>MM_145_FOTOS_R1-00045.mov</name>
              <pathurl>file://localhost/C:/Users/usuario/Dropbox%20(BigBangBoxSL)/PROYECTOS/My%20preschool%20monster%20serie/PRODUCCION/Story/EPISODIOS/FOTOS/XML/MM_145_FOTOS_R1-00045.mov</pathurl>
              <rate>
                <timebase>25</timebase>
              </rate>
              <duration>220</duration>
              <width>1920</width>
              <height>1080</height>
              <media>
                <video>
                  <duration>220</duration>
                  <stillframe>FALSE</stillframe>
                  <samplecharacteristics>
                    <width>1920</width>
                    <height>1080</height>
                  </samplecharacteristics>
                </video>
              </media>
            </file>
            <sourcetrack>
              <mediatype>video</mediatype>
            </sourcetrack>
            <itemhistory>
              <uuid>B22E3272-20D3-77B3-151B-DD3241E53116</uuid>
            </itemhistory>
          </clipitem>
          <clipitem id="MM_145_FOTOS_R1-00046">
            <name>MM_145_FOTOS_R1-00046</name>
            <duration>49</duration>
            <rate>
              <ntsc>FALSE</ntsc>
              <timebase>25</timebase>
            </rate>
            <in>0</in>
            <out>49</out>
            <start>6167</start>
            <end>6216</end>
            <pixelaspectratio>Square</pixelaspectratio>
            <stillframe>FALSE</stillframe>
            <enabled>TRUE</enabled>
            <anamorphic>FALSE</anamorphic>
            <alphatype>straight</alphatype>
            <file id="MM_145_FOTOS_R1-00046 1">
              <name>MM_145_FOTOS_R1-00046.mov</name>
              <pathurl>file://localhost/C:/Users/usuario/Dropbox%20(BigBangBoxSL)/PROYECTOS/My%20preschool%20monster%20serie/PRODUCCION/Story/EPISODIOS/FOTOS/XML/MM_145_FOTOS_R1-00046.mov</pathurl>
              <rate>
                <timebase>25</timebase>
              </rate>
              <duration>49</duration>
              <width>1920</width>
              <height>1080</height>
              <media>
                <video>
                  <duration>49</duration>
                  <stillframe>FALSE</stillframe>
                  <samplecharacteristics>
                    <width>1920</width>
                    <height>1080</height>
                  </samplecharacteristics>
                </video>
              </media>
            </file>
            <sourcetrack>
              <mediatype>video</mediatype>
            </sourcetrack>
            <itemhistory>
              <uuid>BF302523-1E3F-4C64-2050-7B6B42A1384D</uuid>
            </itemhistory>
          </clipitem>
          <clipitem id="MM_145_FOTOS_R1-00047">
            <name>MM_145_FOTOS_R1-00047</name>
            <duration>85</duration>
            <rate>
              <ntsc>FALSE</ntsc>
              <timebase>25</timebase>
            </rate>
            <in>0</in>
            <out>85</out>
            <start>6216</start>
            <end>6301</end>
            <pixelaspectratio>Square</pixelaspectratio>
            <stillframe>FALSE</stillframe>
            <enabled>TRUE</enabled>
            <anamorphic>FALSE</anamorphic>
            <alphatype>straight</alphatype>
            <file id="MM_145_FOTOS_R1-00047 1">
              <name>MM_145_FOTOS_R1-00047.mov</name>
              <pathurl>file://localhost/C:/Users/usuario/Dropbox%20(BigBangBoxSL)/PROYECTOS/My%20preschool%20monster%20serie/PRODUCCION/Story/EPISODIOS/FOTOS/XML/MM_145_FOTOS_R1-00047.mov</pathurl>
              <rate>
                <timebase>25</timebase>
              </rate>
              <duration>85</duration>
              <width>1920</width>
              <height>1080</height>
              <media>
                <video>
                  <duration>85</duration>
                  <stillframe>FALSE</stillframe>
                  <samplecharacteristics>
                    <width>1920</width>
                    <height>1080</height>
                  </samplecharacteristics>
                </video>
              </media>
            </file>
            <sourcetrack>
              <mediatype>video</mediatype>
            </sourcetrack>
            <itemhistory>
              <uuid>452833A2-7721-3611-4702-36237A4A3950</uuid>
            </itemhistory>
          </clipitem>
          <clipitem id="MM_145_FOTOS_R1-00048">
            <name>MM_145_FOTOS_R1-00048</name>
            <duration>217</duration>
            <rate>
              <ntsc>FALSE</ntsc>
              <timebase>25</timebase>
            </rate>
            <in>0</in>
            <out>217</out>
            <start>6301</start>
            <end>6518</end>
            <pixelaspectratio>Square</pixelaspectratio>
            <stillframe>FALSE</stillframe>
            <enabled>TRUE</enabled>
            <anamorphic>FALSE</anamorphic>
            <alphatype>straight</alphatype>
            <file id="MM_145_FOTOS_R1-00048 1">
              <name>MM_145_FOTOS_R1-00048.mov</name>
              <pathurl>file://localhost/C:/Users/usuario/Dropbox%20(BigBangBoxSL)/PROYECTOS/My%20preschool%20monster%20serie/PRODUCCION/Story/EPISODIOS/FOTOS/XML/MM_145_FOTOS_R1-00048.mov</pathurl>
              <rate>
                <timebase>25</timebase>
              </rate>
              <duration>217</duration>
              <width>1920</width>
              <height>1080</height>
              <media>
                <video>
                  <duration>217</duration>
                  <stillframe>FALSE</stillframe>
                  <samplecharacteristics>
                    <width>1920</width>
                    <height>1080</height>
                  </samplecharacteristics>
                </video>
              </media>
            </file>
            <sourcetrack>
              <mediatype>video</mediatype>
            </sourcetrack>
            <itemhistory>
              <uuid>7F3642D1-38CB-1E1E-1783-79F35F717C95</uuid>
            </itemhistory>
          </clipitem>
          <clipitem id="MM_145_FOTOS_R1-00049">
            <name>MM_145_FOTOS_R1-00049</name>
            <duration>510</duration>
            <rate>
              <ntsc>FALSE</ntsc>
              <timebase>25</timebase>
            </rate>
            <in>0</in>
            <out>510</out>
            <start>6518</start>
            <end>7028</end>
            <pixelaspectratio>Square</pixelaspectratio>
            <stillframe>FALSE</stillframe>
            <enabled>TRUE</enabled>
            <anamorphic>FALSE</anamorphic>
            <alphatype>straight</alphatype>
            <file id="MM_145_FOTOS_R1-00049 1">
              <name>MM_145_FOTOS_R1-00049.mov</name>
              <pathurl>file://localhost/C:/Users/usuario/Dropbox%20(BigBangBoxSL)/PROYECTOS/My%20preschool%20monster%20serie/PRODUCCION/Story/EPISODIOS/FOTOS/XML/MM_145_FOTOS_R1-00049.mov</pathurl>
              <rate>
                <timebase>25</timebase>
              </rate>
              <duration>510</duration>
              <width>1920</width>
              <height>1080</height>
              <media>
                <video>
                  <duration>510</duration>
                  <stillframe>FALSE</stillframe>
                  <samplecharacteristics>
                    <width>1920</width>
                    <height>1080</height>
                  </samplecharacteristics>
                </video>
              </media>
            </file>
            <sourcetrack>
              <mediatype>video</mediatype>
            </sourcetrack>
            <itemhistory>
              <uuid>7E8C7B9D-1089-1516-2481-64D763F07416</uuid>
            </itemhistory>
          </clipitem>
          <clipitem id="MM_145_FOTOS_R1-00050">
            <name>MM_145_FOTOS_R1-00050</name>
            <duration>262</duration>
            <rate>
              <ntsc>FALSE</ntsc>
              <timebase>25</timebase>
            </rate>
            <in>0</in>
            <out>262</out>
            <start>7028</start>
            <end>7290</end>
            <pixelaspectratio>Square</pixelaspectratio>
            <stillframe>FALSE</stillframe>
            <enabled>TRUE</enabled>
            <anamorphic>FALSE</anamorphic>
            <alphatype>straight</alphatype>
            <file id="MM_145_FOTOS_R1-00050 1">
              <name>MM_145_FOTOS_R1-00050.mov</name>
              <pathurl>file://localhost/C:/Users/usuario/Dropbox%20(BigBangBoxSL)/PROYECTOS/My%20preschool%20monster%20serie/PRODUCCION/Story/EPISODIOS/FOTOS/XML/MM_145_FOTOS_R1-00050.mov</pathurl>
              <rate>
                <timebase>25</timebase>
              </rate>
              <duration>262</duration>
              <width>1920</width>
              <height>1080</height>
              <media>
                <video>
                  <duration>262</duration>
                  <stillframe>FALSE</stillframe>
                  <samplecharacteristics>
                    <width>1920</width>
                    <height>1080</height>
                  </samplecharacteristics>
                </video>
              </media>
            </file>
            <sourcetrack>
              <mediatype>video</mediatype>
            </sourcetrack>
            <itemhistory>
              <uuid>432F1A76-5B2F-4EDC-32DC-368A19187A60</uuid>
            </itemhistory>
          </clipitem>
          <enabled>TRUE</enabled>
          <locked>FALSE</locked>
        </track>
      </video>
      <audio>
        <format/>
        <track>
          <clipitem id="monsters_S01E45_lineal_V001">
            <name>monsters_S01E45_lineal_V001</name>
            <duration>6366</duration>
            <rate>
              <ntsc>FALSE</ntsc>
              <timebase>25</timebase>
            </rate>
            <in>0</in>
            <out>100</out>
            <start>24</start>
            <end>124</end>
            <file id="monsters_S01E45_lineal_V001 1">
              <name>monsters_S01E45_lineal_V001.aif</name>
              <pathurl>file://localhost/C:/Users/usuario/Dropbox%20(BigBangBoxSL)/PROYECTOS/My%20preschool%20monster%20serie/PRODUCCION/Story/EPISODIOS/FOTOS/XML/monsters_S01E45_lineal_V001.aif</pathurl>
              <rate>
                <timebase>25</timebase>
              </rate>
              <duration>6366</duration>
              <media>
                <audio>
                  <samplecharacteristics>
                    <samplerate>48000</samplerate>
                    <depth>16</depth>
                  </samplecharacteristics>
                  <channelcount>2</channelcount>
                  <layout>stereo</layout>
                  <audiochannel>
                    <sourcechannel>1</sourcechannel>
                    <channellabel>left</channellabel>
                  </audiochannel>
                  <audiochannel>
                    <sourcechannel>2</sourcechannel>
                    <channellabel>right</channellabel>
                  </audiochannel>
                </audio>
              </media>
            </file>
            <sourcetrack>
              <mediatype>audio</mediatype>
              <trackindex>1</trackindex>
            </sourcetrack>
            <link>
              <linkclipref>monsters_S01E45_lineal_V001</linkclipref>
              <mediatype>audio</mediatype>
              <trackindex>1</trackindex>
              <clipindex>1</clipindex>
              <groupindex>1</groupindex>
            </link>
            <link>
              <linkclipref>monsters_S01E45_lineal_V001 2</linkclipref>
              <mediatype>audio</mediatype>
              <trackindex>2</trackindex>
              <clipindex>1</clipindex>
              <groupindex>1</groupindex>
            </link>
            <itemhistory>
              <uuid>7505335F-85D1-6874-490A-85FE0B117436</uuid>
            </itemhistory>
          </clipitem>
          <clipitem id="monsters_S01E45_lineal_V001 3">
            <name>monsters_S01E45_lineal_V001</name>
            <duration>6366</duration>
            <rate>
              <ntsc>FALSE</ntsc>
              <timebase>25</timebase>
            </rate>
            <in>285</in>
            <out>298</out>
            <start>332</start>
            <end>345</end>
            <file id="monsters_S01E45_lineal_V001 4">
              <name>monsters_S01E45_lineal_V001.aif</name>
              <pathurl>file://localhost/C:/Users/usuario/Dropbox%20(BigBangBoxSL)/PROYECTOS/My%20preschool%20monster%20serie/PRODUCCION/Story/EPISODIOS/FOTOS/XML/monsters_S01E45_lineal_V001.aif</pathurl>
              <rate>
                <timebase>25</timebase>
              </rate>
              <duration>6366</duration>
              <media>
                <audio>
                  <samplecharacteristics>
                    <samplerate>48000</samplerate>
                    <depth>16</depth>
                  </samplecharacteristics>
                  <channelcount>2</channelcount>
                  <layout>stereo</layout>
                  <audiochannel>
                    <sourcechannel>1</sourcechannel>
                    <channellabel>left</channellabel>
                  </audiochannel>
                  <audiochannel>
                    <sourcechannel>2</sourcechannel>
                    <channellabel>right</channellabel>
                  </audiochannel>
                </audio>
              </media>
            </file>
            <sourcetrack>
              <mediatype>audio</mediatype>
              <trackindex>1</trackindex>
            </sourcetrack>
            <link>
              <linkclipref>monsters_S01E45_lineal_V001 3</linkclipref>
              <mediatype>audio</mediatype>
              <trackindex>1</trackindex>
              <clipindex>2</clipindex>
              <groupindex>1</groupindex>
            </link>
            <link>
              <linkclipref>monsters_S01E45_lineal_V001 5</linkclipref>
              <mediatype>audio</mediatype>
              <trackindex>2</trackindex>
              <clipindex>2</clipindex>
              <groupindex>1</groupindex>
            </link>
            <itemhistory>
              <uuid>72883D46-4E87-74A6-7995-635C25766F6A</uuid>
            </itemhistory>
          </clipitem>
          <clipitem id="monsters_S01E45_lineal_V001 6">
            <name>monsters_S01E45_lineal_V001</name>
            <duration>6366</duration>
            <rate>
              <ntsc>FALSE</ntsc>
              <timebase>25</timebase>
            </rate>
            <in>308</in>
            <out>319</out>
            <start>394</start>
            <end>405</end>
            <file id="monsters_S01E45_lineal_V001 7">
              <name>monsters_S01E45_lineal_V001.aif</name>
              <pathurl>file://localhost/C:/Users/usuario/Dropbox%20(BigBangBoxSL)/PROYECTOS/My%20preschool%20monster%20serie/PRODUCCION/Story/EPISODIOS/FOTOS/XML/monsters_S01E45_lineal_V001.aif</pathurl>
              <rate>
                <timebase>25</timebase>
              </rate>
              <duration>6366</duration>
              <media>
                <audio>
                  <samplecharacteristics>
                    <samplerate>48000</samplerate>
                    <depth>16</depth>
                  </samplecharacteristics>
                  <channelcount>2</channelcount>
                  <layout>stereo</layout>
                  <audiochannel>
                    <sourcechannel>1</sourcechannel>
                    <channellabel>left</channellabel>
                  </audiochannel>
                  <audiochannel>
                    <sourcechannel>2</sourcechannel>
                    <channellabel>right</channellabel>
                  </audiochannel>
                </audio>
              </media>
            </file>
            <sourcetrack>
              <mediatype>audio</mediatype>
              <trackindex>1</trackindex>
            </sourcetrack>
            <link>
              <linkclipref>monsters_S01E45_lineal_V001 6</linkclipref>
              <mediatype>audio</mediatype>
              <trackindex>1</trackindex>
              <clipindex>3</clipindex>
              <groupindex>1</groupindex>
            </link>
            <link>
              <linkclipref>monsters_S01E45_lineal_V001 8</linkclipref>
              <mediatype>audio</mediatype>
              <trackindex>2</trackindex>
              <clipindex>3</clipindex>
              <groupindex>1</groupindex>
            </link>
            <itemhistory>
              <uuid>1A702A95-1EA4-5147-24F3-107E472F7205</uuid>
            </itemhistory>
          </clipitem>
          <clipitem id="monsters_S01E45_lineal_V001 9">
            <name>monsters_S01E45_lineal_V001</name>
            <duration>6366</duration>
            <rate>
              <ntsc>FALSE</ntsc>
              <timebase>25</timebase>
            </rate>
            <in>458</in>
            <out>474</out>
            <start>530</start>
            <end>546</end>
            <file id="monsters_S01E45_lineal_V001 10">
              <name>monsters_S01E45_lineal_V001.aif</name>
              <pathurl>file://localhost/C:/Users/usuario/Dropbox%20(BigBangBoxSL)/PROYECTOS/My%20preschool%20monster%20serie/PRODUCCION/Story/EPISODIOS/FOTOS/XML/monsters_S01E45_lineal_V001.aif</pathurl>
              <rate>
                <timebase>25</timebase>
              </rate>
              <duration>6366</duration>
              <media>
                <audio>
                  <samplecharacteristics>
                    <samplerate>48000</samplerate>
                    <depth>16</depth>
                  </samplecharacteristics>
                  <channelcount>2</channelcount>
                  <layout>stereo</layout>
                  <audiochannel>
                    <sourcechannel>1</sourcechannel>
                    <channellabel>left</channellabel>
                  </audiochannel>
                  <audiochannel>
                    <sourcechannel>2</sourcechannel>
                    <channellabel>right</channellabel>
                  </audiochannel>
                </audio>
              </media>
            </file>
            <sourcetrack>
              <mediatype>audio</mediatype>
              <trackindex>1</trackindex>
            </sourcetrack>
            <link>
              <linkclipref>monsters_S01E45_lineal_V001 9</linkclipref>
              <mediatype>audio</mediatype>
              <trackindex>1</trackindex>
              <clipindex>4</clipindex>
              <groupindex>1</groupindex>
            </link>
            <link>
              <linkclipref>monsters_S01E45_lineal_V001 11</linkclipref>
              <mediatype>audio</mediatype>
              <trackindex>2</trackindex>
              <clipindex>4</clipindex>
              <groupindex>1</groupindex>
            </link>
            <itemhistory>
              <uuid>40042316-2DCF-6544-2237-21F86D083E1F</uuid>
            </itemhistory>
          </clipitem>
          <clipitem id="monsters_S01E45_lineal_V001 12">
            <name>monsters_S01E45_lineal_V001</name>
            <duration>6366</duration>
            <rate>
              <ntsc>FALSE</ntsc>
              <timebase>25</timebase>
            </rate>
            <in>484</in>
            <out>528</out>
            <start>548</start>
            <end>592</end>
            <file id="monsters_S01E45_lineal_V001 13">
              <name>monsters_S01E45_lineal_V001.aif</name>
              <pathurl>file://localhost/C:/Users/usuario/Dropbox%20(BigBangBoxSL)/PROYECTOS/My%20preschool%20monster%20serie/PRODUCCION/Story/EPISODIOS/FOTOS/XML/monsters_S01E45_lineal_V001.aif</pathurl>
              <rate>
                <timebase>25</timebase>
              </rate>
              <duration>6366</duration>
              <media>
                <audio>
                  <samplecharacteristics>
                    <samplerate>48000</samplerate>
                    <depth>16</depth>
                  </samplecharacteristics>
                  <channelcount>2</channelcount>
                  <layout>stereo</layout>
                  <audiochannel>
                    <sourcechannel>1</sourcechannel>
                    <channellabel>left</channellabel>
                  </audiochannel>
                  <audiochannel>
                    <sourcechannel>2</sourcechannel>
                    <channellabel>right</channellabel>
                  </audiochannel>
                </audio>
              </media>
            </file>
            <sourcetrack>
              <mediatype>audio</mediatype>
              <trackindex>1</trackindex>
            </sourcetrack>
            <link>
              <linkclipref>monsters_S01E45_lineal_V001 12</linkclipref>
              <mediatype>audio</mediatype>
              <trackindex>1</trackindex>
              <clipindex>5</clipindex>
              <groupindex>1</groupindex>
            </link>
            <link>
              <linkclipref>monsters_S01E45_lineal_V001 14</linkclipref>
              <mediatype>audio</mediatype>
              <trackindex>2</trackindex>
              <clipindex>5</clipindex>
              <groupindex>1</groupindex>
            </link>
            <itemhistory>
              <uuid>61BE7BF8-3D82-1670-1BF7-55427346678C</uuid>
            </itemhistory>
          </clipitem>
          <clipitem id="monsters_S01E45_lineal_V001 15">
            <name>monsters_S01E45_lineal_V001</name>
            <duration>6366</duration>
            <rate>
              <ntsc>FALSE</ntsc>
              <timebase>25</timebase>
            </rate>
            <in>755</in>
            <out>811</out>
            <start>872</start>
            <end>928</end>
            <file id="monsters_S01E45_lineal_V001 16">
              <name>monsters_S01E45_lineal_V001.aif</name>
              <pathurl>file://localhost/C:/Users/usuario/Dropbox%20(BigBangBoxSL)/PROYECTOS/My%20preschool%20monster%20serie/PRODUCCION/Story/EPISODIOS/FOTOS/XML/monsters_S01E45_lineal_V001.aif</pathurl>
              <rate>
                <timebase>25</timebase>
              </rate>
              <duration>6366</duration>
              <media>
                <audio>
                  <samplecharacteristics>
                    <samplerate>48000</samplerate>
                    <depth>16</depth>
                  </samplecharacteristics>
                  <channelcount>2</channelcount>
                  <layout>stereo</layout>
                  <audiochannel>
                    <sourcechannel>1</sourcechannel>
                    <channellabel>left</channellabel>
                  </audiochannel>
                  <audiochannel>
                    <sourcechannel>2</sourcechannel>
                    <channellabel>right</channellabel>
                  </audiochannel>
                </audio>
              </media>
            </file>
            <sourcetrack>
              <mediatype>audio</mediatype>
              <trackindex>1</trackindex>
            </sourcetrack>
            <link>
              <linkclipref>monsters_S01E45_lineal_V001 15</linkclipref>
              <mediatype>audio</mediatype>
              <trackindex>1</trackindex>
              <clipindex>6</clipindex>
              <groupindex>1</groupindex>
            </link>
            <link>
              <linkclipref>monsters_S01E45_lineal_V001 17</linkclipref>
              <mediatype>audio</mediatype>
              <trackindex>2</trackindex>
              <clipindex>6</clipindex>
              <groupindex>1</groupindex>
            </link>
            <itemhistory>
              <uuid>354A3C69-3A4F-590A-6132-3D9639C84C3D</uuid>
            </itemhistory>
          </clipitem>
          <clipitem id="monsters_S01E45_lineal_V001 18">
            <name>monsters_S01E45_lineal_V001</name>
            <duration>6366</duration>
            <rate>
              <ntsc>FALSE</ntsc>
              <timebase>25</timebase>
            </rate>
            <in>813</in>
            <out>848</out>
            <start>933</start>
            <end>968</end>
            <file id="monsters_S01E45_lineal_V001 19">
              <name>monsters_S01E45_lineal_V001.aif</name>
              <pathurl>file://localhost/C:/Users/usuario/Dropbox%20(BigBangBoxSL)/PROYECTOS/My%20preschool%20monster%20serie/PRODUCCION/Story/EPISODIOS/FOTOS/XML/monsters_S01E45_lineal_V001.aif</pathurl>
              <rate>
                <timebase>25</timebase>
              </rate>
              <duration>6366</duration>
              <media>
                <audio>
                  <samplecharacteristics>
                    <samplerate>48000</samplerate>
                    <depth>16</depth>
                  </samplecharacteristics>
                  <channelcount>2</channelcount>
                  <layout>stereo</layout>
                  <audiochannel>
                    <sourcechannel>1</sourcechannel>
                    <channellabel>left</channellabel>
                  </audiochannel>
                  <audiochannel>
                    <sourcechannel>2</sourcechannel>
                    <channellabel>right</channellabel>
                  </audiochannel>
                </audio>
              </media>
            </file>
            <sourcetrack>
              <mediatype>audio</mediatype>
              <trackindex>1</trackindex>
            </sourcetrack>
            <link>
              <linkclipref>monsters_S01E45_lineal_V001 18</linkclipref>
              <mediatype>audio</mediatype>
              <trackindex>1</trackindex>
              <clipindex>7</clipindex>
              <groupindex>1</groupindex>
            </link>
            <link>
              <linkclipref>monsters_S01E45_lineal_V001 20</linkclipref>
              <mediatype>audio</mediatype>
              <trackindex>2</trackindex>
              <clipindex>7</clipindex>
              <groupindex>1</groupindex>
            </link>
            <itemhistory>
              <uuid>161A390E-3EB7-5CC8-34D7-1AA56E144EE2</uuid>
            </itemhistory>
          </clipitem>
          <clipitem id="monsters_S01E45_lineal_V001 21">
            <name>monsters_S01E45_lineal_V001</name>
            <duration>6366</duration>
            <rate>
              <ntsc>FALSE</ntsc>
              <timebase>25</timebase>
            </rate>
            <in>934</in>
            <out>967</out>
            <start>1179</start>
            <end>1212</end>
            <file id="monsters_S01E45_lineal_V001 22">
              <name>monsters_S01E45_lineal_V001.aif</name>
              <pathurl>file://localhost/C:/Users/usuario/Dropbox%20(BigBangBoxSL)/PROYECTOS/My%20preschool%20monster%20serie/PRODUCCION/Story/EPISODIOS/FOTOS/XML/monsters_S01E45_lineal_V001.aif</pathurl>
              <rate>
                <timebase>25</timebase>
              </rate>
              <duration>6366</duration>
              <media>
                <audio>
                  <samplecharacteristics>
                    <samplerate>48000</samplerate>
                    <depth>16</depth>
                  </samplecharacteristics>
                  <channelcount>2</channelcount>
                  <layout>stereo</layout>
                  <audiochannel>
                    <sourcechannel>1</sourcechannel>
                    <channellabel>left</channellabel>
                  </audiochannel>
                  <audiochannel>
                    <sourcechannel>2</sourcechannel>
                    <channellabel>right</channellabel>
                  </audiochannel>
                </audio>
              </media>
            </file>
            <sourcetrack>
              <mediatype>audio</mediatype>
              <trackindex>1</trackindex>
            </sourcetrack>
            <link>
              <linkclipref>monsters_S01E45_lineal_V001 21</linkclipref>
              <mediatype>audio</mediatype>
              <trackindex>1</trackindex>
              <clipindex>8</clipindex>
              <groupindex>1</groupindex>
            </link>
            <link>
              <linkclipref>monsters_S01E45_lineal_V001 23</linkclipref>
              <mediatype>audio</mediatype>
              <trackindex>2</trackindex>
              <clipindex>8</clipindex>
              <groupindex>1</groupindex>
            </link>
            <itemhistory>
              <uuid>36432500-3FC7-6971-6901-32C8440D6250</uuid>
            </itemhistory>
          </clipitem>
          <clipitem id="monsters_S01E45_lineal_V001 24">
            <name>monsters_S01E45_lineal_V001</name>
            <duration>6366</duration>
            <rate>
              <ntsc>FALSE</ntsc>
              <timebase>25</timebase>
            </rate>
            <in>974</in>
            <out>1050</out>
            <start>1218</start>
            <end>1294</end>
            <file id="monsters_S01E45_lineal_V001 25">
              <name>monsters_S01E45_lineal_V001.aif</name>
              <pathurl>file://localhost/C:/Users/usuario/Dropbox%20(BigBangBoxSL)/PROYECTOS/My%20preschool%20monster%20serie/PRODUCCION/Story/EPISODIOS/FOTOS/XML/monsters_S01E45_lineal_V001.aif</pathurl>
              <rate>
                <timebase>25</timebase>
              </rate>
              <duration>6366</duration>
              <media>
                <audio>
                  <samplecharacteristics>
                    <samplerate>48000</samplerate>
                    <depth>16</depth>
                  </samplecharacteristics>
                  <channelcount>2</channelcount>
                  <layout>stereo</layout>
                  <audiochannel>
                    <sourcechannel>1</sourcechannel>
                    <channellabel>left</channellabel>
                  </audiochannel>
                  <audiochannel>
                    <sourcechannel>2</sourcechannel>
                    <channellabel>right</channellabel>
                  </audiochannel>
                </audio>
              </media>
            </file>
            <sourcetrack>
              <mediatype>audio</mediatype>
              <trackindex>1</trackindex>
            </sourcetrack>
            <link>
              <linkclipref>monsters_S01E45_lineal_V001 24</linkclipref>
              <mediatype>audio</mediatype>
              <trackindex>1</trackindex>
              <clipindex>9</clipindex>
              <groupindex>1</groupindex>
            </link>
            <link>
              <linkclipref>monsters_S01E45_lineal_V001 26</linkclipref>
              <mediatype>audio</mediatype>
              <trackindex>2</trackindex>
              <clipindex>9</clipindex>
              <groupindex>1</groupindex>
            </link>
            <itemhistory>
              <uuid>1C505F9A-1983-3C1D-3BC1-662A2EBD543D</uuid>
            </itemhistory>
          </clipitem>
          <clipitem id="monsters_S01E45_lineal_V001 27">
            <name>monsters_S01E45_lineal_V001</name>
            <duration>6366</duration>
            <rate>
              <ntsc>FALSE</ntsc>
              <timebase>25</timebase>
            </rate>
            <in>1294</in>
            <out>1424</out>
            <start>1529</start>
            <end>1659</end>
            <file id="monsters_S01E45_lineal_V001 28">
              <name>monsters_S01E45_lineal_V001.aif</name>
              <pathurl>file://localhost/C:/Users/usuario/Dropbox%20(BigBangBoxSL)/PROYECTOS/My%20preschool%20monster%20serie/PRODUCCION/Story/EPISODIOS/FOTOS/XML/monsters_S01E45_lineal_V001.aif</pathurl>
              <rate>
                <timebase>25</timebase>
              </rate>
              <duration>6366</duration>
              <media>
                <audio>
                  <samplecharacteristics>
                    <samplerate>48000</samplerate>
                    <depth>16</depth>
                  </samplecharacteristics>
                  <channelcount>2</channelcount>
                  <layout>stereo</layout>
                  <audiochannel>
                    <sourcechannel>1</sourcechannel>
                    <channellabel>left</channellabel>
                  </audiochannel>
                  <audiochannel>
                    <sourcechannel>2</sourcechannel>
                    <channellabel>right</channellabel>
                  </audiochannel>
                </audio>
              </media>
            </file>
            <sourcetrack>
              <mediatype>audio</mediatype>
              <trackindex>1</trackindex>
            </sourcetrack>
            <link>
              <linkclipref>monsters_S01E45_lineal_V001 27</linkclipref>
              <mediatype>audio</mediatype>
              <trackindex>1</trackindex>
              <clipindex>10</clipindex>
              <groupindex>1</groupindex>
            </link>
            <link>
              <linkclipref>monsters_S01E45_lineal_V001 29</linkclipref>
              <mediatype>audio</mediatype>
              <trackindex>2</trackindex>
              <clipindex>10</clipindex>
              <groupindex>1</groupindex>
            </link>
            <itemhistory>
              <uuid>7EFC5A34-1AB4-26B3-7BF3-1C98533D1FE0</uuid>
            </itemhistory>
          </clipitem>
          <clipitem id="monsters_S01E45_lineal_V001 30">
            <name>monsters_S01E45_lineal_V001</name>
            <duration>6366</duration>
            <rate>
              <ntsc>FALSE</ntsc>
              <timebase>25</timebase>
            </rate>
            <in>1484</in>
            <out>1500</out>
            <start>1697</start>
            <end>1713</end>
            <file id="monsters_S01E45_lineal_V001 31">
              <name>monsters_S01E45_lineal_V001.aif</name>
              <pathurl>file://localhost/C:/Users/usuario/Dropbox%20(BigBangBoxSL)/PROYECTOS/My%20preschool%20monster%20serie/PRODUCCION/Story/EPISODIOS/FOTOS/XML/monsters_S01E45_lineal_V001.aif</pathurl>
              <rate>
                <timebase>25</timebase>
              </rate>
              <duration>6366</duration>
              <media>
                <audio>
                  <samplecharacteristics>
                    <samplerate>48000</samplerate>
                    <depth>16</depth>
                  </samplecharacteristics>
                  <channelcount>2</channelcount>
                  <layout>stereo</layout>
                  <audiochannel>
                    <sourcechannel>1</sourcechannel>
                    <channellabel>left</channellabel>
                  </audiochannel>
                  <audiochannel>
                    <sourcechannel>2</sourcechannel>
                    <channellabel>right</channellabel>
                  </audiochannel>
                </audio>
              </media>
            </file>
            <sourcetrack>
              <mediatype>audio</mediatype>
              <trackindex>1</trackindex>
            </sourcetrack>
            <link>
              <linkclipref>monsters_S01E45_lineal_V001 30</linkclipref>
              <mediatype>audio</mediatype>
              <trackindex>1</trackindex>
              <clipindex>11</clipindex>
              <groupindex>1</groupindex>
            </link>
            <link>
              <linkclipref>monsters_S01E45_lineal_V001 32</linkclipref>
              <mediatype>audio</mediatype>
              <trackindex>2</trackindex>
              <clipindex>11</clipindex>
              <groupindex>1</groupindex>
            </link>
            <itemhistory>
              <uuid>47A927F2-5DCB-3E69-31AF-51A95F626B9B</uuid>
            </itemhistory>
          </clipitem>
          <clipitem id="monsters_S01E45_lineal_V001 33">
            <name>monsters_S01E45_lineal_V001</name>
            <duration>6366</duration>
            <rate>
              <ntsc>FALSE</ntsc>
              <timebase>25</timebase>
            </rate>
            <in>1527</in>
            <out>1604</out>
            <start>1814</start>
            <end>1891</end>
            <file id="monsters_S01E45_lineal_V001 34">
              <name>monsters_S01E45_lineal_V001.aif</name>
              <pathurl>file://localhost/C:/Users/usuario/Dropbox%20(BigBangBoxSL)/PROYECTOS/My%20preschool%20monster%20serie/PRODUCCION/Story/EPISODIOS/FOTOS/XML/monsters_S01E45_lineal_V001.aif</pathurl>
              <rate>
                <timebase>25</timebase>
              </rate>
              <duration>6366</duration>
              <media>
                <audio>
                  <samplecharacteristics>
                    <samplerate>48000</samplerate>
                    <depth>16</depth>
                  </samplecharacteristics>
                  <channelcount>2</channelcount>
                  <layout>stereo</layout>
                  <audiochannel>
                    <sourcechannel>1</sourcechannel>
                    <channellabel>left</channellabel>
                  </audiochannel>
                  <audiochannel>
                    <sourcechannel>2</sourcechannel>
                    <channellabel>right</channellabel>
                  </audiochannel>
                </audio>
              </media>
            </file>
            <sourcetrack>
              <mediatype>audio</mediatype>
              <trackindex>1</trackindex>
            </sourcetrack>
            <link>
              <linkclipref>monsters_S01E45_lineal_V001 33</linkclipref>
              <mediatype>audio</mediatype>
              <trackindex>1</trackindex>
              <clipindex>12</clipindex>
              <groupindex>1</groupindex>
            </link>
            <link>
              <linkclipref>monsters_S01E45_lineal_V001 35</linkclipref>
              <mediatype>audio</mediatype>
              <trackindex>2</trackindex>
              <clipindex>12</clipindex>
              <groupindex>1</groupindex>
            </link>
            <itemhistory>
              <uuid>4C1B7ACB-6F08-7B95-7A74-78633A5D2CA0</uuid>
            </itemhistory>
          </clipitem>
          <clipitem id="monsters_S01E45_lineal_V001 36">
            <name>monsters_S01E45_lineal_V001</name>
            <duration>6366</duration>
            <rate>
              <ntsc>FALSE</ntsc>
              <timebase>25</timebase>
            </rate>
            <in>1804</in>
            <out>1901</out>
            <start>2073</start>
            <end>2170</end>
            <file id="monsters_S01E45_lineal_V001 37">
              <name>monsters_S01E45_lineal_V001.aif</name>
              <pathurl>file://localhost/C:/Users/usuario/Dropbox%20(BigBangBoxSL)/PROYECTOS/My%20preschool%20monster%20serie/PRODUCCION/Story/EPISODIOS/FOTOS/XML/monsters_S01E45_lineal_V001.aif</pathurl>
              <rate>
                <timebase>25</timebase>
              </rate>
              <duration>6366</duration>
              <media>
                <audio>
                  <samplecharacteristics>
                    <samplerate>48000</samplerate>
                    <depth>16</depth>
                  </samplecharacteristics>
                  <channelcount>2</channelcount>
                  <layout>stereo</layout>
                  <audiochannel>
                    <sourcechannel>1</sourcechannel>
                    <channellabel>left</channellabel>
                  </audiochannel>
                  <audiochannel>
                    <sourcechannel>2</sourcechannel>
                    <channellabel>right</channellabel>
                  </audiochannel>
                </audio>
              </media>
            </file>
            <sourcetrack>
              <mediatype>audio</mediatype>
              <trackindex>1</trackindex>
            </sourcetrack>
            <link>
              <linkclipref>monsters_S01E45_lineal_V001 36</linkclipref>
              <mediatype>audio</mediatype>
              <trackindex>1</trackindex>
              <clipindex>13</clipindex>
              <groupindex>1</groupindex>
            </link>
            <link>
              <linkclipref>monsters_S01E45_lineal_V001 38</linkclipref>
              <mediatype>audio</mediatype>
              <trackindex>2</trackindex>
              <clipindex>13</clipindex>
              <groupindex>1</groupindex>
            </link>
            <itemhistory>
              <uuid>F19926FB-52CD-6DE6-5CFB-31003EA71DEC</uuid>
            </itemhistory>
          </clipitem>
          <clipitem id="monsters_S01E45_lineal_V001 39">
            <name>monsters_S01E45_lineal_V001</name>
            <duration>6366</duration>
            <rate>
              <ntsc>FALSE</ntsc>
              <timebase>25</timebase>
            </rate>
            <in>1908</in>
            <out>1963</out>
            <start>2292</start>
            <end>2347</end>
            <file id="monsters_S01E45_lineal_V001 40">
              <name>monsters_S01E45_lineal_V001.aif</name>
              <pathurl>file://localhost/C:/Users/usuario/Dropbox%20(BigBangBoxSL)/PROYECTOS/My%20preschool%20monster%20serie/PRODUCCION/Story/EPISODIOS/FOTOS/XML/monsters_S01E45_lineal_V001.aif</pathurl>
              <rate>
                <timebase>25</timebase>
              </rate>
              <duration>6366</duration>
              <media>
                <audio>
                  <samplecharacteristics>
                    <samplerate>48000</samplerate>
                    <depth>16</depth>
                  </samplecharacteristics>
                  <channelcount>2</channelcount>
                  <layout>stereo</layout>
                  <audiochannel>
                    <sourcechannel>1</sourcechannel>
                    <channellabel>left</channellabel>
                  </audiochannel>
                  <audiochannel>
                    <sourcechannel>2</sourcechannel>
                    <channellabel>right</channellabel>
                  </audiochannel>
                </audio>
              </media>
            </file>
            <sourcetrack>
              <mediatype>audio</mediatype>
              <trackindex>1</trackindex>
            </sourcetrack>
            <link>
              <linkclipref>monsters_S01E45_lineal_V001 39</linkclipref>
              <mediatype>audio</mediatype>
              <trackindex>1</trackindex>
              <clipindex>14</clipindex>
              <groupindex>1</groupindex>
            </link>
            <link>
              <linkclipref>monsters_S01E45_lineal_V001 41</linkclipref>
              <mediatype>audio</mediatype>
              <trackindex>2</trackindex>
              <clipindex>14</clipindex>
              <groupindex>1</groupindex>
            </link>
            <itemhistory>
              <uuid>26D076D7-4E59-6679-62F3-26FE3FAC2FEE</uuid>
            </itemhistory>
          </clipitem>
          <clipitem id="monsters_S01E45_lineal_V001 42">
            <name>monsters_S01E45_lineal_V001</name>
            <duration>6366</duration>
            <rate>
              <ntsc>FALSE</ntsc>
              <timebase>25</timebase>
            </rate>
            <in>2188</in>
            <out>2203</out>
            <start>2559</start>
            <end>2574</end>
            <file id="monsters_S01E45_lineal_V001 43">
              <name>monsters_S01E45_lineal_V001.aif</name>
              <pathurl>file://localhost/C:/Users/usuario/Dropbox%20(BigBangBoxSL)/PROYECTOS/My%20preschool%20monster%20serie/PRODUCCION/Story/EPISODIOS/FOTOS/XML/monsters_S01E45_lineal_V001.aif</pathurl>
              <rate>
                <timebase>25</timebase>
              </rate>
              <duration>6366</duration>
              <media>
                <audio>
                  <samplecharacteristics>
                    <samplerate>48000</samplerate>
                    <depth>16</depth>
                  </samplecharacteristics>
                  <channelcount>2</channelcount>
                  <layout>stereo</layout>
                  <audiochannel>
                    <sourcechannel>1</sourcechannel>
                    <channellabel>left</channellabel>
                  </audiochannel>
                  <audiochannel>
                    <sourcechannel>2</sourcechannel>
                    <channellabel>right</channellabel>
                  </audiochannel>
                </audio>
              </media>
            </file>
            <sourcetrack>
              <mediatype>audio</mediatype>
              <trackindex>1</trackindex>
            </sourcetrack>
            <link>
              <linkclipref>monsters_S01E45_lineal_V001 42</linkclipref>
              <mediatype>audio</mediatype>
              <trackindex>1</trackindex>
              <clipindex>15</clipindex>
              <groupindex>1</groupindex>
            </link>
            <link>
              <linkclipref>monsters_S01E45_lineal_V001 44</linkclipref>
              <mediatype>audio</mediatype>
              <trackindex>2</trackindex>
              <clipindex>15</clipindex>
              <groupindex>1</groupindex>
            </link>
            <itemhistory>
              <uuid>42D84743-6ECB-1885-7864-1D6F3CD35F92</uuid>
            </itemhistory>
          </clipitem>
          <clipitem id="monsters_S01E45_lineal_V001 45">
            <name>monsters_S01E45_lineal_V001</name>
            <duration>6366</duration>
            <rate>
              <ntsc>FALSE</ntsc>
              <timebase>25</timebase>
            </rate>
            <in>2331</in>
            <out>2361</out>
            <start>2680</start>
            <end>2710</end>
            <file id="monsters_S01E45_lineal_V001 46">
              <name>monsters_S01E45_lineal_V001.aif</name>
              <pathurl>file://localhost/C:/Users/usuario/Dropbox%20(BigBangBoxSL)/PROYECTOS/My%20preschool%20monster%20serie/PRODUCCION/Story/EPISODIOS/FOTOS/XML/monsters_S01E45_lineal_V001.aif</pathurl>
              <rate>
                <timebase>25</timebase>
              </rate>
              <duration>6366</duration>
              <media>
                <audio>
                  <samplecharacteristics>
                    <samplerate>48000</samplerate>
                    <depth>16</depth>
                  </samplecharacteristics>
                  <channelcount>2</channelcount>
                  <layout>stereo</layout>
                  <audiochannel>
                    <sourcechannel>1</sourcechannel>
                    <channellabel>left</channellabel>
                  </audiochannel>
                  <audiochannel>
                    <sourcechannel>2</sourcechannel>
                    <channellabel>right</channellabel>
                  </audiochannel>
                </audio>
              </media>
            </file>
            <sourcetrack>
              <mediatype>audio</mediatype>
              <trackindex>1</trackindex>
            </sourcetrack>
            <link>
              <linkclipref>monsters_S01E45_lineal_V001 45</linkclipref>
              <mediatype>audio</mediatype>
              <trackindex>1</trackindex>
              <clipindex>16</clipindex>
              <groupindex>1</groupindex>
            </link>
            <link>
              <linkclipref>monsters_S01E45_lineal_V001 47</linkclipref>
              <mediatype>audio</mediatype>
              <trackindex>2</trackindex>
              <clipindex>16</clipindex>
              <groupindex>1</groupindex>
            </link>
            <itemhistory>
              <uuid>E4227E80-4032-411A-40C8-68BE26C83927</uuid>
            </itemhistory>
          </clipitem>
          <clipitem id="monsters_S01E45_lineal_V001 48">
            <name>monsters_S01E45_lineal_V001</name>
            <duration>6366</duration>
            <rate>
              <ntsc>FALSE</ntsc>
              <timebase>25</timebase>
            </rate>
            <in>2362</in>
            <out>2392</out>
            <start>2838</start>
            <end>2868</end>
            <file id="monsters_S01E45_lineal_V001 49">
              <name>monsters_S01E45_lineal_V001.aif</name>
              <pathurl>file://localhost/C:/Users/usuario/Dropbox%20(BigBangBoxSL)/PROYECTOS/My%20preschool%20monster%20serie/PRODUCCION/Story/EPISODIOS/FOTOS/XML/monsters_S01E45_lineal_V001.aif</pathurl>
              <rate>
                <timebase>25</timebase>
              </rate>
              <duration>6366</duration>
              <media>
                <audio>
                  <samplecharacteristics>
                    <samplerate>48000</samplerate>
                    <depth>16</depth>
                  </samplecharacteristics>
                  <channelcount>2</channelcount>
                  <layout>stereo</layout>
                  <audiochannel>
                    <sourcechannel>1</sourcechannel>
                    <channellabel>left</channellabel>
                  </audiochannel>
                  <audiochannel>
                    <sourcechannel>2</sourcechannel>
                    <channellabel>right</channellabel>
                  </audiochannel>
                </audio>
              </media>
            </file>
            <sourcetrack>
              <mediatype>audio</mediatype>
              <trackindex>1</trackindex>
            </sourcetrack>
            <link>
              <linkclipref>monsters_S01E45_lineal_V001 48</linkclipref>
              <mediatype>audio</mediatype>
              <trackindex>1</trackindex>
              <clipindex>17</clipindex>
              <groupindex>1</groupindex>
            </link>
            <link>
              <linkclipref>monsters_S01E45_lineal_V001 50</linkclipref>
              <mediatype>audio</mediatype>
              <trackindex>2</trackindex>
              <clipindex>17</clipindex>
              <groupindex>1</groupindex>
            </link>
            <itemhistory>
              <uuid>3A5C7E97-3E76-3909-7166-46E4612F2A1A</uuid>
            </itemhistory>
          </clipitem>
          <clipitem id="monsters_S01E45_lineal_V001 51">
            <name>monsters_S01E45_lineal_V001</name>
            <duration>6366</duration>
            <rate>
              <ntsc>FALSE</ntsc>
              <timebase>25</timebase>
            </rate>
            <in>2691</in>
            <out>2820</out>
            <start>3114</start>
            <end>3243</end>
            <file id="monsters_S01E45_lineal_V001 52">
              <name>monsters_S01E45_lineal_V001.aif</name>
              <pathurl>file://localhost/C:/Users/usuario/Dropbox%20(BigBangBoxSL)/PROYECTOS/My%20preschool%20monster%20serie/PRODUCCION/Story/EPISODIOS/FOTOS/XML/monsters_S01E45_lineal_V001.aif</pathurl>
              <rate>
                <timebase>25</timebase>
              </rate>
              <duration>6366</duration>
              <media>
                <audio>
                  <samplecharacteristics>
                    <samplerate>48000</samplerate>
                    <depth>16</depth>
                  </samplecharacteristics>
                  <channelcount>2</channelcount>
                  <layout>stereo</layout>
                  <audiochannel>
                    <sourcechannel>1</sourcechannel>
                    <channellabel>left</channellabel>
                  </audiochannel>
                  <audiochannel>
                    <sourcechannel>2</sourcechannel>
                    <channellabel>right</channellabel>
                  </audiochannel>
                </audio>
              </media>
            </file>
            <sourcetrack>
              <mediatype>audio</mediatype>
              <trackindex>1</trackindex>
            </sourcetrack>
            <link>
              <linkclipref>monsters_S01E45_lineal_V001 51</linkclipref>
              <mediatype>audio</mediatype>
              <trackindex>1</trackindex>
              <clipindex>18</clipindex>
              <groupindex>1</groupindex>
            </link>
            <link>
              <linkclipref>monsters_S01E45_lineal_V001 53</linkclipref>
              <mediatype>audio</mediatype>
              <trackindex>2</trackindex>
              <clipindex>18</clipindex>
              <groupindex>1</groupindex>
            </link>
            <itemhistory>
              <uuid>111E35F7-384E-2E73-3D33-34D5493D66CD</uuid>
            </itemhistory>
          </clipitem>
          <clipitem id="monsters_S01E45_lineal_V001 54">
            <name>monsters_S01E45_lineal_V001</name>
            <duration>6366</duration>
            <rate>
              <ntsc>FALSE</ntsc>
              <timebase>25</timebase>
            </rate>
            <in>2991</in>
            <out>3039</out>
            <start>3544</start>
            <end>3592</end>
            <file id="monsters_S01E45_lineal_V001 55">
              <name>monsters_S01E45_lineal_V001.aif</name>
              <pathurl>file://localhost/C:/Users/usuario/Dropbox%20(BigBangBoxSL)/PROYECTOS/My%20preschool%20monster%20serie/PRODUCCION/Story/EPISODIOS/FOTOS/XML/monsters_S01E45_lineal_V001.aif</pathurl>
              <rate>
                <timebase>25</timebase>
              </rate>
              <duration>6366</duration>
              <media>
                <audio>
                  <samplecharacteristics>
                    <samplerate>48000</samplerate>
                    <depth>16</depth>
                  </samplecharacteristics>
                  <channelcount>2</channelcount>
                  <layout>stereo</layout>
                  <audiochannel>
                    <sourcechannel>1</sourcechannel>
                    <channellabel>left</channellabel>
                  </audiochannel>
                  <audiochannel>
                    <sourcechannel>2</sourcechannel>
                    <channellabel>right</channellabel>
                  </audiochannel>
                </audio>
              </media>
            </file>
            <sourcetrack>
              <mediatype>audio</mediatype>
              <trackindex>1</trackindex>
            </sourcetrack>
            <link>
              <linkclipref>monsters_S01E45_lineal_V001 54</linkclipref>
              <mediatype>audio</mediatype>
              <trackindex>1</trackindex>
              <clipindex>19</clipindex>
              <groupindex>1</groupindex>
            </link>
            <link>
              <linkclipref>monsters_S01E45_lineal_V001 56</linkclipref>
              <mediatype>audio</mediatype>
              <trackindex>2</trackindex>
              <clipindex>19</clipindex>
              <groupindex>1</groupindex>
            </link>
            <itemhistory>
              <uuid>5E5C7548-7962-7733-27BE-423E52E74EA2</uuid>
            </itemhistory>
          </clipitem>
          <clipitem id="monsters_S01E45_lineal_V001 57">
            <name>monsters_S01E45_lineal_V001</name>
            <duration>6366</duration>
            <rate>
              <ntsc>FALSE</ntsc>
              <timebase>25</timebase>
            </rate>
            <in>3191</in>
            <out>3205</out>
            <start>3773</start>
            <end>3787</end>
            <file id="monsters_S01E45_lineal_V001 58">
              <name>monsters_S01E45_lineal_V001.aif</name>
              <pathurl>file://localhost/C:/Users/usuario/Dropbox%20(BigBangBoxSL)/PROYECTOS/My%20preschool%20monster%20serie/PRODUCCION/Story/EPISODIOS/FOTOS/XML/monsters_S01E45_lineal_V001.aif</pathurl>
              <rate>
                <timebase>25</timebase>
              </rate>
              <duration>6366</duration>
              <media>
                <audio>
                  <samplecharacteristics>
                    <samplerate>48000</samplerate>
                    <depth>16</depth>
                  </samplecharacteristics>
                  <channelcount>2</channelcount>
                  <layout>stereo</layout>
                  <audiochannel>
                    <sourcechannel>1</sourcechannel>
                    <channellabel>left</channellabel>
                  </audiochannel>
                  <audiochannel>
                    <sourcechannel>2</sourcechannel>
                    <channellabel>right</channellabel>
                  </audiochannel>
                </audio>
              </media>
            </file>
            <sourcetrack>
              <mediatype>audio</mediatype>
              <trackindex>1</trackindex>
            </sourcetrack>
            <link>
              <linkclipref>monsters_S01E45_lineal_V001 57</linkclipref>
              <mediatype>audio</mediatype>
              <trackindex>1</trackindex>
              <clipindex>20</clipindex>
              <groupindex>1</groupindex>
            </link>
            <link>
              <linkclipref>monsters_S01E45_lineal_V001 59</linkclipref>
              <mediatype>audio</mediatype>
              <trackindex>2</trackindex>
              <clipindex>20</clipindex>
              <groupindex>1</groupindex>
            </link>
            <itemhistory>
              <uuid>2CFB2085-7567-4778-7635-2115455D203B</uuid>
            </itemhistory>
          </clipitem>
          <clipitem id="monsters_S01E45_lineal_V001 60">
            <name>monsters_S01E45_lineal_V001</name>
            <duration>6366</duration>
            <rate>
              <ntsc>FALSE</ntsc>
              <timebase>25</timebase>
            </rate>
            <in>3213</in>
            <out>3253</out>
            <start>3787</start>
            <end>3827</end>
            <file id="monsters_S01E45_lineal_V001 61">
              <name>monsters_S01E45_lineal_V001.aif</name>
              <pathurl>file://localhost/C:/Users/usuario/Dropbox%20(BigBangBoxSL)/PROYECTOS/My%20preschool%20monster%20serie/PRODUCCION/Story/EPISODIOS/FOTOS/XML/monsters_S01E45_lineal_V001.aif</pathurl>
              <rate>
                <timebase>25</timebase>
              </rate>
              <duration>6366</duration>
              <media>
                <audio>
                  <samplecharacteristics>
                    <samplerate>48000</samplerate>
                    <depth>16</depth>
                  </samplecharacteristics>
                  <channelcount>2</channelcount>
                  <layout>stereo</layout>
                  <audiochannel>
                    <sourcechannel>1</sourcechannel>
                    <channellabel>left</channellabel>
                  </audiochannel>
                  <audiochannel>
                    <sourcechannel>2</sourcechannel>
                    <channellabel>right</channellabel>
                  </audiochannel>
                </audio>
              </media>
            </file>
            <sourcetrack>
              <mediatype>audio</mediatype>
              <trackindex>1</trackindex>
            </sourcetrack>
            <link>
              <linkclipref>monsters_S01E45_lineal_V001 60</linkclipref>
              <mediatype>audio</mediatype>
              <trackindex>1</trackindex>
              <clipindex>21</clipindex>
              <groupindex>1</groupindex>
            </link>
            <link>
              <linkclipref>monsters_S01E45_lineal_V001 62</linkclipref>
              <mediatype>audio</mediatype>
              <trackindex>2</trackindex>
              <clipindex>21</clipindex>
              <groupindex>1</groupindex>
            </link>
            <itemhistory>
              <uuid>21AC2E93-6048-600A-64EA-21474E4E3506</uuid>
            </itemhistory>
          </clipitem>
          <clipitem id="monsters_S01E45_lineal_V001 63">
            <name>monsters_S01E45_lineal_V001</name>
            <duration>6366</duration>
            <rate>
              <ntsc>FALSE</ntsc>
              <timebase>25</timebase>
            </rate>
            <in>3399</in>
            <out>3444</out>
            <start>3930</start>
            <end>3975</end>
            <file id="monsters_S01E45_lineal_V001 64">
              <name>monsters_S01E45_lineal_V001.aif</name>
              <pathurl>file://localhost/C:/Users/usuario/Dropbox%20(BigBangBoxSL)/PROYECTOS/My%20preschool%20monster%20serie/PRODUCCION/Story/EPISODIOS/FOTOS/XML/monsters_S01E45_lineal_V001.aif</pathurl>
              <rate>
                <timebase>25</timebase>
              </rate>
              <duration>6366</duration>
              <media>
                <audio>
                  <samplecharacteristics>
                    <samplerate>48000</samplerate>
                    <depth>16</depth>
                  </samplecharacteristics>
                  <channelcount>2</channelcount>
                  <layout>stereo</layout>
                  <audiochannel>
                    <sourcechannel>1</sourcechannel>
                    <channellabel>left</channellabel>
                  </audiochannel>
                  <audiochannel>
                    <sourcechannel>2</sourcechannel>
                    <channellabel>right</channellabel>
                  </audiochannel>
                </audio>
              </media>
            </file>
            <sourcetrack>
              <mediatype>audio</mediatype>
              <trackindex>1</trackindex>
            </sourcetrack>
            <link>
              <linkclipref>monsters_S01E45_lineal_V001 63</linkclipref>
              <mediatype>audio</mediatype>
              <trackindex>1</trackindex>
              <clipindex>22</clipindex>
              <groupindex>1</groupindex>
            </link>
            <link>
              <linkclipref>monsters_S01E45_lineal_V001 65</linkclipref>
              <mediatype>audio</mediatype>
              <trackindex>2</trackindex>
              <clipindex>22</clipindex>
              <groupindex>1</groupindex>
            </link>
            <itemhistory>
              <uuid>7F17687D-755E-3A43-3308-2E9556722F82</uuid>
            </itemhistory>
          </clipitem>
          <clipitem id="monsters_S01E45_lineal_V001 66">
            <name>monsters_S01E45_lineal_V001</name>
            <duration>6366</duration>
            <rate>
              <ntsc>FALSE</ntsc>
              <timebase>25</timebase>
            </rate>
            <in>3484</in>
            <out>3503</out>
            <start>3991</start>
            <end>4010</end>
            <file id="monsters_S01E45_lineal_V001 67">
              <name>monsters_S01E45_lineal_V001.aif</name>
              <pathurl>file://localhost/C:/Users/usuario/Dropbox%20(BigBangBoxSL)/PROYECTOS/My%20preschool%20monster%20serie/PRODUCCION/Story/EPISODIOS/FOTOS/XML/monsters_S01E45_lineal_V001.aif</pathurl>
              <rate>
                <timebase>25</timebase>
              </rate>
              <duration>6366</duration>
              <media>
                <audio>
                  <samplecharacteristics>
                    <samplerate>48000</samplerate>
                    <depth>16</depth>
                  </samplecharacteristics>
                  <channelcount>2</channelcount>
                  <layout>stereo</layout>
                  <audiochannel>
                    <sourcechannel>1</sourcechannel>
                    <channellabel>left</channellabel>
                  </audiochannel>
                  <audiochannel>
                    <sourcechannel>2</sourcechannel>
                    <channellabel>right</channellabel>
                  </audiochannel>
                </audio>
              </media>
            </file>
            <sourcetrack>
              <mediatype>audio</mediatype>
              <trackindex>1</trackindex>
            </sourcetrack>
            <link>
              <linkclipref>monsters_S01E45_lineal_V001 66</linkclipref>
              <mediatype>audio</mediatype>
              <trackindex>1</trackindex>
              <clipindex>23</clipindex>
              <groupindex>1</groupindex>
            </link>
            <link>
              <linkclipref>monsters_S01E45_lineal_V001 68</linkclipref>
              <mediatype>audio</mediatype>
              <trackindex>2</trackindex>
              <clipindex>23</clipindex>
              <groupindex>1</groupindex>
            </link>
            <itemhistory>
              <uuid>7BDD7FF4-5131-4BAF-290C-31863BE84CBB</uuid>
            </itemhistory>
          </clipitem>
          <clipitem id="monsters_S01E45_lineal_V001 69">
            <name>monsters_S01E45_lineal_V001</name>
            <duration>6366</duration>
            <rate>
              <ntsc>FALSE</ntsc>
              <timebase>25</timebase>
            </rate>
            <in>3529</in>
            <out>3593</out>
            <start>4083</start>
            <end>4147</end>
            <file id="monsters_S01E45_lineal_V001 70">
              <name>monsters_S01E45_lineal_V001.aif</name>
              <pathurl>file://localhost/C:/Users/usuario/Dropbox%20(BigBangBoxSL)/PROYECTOS/My%20preschool%20monster%20serie/PRODUCCION/Story/EPISODIOS/FOTOS/XML/monsters_S01E45_lineal_V001.aif</pathurl>
              <rate>
                <timebase>25</timebase>
              </rate>
              <duration>6366</duration>
              <media>
                <audio>
                  <samplecharacteristics>
                    <samplerate>48000</samplerate>
                    <depth>16</depth>
                  </samplecharacteristics>
                  <channelcount>2</channelcount>
                  <layout>stereo</layout>
                  <audiochannel>
                    <sourcechannel>1</sourcechannel>
                    <channellabel>left</channellabel>
                  </audiochannel>
                  <audiochannel>
                    <sourcechannel>2</sourcechannel>
                    <channellabel>right</channellabel>
                  </audiochannel>
                </audio>
              </media>
            </file>
            <sourcetrack>
              <mediatype>audio</mediatype>
              <trackindex>1</trackindex>
            </sourcetrack>
            <link>
              <linkclipref>monsters_S01E45_lineal_V001 69</linkclipref>
              <mediatype>audio</mediatype>
              <trackindex>1</trackindex>
              <clipindex>24</clipindex>
              <groupindex>1</groupindex>
            </link>
            <link>
              <linkclipref>monsters_S01E45_lineal_V001 71</linkclipref>
              <mediatype>audio</mediatype>
              <trackindex>2</trackindex>
              <clipindex>24</clipindex>
              <groupindex>1</groupindex>
            </link>
            <itemhistory>
              <uuid>41D82411-6B5A-167D-3D99-1E936A394692</uuid>
            </itemhistory>
          </clipitem>
          <clipitem id="monsters_S01E45_lineal_V001 72">
            <name>monsters_S01E45_lineal_V001</name>
            <duration>6366</duration>
            <rate>
              <ntsc>FALSE</ntsc>
              <timebase>25</timebase>
            </rate>
            <in>3611</in>
            <out>3669</out>
            <start>4156</start>
            <end>4214</end>
            <file id="monsters_S01E45_lineal_V001 73">
              <name>monsters_S01E45_lineal_V001.aif</name>
              <pathurl>file://localhost/C:/Users/usuario/Dropbox%20(BigBangBoxSL)/PROYECTOS/My%20preschool%20monster%20serie/PRODUCCION/Story/EPISODIOS/FOTOS/XML/monsters_S01E45_lineal_V001.aif</pathurl>
              <rate>
                <timebase>25</timebase>
              </rate>
              <duration>6366</duration>
              <media>
                <audio>
                  <samplecharacteristics>
                    <samplerate>48000</samplerate>
                    <depth>16</depth>
                  </samplecharacteristics>
                  <channelcount>2</channelcount>
                  <layout>stereo</layout>
                  <audiochannel>
                    <sourcechannel>1</sourcechannel>
                    <channellabel>left</channellabel>
                  </audiochannel>
                  <audiochannel>
                    <sourcechannel>2</sourcechannel>
                    <channellabel>right</channellabel>
                  </audiochannel>
                </audio>
              </media>
            </file>
            <sourcetrack>
              <mediatype>audio</mediatype>
              <trackindex>1</trackindex>
            </sourcetrack>
            <link>
              <linkclipref>monsters_S01E45_lineal_V001 72</linkclipref>
              <mediatype>audio</mediatype>
              <trackindex>1</trackindex>
              <clipindex>25</clipindex>
              <groupindex>1</groupindex>
            </link>
            <link>
              <linkclipref>monsters_S01E45_lineal_V001 74</linkclipref>
              <mediatype>audio</mediatype>
              <trackindex>2</trackindex>
              <clipindex>25</clipindex>
              <groupindex>1</groupindex>
            </link>
            <itemhistory>
              <uuid>408B6BF6-366A-7AF9-5D62-5D7E1D5D33FA</uuid>
            </itemhistory>
          </clipitem>
          <clipitem id="monsters_S01E45_lineal_V001 75">
            <name>monsters_S01E45_lineal_V001</name>
            <duration>6366</duration>
            <rate>
              <ntsc>FALSE</ntsc>
              <timebase>25</timebase>
            </rate>
            <in>3904</in>
            <out>3963</out>
            <start>4455</start>
            <end>4514</end>
            <file id="monsters_S01E45_lineal_V001 76">
              <name>monsters_S01E45_lineal_V001.aif</name>
              <pathurl>file://localhost/C:/Users/usuario/Dropbox%20(BigBangBoxSL)/PROYECTOS/My%20preschool%20monster%20serie/PRODUCCION/Story/EPISODIOS/FOTOS/XML/monsters_S01E45_lineal_V001.aif</pathurl>
              <rate>
                <timebase>25</timebase>
              </rate>
              <duration>6366</duration>
              <media>
                <audio>
                  <samplecharacteristics>
                    <samplerate>48000</samplerate>
                    <depth>16</depth>
                  </samplecharacteristics>
                  <channelcount>2</channelcount>
                  <layout>stereo</layout>
                  <audiochannel>
                    <sourcechannel>1</sourcechannel>
                    <channellabel>left</channellabel>
                  </audiochannel>
                  <audiochannel>
                    <sourcechannel>2</sourcechannel>
                    <channellabel>right</channellabel>
                  </audiochannel>
                </audio>
              </media>
            </file>
            <sourcetrack>
              <mediatype>audio</mediatype>
              <trackindex>1</trackindex>
            </sourcetrack>
            <link>
              <linkclipref>monsters_S01E45_lineal_V001 75</linkclipref>
              <mediatype>audio</mediatype>
              <trackindex>1</trackindex>
              <clipindex>26</clipindex>
              <groupindex>1</groupindex>
            </link>
            <link>
              <linkclipref>monsters_S01E45_lineal_V001 77</linkclipref>
              <mediatype>audio</mediatype>
              <trackindex>2</trackindex>
              <clipindex>26</clipindex>
              <groupindex>1</groupindex>
            </link>
            <itemhistory>
              <uuid>200F4E9D-608C-7B92-6B97-C70075401878</uuid>
            </itemhistory>
          </clipitem>
          <clipitem id="monsters_S01E45_lineal_V001 78">
            <name>monsters_S01E45_lineal_V001</name>
            <duration>6366</duration>
            <rate>
              <ntsc>FALSE</ntsc>
              <timebase>25</timebase>
            </rate>
            <in>4304</in>
            <out>4335</out>
            <start>4974</start>
            <end>5005</end>
            <file id="monsters_S01E45_lineal_V001 79">
              <name>monsters_S01E45_lineal_V001.aif</name>
              <pathurl>file://localhost/C:/Users/usuario/Dropbox%20(BigBangBoxSL)/PROYECTOS/My%20preschool%20monster%20serie/PRODUCCION/Story/EPISODIOS/FOTOS/XML/monsters_S01E45_lineal_V001.aif</pathurl>
              <rate>
                <timebase>25</timebase>
              </rate>
              <duration>6366</duration>
              <media>
                <audio>
                  <samplecharacteristics>
                    <samplerate>48000</samplerate>
                    <depth>16</depth>
                  </samplecharacteristics>
                  <channelcount>2</channelcount>
                  <layout>stereo</layout>
                  <audiochannel>
                    <sourcechannel>1</sourcechannel>
                    <channellabel>left</channellabel>
                  </audiochannel>
                  <audiochannel>
                    <sourcechannel>2</sourcechannel>
                    <channellabel>right</channellabel>
                  </audiochannel>
                </audio>
              </media>
            </file>
            <sourcetrack>
              <mediatype>audio</mediatype>
              <trackindex>1</trackindex>
            </sourcetrack>
            <link>
              <linkclipref>monsters_S01E45_lineal_V001 78</linkclipref>
              <mediatype>audio</mediatype>
              <trackindex>1</trackindex>
              <clipindex>27</clipindex>
              <groupindex>1</groupindex>
            </link>
            <link>
              <linkclipref>monsters_S01E45_lineal_V001 80</linkclipref>
              <mediatype>audio</mediatype>
              <trackindex>2</trackindex>
              <clipindex>27</clipindex>
              <groupindex>1</groupindex>
            </link>
            <itemhistory>
              <uuid>397D1E13-111F-3877-4F57-126154BB30ED</uuid>
            </itemhistory>
          </clipitem>
          <clipitem id="monsters_S01E45_lineal_V001 81">
            <name>monsters_S01E45_lineal_V001</name>
            <duration>6366</duration>
            <rate>
              <ntsc>FALSE</ntsc>
              <timebase>25</timebase>
            </rate>
            <in>4404</in>
            <out>4425</out>
            <start>5061</start>
            <end>5082</end>
            <file id="monsters_S01E45_lineal_V001 82">
              <name>monsters_S01E45_lineal_V001.aif</name>
              <pathurl>file://localhost/C:/Users/usuario/Dropbox%20(BigBangBoxSL)/PROYECTOS/My%20preschool%20monster%20serie/PRODUCCION/Story/EPISODIOS/FOTOS/XML/monsters_S01E45_lineal_V001.aif</pathurl>
              <rate>
                <timebase>25</timebase>
              </rate>
              <duration>6366</duration>
              <media>
                <audio>
                  <samplecharacteristics>
                    <samplerate>48000</samplerate>
                    <depth>16</depth>
                  </samplecharacteristics>
                  <channelcount>2</channelcount>
                  <layout>stereo</layout>
                  <audiochannel>
                    <sourcechannel>1</sourcechannel>
                    <channellabel>left</channellabel>
                  </audiochannel>
                  <audiochannel>
                    <sourcechannel>2</sourcechannel>
                    <channellabel>right</channellabel>
                  </audiochannel>
                </audio>
              </media>
            </file>
            <sourcetrack>
              <mediatype>audio</mediatype>
              <trackindex>1</trackindex>
            </sourcetrack>
            <link>
              <linkclipref>monsters_S01E45_lineal_V001 81</linkclipref>
              <mediatype>audio</mediatype>
              <trackindex>1</trackindex>
              <clipindex>28</clipindex>
              <groupindex>1</groupindex>
            </link>
            <link>
              <linkclipref>monsters_S01E45_lineal_V001 83</linkclipref>
              <mediatype>audio</mediatype>
              <trackindex>2</trackindex>
              <clipindex>28</clipindex>
              <groupindex>1</groupindex>
            </link>
            <itemhistory>
              <uuid>46532D4E-640D-2C8B-5CC3-12765F912A68</uuid>
            </itemhistory>
          </clipitem>
          <clipitem id="monsters_S01E45_lineal_V001 84">
            <name>monsters_S01E45_lineal_V001</name>
            <duration>6366</duration>
            <rate>
              <ntsc>FALSE</ntsc>
              <timebase>25</timebase>
            </rate>
            <in>4473</in>
            <out>4497</out>
            <start>5109</start>
            <end>5133</end>
            <file id="monsters_S01E45_lineal_V001 85">
              <name>monsters_S01E45_lineal_V001.aif</name>
              <pathurl>file://localhost/C:/Users/usuario/Dropbox%20(BigBangBoxSL)/PROYECTOS/My%20preschool%20monster%20serie/PRODUCCION/Story/EPISODIOS/FOTOS/XML/monsters_S01E45_lineal_V001.aif</pathurl>
              <rate>
                <timebase>25</timebase>
              </rate>
              <duration>6366</duration>
              <media>
                <audio>
                  <samplecharacteristics>
                    <samplerate>48000</samplerate>
                    <depth>16</depth>
                  </samplecharacteristics>
                  <channelcount>2</channelcount>
                  <layout>stereo</layout>
                  <audiochannel>
                    <sourcechannel>1</sourcechannel>
                    <channellabel>left</channellabel>
                  </audiochannel>
                  <audiochannel>
                    <sourcechannel>2</sourcechannel>
                    <channellabel>right</channellabel>
                  </audiochannel>
                </audio>
              </media>
            </file>
            <sourcetrack>
              <mediatype>audio</mediatype>
              <trackindex>1</trackindex>
            </sourcetrack>
            <link>
              <linkclipref>monsters_S01E45_lineal_V001 84</linkclipref>
              <mediatype>audio</mediatype>
              <trackindex>1</trackindex>
              <clipindex>29</clipindex>
              <groupindex>1</groupindex>
            </link>
            <link>
              <linkclipref>monsters_S01E45_lineal_V001 86</linkclipref>
              <mediatype>audio</mediatype>
              <trackindex>2</trackindex>
              <clipindex>29</clipindex>
              <groupindex>1</groupindex>
            </link>
            <itemhistory>
              <uuid>5EA55798-75A3-4A2C-74D3-166B6A96427A</uuid>
            </itemhistory>
          </clipitem>
          <clipitem id="monsters_S01E45_lineal_V001 87">
            <name>monsters_S01E45_lineal_V001</name>
            <duration>6366</duration>
            <rate>
              <ntsc>FALSE</ntsc>
              <timebase>25</timebase>
            </rate>
            <in>4568</in>
            <out>4596</out>
            <start>5303</start>
            <end>5331</end>
            <file id="monsters_S01E45_lineal_V001 88">
              <name>monsters_S01E45_lineal_V001.aif</name>
              <pathurl>file://localhost/C:/Users/usuario/Dropbox%20(BigBangBoxSL)/PROYECTOS/My%20preschool%20monster%20serie/PRODUCCION/Story/EPISODIOS/FOTOS/XML/monsters_S01E45_lineal_V001.aif</pathurl>
              <rate>
                <timebase>25</timebase>
              </rate>
              <duration>6366</duration>
              <media>
                <audio>
                  <samplecharacteristics>
                    <samplerate>48000</samplerate>
                    <depth>16</depth>
                  </samplecharacteristics>
                  <channelcount>2</channelcount>
                  <layout>stereo</layout>
                  <audiochannel>
                    <sourcechannel>1</sourcechannel>
                    <channellabel>left</channellabel>
                  </audiochannel>
                  <audiochannel>
                    <sourcechannel>2</sourcechannel>
                    <channellabel>right</channellabel>
                  </audiochannel>
                </audio>
              </media>
            </file>
            <sourcetrack>
              <mediatype>audio</mediatype>
              <trackindex>1</trackindex>
            </sourcetrack>
            <link>
              <linkclipref>monsters_S01E45_lineal_V001 87</linkclipref>
              <mediatype>audio</mediatype>
              <trackindex>1</trackindex>
              <clipindex>30</clipindex>
              <groupindex>1</groupindex>
            </link>
            <link>
              <linkclipref>monsters_S01E45_lineal_V001 89</linkclipref>
              <mediatype>audio</mediatype>
              <trackindex>2</trackindex>
              <clipindex>30</clipindex>
              <groupindex>1</groupindex>
            </link>
            <itemhistory>
              <uuid>7A463C3D-3538-2C02-270D-E47D58FBCEF8</uuid>
            </itemhistory>
          </clipitem>
          <clipitem id="monsters_S01E45_lineal_V001 90">
            <name>monsters_S01E45_lineal_V001</name>
            <duration>6366</duration>
            <rate>
              <ntsc>FALSE</ntsc>
              <timebase>25</timebase>
            </rate>
            <in>4599</in>
            <out>4646</out>
            <start>5331</start>
            <end>5378</end>
            <file id="monsters_S01E45_lineal_V001 91">
              <name>monsters_S01E45_lineal_V001.aif</name>
              <pathurl>file://localhost/C:/Users/usuario/Dropbox%20(BigBangBoxSL)/PROYECTOS/My%20preschool%20monster%20serie/PRODUCCION/Story/EPISODIOS/FOTOS/XML/monsters_S01E45_lineal_V001.aif</pathurl>
              <rate>
                <timebase>25</timebase>
              </rate>
              <duration>6366</duration>
              <media>
                <audio>
                  <samplecharacteristics>
                    <samplerate>48000</samplerate>
                    <depth>16</depth>
                  </samplecharacteristics>
                  <channelcount>2</channelcount>
                  <layout>stereo</layout>
                  <audiochannel>
                    <sourcechannel>1</sourcechannel>
                    <channellabel>left</channellabel>
                  </audiochannel>
                  <audiochannel>
                    <sourcechannel>2</sourcechannel>
                    <channellabel>right</channellabel>
                  </audiochannel>
                </audio>
              </media>
            </file>
            <sourcetrack>
              <mediatype>audio</mediatype>
              <trackindex>1</trackindex>
            </sourcetrack>
            <link>
              <linkclipref>monsters_S01E45_lineal_V001 90</linkclipref>
              <mediatype>audio</mediatype>
              <trackindex>1</trackindex>
              <clipindex>31</clipindex>
              <groupindex>1</groupindex>
            </link>
            <link>
              <linkclipref>monsters_S01E45_lineal_V001 92</linkclipref>
              <mediatype>audio</mediatype>
              <trackindex>2</trackindex>
              <clipindex>31</clipindex>
              <groupindex>1</groupindex>
            </link>
            <itemhistory>
              <uuid>9E1C255A-75FB-75A6-6816-621773BB21E5</uuid>
            </itemhistory>
          </clipitem>
          <clipitem id="monsters_S01E45_lineal_V001 93">
            <name>monsters_S01E45_lineal_V001</name>
            <duration>6366</duration>
            <rate>
              <ntsc>FALSE</ntsc>
              <timebase>25</timebase>
            </rate>
            <in>4769</in>
            <out>4896</out>
            <start>5469</start>
            <end>5596</end>
            <file id="monsters_S01E45_lineal_V001 94">
              <name>monsters_S01E45_lineal_V001.aif</name>
              <pathurl>file://localhost/C:/Users/usuario/Dropbox%20(BigBangBoxSL)/PROYECTOS/My%20preschool%20monster%20serie/PRODUCCION/Story/EPISODIOS/FOTOS/XML/monsters_S01E45_lineal_V001.aif</pathurl>
              <rate>
                <timebase>25</timebase>
              </rate>
              <duration>6366</duration>
              <media>
                <audio>
                  <samplecharacteristics>
                    <samplerate>48000</samplerate>
                    <depth>16</depth>
                  </samplecharacteristics>
                  <channelcount>2</channelcount>
                  <layout>stereo</layout>
                  <audiochannel>
                    <sourcechannel>1</sourcechannel>
                    <channellabel>left</channellabel>
                  </audiochannel>
                  <audiochannel>
                    <sourcechannel>2</sourcechannel>
                    <channellabel>right</channellabel>
                  </audiochannel>
                </audio>
              </media>
            </file>
            <sourcetrack>
              <mediatype>audio</mediatype>
              <trackindex>1</trackindex>
            </sourcetrack>
            <link>
              <linkclipref>monsters_S01E45_lineal_V001 93</linkclipref>
              <mediatype>audio</mediatype>
              <trackindex>1</trackindex>
              <clipindex>32</clipindex>
              <groupindex>1</groupindex>
            </link>
            <link>
              <linkclipref>monsters_S01E45_lineal_V001 95</linkclipref>
              <mediatype>audio</mediatype>
              <trackindex>2</trackindex>
              <clipindex>32</clipindex>
              <groupindex>1</groupindex>
            </link>
            <itemhistory>
              <uuid>0C5B2445-1CA8-12C2-68F4-57AC74E21F60</uuid>
            </itemhistory>
          </clipitem>
          <clipitem id="monsters_S01E45_lineal_V001 96">
            <name>monsters_S01E45_lineal_V001</name>
            <duration>6366</duration>
            <rate>
              <ntsc>FALSE</ntsc>
              <timebase>25</timebase>
            </rate>
            <in>4912</in>
            <out>4943</out>
            <start>5598</start>
            <end>5629</end>
            <file id="monsters_S01E45_lineal_V001 97">
              <name>monsters_S01E45_lineal_V001.aif</name>
              <pathurl>file://localhost/C:/Users/usuario/Dropbox%20(BigBangBoxSL)/PROYECTOS/My%20preschool%20monster%20serie/PRODUCCION/Story/EPISODIOS/FOTOS/XML/monsters_S01E45_lineal_V001.aif</pathurl>
              <rate>
                <timebase>25</timebase>
              </rate>
              <duration>6366</duration>
              <media>
                <audio>
                  <samplecharacteristics>
                    <samplerate>48000</samplerate>
                    <depth>16</depth>
                  </samplecharacteristics>
                  <channelcount>2</channelcount>
                  <layout>stereo</layout>
                  <audiochannel>
                    <sourcechannel>1</sourcechannel>
                    <channellabel>left</channellabel>
                  </audiochannel>
                  <audiochannel>
                    <sourcechannel>2</sourcechannel>
                    <channellabel>right</channellabel>
                  </audiochannel>
                </audio>
              </media>
            </file>
            <sourcetrack>
              <mediatype>audio</mediatype>
              <trackindex>1</trackindex>
            </sourcetrack>
            <link>
              <linkclipref>monsters_S01E45_lineal_V001 96</linkclipref>
              <mediatype>audio</mediatype>
              <trackindex>1</trackindex>
              <clipindex>33</clipindex>
              <groupindex>1</groupindex>
            </link>
            <link>
              <linkclipref>monsters_S01E45_lineal_V001 98</linkclipref>
              <mediatype>audio</mediatype>
              <trackindex>2</trackindex>
              <clipindex>33</clipindex>
              <groupindex>1</groupindex>
            </link>
            <itemhistory>
              <uuid>53D33078-50CC-5C5E-1EB8-453C56657C2D</uuid>
            </itemhistory>
          </clipitem>
          <clipitem id="monsters_S01E45_lineal_V001 99">
            <name>monsters_S01E45_lineal_V001</name>
            <duration>6366</duration>
            <rate>
              <ntsc>FALSE</ntsc>
              <timebase>25</timebase>
            </rate>
            <in>5160</in>
            <out>5198</out>
            <start>5787</start>
            <end>5825</end>
            <file id="monsters_S01E45_lineal_V001 100">
              <name>monsters_S01E45_lineal_V001.aif</name>
              <pathurl>file://localhost/C:/Users/usuario/Dropbox%20(BigBangBoxSL)/PROYECTOS/My%20preschool%20monster%20serie/PRODUCCION/Story/EPISODIOS/FOTOS/XML/monsters_S01E45_lineal_V001.aif</pathurl>
              <rate>
                <timebase>25</timebase>
              </rate>
              <duration>6366</duration>
              <media>
                <audio>
                  <samplecharacteristics>
                    <samplerate>48000</samplerate>
                    <depth>16</depth>
                  </samplecharacteristics>
                  <channelcount>2</channelcount>
                  <layout>stereo</layout>
                  <audiochannel>
                    <sourcechannel>1</sourcechannel>
                    <channellabel>left</channellabel>
                  </audiochannel>
                  <audiochannel>
                    <sourcechannel>2</sourcechannel>
                    <channellabel>right</channellabel>
                  </audiochannel>
                </audio>
              </media>
            </file>
            <sourcetrack>
              <mediatype>audio</mediatype>
              <trackindex>1</trackindex>
            </sourcetrack>
            <link>
              <linkclipref>monsters_S01E45_lineal_V001 99</linkclipref>
              <mediatype>audio</mediatype>
              <trackindex>1</trackindex>
              <clipindex>34</clipindex>
              <groupindex>1</groupindex>
            </link>
            <link>
              <linkclipref>monsters_S01E45_lineal_V001 101</linkclipref>
              <mediatype>audio</mediatype>
              <trackindex>2</trackindex>
              <clipindex>34</clipindex>
              <groupindex>1</groupindex>
            </link>
            <itemhistory>
              <uuid>731026E9-2470-5D7C-5AA4-C32BB21A3AA9</uuid>
            </itemhistory>
          </clipitem>
          <clipitem id="monsters_S01E45_lineal_V001 102">
            <name>monsters_S01E45_lineal_V001</name>
            <duration>6366</duration>
            <rate>
              <ntsc>FALSE</ntsc>
              <timebase>25</timebase>
            </rate>
            <in>5399</in>
            <out>5447</out>
            <start>6034</start>
            <end>6082</end>
            <file id="monsters_S01E45_lineal_V001 103">
              <name>monsters_S01E45_lineal_V001.aif</name>
              <pathurl>file://localhost/C:/Users/usuario/Dropbox%20(BigBangBoxSL)/PROYECTOS/My%20preschool%20monster%20serie/PRODUCCION/Story/EPISODIOS/FOTOS/XML/monsters_S01E45_lineal_V001.aif</pathurl>
              <rate>
                <timebase>25</timebase>
              </rate>
              <duration>6366</duration>
              <media>
                <audio>
                  <samplecharacteristics>
                    <samplerate>48000</samplerate>
                    <depth>16</depth>
                  </samplecharacteristics>
                  <channelcount>2</channelcount>
                  <layout>stereo</layout>
                  <audiochannel>
                    <sourcechannel>1</sourcechannel>
                    <channellabel>left</channellabel>
                  </audiochannel>
                  <audiochannel>
                    <sourcechannel>2</sourcechannel>
                    <channellabel>right</channellabel>
                  </audiochannel>
                </audio>
              </media>
            </file>
            <sourcetrack>
              <mediatype>audio</mediatype>
              <trackindex>1</trackindex>
            </sourcetrack>
            <link>
              <linkclipref>monsters_S01E45_lineal_V001 102</linkclipref>
              <mediatype>audio</mediatype>
              <trackindex>1</trackindex>
              <clipindex>35</clipindex>
              <groupindex>1</groupindex>
            </link>
            <link>
              <linkclipref>monsters_S01E45_lineal_V001 104</linkclipref>
              <mediatype>audio</mediatype>
              <trackindex>2</trackindex>
              <clipindex>35</clipindex>
              <groupindex>1</groupindex>
            </link>
            <itemhistory>
              <uuid>16D9767E-1A3D-2E24-44F2-4DA06E627A58</uuid>
            </itemhistory>
          </clipitem>
          <clipitem id="monsters_S01E45_lineal_V001 105">
            <name>monsters_S01E45_lineal_V001</name>
            <duration>6366</duration>
            <rate>
              <ntsc>FALSE</ntsc>
              <timebase>25</timebase>
            </rate>
            <in>5560</in>
            <out>5581</out>
            <start>6146</start>
            <end>6167</end>
            <file id="monsters_S01E45_lineal_V001 106">
              <name>monsters_S01E45_lineal_V001.aif</name>
              <pathurl>file://localhost/C:/Users/usuario/Dropbox%20(BigBangBoxSL)/PROYECTOS/My%20preschool%20monster%20serie/PRODUCCION/Story/EPISODIOS/FOTOS/XML/monsters_S01E45_lineal_V001.aif</pathurl>
              <rate>
                <timebase>25</timebase>
              </rate>
              <duration>6366</duration>
              <media>
                <audio>
                  <samplecharacteristics>
                    <samplerate>48000</samplerate>
                    <depth>16</depth>
                  </samplecharacteristics>
                  <channelcount>2</channelcount>
                  <layout>stereo</layout>
                  <audiochannel>
                    <sourcechannel>1</sourcechannel>
                    <channellabel>left</channellabel>
                  </audiochannel>
                  <audiochannel>
                    <sourcechannel>2</sourcechannel>
                    <channellabel>right</channellabel>
                  </audiochannel>
                </audio>
              </media>
            </file>
            <sourcetrack>
              <mediatype>audio</mediatype>
              <trackindex>1</trackindex>
            </sourcetrack>
            <link>
              <linkclipref>monsters_S01E45_lineal_V001 105</linkclipref>
              <mediatype>audio</mediatype>
              <trackindex>1</trackindex>
              <clipindex>36</clipindex>
              <groupindex>1</groupindex>
            </link>
            <link>
              <linkclipref>monsters_S01E45_lineal_V001 107</linkclipref>
              <mediatype>audio</mediatype>
              <trackindex>2</trackindex>
              <clipindex>36</clipindex>
              <groupindex>1</groupindex>
            </link>
            <itemhistory>
              <uuid>3C887E53-4053-33CF-4136-4E993AD64B5E</uuid>
            </itemhistory>
          </clipitem>
          <clipitem id="monsters_S01E45_lineal_V001 108">
            <name>monsters_S01E45_lineal_V001</name>
            <duration>6366</duration>
            <rate>
              <ntsc>FALSE</ntsc>
              <timebase>25</timebase>
            </rate>
            <in>5706</in>
            <out>5744</out>
            <start>6288</start>
            <end>6326</end>
            <file id="monsters_S01E45_lineal_V001 109">
              <name>monsters_S01E45_lineal_V001.aif</name>
              <pathurl>file://localhost/C:/Users/usuario/Dropbox%20(BigBangBoxSL)/PROYECTOS/My%20preschool%20monster%20serie/PRODUCCION/Story/EPISODIOS/FOTOS/XML/monsters_S01E45_lineal_V001.aif</pathurl>
              <rate>
                <timebase>25</timebase>
              </rate>
              <duration>6366</duration>
              <media>
                <audio>
                  <samplecharacteristics>
                    <samplerate>48000</samplerate>
                    <depth>16</depth>
                  </samplecharacteristics>
                  <channelcount>2</channelcount>
                  <layout>stereo</layout>
                  <audiochannel>
                    <sourcechannel>1</sourcechannel>
                    <channellabel>left</channellabel>
                  </audiochannel>
                  <audiochannel>
                    <sourcechannel>2</sourcechannel>
                    <channellabel>right</channellabel>
                  </audiochannel>
                </audio>
              </media>
            </file>
            <sourcetrack>
              <mediatype>audio</mediatype>
              <trackindex>1</trackindex>
            </sourcetrack>
            <link>
              <linkclipref>monsters_S01E45_lineal_V001 108</linkclipref>
              <mediatype>audio</mediatype>
              <trackindex>1</trackindex>
              <clipindex>37</clipindex>
              <groupindex>1</groupindex>
            </link>
            <link>
              <linkclipref>monsters_S01E45_lineal_V001 110</linkclipref>
              <mediatype>audio</mediatype>
              <trackindex>2</trackindex>
              <clipindex>37</clipindex>
              <groupindex>1</groupindex>
            </link>
            <itemhistory>
              <uuid>1C116E68-2861-5C0A-1A37-549A77B971B2</uuid>
            </itemhistory>
          </clipitem>
          <clipitem id="monsters_S01E45_lineal_V001 111">
            <name>monsters_S01E45_lineal_V001</name>
            <duration>6366</duration>
            <rate>
              <ntsc>FALSE</ntsc>
              <timebase>25</timebase>
            </rate>
            <in>5852</in>
            <out>5930</out>
            <start>6392</start>
            <end>6470</end>
            <file id="monsters_S01E45_lineal_V001 112">
              <name>monsters_S01E45_lineal_V001.aif</name>
              <pathurl>file://localhost/C:/Users/usuario/Dropbox%20(BigBangBoxSL)/PROYECTOS/My%20preschool%20monster%20serie/PRODUCCION/Story/EPISODIOS/FOTOS/XML/monsters_S01E45_lineal_V001.aif</pathurl>
              <rate>
                <timebase>25</timebase>
              </rate>
              <duration>6366</duration>
              <media>
                <audio>
                  <samplecharacteristics>
                    <samplerate>48000</samplerate>
                    <depth>16</depth>
                  </samplecharacteristics>
                  <channelcount>2</channelcount>
                  <layout>stereo</layout>
                  <audiochannel>
                    <sourcechannel>1</sourcechannel>
                    <channellabel>left</channellabel>
                  </audiochannel>
                  <audiochannel>
                    <sourcechannel>2</sourcechannel>
                    <channellabel>right</channellabel>
                  </audiochannel>
                </audio>
              </media>
            </file>
            <sourcetrack>
              <mediatype>audio</mediatype>
              <trackindex>1</trackindex>
            </sourcetrack>
            <link>
              <linkclipref>monsters_S01E45_lineal_V001 111</linkclipref>
              <mediatype>audio</mediatype>
              <trackindex>1</trackindex>
              <clipindex>38</clipindex>
              <groupindex>1</groupindex>
            </link>
            <link>
              <linkclipref>monsters_S01E45_lineal_V001 113</linkclipref>
              <mediatype>audio</mediatype>
              <trackindex>2</trackindex>
              <clipindex>38</clipindex>
              <groupindex>1</groupindex>
            </link>
            <itemhistory>
              <uuid>139D41CB-3989-64D6-56E7-B7ED6F465C1C</uuid>
            </itemhistory>
          </clipitem>
          <clipitem id="dance_music">
            <name>dance_music</name>
            <duration>531</duration>
            <rate>
              <ntsc>FALSE</ntsc>
              <timebase>25</timebase>
            </rate>
            <in>0</in>
            <out>510</out>
            <start>6518</start>
            <end>7028</end>
            <file id="dance_music 1">
              <name>dance_music.mp3</name>
              <pathurl>file://localhost/C:/Users/usuario/Dropbox%20(BigBangBoxSL)/PROYECTOS/My%20preschool%20monster%20serie/PRODUCCION/Story/EPISODIOS/FOTOS/XML/dance_music.mp3</pathurl>
              <rate>
                <timebase>25</timebase>
              </rate>
              <duration>531</duration>
              <media>
                <audio>
                  <samplecharacteristics>
                    <samplerate>48000</samplerate>
                    <depth>16</depth>
                  </samplecharacteristics>
                  <channelcount>2</channelcount>
                  <layout>stereo</layout>
                  <audiochannel>
                    <sourcechannel>1</sourcechannel>
                    <channellabel>left</channellabel>
                  </audiochannel>
                  <audiochannel>
                    <sourcechannel>2</sourcechannel>
                    <channellabel>right</channellabel>
                  </audiochannel>
                </audio>
              </media>
            </file>
            <sourcetrack>
              <mediatype>audio</mediatype>
              <trackindex>1</trackindex>
            </sourcetrack>
            <link>
              <linkclipref>dance_music</linkclipref>
              <mediatype>audio</mediatype>
              <trackindex>1</trackindex>
              <clipindex>39</clipindex>
              <groupindex>1</groupindex>
            </link>
            <link>
              <linkclipref>dance_music 2</linkclipref>
              <mediatype>audio</mediatype>
              <trackindex>2</trackindex>
              <clipindex>39</clipindex>
              <groupindex>1</groupindex>
            </link>
            <itemhistory>
              <uuid>12BB5EE4-1764-4D4F-2DFE-7331179E7B2A</uuid>
            </itemhistory>
          </clipitem>
        </track>
        <track>
          <clipitem id="monsters_S01E45_lineal_V001 2">
            <name>monsters_S01E45_lineal_V001</name>
            <duration>6366</duration>
            <rate>
              <ntsc>FALSE</ntsc>
              <timebase>25</timebase>
            </rate>
            <in>0</in>
            <out>100</out>
            <start>24</start>
            <end>124</end>
            <file id="monsters_S01E45_lineal_V001 1"/>
            <sourcetrack>
              <mediatype>audio</mediatype>
              <trackindex>2</trackindex>
            </sourcetrack>
            <link>
              <linkclipref>monsters_S01E45_lineal_V001</linkclipref>
              <mediatype>audio</mediatype>
              <trackindex>1</trackindex>
              <clipindex>1</clipindex>
              <groupindex>1</groupindex>
            </link>
            <link>
              <linkclipref>monsters_S01E45_lineal_V001 2</linkclipref>
              <mediatype>audio</mediatype>
              <trackindex>2</trackindex>
              <clipindex>1</clipindex>
              <groupindex>1</groupindex>
            </link>
            <itemhistory>
              <uuid>77E72716-51C1-35A8-591B-1F0D13127237</uuid>
            </itemhistory>
          </clipitem>
          <clipitem id="monsters_S01E45_lineal_V001 5">
            <name>monsters_S01E45_lineal_V001</name>
            <duration>6366</duration>
            <rate>
              <ntsc>FALSE</ntsc>
              <timebase>25</timebase>
            </rate>
            <in>285</in>
            <out>298</out>
            <start>332</start>
            <end>345</end>
            <file id="monsters_S01E45_lineal_V001 4"/>
            <sourcetrack>
              <mediatype>audio</mediatype>
              <trackindex>2</trackindex>
            </sourcetrack>
            <link>
              <linkclipref>monsters_S01E45_lineal_V001 3</linkclipref>
              <mediatype>audio</mediatype>
              <trackindex>1</trackindex>
              <clipindex>2</clipindex>
              <groupindex>1</groupindex>
            </link>
            <link>
              <linkclipref>monsters_S01E45_lineal_V001 5</linkclipref>
              <mediatype>audio</mediatype>
              <trackindex>2</trackindex>
              <clipindex>2</clipindex>
              <groupindex>1</groupindex>
            </link>
            <itemhistory>
              <uuid>3B1B55A4-176B-5CB2-5108-41D3112B3B2B</uuid>
            </itemhistory>
          </clipitem>
          <clipitem id="monsters_S01E45_lineal_V001 8">
            <name>monsters_S01E45_lineal_V001</name>
            <duration>6366</duration>
            <rate>
              <ntsc>FALSE</ntsc>
              <timebase>25</timebase>
            </rate>
            <in>308</in>
            <out>319</out>
            <start>394</start>
            <end>405</end>
            <file id="monsters_S01E45_lineal_V001 7"/>
            <sourcetrack>
              <mediatype>audio</mediatype>
              <trackindex>2</trackindex>
            </sourcetrack>
            <link>
              <linkclipref>monsters_S01E45_lineal_V001 6</linkclipref>
              <mediatype>audio</mediatype>
              <trackindex>1</trackindex>
              <clipindex>3</clipindex>
              <groupindex>1</groupindex>
            </link>
            <link>
              <linkclipref>monsters_S01E45_lineal_V001 8</linkclipref>
              <mediatype>audio</mediatype>
              <trackindex>2</trackindex>
              <clipindex>3</clipindex>
              <groupindex>1</groupindex>
            </link>
            <itemhistory>
              <uuid>6CED6DD9-6764-2835-50BD-635164625D14</uuid>
            </itemhistory>
          </clipitem>
          <clipitem id="monsters_S01E45_lineal_V001 11">
            <name>monsters_S01E45_lineal_V001</name>
            <duration>6366</duration>
            <rate>
              <ntsc>FALSE</ntsc>
              <timebase>25</timebase>
            </rate>
            <in>458</in>
            <out>474</out>
            <start>530</start>
            <end>546</end>
            <file id="monsters_S01E45_lineal_V001 10"/>
            <sourcetrack>
              <mediatype>audio</mediatype>
              <trackindex>2</trackindex>
            </sourcetrack>
            <link>
              <linkclipref>monsters_S01E45_lineal_V001 9</linkclipref>
              <mediatype>audio</mediatype>
              <trackindex>1</trackindex>
              <clipindex>4</clipindex>
              <groupindex>1</groupindex>
            </link>
            <link>
              <linkclipref>monsters_S01E45_lineal_V001 11</linkclipref>
              <mediatype>audio</mediatype>
              <trackindex>2</trackindex>
              <clipindex>4</clipindex>
              <groupindex>1</groupindex>
            </link>
            <itemhistory>
              <uuid>465727F4-30AC-24DC-7B82-A427C75C6E57</uuid>
            </itemhistory>
          </clipitem>
          <clipitem id="monsters_S01E45_lineal_V001 14">
            <name>monsters_S01E45_lineal_V001</name>
            <duration>6366</duration>
            <rate>
              <ntsc>FALSE</ntsc>
              <timebase>25</timebase>
            </rate>
            <in>484</in>
            <out>528</out>
            <start>548</start>
            <end>592</end>
            <file id="monsters_S01E45_lineal_V001 13"/>
            <sourcetrack>
              <mediatype>audio</mediatype>
              <trackindex>2</trackindex>
            </sourcetrack>
            <link>
              <linkclipref>monsters_S01E45_lineal_V001 12</linkclipref>
              <mediatype>audio</mediatype>
              <trackindex>1</trackindex>
              <clipindex>5</clipindex>
              <groupindex>1</groupindex>
            </link>
            <link>
              <linkclipref>monsters_S01E45_lineal_V001 14</linkclipref>
              <mediatype>audio</mediatype>
              <trackindex>2</trackindex>
              <clipindex>5</clipindex>
              <groupindex>1</groupindex>
            </link>
            <itemhistory>
              <uuid>BD214204-4343-1C37-5557-E77E758543BD</uuid>
            </itemhistory>
          </clipitem>
          <clipitem id="monsters_S01E45_lineal_V001 17">
            <name>monsters_S01E45_lineal_V001</name>
            <duration>6366</duration>
            <rate>
              <ntsc>FALSE</ntsc>
              <timebase>25</timebase>
            </rate>
            <in>755</in>
            <out>811</out>
            <start>872</start>
            <end>928</end>
            <file id="monsters_S01E45_lineal_V001 16"/>
            <sourcetrack>
              <mediatype>audio</mediatype>
              <trackindex>2</trackindex>
            </sourcetrack>
            <link>
              <linkclipref>monsters_S01E45_lineal_V001 15</linkclipref>
              <mediatype>audio</mediatype>
              <trackindex>1</trackindex>
              <clipindex>6</clipindex>
              <groupindex>1</groupindex>
            </link>
            <link>
              <linkclipref>monsters_S01E45_lineal_V001 17</linkclipref>
              <mediatype>audio</mediatype>
              <trackindex>2</trackindex>
              <clipindex>6</clipindex>
              <groupindex>1</groupindex>
            </link>
            <itemhistory>
              <uuid>1E442B14-414C-404A-3877-A1509955711B</uuid>
            </itemhistory>
          </clipitem>
          <clipitem id="monsters_S01E45_lineal_V001 20">
            <name>monsters_S01E45_lineal_V001</name>
            <duration>6366</duration>
            <rate>
              <ntsc>FALSE</ntsc>
              <timebase>25</timebase>
            </rate>
            <in>813</in>
            <out>848</out>
            <start>933</start>
            <end>968</end>
            <file id="monsters_S01E45_lineal_V001 19"/>
            <sourcetrack>
              <mediatype>audio</mediatype>
              <trackindex>2</trackindex>
            </sourcetrack>
            <link>
              <linkclipref>monsters_S01E45_lineal_V001 18</linkclipref>
              <mediatype>audio</mediatype>
              <trackindex>1</trackindex>
              <clipindex>7</clipindex>
              <groupindex>1</groupindex>
            </link>
            <link>
              <linkclipref>monsters_S01E45_lineal_V001 20</linkclipref>
              <mediatype>audio</mediatype>
              <trackindex>2</trackindex>
              <clipindex>7</clipindex>
              <groupindex>1</groupindex>
            </link>
            <itemhistory>
              <uuid>45935980-5689-78AC-66F4-28422B9819B4</uuid>
            </itemhistory>
          </clipitem>
          <clipitem id="monsters_S01E45_lineal_V001 23">
            <name>monsters_S01E45_lineal_V001</name>
            <duration>6366</duration>
            <rate>
              <ntsc>FALSE</ntsc>
              <timebase>25</timebase>
            </rate>
            <in>934</in>
            <out>967</out>
            <start>1179</start>
            <end>1212</end>
            <file id="monsters_S01E45_lineal_V001 22"/>
            <sourcetrack>
              <mediatype>audio</mediatype>
              <trackindex>2</trackindex>
            </sourcetrack>
            <link>
              <linkclipref>monsters_S01E45_lineal_V001 21</linkclipref>
              <mediatype>audio</mediatype>
              <trackindex>1</trackindex>
              <clipindex>8</clipindex>
              <groupindex>1</groupindex>
            </link>
            <link>
              <linkclipref>monsters_S01E45_lineal_V001 23</linkclipref>
              <mediatype>audio</mediatype>
              <trackindex>2</trackindex>
              <clipindex>8</clipindex>
              <groupindex>1</groupindex>
            </link>
            <itemhistory>
              <uuid>5E5E3AF6-2492-2382-471E-49CB47232D1D</uuid>
            </itemhistory>
          </clipitem>
          <clipitem id="monsters_S01E45_lineal_V001 26">
            <name>monsters_S01E45_lineal_V001</name>
            <duration>6366</duration>
            <rate>
              <ntsc>FALSE</ntsc>
              <timebase>25</timebase>
            </rate>
            <in>974</in>
            <out>1050</out>
            <start>1218</start>
            <end>1294</end>
            <file id="monsters_S01E45_lineal_V001 25"/>
            <sourcetrack>
              <mediatype>audio</mediatype>
              <trackindex>2</trackindex>
            </sourcetrack>
            <link>
              <linkclipref>monsters_S01E45_lineal_V001 24</linkclipref>
              <mediatype>audio</mediatype>
              <trackindex>1</trackindex>
              <clipindex>9</clipindex>
              <groupindex>1</groupindex>
            </link>
            <link>
              <linkclipref>monsters_S01E45_lineal_V001 26</linkclipref>
              <mediatype>audio</mediatype>
              <trackindex>2</trackindex>
              <clipindex>9</clipindex>
              <groupindex>1</groupindex>
            </link>
            <itemhistory>
              <uuid>56353DF6-4BC4-7311-3E0F-52E34DBA3630</uuid>
            </itemhistory>
          </clipitem>
          <clipitem id="monsters_S01E45_lineal_V001 29">
            <name>monsters_S01E45_lineal_V001</name>
            <duration>6366</duration>
            <rate>
              <ntsc>FALSE</ntsc>
              <timebase>25</timebase>
            </rate>
            <in>1294</in>
            <out>1424</out>
            <start>1529</start>
            <end>1659</end>
            <file id="monsters_S01E45_lineal_V001 28"/>
            <sourcetrack>
              <mediatype>audio</mediatype>
              <trackindex>2</trackindex>
            </sourcetrack>
            <link>
              <linkclipref>monsters_S01E45_lineal_V001 27</linkclipref>
              <mediatype>audio</mediatype>
              <trackindex>1</trackindex>
              <clipindex>10</clipindex>
              <groupindex>1</groupindex>
            </link>
            <link>
              <linkclipref>monsters_S01E45_lineal_V001 29</linkclipref>
              <mediatype>audio</mediatype>
              <trackindex>2</trackindex>
              <clipindex>10</clipindex>
              <groupindex>1</groupindex>
            </link>
            <itemhistory>
              <uuid>8A213056-5F64-6E28-3F20-636747252127</uuid>
            </itemhistory>
          </clipitem>
          <clipitem id="monsters_S01E45_lineal_V001 32">
            <name>monsters_S01E45_lineal_V001</name>
            <duration>6366</duration>
            <rate>
              <ntsc>FALSE</ntsc>
              <timebase>25</timebase>
            </rate>
            <in>1484</in>
            <out>1500</out>
            <start>1697</start>
            <end>1713</end>
            <file id="monsters_S01E45_lineal_V001 31"/>
            <sourcetrack>
              <mediatype>audio</mediatype>
              <trackindex>2</trackindex>
            </sourcetrack>
            <link>
              <linkclipref>monsters_S01E45_lineal_V001 30</linkclipref>
              <mediatype>audio</mediatype>
              <trackindex>1</trackindex>
              <clipindex>11</clipindex>
              <groupindex>1</groupindex>
            </link>
            <link>
              <linkclipref>monsters_S01E45_lineal_V001 32</linkclipref>
              <mediatype>audio</mediatype>
              <trackindex>2</trackindex>
              <clipindex>11</clipindex>
              <groupindex>1</groupindex>
            </link>
            <itemhistory>
              <uuid>7AF05960-4501-4904-4525-168830F43458</uuid>
            </itemhistory>
          </clipitem>
          <clipitem id="monsters_S01E45_lineal_V001 35">
            <name>monsters_S01E45_lineal_V001</name>
            <duration>6366</duration>
            <rate>
              <ntsc>FALSE</ntsc>
              <timebase>25</timebase>
            </rate>
            <in>1527</in>
            <out>1604</out>
            <start>1814</start>
            <end>1891</end>
            <file id="monsters_S01E45_lineal_V001 34"/>
            <sourcetrack>
              <mediatype>audio</mediatype>
              <trackindex>2</trackindex>
            </sourcetrack>
            <link>
              <linkclipref>monsters_S01E45_lineal_V001 33</linkclipref>
              <mediatype>audio</mediatype>
              <trackindex>1</trackindex>
              <clipindex>12</clipindex>
              <groupindex>1</groupindex>
            </link>
            <link>
              <linkclipref>monsters_S01E45_lineal_V001 35</linkclipref>
              <mediatype>audio</mediatype>
              <trackindex>2</trackindex>
              <clipindex>12</clipindex>
              <groupindex>1</groupindex>
            </link>
            <itemhistory>
              <uuid>6B8336DB-6E40-17F8-6B25-B22056759E09</uuid>
            </itemhistory>
          </clipitem>
          <clipitem id="monsters_S01E45_lineal_V001 38">
            <name>monsters_S01E45_lineal_V001</name>
            <duration>6366</duration>
            <rate>
              <ntsc>FALSE</ntsc>
              <timebase>25</timebase>
            </rate>
            <in>1804</in>
            <out>1901</out>
            <start>2073</start>
            <end>2170</end>
            <file id="monsters_S01E45_lineal_V001 37"/>
            <sourcetrack>
              <mediatype>audio</mediatype>
              <trackindex>2</trackindex>
            </sourcetrack>
            <link>
              <linkclipref>monsters_S01E45_lineal_V001 36</linkclipref>
              <mediatype>audio</mediatype>
              <trackindex>1</trackindex>
              <clipindex>13</clipindex>
              <groupindex>1</groupindex>
            </link>
            <link>
              <linkclipref>monsters_S01E45_lineal_V001 38</linkclipref>
              <mediatype>audio</mediatype>
              <trackindex>2</trackindex>
              <clipindex>13</clipindex>
              <groupindex>1</groupindex>
            </link>
            <itemhistory>
              <uuid>4C6D2B43-2848-1A81-3A36-7C651F8F4D79</uuid>
            </itemhistory>
          </clipitem>
          <clipitem id="monsters_S01E45_lineal_V001 41">
            <name>monsters_S01E45_lineal_V001</name>
            <duration>6366</duration>
            <rate>
              <ntsc>FALSE</ntsc>
              <timebase>25</timebase>
            </rate>
            <in>1908</in>
            <out>1963</out>
            <start>2292</start>
            <end>2347</end>
            <file id="monsters_S01E45_lineal_V001 40"/>
            <sourcetrack>
              <mediatype>audio</mediatype>
              <trackindex>2</trackindex>
            </sourcetrack>
            <link>
              <linkclipref>monsters_S01E45_lineal_V001 39</linkclipref>
              <mediatype>audio</mediatype>
              <trackindex>1</trackindex>
              <clipindex>14</clipindex>
              <groupindex>1</groupindex>
            </link>
            <link>
              <linkclipref>monsters_S01E45_lineal_V001 41</linkclipref>
              <mediatype>audio</mediatype>
              <trackindex>2</trackindex>
              <clipindex>14</clipindex>
              <groupindex>1</groupindex>
            </link>
            <itemhistory>
              <uuid>36A47A8C-46B7-3E06-2E8A-51E265CD5F24</uuid>
            </itemhistory>
          </clipitem>
          <clipitem id="monsters_S01E45_lineal_V001 44">
            <name>monsters_S01E45_lineal_V001</name>
            <duration>6366</duration>
            <rate>
              <ntsc>FALSE</ntsc>
              <timebase>25</timebase>
            </rate>
            <in>2188</in>
            <out>2203</out>
            <start>2559</start>
            <end>2574</end>
            <file id="monsters_S01E45_lineal_V001 43"/>
            <sourcetrack>
              <mediatype>audio</mediatype>
              <trackindex>2</trackindex>
            </sourcetrack>
            <link>
              <linkclipref>monsters_S01E45_lineal_V001 42</linkclipref>
              <mediatype>audio</mediatype>
              <trackindex>1</trackindex>
              <clipindex>15</clipindex>
              <groupindex>1</groupindex>
            </link>
            <link>
              <linkclipref>monsters_S01E45_lineal_V001 44</linkclipref>
              <mediatype>audio</mediatype>
              <trackindex>2</trackindex>
              <clipindex>15</clipindex>
              <groupindex>1</groupindex>
            </link>
            <itemhistory>
              <uuid>6CDF695D-4D32-5583-6837-1EBB21AC4CCD</uuid>
            </itemhistory>
          </clipitem>
          <clipitem id="monsters_S01E45_lineal_V001 47">
            <name>monsters_S01E45_lineal_V001</name>
            <duration>6366</duration>
            <rate>
              <ntsc>FALSE</ntsc>
              <timebase>25</timebase>
            </rate>
            <in>2331</in>
            <out>2361</out>
            <start>2680</start>
            <end>2710</end>
            <file id="monsters_S01E45_lineal_V001 46"/>
            <sourcetrack>
              <mediatype>audio</mediatype>
              <trackindex>2</trackindex>
            </sourcetrack>
            <link>
              <linkclipref>monsters_S01E45_lineal_V001 45</linkclipref>
              <mediatype>audio</mediatype>
              <trackindex>1</trackindex>
              <clipindex>16</clipindex>
              <groupindex>1</groupindex>
            </link>
            <link>
              <linkclipref>monsters_S01E45_lineal_V001 47</linkclipref>
              <mediatype>audio</mediatype>
              <trackindex>2</trackindex>
              <clipindex>16</clipindex>
              <groupindex>1</groupindex>
            </link>
            <itemhistory>
              <uuid>62411B4E-121B-3302-4365-523D69C0253D</uuid>
            </itemhistory>
          </clipitem>
          <clipitem id="monsters_S01E45_lineal_V001 50">
            <name>monsters_S01E45_lineal_V001</name>
            <duration>6366</duration>
            <rate>
              <ntsc>FALSE</ntsc>
              <timebase>25</timebase>
            </rate>
            <in>2362</in>
            <out>2392</out>
            <start>2838</start>
            <end>2868</end>
            <file id="monsters_S01E45_lineal_V001 49"/>
            <sourcetrack>
              <mediatype>audio</mediatype>
              <trackindex>2</trackindex>
            </sourcetrack>
            <link>
              <linkclipref>monsters_S01E45_lineal_V001 48</linkclipref>
              <mediatype>audio</mediatype>
              <trackindex>1</trackindex>
              <clipindex>17</clipindex>
              <groupindex>1</groupindex>
            </link>
            <link>
              <linkclipref>monsters_S01E45_lineal_V001 50</linkclipref>
              <mediatype>audio</mediatype>
              <trackindex>2</trackindex>
              <clipindex>17</clipindex>
              <groupindex>1</groupindex>
            </link>
            <itemhistory>
              <uuid>3DA45314-18E3-5A64-225C-65E0536F57A0</uuid>
            </itemhistory>
          </clipitem>
          <clipitem id="monsters_S01E45_lineal_V001 53">
            <name>monsters_S01E45_lineal_V001</name>
            <duration>6366</duration>
            <rate>
              <ntsc>FALSE</ntsc>
              <timebase>25</timebase>
            </rate>
            <in>2691</in>
            <out>2820</out>
            <start>3114</start>
            <end>3243</end>
            <file id="monsters_S01E45_lineal_V001 52"/>
            <sourcetrack>
              <mediatype>audio</mediatype>
              <trackindex>2</trackindex>
            </sourcetrack>
            <link>
              <linkclipref>monsters_S01E45_lineal_V001 51</linkclipref>
              <mediatype>audio</mediatype>
              <trackindex>1</trackindex>
              <clipindex>18</clipindex>
              <groupindex>1</groupindex>
            </link>
            <link>
              <linkclipref>monsters_S01E45_lineal_V001 53</linkclipref>
              <mediatype>audio</mediatype>
              <trackindex>2</trackindex>
              <clipindex>18</clipindex>
              <groupindex>1</groupindex>
            </link>
            <itemhistory>
              <uuid>16EE3510-5A88-7C18-7BA1-5A5635CD37E2</uuid>
            </itemhistory>
          </clipitem>
          <clipitem id="monsters_S01E45_lineal_V001 56">
            <name>monsters_S01E45_lineal_V001</name>
            <duration>6366</duration>
            <rate>
              <ntsc>FALSE</ntsc>
              <timebase>25</timebase>
            </rate>
            <in>2991</in>
            <out>3039</out>
            <start>3544</start>
            <end>3592</end>
            <file id="monsters_S01E45_lineal_V001 55"/>
            <sourcetrack>
              <mediatype>audio</mediatype>
              <trackindex>2</trackindex>
            </sourcetrack>
            <link>
              <linkclipref>monsters_S01E45_lineal_V001 54</linkclipref>
              <mediatype>audio</mediatype>
              <trackindex>1</trackindex>
              <clipindex>19</clipindex>
              <groupindex>1</groupindex>
            </link>
            <link>
              <linkclipref>monsters_S01E45_lineal_V001 56</linkclipref>
              <mediatype>audio</mediatype>
              <trackindex>2</trackindex>
              <clipindex>19</clipindex>
              <groupindex>1</groupindex>
            </link>
            <itemhistory>
              <uuid>73FB5569-245E-30DC-6154-C650401E6629</uuid>
            </itemhistory>
          </clipitem>
          <clipitem id="monsters_S01E45_lineal_V001 59">
            <name>monsters_S01E45_lineal_V001</name>
            <duration>6366</duration>
            <rate>
              <ntsc>FALSE</ntsc>
              <timebase>25</timebase>
            </rate>
            <in>3191</in>
            <out>3205</out>
            <start>3773</start>
            <end>3787</end>
            <file id="monsters_S01E45_lineal_V001 58"/>
            <sourcetrack>
              <mediatype>audio</mediatype>
              <trackindex>2</trackindex>
            </sourcetrack>
            <link>
              <linkclipref>monsters_S01E45_lineal_V001 57</linkclipref>
              <mediatype>audio</mediatype>
              <trackindex>1</trackindex>
              <clipindex>20</clipindex>
              <groupindex>1</groupindex>
            </link>
            <link>
              <linkclipref>monsters_S01E45_lineal_V001 59</linkclipref>
              <mediatype>audio</mediatype>
              <trackindex>2</trackindex>
              <clipindex>20</clipindex>
              <groupindex>1</groupindex>
            </link>
            <itemhistory>
              <uuid>18A0249A-43DC-4E12-5E30-144072837AD8</uuid>
            </itemhistory>
          </clipitem>
          <clipitem id="monsters_S01E45_lineal_V001 62">
            <name>monsters_S01E45_lineal_V001</name>
            <duration>6366</duration>
            <rate>
              <ntsc>FALSE</ntsc>
              <timebase>25</timebase>
            </rate>
            <in>3213</in>
            <out>3253</out>
            <start>3787</start>
            <end>3827</end>
            <file id="monsters_S01E45_lineal_V001 61"/>
            <sourcetrack>
              <mediatype>audio</mediatype>
              <trackindex>2</trackindex>
            </sourcetrack>
            <link>
              <linkclipref>monsters_S01E45_lineal_V001 60</linkclipref>
              <mediatype>audio</mediatype>
              <trackindex>1</trackindex>
              <clipindex>21</clipindex>
              <groupindex>1</groupindex>
            </link>
            <link>
              <linkclipref>monsters_S01E45_lineal_V001 62</linkclipref>
              <mediatype>audio</mediatype>
              <trackindex>2</trackindex>
              <clipindex>21</clipindex>
              <groupindex>1</groupindex>
            </link>
            <itemhistory>
              <uuid>2E8144ED-2D12-3671-5B6B-1BCB770A2C43</uuid>
            </itemhistory>
          </clipitem>
          <clipitem id="monsters_S01E45_lineal_V001 65">
            <name>monsters_S01E45_lineal_V001</name>
            <duration>6366</duration>
            <rate>
              <ntsc>FALSE</ntsc>
              <timebase>25</timebase>
            </rate>
            <in>3399</in>
            <out>3444</out>
            <start>3930</start>
            <end>3975</end>
            <file id="monsters_S01E45_lineal_V001 64"/>
            <sourcetrack>
              <mediatype>audio</mediatype>
              <trackindex>2</trackindex>
            </sourcetrack>
            <link>
              <linkclipref>monsters_S01E45_lineal_V001 63</linkclipref>
              <mediatype>audio</mediatype>
              <trackindex>1</trackindex>
              <clipindex>22</clipindex>
              <groupindex>1</groupindex>
            </link>
            <link>
              <linkclipref>monsters_S01E45_lineal_V001 65</linkclipref>
              <mediatype>audio</mediatype>
              <trackindex>2</trackindex>
              <clipindex>22</clipindex>
              <groupindex>1</groupindex>
            </link>
            <itemhistory>
              <uuid>62EB7025-1FF7-76C6-2FF0-31CB17F440E5</uuid>
            </itemhistory>
          </clipitem>
          <clipitem id="monsters_S01E45_lineal_V001 68">
            <name>monsters_S01E45_lineal_V001</name>
            <duration>6366</duration>
            <rate>
              <ntsc>FALSE</ntsc>
              <timebase>25</timebase>
            </rate>
            <in>3484</in>
            <out>3503</out>
            <start>3991</start>
            <end>4010</end>
            <file id="monsters_S01E45_lineal_V001 67"/>
            <sourcetrack>
              <mediatype>audio</mediatype>
              <trackindex>2</trackindex>
            </sourcetrack>
            <link>
              <linkclipref>monsters_S01E45_lineal_V001 66</linkclipref>
              <mediatype>audio</mediatype>
              <trackindex>1</trackindex>
              <clipindex>23</clipindex>
              <groupindex>1</groupindex>
            </link>
            <link>
              <linkclipref>monsters_S01E45_lineal_V001 68</linkclipref>
              <mediatype>audio</mediatype>
              <trackindex>2</trackindex>
              <clipindex>23</clipindex>
              <groupindex>1</groupindex>
            </link>
            <itemhistory>
              <uuid>26F922AD-4ED4-5618-75C0-C3265478376D</uuid>
            </itemhistory>
          </clipitem>
          <clipitem id="monsters_S01E45_lineal_V001 71">
            <name>monsters_S01E45_lineal_V001</name>
            <duration>6366</duration>
            <rate>
              <ntsc>FALSE</ntsc>
              <timebase>25</timebase>
            </rate>
            <in>3529</in>
            <out>3593</out>
            <start>4083</start>
            <end>4147</end>
            <file id="monsters_S01E45_lineal_V001 70"/>
            <sourcetrack>
              <mediatype>audio</mediatype>
              <trackindex>2</trackindex>
            </sourcetrack>
            <link>
              <linkclipref>monsters_S01E45_lineal_V001 69</linkclipref>
              <mediatype>audio</mediatype>
              <trackindex>1</trackindex>
              <clipindex>24</clipindex>
              <groupindex>1</groupindex>
            </link>
            <link>
              <linkclipref>monsters_S01E45_lineal_V001 71</linkclipref>
              <mediatype>audio</mediatype>
              <trackindex>2</trackindex>
              <clipindex>24</clipindex>
              <groupindex>1</groupindex>
            </link>
            <itemhistory>
              <uuid>29B71EC0-3E3F-31D5-613F-138D238C6BFA</uuid>
            </itemhistory>
          </clipitem>
          <clipitem id="monsters_S01E45_lineal_V001 74">
            <name>monsters_S01E45_lineal_V001</name>
            <duration>6366</duration>
            <rate>
              <ntsc>FALSE</ntsc>
              <timebase>25</timebase>
            </rate>
            <in>3611</in>
            <out>3669</out>
            <start>4156</start>
            <end>4214</end>
            <file id="monsters_S01E45_lineal_V001 73"/>
            <sourcetrack>
              <mediatype>audio</mediatype>
              <trackindex>2</trackindex>
            </sourcetrack>
            <link>
              <linkclipref>monsters_S01E45_lineal_V001 72</linkclipref>
              <mediatype>audio</mediatype>
              <trackindex>1</trackindex>
              <clipindex>25</clipindex>
              <groupindex>1</groupindex>
            </link>
            <link>
              <linkclipref>monsters_S01E45_lineal_V001 74</linkclipref>
              <mediatype>audio</mediatype>
              <trackindex>2</trackindex>
              <clipindex>25</clipindex>
              <groupindex>1</groupindex>
            </link>
            <itemhistory>
              <uuid>55023467-7CDD-37DA-2DE9-2BCB57A474DA</uuid>
            </itemhistory>
          </clipitem>
          <clipitem id="monsters_S01E45_lineal_V001 77">
            <name>monsters_S01E45_lineal_V001</name>
            <duration>6366</duration>
            <rate>
              <ntsc>FALSE</ntsc>
              <timebase>25</timebase>
            </rate>
            <in>3904</in>
            <out>3963</out>
            <start>4455</start>
            <end>4514</end>
            <file id="monsters_S01E45_lineal_V001 76"/>
            <sourcetrack>
              <mediatype>audio</mediatype>
              <trackindex>2</trackindex>
            </sourcetrack>
            <link>
              <linkclipref>monsters_S01E45_lineal_V001 75</linkclipref>
              <mediatype>audio</mediatype>
              <trackindex>1</trackindex>
              <clipindex>26</clipindex>
              <groupindex>1</groupindex>
            </link>
            <link>
              <linkclipref>monsters_S01E45_lineal_V001 77</linkclipref>
              <mediatype>audio</mediatype>
              <trackindex>2</trackindex>
              <clipindex>26</clipindex>
              <groupindex>1</groupindex>
            </link>
            <itemhistory>
              <uuid>37614E3A-36D7-623E-3241-2C2B5AB84676</uuid>
            </itemhistory>
          </clipitem>
          <clipitem id="monsters_S01E45_lineal_V001 80">
            <name>monsters_S01E45_lineal_V001</name>
            <duration>6366</duration>
            <rate>
              <ntsc>FALSE</ntsc>
              <timebase>25</timebase>
            </rate>
            <in>4304</in>
            <out>4335</out>
            <start>4974</start>
            <end>5005</end>
            <file id="monsters_S01E45_lineal_V001 79"/>
            <sourcetrack>
              <mediatype>audio</mediatype>
              <trackindex>2</trackindex>
            </sourcetrack>
            <link>
              <linkclipref>monsters_S01E45_lineal_V001 78</linkclipref>
              <mediatype>audio</mediatype>
              <trackindex>1</trackindex>
              <clipindex>27</clipindex>
              <groupindex>1</groupindex>
            </link>
            <link>
              <linkclipref>monsters_S01E45_lineal_V001 80</linkclipref>
              <mediatype>audio</mediatype>
              <trackindex>2</trackindex>
              <clipindex>27</clipindex>
              <groupindex>1</groupindex>
            </link>
            <itemhistory>
              <uuid>4AD36606-3A69-7AE2-26D0-32134C4D2F7B</uuid>
            </itemhistory>
          </clipitem>
          <clipitem id="monsters_S01E45_lineal_V001 83">
            <name>monsters_S01E45_lineal_V001</name>
            <duration>6366</duration>
            <rate>
              <ntsc>FALSE</ntsc>
              <timebase>25</timebase>
            </rate>
            <in>4404</in>
            <out>4425</out>
            <start>5061</start>
            <end>5082</end>
            <file id="monsters_S01E45_lineal_V001 82"/>
            <sourcetrack>
              <mediatype>audio</mediatype>
              <trackindex>2</trackindex>
            </sourcetrack>
            <link>
              <linkclipref>monsters_S01E45_lineal_V001 81</linkclipref>
              <mediatype>audio</mediatype>
              <trackindex>1</trackindex>
              <clipindex>28</clipindex>
              <groupindex>1</groupindex>
            </link>
            <link>
              <linkclipref>monsters_S01E45_lineal_V001 83</linkclipref>
              <mediatype>audio</mediatype>
              <trackindex>2</trackindex>
              <clipindex>28</clipindex>
              <groupindex>1</groupindex>
            </link>
            <itemhistory>
              <uuid>1FD95AB9-7F7C-281C-55EF-42CA26573F52</uuid>
            </itemhistory>
          </clipitem>
          <clipitem id="monsters_S01E45_lineal_V001 86">
            <name>monsters_S01E45_lineal_V001</name>
            <duration>6366</duration>
            <rate>
              <ntsc>FALSE</ntsc>
              <timebase>25</timebase>
            </rate>
            <in>4473</in>
            <out>4497</out>
            <start>5109</start>
            <end>5133</end>
            <file id="monsters_S01E45_lineal_V001 85"/>
            <sourcetrack>
              <mediatype>audio</mediatype>
              <trackindex>2</trackindex>
            </sourcetrack>
            <link>
              <linkclipref>monsters_S01E45_lineal_V001 84</linkclipref>
              <mediatype>audio</mediatype>
              <trackindex>1</trackindex>
              <clipindex>29</clipindex>
              <groupindex>1</groupindex>
            </link>
            <link>
              <linkclipref>monsters_S01E45_lineal_V001 86</linkclipref>
              <mediatype>audio</mediatype>
              <trackindex>2</trackindex>
              <clipindex>29</clipindex>
              <groupindex>1</groupindex>
            </link>
            <itemhistory>
              <uuid>49147EF3-2C79-6C09-1DEE-67DE120E3DD5</uuid>
            </itemhistory>
          </clipitem>
          <clipitem id="monsters_S01E45_lineal_V001 89">
            <name>monsters_S01E45_lineal_V001</name>
            <duration>6366</duration>
            <rate>
              <ntsc>FALSE</ntsc>
              <timebase>25</timebase>
            </rate>
            <in>4568</in>
            <out>4596</out>
            <start>5303</start>
            <end>5331</end>
            <file id="monsters_S01E45_lineal_V001 88"/>
            <sourcetrack>
              <mediatype>audio</mediatype>
              <trackindex>2</trackindex>
            </sourcetrack>
            <link>
              <linkclipref>monsters_S01E45_lineal_V001 87</linkclipref>
              <mediatype>audio</mediatype>
              <trackindex>1</trackindex>
              <clipindex>30</clipindex>
              <groupindex>1</groupindex>
            </link>
            <link>
              <linkclipref>monsters_S01E45_lineal_V001 89</linkclipref>
              <mediatype>audio</mediatype>
              <trackindex>2</trackindex>
              <clipindex>30</clipindex>
              <groupindex>1</groupindex>
            </link>
            <itemhistory>
              <uuid>78545B6D-29D7-1128-6CA9-340121D76CD5</uuid>
            </itemhistory>
          </clipitem>
          <clipitem id="monsters_S01E45_lineal_V001 92">
            <name>monsters_S01E45_lineal_V001</name>
            <duration>6366</duration>
            <rate>
              <ntsc>FALSE</ntsc>
              <timebase>25</timebase>
            </rate>
            <in>4599</in>
            <out>4646</out>
            <start>5331</start>
            <end>5378</end>
            <file id="monsters_S01E45_lineal_V001 91"/>
            <sourcetrack>
              <mediatype>audio</mediatype>
              <trackindex>2</trackindex>
            </sourcetrack>
            <link>
              <linkclipref>monsters_S01E45_lineal_V001 90</linkclipref>
              <mediatype>audio</mediatype>
              <trackindex>1</trackindex>
              <clipindex>31</clipindex>
              <groupindex>1</groupindex>
            </link>
            <link>
              <linkclipref>monsters_S01E45_lineal_V001 92</linkclipref>
              <mediatype>audio</mediatype>
              <trackindex>2</trackindex>
              <clipindex>31</clipindex>
              <groupindex>1</groupindex>
            </link>
            <itemhistory>
              <uuid>433E4274-7AF3-74B4-613E-54E014FF512B</uuid>
            </itemhistory>
          </clipitem>
          <clipitem id="monsters_S01E45_lineal_V001 95">
            <name>monsters_S01E45_lineal_V001</name>
            <duration>6366</duration>
            <rate>
              <ntsc>FALSE</ntsc>
              <timebase>25</timebase>
            </rate>
            <in>4769</in>
            <out>4896</out>
            <start>5469</start>
            <end>5596</end>
            <file id="monsters_S01E45_lineal_V001 94"/>
            <sourcetrack>
              <mediatype>audio</mediatype>
              <trackindex>2</trackindex>
            </sourcetrack>
            <link>
              <linkclipref>monsters_S01E45_lineal_V001 93</linkclipref>
              <mediatype>audio</mediatype>
              <trackindex>1</trackindex>
              <clipindex>32</clipindex>
              <groupindex>1</groupindex>
            </link>
            <link>
              <linkclipref>monsters_S01E45_lineal_V001 95</linkclipref>
              <mediatype>audio</mediatype>
              <trackindex>2</trackindex>
              <clipindex>32</clipindex>
              <groupindex>1</groupindex>
            </link>
            <itemhistory>
              <uuid>795970B2-1509-718A-753C-0384296E3782</uuid>
            </itemhistory>
          </clipitem>
          <clipitem id="monsters_S01E45_lineal_V001 98">
            <name>monsters_S01E45_lineal_V001</name>
            <duration>6366</duration>
            <rate>
              <ntsc>FALSE</ntsc>
              <timebase>25</timebase>
            </rate>
            <in>4912</in>
            <out>4943</out>
            <start>5598</start>
            <end>5629</end>
            <file id="monsters_S01E45_lineal_V001 97"/>
            <sourcetrack>
              <mediatype>audio</mediatype>
              <trackindex>2</trackindex>
            </sourcetrack>
            <link>
              <linkclipref>monsters_S01E45_lineal_V001 96</linkclipref>
              <mediatype>audio</mediatype>
              <trackindex>1</trackindex>
              <clipindex>33</clipindex>
              <groupindex>1</groupindex>
            </link>
            <link>
              <linkclipref>monsters_S01E45_lineal_V001 98</linkclipref>
              <mediatype>audio</mediatype>
              <trackindex>2</trackindex>
              <clipindex>33</clipindex>
              <groupindex>1</groupindex>
            </link>
            <itemhistory>
              <uuid>2F5E3141-3781-77C3-2917-B82DA6C4AAC4</uuid>
            </itemhistory>
          </clipitem>
          <clipitem id="monsters_S01E45_lineal_V001 101">
            <name>monsters_S01E45_lineal_V001</name>
            <duration>6366</duration>
            <rate>
              <ntsc>FALSE</ntsc>
              <timebase>25</timebase>
            </rate>
            <in>5160</in>
            <out>5198</out>
            <start>5787</start>
            <end>5825</end>
            <file id="monsters_S01E45_lineal_V001 100"/>
            <sourcetrack>
              <mediatype>audio</mediatype>
              <trackindex>2</trackindex>
            </sourcetrack>
            <link>
              <linkclipref>monsters_S01E45_lineal_V001 99</linkclipref>
              <mediatype>audio</mediatype>
              <trackindex>1</trackindex>
              <clipindex>34</clipindex>
              <groupindex>1</groupindex>
            </link>
            <link>
              <linkclipref>monsters_S01E45_lineal_V001 101</linkclipref>
              <mediatype>audio</mediatype>
              <trackindex>2</trackindex>
              <clipindex>34</clipindex>
              <groupindex>1</groupindex>
            </link>
            <itemhistory>
              <uuid>28A24BD4-61F6-2C9A-4A4E-7C0779585BAC</uuid>
            </itemhistory>
          </clipitem>
          <clipitem id="monsters_S01E45_lineal_V001 104">
            <name>monsters_S01E45_lineal_V001</name>
            <duration>6366</duration>
            <rate>
              <ntsc>FALSE</ntsc>
              <timebase>25</timebase>
            </rate>
            <in>5399</in>
            <out>5447</out>
            <start>6034</start>
            <end>6082</end>
            <file id="monsters_S01E45_lineal_V001 103"/>
            <sourcetrack>
              <mediatype>audio</mediatype>
              <trackindex>2</trackindex>
            </sourcetrack>
            <link>
              <linkclipref>monsters_S01E45_lineal_V001 102</linkclipref>
              <mediatype>audio</mediatype>
              <trackindex>1</trackindex>
              <clipindex>35</clipindex>
              <groupindex>1</groupindex>
            </link>
            <link>
              <linkclipref>monsters_S01E45_lineal_V001 104</linkclipref>
              <mediatype>audio</mediatype>
              <trackindex>2</trackindex>
              <clipindex>35</clipindex>
              <groupindex>1</groupindex>
            </link>
            <itemhistory>
              <uuid>7EB824A6-7F34-356F-665F-1DCC51AE6357</uuid>
            </itemhistory>
          </clipitem>
          <clipitem id="monsters_S01E45_lineal_V001 107">
            <name>monsters_S01E45_lineal_V001</name>
            <duration>6366</duration>
            <rate>
              <ntsc>FALSE</ntsc>
              <timebase>25</timebase>
            </rate>
            <in>5560</in>
            <out>5581</out>
            <start>6146</start>
            <end>6167</end>
            <file id="monsters_S01E45_lineal_V001 106"/>
            <sourcetrack>
              <mediatype>audio</mediatype>
              <trackindex>2</trackindex>
            </sourcetrack>
            <link>
              <linkclipref>monsters_S01E45_lineal_V001 105</linkclipref>
              <mediatype>audio</mediatype>
              <trackindex>1</trackindex>
              <clipindex>36</clipindex>
              <groupindex>1</groupindex>
            </link>
            <link>
              <linkclipref>monsters_S01E45_lineal_V001 107</linkclipref>
              <mediatype>audio</mediatype>
              <trackindex>2</trackindex>
              <clipindex>36</clipindex>
              <groupindex>1</groupindex>
            </link>
            <itemhistory>
              <uuid>32FE5711-7939-35C6-4188-549D71E31B40</uuid>
            </itemhistory>
          </clipitem>
          <clipitem id="monsters_S01E45_lineal_V001 110">
            <name>monsters_S01E45_lineal_V001</name>
            <duration>6366</duration>
            <rate>
              <ntsc>FALSE</ntsc>
              <timebase>25</timebase>
            </rate>
            <in>5706</in>
            <out>5744</out>
            <start>6288</start>
            <end>6326</end>
            <file id="monsters_S01E45_lineal_V001 109"/>
            <sourcetrack>
              <mediatype>audio</mediatype>
              <trackindex>2</trackindex>
            </sourcetrack>
            <link>
              <linkclipref>monsters_S01E45_lineal_V001 108</linkclipref>
              <mediatype>audio</mediatype>
              <trackindex>1</trackindex>
              <clipindex>37</clipindex>
              <groupindex>1</groupindex>
            </link>
            <link>
              <linkclipref>monsters_S01E45_lineal_V001 110</linkclipref>
              <mediatype>audio</mediatype>
              <trackindex>2</trackindex>
              <clipindex>37</clipindex>
              <groupindex>1</groupindex>
            </link>
            <itemhistory>
              <uuid>319F295F-128B-4C36-36AB-3A92479145FE</uuid>
            </itemhistory>
          </clipitem>
          <clipitem id="monsters_S01E45_lineal_V001 113">
            <name>monsters_S01E45_lineal_V001</name>
            <duration>6366</duration>
            <rate>
              <ntsc>FALSE</ntsc>
              <timebase>25</timebase>
            </rate>
            <in>5852</in>
            <out>5930</out>
            <start>6392</start>
            <end>6470</end>
            <file id="monsters_S01E45_lineal_V001 112"/>
            <sourcetrack>
              <mediatype>audio</mediatype>
              <trackindex>2</trackindex>
            </sourcetrack>
            <link>
              <linkclipref>monsters_S01E45_lineal_V001 111</linkclipref>
              <mediatype>audio</mediatype>
              <trackindex>1</trackindex>
              <clipindex>38</clipindex>
              <groupindex>1</groupindex>
            </link>
            <link>
              <linkclipref>monsters_S01E45_lineal_V001 113</linkclipref>
              <mediatype>audio</mediatype>
              <trackindex>2</trackindex>
              <clipindex>38</clipindex>
              <groupindex>1</groupindex>
            </link>
            <itemhistory>
              <uuid>598072FD-6B83-175F-4CD3-3F35657D7F68</uuid>
            </itemhistory>
          </clipitem>
          <clipitem id="dance_music 2">
            <name>dance_music</name>
            <duration>531</duration>
            <rate>
              <ntsc>FALSE</ntsc>
              <timebase>25</timebase>
            </rate>
            <in>0</in>
            <out>510</out>
            <start>6518</start>
            <end>7028</end>
            <file id="dance_music 1"/>
            <sourcetrack>
              <mediatype>audio</mediatype>
              <trackindex>2</trackindex>
            </sourcetrack>
            <link>
              <linkclipref>dance_music</linkclipref>
              <mediatype>audio</mediatype>
              <trackindex>1</trackindex>
              <clipindex>39</clipindex>
              <groupindex>1</groupindex>
            </link>
            <link>
              <linkclipref>dance_music 2</linkclipref>
              <mediatype>audio</mediatype>
              <trackindex>2</trackindex>
              <clipindex>39</clipindex>
              <groupindex>1</groupindex>
            </link>
            <itemhistory>
              <uuid>1614601B-57B9-17AA-765D-5417604844A9</uuid>
            </itemhistory>
          </clipitem>
        </track>
        <track>
          <clipitem id="monsters_S01E45_lineal_V001 114">
            <name>monsters_S01E45_lineal_V001</name>
            <duration>6366</duration>
            <rate>
              <ntsc>FALSE</ntsc>
              <timebase>25</timebase>
            </rate>
            <in>139</in>
            <out>202</out>
            <start>124</start>
            <end>187</end>
            <file id="monsters_S01E45_lineal_V001 115">
              <name>monsters_S01E45_lineal_V001.aif</name>
              <pathurl>file://localhost/C:/Users/usuario/Dropbox%20(BigBangBoxSL)/PROYECTOS/My%20preschool%20monster%20serie/PRODUCCION/Story/EPISODIOS/FOTOS/XML/monsters_S01E45_lineal_V001.aif</pathurl>
              <rate>
                <timebase>25</timebase>
              </rate>
              <duration>6366</duration>
              <media>
                <audio>
                  <samplecharacteristics>
                    <samplerate>48000</samplerate>
                    <depth>16</depth>
                  </samplecharacteristics>
                  <channelcount>2</channelcount>
                  <layout>stereo</layout>
                  <audiochannel>
                    <sourcechannel>1</sourcechannel>
                    <channellabel>left</channellabel>
                  </audiochannel>
                  <audiochannel>
                    <sourcechannel>2</sourcechannel>
                    <channellabel>right</channellabel>
                  </audiochannel>
                </audio>
              </media>
            </file>
            <sourcetrack>
              <mediatype>audio</mediatype>
              <trackindex>1</trackindex>
            </sourcetrack>
            <link>
              <linkclipref>monsters_S01E45_lineal_V001 114</linkclipref>
              <mediatype>audio</mediatype>
              <trackindex>3</trackindex>
              <clipindex>1</clipindex>
              <groupindex>1</groupindex>
            </link>
            <link>
              <linkclipref>monsters_S01E45_lineal_V001 116</linkclipref>
              <mediatype>audio</mediatype>
              <trackindex>4</trackindex>
              <clipindex>1</clipindex>
              <groupindex>1</groupindex>
            </link>
            <itemhistory>
              <uuid>20C912A8-5106-72FF-68B8-30B1391C5EC6</uuid>
            </itemhistory>
          </clipitem>
          <clipitem id="monsters_S01E45_lineal_V001 117">
            <name>monsters_S01E45_lineal_V001</name>
            <duration>6366</duration>
            <rate>
              <ntsc>FALSE</ntsc>
              <timebase>25</timebase>
            </rate>
            <in>235</in>
            <out>272</out>
            <start>350</start>
            <end>387</end>
            <file id="monsters_S01E45_lineal_V001 118">
              <name>monsters_S01E45_lineal_V001.aif</name>
              <pathurl>file://localhost/C:/Users/usuario/Dropbox%20(BigBangBoxSL)/PROYECTOS/My%20preschool%20monster%20serie/PRODUCCION/Story/EPISODIOS/FOTOS/XML/monsters_S01E45_lineal_V001.aif</pathurl>
              <rate>
                <timebase>25</timebase>
              </rate>
              <duration>6366</duration>
              <media>
                <audio>
                  <samplecharacteristics>
                    <samplerate>48000</samplerate>
                    <depth>16</depth>
                  </samplecharacteristics>
                  <channelcount>2</channelcount>
                  <layout>stereo</layout>
                  <audiochannel>
                    <sourcechannel>1</sourcechannel>
                    <channellabel>left</channellabel>
                  </audiochannel>
                  <audiochannel>
                    <sourcechannel>2</sourcechannel>
                    <channellabel>right</channellabel>
                  </audiochannel>
                </audio>
              </media>
            </file>
            <sourcetrack>
              <mediatype>audio</mediatype>
              <trackindex>1</trackindex>
            </sourcetrack>
            <link>
              <linkclipref>monsters_S01E45_lineal_V001 117</linkclipref>
              <mediatype>audio</mediatype>
              <trackindex>3</trackindex>
              <clipindex>2</clipindex>
              <groupindex>1</groupindex>
            </link>
            <link>
              <linkclipref>monsters_S01E45_lineal_V001 119</linkclipref>
              <mediatype>audio</mediatype>
              <trackindex>4</trackindex>
              <clipindex>2</clipindex>
              <groupindex>1</groupindex>
            </link>
            <itemhistory>
              <uuid>689D3677-381E-1D4D-1771-4FB9642D7B4B</uuid>
            </itemhistory>
          </clipitem>
          <clipitem id="monsters_S01E45_lineal_V001 120">
            <name>monsters_S01E45_lineal_V001</name>
            <duration>6366</duration>
            <rate>
              <ntsc>FALSE</ntsc>
              <timebase>25</timebase>
            </rate>
            <in>338</in>
            <out>381</out>
            <start>409</start>
            <end>452</end>
            <file id="monsters_S01E45_lineal_V001 121">
              <name>monsters_S01E45_lineal_V001.aif</name>
              <pathurl>file://localhost/C:/Users/usuario/Dropbox%20(BigBangBoxSL)/PROYECTOS/My%20preschool%20monster%20serie/PRODUCCION/Story/EPISODIOS/FOTOS/XML/monsters_S01E45_lineal_V001.aif</pathurl>
              <rate>
                <timebase>25</timebase>
              </rate>
              <duration>6366</duration>
              <media>
                <audio>
                  <samplecharacteristics>
                    <samplerate>48000</samplerate>
                    <depth>16</depth>
                  </samplecharacteristics>
                  <channelcount>2</channelcount>
                  <layout>stereo</layout>
                  <audiochannel>
                    <sourcechannel>1</sourcechannel>
                    <channellabel>left</channellabel>
                  </audiochannel>
                  <audiochannel>
                    <sourcechannel>2</sourcechannel>
                    <channellabel>right</channellabel>
                  </audiochannel>
                </audio>
              </media>
            </file>
            <sourcetrack>
              <mediatype>audio</mediatype>
              <trackindex>1</trackindex>
            </sourcetrack>
            <link>
              <linkclipref>monsters_S01E45_lineal_V001 120</linkclipref>
              <mediatype>audio</mediatype>
              <trackindex>3</trackindex>
              <clipindex>3</clipindex>
              <groupindex>1</groupindex>
            </link>
            <link>
              <linkclipref>monsters_S01E45_lineal_V001 122</linkclipref>
              <mediatype>audio</mediatype>
              <trackindex>4</trackindex>
              <clipindex>3</clipindex>
              <groupindex>1</groupindex>
            </link>
            <itemhistory>
              <uuid>45A454B2-645E-41DE-5DFF-485414331128</uuid>
            </itemhistory>
          </clipitem>
          <clipitem id="monsters_S01E45_lineal_V001 123">
            <name>monsters_S01E45_lineal_V001</name>
            <duration>6366</duration>
            <rate>
              <ntsc>FALSE</ntsc>
              <timebase>25</timebase>
            </rate>
            <in>390</in>
            <out>446</out>
            <start>469</start>
            <end>525</end>
            <file id="monsters_S01E45_lineal_V001 124">
              <name>monsters_S01E45_lineal_V001.aif</name>
              <pathurl>file://localhost/C:/Users/usuario/Dropbox%20(BigBangBoxSL)/PROYECTOS/My%20preschool%20monster%20serie/PRODUCCION/Story/EPISODIOS/FOTOS/XML/monsters_S01E45_lineal_V001.aif</pathurl>
              <rate>
                <timebase>25</timebase>
              </rate>
              <duration>6366</duration>
              <media>
                <audio>
                  <samplecharacteristics>
                    <samplerate>48000</samplerate>
                    <depth>16</depth>
                  </samplecharacteristics>
                  <channelcount>2</channelcount>
                  <layout>stereo</layout>
                  <audiochannel>
                    <sourcechannel>1</sourcechannel>
                    <channellabel>left</channellabel>
                  </audiochannel>
                  <audiochannel>
                    <sourcechannel>2</sourcechannel>
                    <channellabel>right</channellabel>
                  </audiochannel>
                </audio>
              </media>
            </file>
            <filter>
              <enabled>TRUE</enabled>
              <effect>
                <name>Audio Levels</name>
                <effectid>audiolevels</effectid>
                <effectcategory>audiolevels</effectcategory>
                <effecttype>audiolevels</effecttype>
                <mediatype>audio</mediatype>
                <parameter>
                  <name>Level</name>
                  <parameterid>level</parameterid>
                  <keyframe>
                    <when>396.2500000000</when>
                    <value>0.9285709858</value>
                  </keyframe>
                  <interpolation>
                    <name>FCPCurve</name>
                  </interpolation>
                </parameter>
              </effect>
            </filter>
            <sourcetrack>
              <mediatype>audio</mediatype>
              <trackindex>1</trackindex>
            </sourcetrack>
            <link>
              <linkclipref>monsters_S01E45_lineal_V001 123</linkclipref>
              <mediatype>audio</mediatype>
              <trackindex>3</trackindex>
              <clipindex>4</clipindex>
              <groupindex>1</groupindex>
            </link>
            <link>
              <linkclipref>monsters_S01E45_lineal_V001 125</linkclipref>
              <mediatype>audio</mediatype>
              <trackindex>4</trackindex>
              <clipindex>4</clipindex>
              <groupindex>1</groupindex>
            </link>
            <itemhistory>
              <uuid>13AD1E62-49FC-134F-17AB-4ADE3D872873</uuid>
            </itemhistory>
          </clipitem>
          <clipitem id="monsters_S01E45_lineal_V001 126">
            <name>monsters_S01E45_lineal_V001</name>
            <duration>6366</duration>
            <rate>
              <ntsc>FALSE</ntsc>
              <timebase>25</timebase>
            </rate>
            <in>569</in>
            <out>616</out>
            <start>688</start>
            <end>735</end>
            <file id="monsters_S01E45_lineal_V001 127">
              <name>monsters_S01E45_lineal_V001.aif</name>
              <pathurl>file://localhost/C:/Users/usuario/Dropbox%20(BigBangBoxSL)/PROYECTOS/My%20preschool%20monster%20serie/PRODUCCION/Story/EPISODIOS/FOTOS/XML/monsters_S01E45_lineal_V001.aif</pathurl>
              <rate>
                <timebase>25</timebase>
              </rate>
              <duration>6366</duration>
              <media>
                <audio>
                  <samplecharacteristics>
                    <samplerate>48000</samplerate>
                    <depth>16</depth>
                  </samplecharacteristics>
                  <channelcount>2</channelcount>
                  <layout>stereo</layout>
                  <audiochannel>
                    <sourcechannel>1</sourcechannel>
                    <channellabel>left</channellabel>
                  </audiochannel>
                  <audiochannel>
                    <sourcechannel>2</sourcechannel>
                    <channellabel>right</channellabel>
                  </audiochannel>
                </audio>
              </media>
            </file>
            <sourcetrack>
              <mediatype>audio</mediatype>
              <trackindex>1</trackindex>
            </sourcetrack>
            <link>
              <linkclipref>monsters_S01E45_lineal_V001 126</linkclipref>
              <mediatype>audio</mediatype>
              <trackindex>3</trackindex>
              <clipindex>5</clipindex>
              <groupindex>1</groupindex>
            </link>
            <link>
              <linkclipref>monsters_S01E45_lineal_V001 128</linkclipref>
              <mediatype>audio</mediatype>
              <trackindex>4</trackindex>
              <clipindex>5</clipindex>
              <groupindex>1</groupindex>
            </link>
            <itemhistory>
              <uuid>682E3518-732D-272D-6FFD-741649F15A2D</uuid>
            </itemhistory>
          </clipitem>
          <clipitem id="monsters_S01E45_lineal_V001 129">
            <name>monsters_S01E45_lineal_V001</name>
            <duration>6366</duration>
            <rate>
              <ntsc>FALSE</ntsc>
              <timebase>25</timebase>
            </rate>
            <in>618</in>
            <out>681</out>
            <start>750</start>
            <end>813</end>
            <file id="monsters_S01E45_lineal_V001 130">
              <name>monsters_S01E45_lineal_V001.aif</name>
              <pathurl>file://localhost/C:/Users/usuario/Dropbox%20(BigBangBoxSL)/PROYECTOS/My%20preschool%20monster%20serie/PRODUCCION/Story/EPISODIOS/FOTOS/XML/monsters_S01E45_lineal_V001.aif</pathurl>
              <rate>
                <timebase>25</timebase>
              </rate>
              <duration>6366</duration>
              <media>
                <audio>
                  <samplecharacteristics>
                    <samplerate>48000</samplerate>
                    <depth>16</depth>
                  </samplecharacteristics>
                  <channelcount>2</channelcount>
                  <layout>stereo</layout>
                  <audiochannel>
                    <sourcechannel>1</sourcechannel>
                    <channellabel>left</channellabel>
                  </audiochannel>
                  <audiochannel>
                    <sourcechannel>2</sourcechannel>
                    <channellabel>right</channellabel>
                  </audiochannel>
                </audio>
              </media>
            </file>
            <sourcetrack>
              <mediatype>audio</mediatype>
              <trackindex>1</trackindex>
            </sourcetrack>
            <link>
              <linkclipref>monsters_S01E45_lineal_V001 129</linkclipref>
              <mediatype>audio</mediatype>
              <trackindex>3</trackindex>
              <clipindex>6</clipindex>
              <groupindex>1</groupindex>
            </link>
            <link>
              <linkclipref>monsters_S01E45_lineal_V001 131</linkclipref>
              <mediatype>audio</mediatype>
              <trackindex>4</trackindex>
              <clipindex>6</clipindex>
              <groupindex>1</groupindex>
            </link>
            <itemhistory>
              <uuid>38771AAC-43E4-5B7F-76C3-65C47BF63570</uuid>
            </itemhistory>
          </clipitem>
          <clipitem id="monsters_S01E45_lineal_V001 132">
            <name>monsters_S01E45_lineal_V001</name>
            <duration>6366</duration>
            <rate>
              <ntsc>FALSE</ntsc>
              <timebase>25</timebase>
            </rate>
            <in>691</in>
            <out>748</out>
            <start>815</start>
            <end>872</end>
            <file id="monsters_S01E45_lineal_V001 133">
              <name>monsters_S01E45_lineal_V001.aif</name>
              <pathurl>file://localhost/C:/Users/usuario/Dropbox%20(BigBangBoxSL)/PROYECTOS/My%20preschool%20monster%20serie/PRODUCCION/Story/EPISODIOS/FOTOS/XML/monsters_S01E45_lineal_V001.aif</pathurl>
              <rate>
                <timebase>25</timebase>
              </rate>
              <duration>6366</duration>
              <media>
                <audio>
                  <samplecharacteristics>
                    <samplerate>48000</samplerate>
                    <depth>16</depth>
                  </samplecharacteristics>
                  <channelcount>2</channelcount>
                  <layout>stereo</layout>
                  <audiochannel>
                    <sourcechannel>1</sourcechannel>
                    <channellabel>left</channellabel>
                  </audiochannel>
                  <audiochannel>
                    <sourcechannel>2</sourcechannel>
                    <channellabel>right</channellabel>
                  </audiochannel>
                </audio>
              </media>
            </file>
            <sourcetrack>
              <mediatype>audio</mediatype>
              <trackindex>1</trackindex>
            </sourcetrack>
            <link>
              <linkclipref>monsters_S01E45_lineal_V001 132</linkclipref>
              <mediatype>audio</mediatype>
              <trackindex>3</trackindex>
              <clipindex>7</clipindex>
              <groupindex>1</groupindex>
            </link>
            <link>
              <linkclipref>monsters_S01E45_lineal_V001 134</linkclipref>
              <mediatype>audio</mediatype>
              <trackindex>4</trackindex>
              <clipindex>7</clipindex>
              <groupindex>1</groupindex>
            </link>
            <itemhistory>
              <uuid>5289692C-1D9E-762B-6B5B-18B143625CFC</uuid>
            </itemhistory>
          </clipitem>
          <clipitem id="monsters_S01E45_lineal_V001 135">
            <name>monsters_S01E45_lineal_V001</name>
            <duration>6366</duration>
            <rate>
              <ntsc>FALSE</ntsc>
              <timebase>25</timebase>
            </rate>
            <in>849</in>
            <out>925</out>
            <start>1096</start>
            <end>1172</end>
            <file id="monsters_S01E45_lineal_V001 136">
              <name>monsters_S01E45_lineal_V001.aif</name>
              <pathurl>file://localhost/C:/Users/usuario/Dropbox%20(BigBangBoxSL)/PROYECTOS/My%20preschool%20monster%20serie/PRODUCCION/Story/EPISODIOS/FOTOS/XML/monsters_S01E45_lineal_V001.aif</pathurl>
              <rate>
                <timebase>25</timebase>
              </rate>
              <duration>6366</duration>
              <media>
                <audio>
                  <samplecharacteristics>
                    <samplerate>48000</samplerate>
                    <depth>16</depth>
                  </samplecharacteristics>
                  <channelcount>2</channelcount>
                  <layout>stereo</layout>
                  <audiochannel>
                    <sourcechannel>1</sourcechannel>
                    <channellabel>left</channellabel>
                  </audiochannel>
                  <audiochannel>
                    <sourcechannel>2</sourcechannel>
                    <channellabel>right</channellabel>
                  </audiochannel>
                </audio>
              </media>
            </file>
            <sourcetrack>
              <mediatype>audio</mediatype>
              <trackindex>1</trackindex>
            </sourcetrack>
            <link>
              <linkclipref>monsters_S01E45_lineal_V001 135</linkclipref>
              <mediatype>audio</mediatype>
              <trackindex>3</trackindex>
              <clipindex>8</clipindex>
              <groupindex>1</groupindex>
            </link>
            <link>
              <linkclipref>monsters_S01E45_lineal_V001 137</linkclipref>
              <mediatype>audio</mediatype>
              <trackindex>4</trackindex>
              <clipindex>8</clipindex>
              <groupindex>1</groupindex>
            </link>
            <itemhistory>
              <uuid>6F468991-2BD4-3BE0-2408-1F887E594A2E</uuid>
            </itemhistory>
          </clipitem>
          <clipitem id="monsters_S01E45_lineal_V001 138">
            <name>monsters_S01E45_lineal_V001</name>
            <duration>6366</duration>
            <rate>
              <ntsc>FALSE</ntsc>
              <timebase>25</timebase>
            </rate>
            <in>1059</in>
            <out>1111</out>
            <start>1296</start>
            <end>1348</end>
            <file id="monsters_S01E45_lineal_V001 139">
              <name>monsters_S01E45_lineal_V001.aif</name>
              <pathurl>file://localhost/C:/Users/usuario/Dropbox%20(BigBangBoxSL)/PROYECTOS/My%20preschool%20monster%20serie/PRODUCCION/Story/EPISODIOS/FOTOS/XML/monsters_S01E45_lineal_V001.aif</pathurl>
              <rate>
                <timebase>25</timebase>
              </rate>
              <duration>6366</duration>
              <media>
                <audio>
                  <samplecharacteristics>
                    <samplerate>48000</samplerate>
                    <depth>16</depth>
                  </samplecharacteristics>
                  <channelcount>2</channelcount>
                  <layout>stereo</layout>
                  <audiochannel>
                    <sourcechannel>1</sourcechannel>
                    <channellabel>left</channellabel>
                  </audiochannel>
                  <audiochannel>
                    <sourcechannel>2</sourcechannel>
                    <channellabel>right</channellabel>
                  </audiochannel>
                </audio>
              </media>
            </file>
            <sourcetrack>
              <mediatype>audio</mediatype>
              <trackindex>1</trackindex>
            </sourcetrack>
            <link>
              <linkclipref>monsters_S01E45_lineal_V001 138</linkclipref>
              <mediatype>audio</mediatype>
              <trackindex>3</trackindex>
              <clipindex>9</clipindex>
              <groupindex>1</groupindex>
            </link>
            <link>
              <linkclipref>monsters_S01E45_lineal_V001 140</linkclipref>
              <mediatype>audio</mediatype>
              <trackindex>4</trackindex>
              <clipindex>9</clipindex>
              <groupindex>1</groupindex>
            </link>
            <itemhistory>
              <uuid>6E196593-1AC5-28DB-2F1E-A4D32DB2673F</uuid>
            </itemhistory>
          </clipitem>
          <clipitem id="monsters_S01E45_lineal_V001 141">
            <name>monsters_S01E45_lineal_V001</name>
            <duration>6366</duration>
            <rate>
              <ntsc>FALSE</ntsc>
              <timebase>25</timebase>
            </rate>
            <in>1117</in>
            <out>1181</out>
            <start>1367</start>
            <end>1431</end>
            <file id="monsters_S01E45_lineal_V001 142">
              <name>monsters_S01E45_lineal_V001.aif</name>
              <pathurl>file://localhost/C:/Users/usuario/Dropbox%20(BigBangBoxSL)/PROYECTOS/My%20preschool%20monster%20serie/PRODUCCION/Story/EPISODIOS/FOTOS/XML/monsters_S01E45_lineal_V001.aif</pathurl>
              <rate>
                <timebase>25</timebase>
              </rate>
              <duration>6366</duration>
              <media>
                <audio>
                  <samplecharacteristics>
                    <samplerate>48000</samplerate>
                    <depth>16</depth>
                  </samplecharacteristics>
                  <channelcount>2</channelcount>
                  <layout>stereo</layout>
                  <audiochannel>
                    <sourcechannel>1</sourcechannel>
                    <channellabel>left</channellabel>
                  </audiochannel>
                  <audiochannel>
                    <sourcechannel>2</sourcechannel>
                    <channellabel>right</channellabel>
                  </audiochannel>
                </audio>
              </media>
            </file>
            <sourcetrack>
              <mediatype>audio</mediatype>
              <trackindex>1</trackindex>
            </sourcetrack>
            <link>
              <linkclipref>monsters_S01E45_lineal_V001 141</linkclipref>
              <mediatype>audio</mediatype>
              <trackindex>3</trackindex>
              <clipindex>10</clipindex>
              <groupindex>1</groupindex>
            </link>
            <link>
              <linkclipref>monsters_S01E45_lineal_V001 143</linkclipref>
              <mediatype>audio</mediatype>
              <trackindex>4</trackindex>
              <clipindex>10</clipindex>
              <groupindex>1</groupindex>
            </link>
            <itemhistory>
              <uuid>57B86CE6-4EF2-7720-2094-548D215E4CBB</uuid>
            </itemhistory>
          </clipitem>
          <clipitem id="monsters_S01E45_lineal_V001 144">
            <name>monsters_S01E45_lineal_V001</name>
            <duration>6366</duration>
            <rate>
              <ntsc>FALSE</ntsc>
              <timebase>25</timebase>
            </rate>
            <in>1188</in>
            <out>1283</out>
            <start>1434</start>
            <end>1529</end>
            <file id="monsters_S01E45_lineal_V001 145">
              <name>monsters_S01E45_lineal_V001.aif</name>
              <pathurl>file://localhost/C:/Users/usuario/Dropbox%20(BigBangBoxSL)/PROYECTOS/My%20preschool%20monster%20serie/PRODUCCION/Story/EPISODIOS/FOTOS/XML/monsters_S01E45_lineal_V001.aif</pathurl>
              <rate>
                <timebase>25</timebase>
              </rate>
              <duration>6366</duration>
              <media>
                <audio>
                  <samplecharacteristics>
                    <samplerate>48000</samplerate>
                    <depth>16</depth>
                  </samplecharacteristics>
                  <channelcount>2</channelcount>
                  <layout>stereo</layout>
                  <audiochannel>
                    <sourcechannel>1</sourcechannel>
                    <channellabel>left</channellabel>
                  </audiochannel>
                  <audiochannel>
                    <sourcechannel>2</sourcechannel>
                    <channellabel>right</channellabel>
                  </audiochannel>
                </audio>
              </media>
            </file>
            <sourcetrack>
              <mediatype>audio</mediatype>
              <trackindex>1</trackindex>
            </sourcetrack>
            <link>
              <linkclipref>monsters_S01E45_lineal_V001 144</linkclipref>
              <mediatype>audio</mediatype>
              <trackindex>3</trackindex>
              <clipindex>11</clipindex>
              <groupindex>1</groupindex>
            </link>
            <link>
              <linkclipref>monsters_S01E45_lineal_V001 146</linkclipref>
              <mediatype>audio</mediatype>
              <trackindex>4</trackindex>
              <clipindex>11</clipindex>
              <groupindex>1</groupindex>
            </link>
            <itemhistory>
              <uuid>4EEE297C-1E11-348B-25DB-3E49790C56F5</uuid>
            </itemhistory>
          </clipitem>
          <clipitem id="monsters_S01E45_lineal_V001 147">
            <name>monsters_S01E45_lineal_V001</name>
            <duration>6366</duration>
            <rate>
              <ntsc>FALSE</ntsc>
              <timebase>25</timebase>
            </rate>
            <in>1444</in>
            <out>1482</out>
            <start>1659</start>
            <end>1697</end>
            <file id="monsters_S01E45_lineal_V001 148">
              <name>monsters_S01E45_lineal_V001.aif</name>
              <pathurl>file://localhost/C:/Users/usuario/Dropbox%20(BigBangBoxSL)/PROYECTOS/My%20preschool%20monster%20serie/PRODUCCION/Story/EPISODIOS/FOTOS/XML/monsters_S01E45_lineal_V001.aif</pathurl>
              <rate>
                <timebase>25</timebase>
              </rate>
              <duration>6366</duration>
              <media>
                <audio>
                  <samplecharacteristics>
                    <samplerate>48000</samplerate>
                    <depth>16</depth>
                  </samplecharacteristics>
                  <channelcount>2</channelcount>
                  <layout>stereo</layout>
                  <audiochannel>
                    <sourcechannel>1</sourcechannel>
                    <channellabel>left</channellabel>
                  </audiochannel>
                  <audiochannel>
                    <sourcechannel>2</sourcechannel>
                    <channellabel>right</channellabel>
                  </audiochannel>
                </audio>
              </media>
            </file>
            <sourcetrack>
              <mediatype>audio</mediatype>
              <trackindex>1</trackindex>
            </sourcetrack>
            <link>
              <linkclipref>monsters_S01E45_lineal_V001 147</linkclipref>
              <mediatype>audio</mediatype>
              <trackindex>3</trackindex>
              <clipindex>12</clipindex>
              <groupindex>1</groupindex>
            </link>
            <link>
              <linkclipref>monsters_S01E45_lineal_V001 149</linkclipref>
              <mediatype>audio</mediatype>
              <trackindex>4</trackindex>
              <clipindex>12</clipindex>
              <groupindex>1</groupindex>
            </link>
            <itemhistory>
              <uuid>226A4A03-57EE-18E8-5826-5706EA256731</uuid>
            </itemhistory>
          </clipitem>
          <clipitem id="monsters_S01E45_lineal_V001 150">
            <name>monsters_S01E45_lineal_V001</name>
            <duration>6366</duration>
            <rate>
              <ntsc>FALSE</ntsc>
              <timebase>25</timebase>
            </rate>
            <in>1511</in>
            <out>1526</out>
            <start>1713</start>
            <end>1728</end>
            <file id="monsters_S01E45_lineal_V001 151">
              <name>monsters_S01E45_lineal_V001.aif</name>
              <pathurl>file://localhost/C:/Users/usuario/Dropbox%20(BigBangBoxSL)/PROYECTOS/My%20preschool%20monster%20serie/PRODUCCION/Story/EPISODIOS/FOTOS/XML/monsters_S01E45_lineal_V001.aif</pathurl>
              <rate>
                <timebase>25</timebase>
              </rate>
              <duration>6366</duration>
              <media>
                <audio>
                  <samplecharacteristics>
                    <samplerate>48000</samplerate>
                    <depth>16</depth>
                  </samplecharacteristics>
                  <channelcount>2</channelcount>
                  <layout>stereo</layout>
                  <audiochannel>
                    <sourcechannel>1</sourcechannel>
                    <channellabel>left</channellabel>
                  </audiochannel>
                  <audiochannel>
                    <sourcechannel>2</sourcechannel>
                    <channellabel>right</channellabel>
                  </audiochannel>
                </audio>
              </media>
            </file>
            <sourcetrack>
              <mediatype>audio</mediatype>
              <trackindex>1</trackindex>
            </sourcetrack>
            <link>
              <linkclipref>monsters_S01E45_lineal_V001 150</linkclipref>
              <mediatype>audio</mediatype>
              <trackindex>3</trackindex>
              <clipindex>13</clipindex>
              <groupindex>1</groupindex>
            </link>
            <link>
              <linkclipref>monsters_S01E45_lineal_V001 152</linkclipref>
              <mediatype>audio</mediatype>
              <trackindex>4</trackindex>
              <clipindex>13</clipindex>
              <groupindex>1</groupindex>
            </link>
            <itemhistory>
              <uuid>91A070C6-6B6E-5B3C-5AEF-250129DB783F</uuid>
            </itemhistory>
          </clipitem>
          <clipitem id="monsters_S01E45_lineal_V001 153">
            <name>monsters_S01E45_lineal_V001</name>
            <duration>6366</duration>
            <rate>
              <ntsc>FALSE</ntsc>
              <timebase>25</timebase>
            </rate>
            <in>1613</in>
            <out>1786</out>
            <start>1899</start>
            <end>2072</end>
            <file id="monsters_S01E45_lineal_V001 154">
              <name>monsters_S01E45_lineal_V001.aif</name>
              <pathurl>file://localhost/C:/Users/usuario/Dropbox%20(BigBangBoxSL)/PROYECTOS/My%20preschool%20monster%20serie/PRODUCCION/Story/EPISODIOS/FOTOS/XML/monsters_S01E45_lineal_V001.aif</pathurl>
              <rate>
                <timebase>25</timebase>
              </rate>
              <duration>6366</duration>
              <media>
                <audio>
                  <samplecharacteristics>
                    <samplerate>48000</samplerate>
                    <depth>16</depth>
                  </samplecharacteristics>
                  <channelcount>2</channelcount>
                  <layout>stereo</layout>
                  <audiochannel>
                    <sourcechannel>1</sourcechannel>
                    <channellabel>left</channellabel>
                  </audiochannel>
                  <audiochannel>
                    <sourcechannel>2</sourcechannel>
                    <channellabel>right</channellabel>
                  </audiochannel>
                </audio>
              </media>
            </file>
            <sourcetrack>
              <mediatype>audio</mediatype>
              <trackindex>1</trackindex>
            </sourcetrack>
            <link>
              <linkclipref>monsters_S01E45_lineal_V001 153</linkclipref>
              <mediatype>audio</mediatype>
              <trackindex>3</trackindex>
              <clipindex>14</clipindex>
              <groupindex>1</groupindex>
            </link>
            <link>
              <linkclipref>monsters_S01E45_lineal_V001 155</linkclipref>
              <mediatype>audio</mediatype>
              <trackindex>4</trackindex>
              <clipindex>14</clipindex>
              <groupindex>1</groupindex>
            </link>
            <itemhistory>
              <uuid>32E11468-7A03-5DFD-425B-71301AD41FF4</uuid>
            </itemhistory>
          </clipitem>
          <clipitem id="monsters_S01E45_lineal_V001 156">
            <name>monsters_S01E45_lineal_V001</name>
            <duration>6366</duration>
            <rate>
              <ntsc>FALSE</ntsc>
              <timebase>25</timebase>
            </rate>
            <in>1973</in>
            <out>2027</out>
            <start>2355</start>
            <end>2409</end>
            <file id="monsters_S01E45_lineal_V001 157">
              <name>monsters_S01E45_lineal_V001.aif</name>
              <pathurl>file://localhost/C:/Users/usuario/Dropbox%20(BigBangBoxSL)/PROYECTOS/My%20preschool%20monster%20serie/PRODUCCION/Story/EPISODIOS/FOTOS/XML/monsters_S01E45_lineal_V001.aif</pathurl>
              <rate>
                <timebase>25</timebase>
              </rate>
              <duration>6366</duration>
              <media>
                <audio>
                  <samplecharacteristics>
                    <samplerate>48000</samplerate>
                    <depth>16</depth>
                  </samplecharacteristics>
                  <channelcount>2</channelcount>
                  <layout>stereo</layout>
                  <audiochannel>
                    <sourcechannel>1</sourcechannel>
                    <channellabel>left</channellabel>
                  </audiochannel>
                  <audiochannel>
                    <sourcechannel>2</sourcechannel>
                    <channellabel>right</channellabel>
                  </audiochannel>
                </audio>
              </media>
            </file>
            <sourcetrack>
              <mediatype>audio</mediatype>
              <trackindex>1</trackindex>
            </sourcetrack>
            <link>
              <linkclipref>monsters_S01E45_lineal_V001 156</linkclipref>
              <mediatype>audio</mediatype>
              <trackindex>3</trackindex>
              <clipindex>15</clipindex>
              <groupindex>1</groupindex>
            </link>
            <link>
              <linkclipref>monsters_S01E45_lineal_V001 158</linkclipref>
              <mediatype>audio</mediatype>
              <trackindex>4</trackindex>
              <clipindex>15</clipindex>
              <groupindex>1</groupindex>
            </link>
            <itemhistory>
              <uuid>4B5965A6-7BD7-7BAA-1E6D-72A219F53EAA</uuid>
            </itemhistory>
          </clipitem>
          <clipitem id="monsters_S01E45_lineal_V001 159">
            <name>monsters_S01E45_lineal_V001</name>
            <duration>6366</duration>
            <rate>
              <ntsc>FALSE</ntsc>
              <timebase>25</timebase>
            </rate>
            <in>2044</in>
            <out>2134</out>
            <start>2416</start>
            <end>2506</end>
            <file id="monsters_S01E45_lineal_V001 160">
              <name>monsters_S01E45_lineal_V001.aif</name>
              <pathurl>file://localhost/C:/Users/usuario/Dropbox%20(BigBangBoxSL)/PROYECTOS/My%20preschool%20monster%20serie/PRODUCCION/Story/EPISODIOS/FOTOS/XML/monsters_S01E45_lineal_V001.aif</pathurl>
              <rate>
                <timebase>25</timebase>
              </rate>
              <duration>6366</duration>
              <media>
                <audio>
                  <samplecharacteristics>
                    <samplerate>48000</samplerate>
                    <depth>16</depth>
                  </samplecharacteristics>
                  <channelcount>2</channelcount>
                  <layout>stereo</layout>
                  <audiochannel>
                    <sourcechannel>1</sourcechannel>
                    <channellabel>left</channellabel>
                  </audiochannel>
                  <audiochannel>
                    <sourcechannel>2</sourcechannel>
                    <channellabel>right</channellabel>
                  </audiochannel>
                </audio>
              </media>
            </file>
            <sourcetrack>
              <mediatype>audio</mediatype>
              <trackindex>1</trackindex>
            </sourcetrack>
            <link>
              <linkclipref>monsters_S01E45_lineal_V001 159</linkclipref>
              <mediatype>audio</mediatype>
              <trackindex>3</trackindex>
              <clipindex>16</clipindex>
              <groupindex>1</groupindex>
            </link>
            <link>
              <linkclipref>monsters_S01E45_lineal_V001 161</linkclipref>
              <mediatype>audio</mediatype>
              <trackindex>4</trackindex>
              <clipindex>16</clipindex>
              <groupindex>1</groupindex>
            </link>
            <itemhistory>
              <uuid>6FD3602D-56C3-7AB6-1E89-41E5A5692AEA</uuid>
            </itemhistory>
          </clipitem>
          <clipitem id="monsters_S01E45_lineal_V001 162">
            <name>monsters_S01E45_lineal_V001</name>
            <duration>6366</duration>
            <rate>
              <ntsc>FALSE</ntsc>
              <timebase>25</timebase>
            </rate>
            <in>2141</in>
            <out>2173</out>
            <start>2513</start>
            <end>2545</end>
            <file id="monsters_S01E45_lineal_V001 163">
              <name>monsters_S01E45_lineal_V001.aif</name>
              <pathurl>file://localhost/C:/Users/usuario/Dropbox%20(BigBangBoxSL)/PROYECTOS/My%20preschool%20monster%20serie/PRODUCCION/Story/EPISODIOS/FOTOS/XML/monsters_S01E45_lineal_V001.aif</pathurl>
              <rate>
                <timebase>25</timebase>
              </rate>
              <duration>6366</duration>
              <media>
                <audio>
                  <samplecharacteristics>
                    <samplerate>48000</samplerate>
                    <depth>16</depth>
                  </samplecharacteristics>
                  <channelcount>2</channelcount>
                  <layout>stereo</layout>
                  <audiochannel>
                    <sourcechannel>1</sourcechannel>
                    <channellabel>left</channellabel>
                  </audiochannel>
                  <audiochannel>
                    <sourcechannel>2</sourcechannel>
                    <channellabel>right</channellabel>
                  </audiochannel>
                </audio>
              </media>
            </file>
            <sourcetrack>
              <mediatype>audio</mediatype>
              <trackindex>1</trackindex>
            </sourcetrack>
            <link>
              <linkclipref>monsters_S01E45_lineal_V001 162</linkclipref>
              <mediatype>audio</mediatype>
              <trackindex>3</trackindex>
              <clipindex>17</clipindex>
              <groupindex>1</groupindex>
            </link>
            <link>
              <linkclipref>monsters_S01E45_lineal_V001 164</linkclipref>
              <mediatype>audio</mediatype>
              <trackindex>4</trackindex>
              <clipindex>17</clipindex>
              <groupindex>1</groupindex>
            </link>
            <itemhistory>
              <uuid>4F175954-6456-597C-3556-FBEC571F5534</uuid>
            </itemhistory>
          </clipitem>
          <clipitem id="monsters_S01E45_lineal_V001 165">
            <name>monsters_S01E45_lineal_V001</name>
            <duration>6366</duration>
            <rate>
              <ntsc>FALSE</ntsc>
              <timebase>25</timebase>
            </rate>
            <in>2206</in>
            <out>2314</out>
            <start>2574</start>
            <end>2682</end>
            <file id="monsters_S01E45_lineal_V001 166">
              <name>monsters_S01E45_lineal_V001.aif</name>
              <pathurl>file://localhost/C:/Users/usuario/Dropbox%20(BigBangBoxSL)/PROYECTOS/My%20preschool%20monster%20serie/PRODUCCION/Story/EPISODIOS/FOTOS/XML/monsters_S01E45_lineal_V001.aif</pathurl>
              <rate>
                <timebase>25</timebase>
              </rate>
              <duration>6366</duration>
              <media>
                <audio>
                  <samplecharacteristics>
                    <samplerate>48000</samplerate>
                    <depth>16</depth>
                  </samplecharacteristics>
                  <channelcount>2</channelcount>
                  <layout>stereo</layout>
                  <audiochannel>
                    <sourcechannel>1</sourcechannel>
                    <channellabel>left</channellabel>
                  </audiochannel>
                  <audiochannel>
                    <sourcechannel>2</sourcechannel>
                    <channellabel>right</channellabel>
                  </audiochannel>
                </audio>
              </media>
            </file>
            <sourcetrack>
              <mediatype>audio</mediatype>
              <trackindex>1</trackindex>
            </sourcetrack>
            <link>
              <linkclipref>monsters_S01E45_lineal_V001 165</linkclipref>
              <mediatype>audio</mediatype>
              <trackindex>3</trackindex>
              <clipindex>18</clipindex>
              <groupindex>1</groupindex>
            </link>
            <link>
              <linkclipref>monsters_S01E45_lineal_V001 167</linkclipref>
              <mediatype>audio</mediatype>
              <trackindex>4</trackindex>
              <clipindex>18</clipindex>
              <groupindex>1</groupindex>
            </link>
            <itemhistory>
              <uuid>C1E5D51F-5B2B-3B06-3963-55D25EAD1947</uuid>
            </itemhistory>
          </clipitem>
          <clipitem id="monsters_S01E45_lineal_V001 168">
            <name>monsters_S01E45_lineal_V001</name>
            <duration>6366</duration>
            <rate>
              <ntsc>FALSE</ntsc>
              <timebase>25</timebase>
            </rate>
            <in>2411</in>
            <out>2532</out>
            <start>2905</start>
            <end>3026</end>
            <file id="monsters_S01E45_lineal_V001 169">
              <name>monsters_S01E45_lineal_V001.aif</name>
              <pathurl>file://localhost/C:/Users/usuario/Dropbox%20(BigBangBoxSL)/PROYECTOS/My%20preschool%20monster%20serie/PRODUCCION/Story/EPISODIOS/FOTOS/XML/monsters_S01E45_lineal_V001.aif</pathurl>
              <rate>
                <timebase>25</timebase>
              </rate>
              <duration>6366</duration>
              <media>
                <audio>
                  <samplecharacteristics>
                    <samplerate>48000</samplerate>
                    <depth>16</depth>
                  </samplecharacteristics>
                  <channelcount>2</channelcount>
                  <layout>stereo</layout>
                  <audiochannel>
                    <sourcechannel>1</sourcechannel>
                    <channellabel>left</channellabel>
                  </audiochannel>
                  <audiochannel>
                    <sourcechannel>2</sourcechannel>
                    <channellabel>right</channellabel>
                  </audiochannel>
                </audio>
              </media>
            </file>
            <sourcetrack>
              <mediatype>audio</mediatype>
              <trackindex>1</trackindex>
            </sourcetrack>
            <link>
              <linkclipref>monsters_S01E45_lineal_V001 168</linkclipref>
              <mediatype>audio</mediatype>
              <trackindex>3</trackindex>
              <clipindex>19</clipindex>
              <groupindex>1</groupindex>
            </link>
            <link>
              <linkclipref>monsters_S01E45_lineal_V001 170</linkclipref>
              <mediatype>audio</mediatype>
              <trackindex>4</trackindex>
              <clipindex>19</clipindex>
              <groupindex>1</groupindex>
            </link>
            <itemhistory>
              <uuid>1CBB2EFF-1E92-6A7E-6360-A15E3FF94086</uuid>
            </itemhistory>
          </clipitem>
          <clipitem id="monsters_S01E45_lineal_V001 171">
            <name>monsters_S01E45_lineal_V001</name>
            <duration>6366</duration>
            <rate>
              <ntsc>FALSE</ntsc>
              <timebase>25</timebase>
            </rate>
            <in>2547</in>
            <out>2585</out>
            <start>3029</start>
            <end>3067</end>
            <file id="monsters_S01E45_lineal_V001 172">
              <name>monsters_S01E45_lineal_V001.aif</name>
              <pathurl>file://localhost/C:/Users/usuario/Dropbox%20(BigBangBoxSL)/PROYECTOS/My%20preschool%20monster%20serie/PRODUCCION/Story/EPISODIOS/FOTOS/XML/monsters_S01E45_lineal_V001.aif</pathurl>
              <rate>
                <timebase>25</timebase>
              </rate>
              <duration>6366</duration>
              <media>
                <audio>
                  <samplecharacteristics>
                    <samplerate>48000</samplerate>
                    <depth>16</depth>
                  </samplecharacteristics>
                  <channelcount>2</channelcount>
                  <layout>stereo</layout>
                  <audiochannel>
                    <sourcechannel>1</sourcechannel>
                    <channellabel>left</channellabel>
                  </audiochannel>
                  <audiochannel>
                    <sourcechannel>2</sourcechannel>
                    <channellabel>right</channellabel>
                  </audiochannel>
                </audio>
              </media>
            </file>
            <sourcetrack>
              <mediatype>audio</mediatype>
              <trackindex>1</trackindex>
            </sourcetrack>
            <link>
              <linkclipref>monsters_S01E45_lineal_V001 171</linkclipref>
              <mediatype>audio</mediatype>
              <trackindex>3</trackindex>
              <clipindex>20</clipindex>
              <groupindex>1</groupindex>
            </link>
            <link>
              <linkclipref>monsters_S01E45_lineal_V001 173</linkclipref>
              <mediatype>audio</mediatype>
              <trackindex>4</trackindex>
              <clipindex>20</clipindex>
              <groupindex>1</groupindex>
            </link>
            <itemhistory>
              <uuid>52F22928-6AB1-4EE4-6399-7E2C3A2B1747</uuid>
            </itemhistory>
          </clipitem>
          <clipitem id="monsters_S01E45_lineal_V001 174">
            <name>monsters_S01E45_lineal_V001</name>
            <duration>6366</duration>
            <rate>
              <ntsc>FALSE</ntsc>
              <timebase>25</timebase>
            </rate>
            <in>2600</in>
            <out>2646</out>
            <start>3068</start>
            <end>3114</end>
            <file id="monsters_S01E45_lineal_V001 175">
              <name>monsters_S01E45_lineal_V001.aif</name>
              <pathurl>file://localhost/C:/Users/usuario/Dropbox%20(BigBangBoxSL)/PROYECTOS/My%20preschool%20monster%20serie/PRODUCCION/Story/EPISODIOS/FOTOS/XML/monsters_S01E45_lineal_V001.aif</pathurl>
              <rate>
                <timebase>25</timebase>
              </rate>
              <duration>6366</duration>
              <media>
                <audio>
                  <samplecharacteristics>
                    <samplerate>48000</samplerate>
                    <depth>16</depth>
                  </samplecharacteristics>
                  <channelcount>2</channelcount>
                  <layout>stereo</layout>
                  <audiochannel>
                    <sourcechannel>1</sourcechannel>
                    <channellabel>left</channellabel>
                  </audiochannel>
                  <audiochannel>
                    <sourcechannel>2</sourcechannel>
                    <channellabel>right</channellabel>
                  </audiochannel>
                </audio>
              </media>
            </file>
            <sourcetrack>
              <mediatype>audio</mediatype>
              <trackindex>1</trackindex>
            </sourcetrack>
            <link>
              <linkclipref>monsters_S01E45_lineal_V001 174</linkclipref>
              <mediatype>audio</mediatype>
              <trackindex>3</trackindex>
              <clipindex>21</clipindex>
              <groupindex>1</groupindex>
            </link>
            <link>
              <linkclipref>monsters_S01E45_lineal_V001 176</linkclipref>
              <mediatype>audio</mediatype>
              <trackindex>4</trackindex>
              <clipindex>21</clipindex>
              <groupindex>1</groupindex>
            </link>
            <itemhistory>
              <uuid>73F24276-3C28-504D-4A8C-73CB7D7F6F35</uuid>
            </itemhistory>
          </clipitem>
          <clipitem id="monsters_S01E45_lineal_V001 177">
            <name>monsters_S01E45_lineal_V001</name>
            <duration>6366</duration>
            <rate>
              <ntsc>FALSE</ntsc>
              <timebase>25</timebase>
            </rate>
            <in>2836</in>
            <out>2933</out>
            <start>3253</start>
            <end>3350</end>
            <file id="monsters_S01E45_lineal_V001 178">
              <name>monsters_S01E45_lineal_V001.aif</name>
              <pathurl>file://localhost/C:/Users/usuario/Dropbox%20(BigBangBoxSL)/PROYECTOS/My%20preschool%20monster%20serie/PRODUCCION/Story/EPISODIOS/FOTOS/XML/monsters_S01E45_lineal_V001.aif</pathurl>
              <rate>
                <timebase>25</timebase>
              </rate>
              <duration>6366</duration>
              <media>
                <audio>
                  <samplecharacteristics>
                    <samplerate>48000</samplerate>
                    <depth>16</depth>
                  </samplecharacteristics>
                  <channelcount>2</channelcount>
                  <layout>stereo</layout>
                  <audiochannel>
                    <sourcechannel>1</sourcechannel>
                    <channellabel>left</channellabel>
                  </audiochannel>
                  <audiochannel>
                    <sourcechannel>2</sourcechannel>
                    <channellabel>right</channellabel>
                  </audiochannel>
                </audio>
              </media>
            </file>
            <sourcetrack>
              <mediatype>audio</mediatype>
              <trackindex>1</trackindex>
            </sourcetrack>
            <link>
              <linkclipref>monsters_S01E45_lineal_V001 177</linkclipref>
              <mediatype>audio</mediatype>
              <trackindex>3</trackindex>
              <clipindex>22</clipindex>
              <groupindex>1</groupindex>
            </link>
            <link>
              <linkclipref>monsters_S01E45_lineal_V001 179</linkclipref>
              <mediatype>audio</mediatype>
              <trackindex>4</trackindex>
              <clipindex>22</clipindex>
              <groupindex>1</groupindex>
            </link>
            <itemhistory>
              <uuid>0D4236EB-5451-499B-5D59-D6D702563F86</uuid>
            </itemhistory>
          </clipitem>
          <clipitem id="monsters_S01E45_lineal_V001 180">
            <name>monsters_S01E45_lineal_V001</name>
            <duration>6366</duration>
            <rate>
              <ntsc>FALSE</ntsc>
              <timebase>25</timebase>
            </rate>
            <in>2950</in>
            <out>2979</out>
            <start>3505</start>
            <end>3534</end>
            <file id="monsters_S01E45_lineal_V001 181">
              <name>monsters_S01E45_lineal_V001.aif</name>
              <pathurl>file://localhost/C:/Users/usuario/Dropbox%20(BigBangBoxSL)/PROYECTOS/My%20preschool%20monster%20serie/PRODUCCION/Story/EPISODIOS/FOTOS/XML/monsters_S01E45_lineal_V001.aif</pathurl>
              <rate>
                <timebase>25</timebase>
              </rate>
              <duration>6366</duration>
              <media>
                <audio>
                  <samplecharacteristics>
                    <samplerate>48000</samplerate>
                    <depth>16</depth>
                  </samplecharacteristics>
                  <channelcount>2</channelcount>
                  <layout>stereo</layout>
                  <audiochannel>
                    <sourcechannel>1</sourcechannel>
                    <channellabel>left</channellabel>
                  </audiochannel>
                  <audiochannel>
                    <sourcechannel>2</sourcechannel>
                    <channellabel>right</channellabel>
                  </audiochannel>
                </audio>
              </media>
            </file>
            <sourcetrack>
              <mediatype>audio</mediatype>
              <trackindex>1</trackindex>
            </sourcetrack>
            <link>
              <linkclipref>monsters_S01E45_lineal_V001 180</linkclipref>
              <mediatype>audio</mediatype>
              <trackindex>3</trackindex>
              <clipindex>23</clipindex>
              <groupindex>1</groupindex>
            </link>
            <link>
              <linkclipref>monsters_S01E45_lineal_V001 182</linkclipref>
              <mediatype>audio</mediatype>
              <trackindex>4</trackindex>
              <clipindex>23</clipindex>
              <groupindex>1</groupindex>
            </link>
            <itemhistory>
              <uuid>1ED27177-177F-24EE-5384-862E4296AB64</uuid>
            </itemhistory>
          </clipitem>
          <clipitem id="monsters_S01E45_lineal_V001 183">
            <name>monsters_S01E45_lineal_V001</name>
            <duration>6366</duration>
            <rate>
              <ntsc>FALSE</ntsc>
              <timebase>25</timebase>
            </rate>
            <in>3106</in>
            <out>3162</out>
            <start>3718</start>
            <end>3774</end>
            <file id="monsters_S01E45_lineal_V001 184">
              <name>monsters_S01E45_lineal_V001.aif</name>
              <pathurl>file://localhost/C:/Users/usuario/Dropbox%20(BigBangBoxSL)/PROYECTOS/My%20preschool%20monster%20serie/PRODUCCION/Story/EPISODIOS/FOTOS/XML/monsters_S01E45_lineal_V001.aif</pathurl>
              <rate>
                <timebase>25</timebase>
              </rate>
              <duration>6366</duration>
              <media>
                <audio>
                  <samplecharacteristics>
                    <samplerate>48000</samplerate>
                    <depth>16</depth>
                  </samplecharacteristics>
                  <channelcount>2</channelcount>
                  <layout>stereo</layout>
                  <audiochannel>
                    <sourcechannel>1</sourcechannel>
                    <channellabel>left</channellabel>
                  </audiochannel>
                  <audiochannel>
                    <sourcechannel>2</sourcechannel>
                    <channellabel>right</channellabel>
                  </audiochannel>
                </audio>
              </media>
            </file>
            <sourcetrack>
              <mediatype>audio</mediatype>
              <trackindex>1</trackindex>
            </sourcetrack>
            <link>
              <linkclipref>monsters_S01E45_lineal_V001 183</linkclipref>
              <mediatype>audio</mediatype>
              <trackindex>3</trackindex>
              <clipindex>24</clipindex>
              <groupindex>1</groupindex>
            </link>
            <link>
              <linkclipref>monsters_S01E45_lineal_V001 185</linkclipref>
              <mediatype>audio</mediatype>
              <trackindex>4</trackindex>
              <clipindex>24</clipindex>
              <groupindex>1</groupindex>
            </link>
            <itemhistory>
              <uuid>7C1B56B0-38DC-361D-6E69-6E9B4B27600D</uuid>
            </itemhistory>
          </clipitem>
          <clipitem id="monsters_S01E45_lineal_V001 186">
            <name>monsters_S01E45_lineal_V001</name>
            <duration>6366</duration>
            <rate>
              <ntsc>FALSE</ntsc>
              <timebase>25</timebase>
            </rate>
            <in>3336</in>
            <out>3381</out>
            <start>3881</start>
            <end>3926</end>
            <file id="monsters_S01E45_lineal_V001 187">
              <name>monsters_S01E45_lineal_V001.aif</name>
              <pathurl>file://localhost/C:/Users/usuario/Dropbox%20(BigBangBoxSL)/PROYECTOS/My%20preschool%20monster%20serie/PRODUCCION/Story/EPISODIOS/FOTOS/XML/monsters_S01E45_lineal_V001.aif</pathurl>
              <rate>
                <timebase>25</timebase>
              </rate>
              <duration>6366</duration>
              <media>
                <audio>
                  <samplecharacteristics>
                    <samplerate>48000</samplerate>
                    <depth>16</depth>
                  </samplecharacteristics>
                  <channelcount>2</channelcount>
                  <layout>stereo</layout>
                  <audiochannel>
                    <sourcechannel>1</sourcechannel>
                    <channellabel>left</channellabel>
                  </audiochannel>
                  <audiochannel>
                    <sourcechannel>2</sourcechannel>
                    <channellabel>right</channellabel>
                  </audiochannel>
                </audio>
              </media>
            </file>
            <sourcetrack>
              <mediatype>audio</mediatype>
              <trackindex>1</trackindex>
            </sourcetrack>
            <link>
              <linkclipref>monsters_S01E45_lineal_V001 186</linkclipref>
              <mediatype>audio</mediatype>
              <trackindex>3</trackindex>
              <clipindex>25</clipindex>
              <groupindex>1</groupindex>
            </link>
            <link>
              <linkclipref>monsters_S01E45_lineal_V001 188</linkclipref>
              <mediatype>audio</mediatype>
              <trackindex>4</trackindex>
              <clipindex>25</clipindex>
              <groupindex>1</groupindex>
            </link>
            <itemhistory>
              <uuid>01924638-29E0-4732-6D16-FAD861BE577E</uuid>
            </itemhistory>
          </clipitem>
          <clipitem id="monsters_S01E45_lineal_V001 189">
            <name>monsters_S01E45_lineal_V001</name>
            <duration>6366</duration>
            <rate>
              <ntsc>FALSE</ntsc>
              <timebase>25</timebase>
            </rate>
            <in>3707</in>
            <out>3757</out>
            <start>4211</start>
            <end>4261</end>
            <file id="monsters_S01E45_lineal_V001 190">
              <name>monsters_S01E45_lineal_V001.aif</name>
              <pathurl>file://localhost/C:/Users/usuario/Dropbox%20(BigBangBoxSL)/PROYECTOS/My%20preschool%20monster%20serie/PRODUCCION/Story/EPISODIOS/FOTOS/XML/monsters_S01E45_lineal_V001.aif</pathurl>
              <rate>
                <timebase>25</timebase>
              </rate>
              <duration>6366</duration>
              <media>
                <audio>
                  <samplecharacteristics>
                    <samplerate>48000</samplerate>
                    <depth>16</depth>
                  </samplecharacteristics>
                  <channelcount>2</channelcount>
                  <layout>stereo</layout>
                  <audiochannel>
                    <sourcechannel>1</sourcechannel>
                    <channellabel>left</channellabel>
                  </audiochannel>
                  <audiochannel>
                    <sourcechannel>2</sourcechannel>
                    <channellabel>right</channellabel>
                  </audiochannel>
                </audio>
              </media>
            </file>
            <sourcetrack>
              <mediatype>audio</mediatype>
              <trackindex>1</trackindex>
            </sourcetrack>
            <link>
              <linkclipref>monsters_S01E45_lineal_V001 189</linkclipref>
              <mediatype>audio</mediatype>
              <trackindex>3</trackindex>
              <clipindex>26</clipindex>
              <groupindex>1</groupindex>
            </link>
            <link>
              <linkclipref>monsters_S01E45_lineal_V001 191</linkclipref>
              <mediatype>audio</mediatype>
              <trackindex>4</trackindex>
              <clipindex>26</clipindex>
              <groupindex>1</groupindex>
            </link>
            <itemhistory>
              <uuid>26613C55-717A-563F-35B4-5CA75227556E</uuid>
            </itemhistory>
          </clipitem>
          <clipitem id="monsters_S01E45_lineal_V001 192">
            <name>monsters_S01E45_lineal_V001</name>
            <duration>6366</duration>
            <rate>
              <ntsc>FALSE</ntsc>
              <timebase>25</timebase>
            </rate>
            <in>3779</in>
            <out>3840</out>
            <start>4374</start>
            <end>4435</end>
            <file id="monsters_S01E45_lineal_V001 193">
              <name>monsters_S01E45_lineal_V001.aif</name>
              <pathurl>file://localhost/C:/Users/usuario/Dropbox%20(BigBangBoxSL)/PROYECTOS/My%20preschool%20monster%20serie/PRODUCCION/Story/EPISODIOS/FOTOS/XML/monsters_S01E45_lineal_V001.aif</pathurl>
              <rate>
                <timebase>25</timebase>
              </rate>
              <duration>6366</duration>
              <media>
                <audio>
                  <samplecharacteristics>
                    <samplerate>48000</samplerate>
                    <depth>16</depth>
                  </samplecharacteristics>
                  <channelcount>2</channelcount>
                  <layout>stereo</layout>
                  <audiochannel>
                    <sourcechannel>1</sourcechannel>
                    <channellabel>left</channellabel>
                  </audiochannel>
                  <audiochannel>
                    <sourcechannel>2</sourcechannel>
                    <channellabel>right</channellabel>
                  </audiochannel>
                </audio>
              </media>
            </file>
            <sourcetrack>
              <mediatype>audio</mediatype>
              <trackindex>1</trackindex>
            </sourcetrack>
            <link>
              <linkclipref>monsters_S01E45_lineal_V001 192</linkclipref>
              <mediatype>audio</mediatype>
              <trackindex>3</trackindex>
              <clipindex>27</clipindex>
              <groupindex>1</groupindex>
            </link>
            <link>
              <linkclipref>monsters_S01E45_lineal_V001 194</linkclipref>
              <mediatype>audio</mediatype>
              <trackindex>4</trackindex>
              <clipindex>27</clipindex>
              <groupindex>1</groupindex>
            </link>
            <itemhistory>
              <uuid>8CB936C7-6E1F-1320-6F3B-C6080F295AB2</uuid>
            </itemhistory>
          </clipitem>
          <clipitem id="monsters_S01E45_lineal_V001 195">
            <name>monsters_S01E45_lineal_V001</name>
            <duration>6366</duration>
            <rate>
              <ntsc>FALSE</ntsc>
              <timebase>25</timebase>
            </rate>
            <in>3870</in>
            <out>3885</out>
            <start>4440</start>
            <end>4455</end>
            <file id="monsters_S01E45_lineal_V001 196">
              <name>monsters_S01E45_lineal_V001.aif</name>
              <pathurl>file://localhost/C:/Users/usuario/Dropbox%20(BigBangBoxSL)/PROYECTOS/My%20preschool%20monster%20serie/PRODUCCION/Story/EPISODIOS/FOTOS/XML/monsters_S01E45_lineal_V001.aif</pathurl>
              <rate>
                <timebase>25</timebase>
              </rate>
              <duration>6366</duration>
              <media>
                <audio>
                  <samplecharacteristics>
                    <samplerate>48000</samplerate>
                    <depth>16</depth>
                  </samplecharacteristics>
                  <channelcount>2</channelcount>
                  <layout>stereo</layout>
                  <audiochannel>
                    <sourcechannel>1</sourcechannel>
                    <channellabel>left</channellabel>
                  </audiochannel>
                  <audiochannel>
                    <sourcechannel>2</sourcechannel>
                    <channellabel>right</channellabel>
                  </audiochannel>
                </audio>
              </media>
            </file>
            <sourcetrack>
              <mediatype>audio</mediatype>
              <trackindex>1</trackindex>
            </sourcetrack>
            <link>
              <linkclipref>monsters_S01E45_lineal_V001 195</linkclipref>
              <mediatype>audio</mediatype>
              <trackindex>3</trackindex>
              <clipindex>28</clipindex>
              <groupindex>1</groupindex>
            </link>
            <link>
              <linkclipref>monsters_S01E45_lineal_V001 197</linkclipref>
              <mediatype>audio</mediatype>
              <trackindex>4</trackindex>
              <clipindex>28</clipindex>
              <groupindex>1</groupindex>
            </link>
            <itemhistory>
              <uuid>6A9C5B8D-18EC-5945-100A-1A0E615373E2</uuid>
            </itemhistory>
          </clipitem>
          <clipitem id="monsters_S01E45_lineal_V001 198">
            <name>monsters_S01E45_lineal_V001</name>
            <duration>6366</duration>
            <rate>
              <ntsc>FALSE</ntsc>
              <timebase>25</timebase>
            </rate>
            <in>3969</in>
            <out>4112</out>
            <start>4510</start>
            <end>4653</end>
            <file id="monsters_S01E45_lineal_V001 199">
              <name>monsters_S01E45_lineal_V001.aif</name>
              <pathurl>file://localhost/C:/Users/usuario/Dropbox%20(BigBangBoxSL)/PROYECTOS/My%20preschool%20monster%20serie/PRODUCCION/Story/EPISODIOS/FOTOS/XML/monsters_S01E45_lineal_V001.aif</pathurl>
              <rate>
                <timebase>25</timebase>
              </rate>
              <duration>6366</duration>
              <media>
                <audio>
                  <samplecharacteristics>
                    <samplerate>48000</samplerate>
                    <depth>16</depth>
                  </samplecharacteristics>
                  <channelcount>2</channelcount>
                  <layout>stereo</layout>
                  <audiochannel>
                    <sourcechannel>1</sourcechannel>
                    <channellabel>left</channellabel>
                  </audiochannel>
                  <audiochannel>
                    <sourcechannel>2</sourcechannel>
                    <channellabel>right</channellabel>
                  </audiochannel>
                </audio>
              </media>
            </file>
            <sourcetrack>
              <mediatype>audio</mediatype>
              <trackindex>1</trackindex>
            </sourcetrack>
            <link>
              <linkclipref>monsters_S01E45_lineal_V001 198</linkclipref>
              <mediatype>audio</mediatype>
              <trackindex>3</trackindex>
              <clipindex>29</clipindex>
              <groupindex>1</groupindex>
            </link>
            <link>
              <linkclipref>monsters_S01E45_lineal_V001 200</linkclipref>
              <mediatype>audio</mediatype>
              <trackindex>4</trackindex>
              <clipindex>29</clipindex>
              <groupindex>1</groupindex>
            </link>
            <itemhistory>
              <uuid>328B5036-32BB-5293-3623-4EEB79B22466</uuid>
            </itemhistory>
          </clipitem>
          <clipitem id="monsters_S01E45_lineal_V001 201">
            <name>monsters_S01E45_lineal_V001</name>
            <duration>6366</duration>
            <rate>
              <ntsc>FALSE</ntsc>
              <timebase>25</timebase>
            </rate>
            <in>4157</in>
            <out>4180</out>
            <start>4709</start>
            <end>4732</end>
            <file id="monsters_S01E45_lineal_V001 202">
              <name>monsters_S01E45_lineal_V001.aif</name>
              <pathurl>file://localhost/C:/Users/usuario/Dropbox%20(BigBangBoxSL)/PROYECTOS/My%20preschool%20monster%20serie/PRODUCCION/Story/EPISODIOS/FOTOS/XML/monsters_S01E45_lineal_V001.aif</pathurl>
              <rate>
                <timebase>25</timebase>
              </rate>
              <duration>6366</duration>
              <media>
                <audio>
                  <samplecharacteristics>
                    <samplerate>48000</samplerate>
                    <depth>16</depth>
                  </samplecharacteristics>
                  <channelcount>2</channelcount>
                  <layout>stereo</layout>
                  <audiochannel>
                    <sourcechannel>1</sourcechannel>
                    <channellabel>left</channellabel>
                  </audiochannel>
                  <audiochannel>
                    <sourcechannel>2</sourcechannel>
                    <channellabel>right</channellabel>
                  </audiochannel>
                </audio>
              </media>
            </file>
            <sourcetrack>
              <mediatype>audio</mediatype>
              <trackindex>1</trackindex>
            </sourcetrack>
            <link>
              <linkclipref>monsters_S01E45_lineal_V001 201</linkclipref>
              <mediatype>audio</mediatype>
              <trackindex>3</trackindex>
              <clipindex>30</clipindex>
              <groupindex>1</groupindex>
            </link>
            <link>
              <linkclipref>monsters_S01E45_lineal_V001 203</linkclipref>
              <mediatype>audio</mediatype>
              <trackindex>4</trackindex>
              <clipindex>30</clipindex>
              <groupindex>1</groupindex>
            </link>
            <itemhistory>
              <uuid>1B97DDD3-3CEF-3D8B-706A-6610455C3C9B</uuid>
            </itemhistory>
          </clipitem>
          <clipitem id="monsters_S01E45_lineal_V001 204">
            <name>monsters_S01E45_lineal_V001</name>
            <duration>6366</duration>
            <rate>
              <ntsc>FALSE</ntsc>
              <timebase>25</timebase>
            </rate>
            <in>4202</in>
            <out>4289</out>
            <start>4866</start>
            <end>4953</end>
            <file id="monsters_S01E45_lineal_V001 205">
              <name>monsters_S01E45_lineal_V001.aif</name>
              <pathurl>file://localhost/C:/Users/usuario/Dropbox%20(BigBangBoxSL)/PROYECTOS/My%20preschool%20monster%20serie/PRODUCCION/Story/EPISODIOS/FOTOS/XML/monsters_S01E45_lineal_V001.aif</pathurl>
              <rate>
                <timebase>25</timebase>
              </rate>
              <duration>6366</duration>
              <media>
                <audio>
                  <samplecharacteristics>
                    <samplerate>48000</samplerate>
                    <depth>16</depth>
                  </samplecharacteristics>
                  <channelcount>2</channelcount>
                  <layout>stereo</layout>
                  <audiochannel>
                    <sourcechannel>1</sourcechannel>
                    <channellabel>left</channellabel>
                  </audiochannel>
                  <audiochannel>
                    <sourcechannel>2</sourcechannel>
                    <channellabel>right</channellabel>
                  </audiochannel>
                </audio>
              </media>
            </file>
            <sourcetrack>
              <mediatype>audio</mediatype>
              <trackindex>1</trackindex>
            </sourcetrack>
            <link>
              <linkclipref>monsters_S01E45_lineal_V001 204</linkclipref>
              <mediatype>audio</mediatype>
              <trackindex>3</trackindex>
              <clipindex>31</clipindex>
              <groupindex>1</groupindex>
            </link>
            <link>
              <linkclipref>monsters_S01E45_lineal_V001 206</linkclipref>
              <mediatype>audio</mediatype>
              <trackindex>4</trackindex>
              <clipindex>31</clipindex>
              <groupindex>1</groupindex>
            </link>
            <itemhistory>
              <uuid>37EE110A-104A-69B5-14F3-13D33E7C6772</uuid>
            </itemhistory>
          </clipitem>
          <clipitem id="monsters_S01E45_lineal_V001 207">
            <name>monsters_S01E45_lineal_V001</name>
            <duration>6366</duration>
            <rate>
              <ntsc>FALSE</ntsc>
              <timebase>25</timebase>
            </rate>
            <in>4341</in>
            <out>4398</out>
            <start>5005</start>
            <end>5062</end>
            <file id="monsters_S01E45_lineal_V001 208">
              <name>monsters_S01E45_lineal_V001.aif</name>
              <pathurl>file://localhost/C:/Users/usuario/Dropbox%20(BigBangBoxSL)/PROYECTOS/My%20preschool%20monster%20serie/PRODUCCION/Story/EPISODIOS/FOTOS/XML/monsters_S01E45_lineal_V001.aif</pathurl>
              <rate>
                <timebase>25</timebase>
              </rate>
              <duration>6366</duration>
              <media>
                <audio>
                  <samplecharacteristics>
                    <samplerate>48000</samplerate>
                    <depth>16</depth>
                  </samplecharacteristics>
                  <channelcount>2</channelcount>
                  <layout>stereo</layout>
                  <audiochannel>
                    <sourcechannel>1</sourcechannel>
                    <channellabel>left</channellabel>
                  </audiochannel>
                  <audiochannel>
                    <sourcechannel>2</sourcechannel>
                    <channellabel>right</channellabel>
                  </audiochannel>
                </audio>
              </media>
            </file>
            <sourcetrack>
              <mediatype>audio</mediatype>
              <trackindex>1</trackindex>
            </sourcetrack>
            <link>
              <linkclipref>monsters_S01E45_lineal_V001 207</linkclipref>
              <mediatype>audio</mediatype>
              <trackindex>3</trackindex>
              <clipindex>32</clipindex>
              <groupindex>1</groupindex>
            </link>
            <link>
              <linkclipref>monsters_S01E45_lineal_V001 209</linkclipref>
              <mediatype>audio</mediatype>
              <trackindex>4</trackindex>
              <clipindex>32</clipindex>
              <groupindex>1</groupindex>
            </link>
            <itemhistory>
              <uuid>AD9477F7-3DF6-29ED-1957-6F0E4CA671E2</uuid>
            </itemhistory>
          </clipitem>
          <clipitem id="monsters_S01E45_lineal_V001 210">
            <name>monsters_S01E45_lineal_V001</name>
            <duration>6366</duration>
            <rate>
              <ntsc>FALSE</ntsc>
              <timebase>25</timebase>
            </rate>
            <in>4433</in>
            <out>4460</out>
            <start>5082</start>
            <end>5109</end>
            <file id="monsters_S01E45_lineal_V001 211">
              <name>monsters_S01E45_lineal_V001.aif</name>
              <pathurl>file://localhost/C:/Users/usuario/Dropbox%20(BigBangBoxSL)/PROYECTOS/My%20preschool%20monster%20serie/PRODUCCION/Story/EPISODIOS/FOTOS/XML/monsters_S01E45_lineal_V001.aif</pathurl>
              <rate>
                <timebase>25</timebase>
              </rate>
              <duration>6366</duration>
              <media>
                <audio>
                  <samplecharacteristics>
                    <samplerate>48000</samplerate>
                    <depth>16</depth>
                  </samplecharacteristics>
                  <channelcount>2</channelcount>
                  <layout>stereo</layout>
                  <audiochannel>
                    <sourcechannel>1</sourcechannel>
                    <channellabel>left</channellabel>
                  </audiochannel>
                  <audiochannel>
                    <sourcechannel>2</sourcechannel>
                    <channellabel>right</channellabel>
                  </audiochannel>
                </audio>
              </media>
            </file>
            <sourcetrack>
              <mediatype>audio</mediatype>
              <trackindex>1</trackindex>
            </sourcetrack>
            <link>
              <linkclipref>monsters_S01E45_lineal_V001 210</linkclipref>
              <mediatype>audio</mediatype>
              <trackindex>3</trackindex>
              <clipindex>33</clipindex>
              <groupindex>1</groupindex>
            </link>
            <link>
              <linkclipref>monsters_S01E45_lineal_V001 212</linkclipref>
              <mediatype>audio</mediatype>
              <trackindex>4</trackindex>
              <clipindex>33</clipindex>
              <groupindex>1</groupindex>
            </link>
            <itemhistory>
              <uuid>12EC4A81-3AD0-44A7-4E64-B54F5F8571AC</uuid>
            </itemhistory>
          </clipitem>
          <clipitem id="monsters_S01E45_lineal_V001 213">
            <name>monsters_S01E45_lineal_V001</name>
            <duration>6366</duration>
            <rate>
              <ntsc>FALSE</ntsc>
              <timebase>25</timebase>
            </rate>
            <in>4509</in>
            <out>4565</out>
            <start>5135</start>
            <end>5191</end>
            <file id="monsters_S01E45_lineal_V001 214">
              <name>monsters_S01E45_lineal_V001.aif</name>
              <pathurl>file://localhost/C:/Users/usuario/Dropbox%20(BigBangBoxSL)/PROYECTOS/My%20preschool%20monster%20serie/PRODUCCION/Story/EPISODIOS/FOTOS/XML/monsters_S01E45_lineal_V001.aif</pathurl>
              <rate>
                <timebase>25</timebase>
              </rate>
              <duration>6366</duration>
              <media>
                <audio>
                  <samplecharacteristics>
                    <samplerate>48000</samplerate>
                    <depth>16</depth>
                  </samplecharacteristics>
                  <channelcount>2</channelcount>
                  <layout>stereo</layout>
                  <audiochannel>
                    <sourcechannel>1</sourcechannel>
                    <channellabel>left</channellabel>
                  </audiochannel>
                  <audiochannel>
                    <sourcechannel>2</sourcechannel>
                    <channellabel>right</channellabel>
                  </audiochannel>
                </audio>
              </media>
            </file>
            <sourcetrack>
              <mediatype>audio</mediatype>
              <trackindex>1</trackindex>
            </sourcetrack>
            <link>
              <linkclipref>monsters_S01E45_lineal_V001 213</linkclipref>
              <mediatype>audio</mediatype>
              <trackindex>3</trackindex>
              <clipindex>34</clipindex>
              <groupindex>1</groupindex>
            </link>
            <link>
              <linkclipref>monsters_S01E45_lineal_V001 215</linkclipref>
              <mediatype>audio</mediatype>
              <trackindex>4</trackindex>
              <clipindex>34</clipindex>
              <groupindex>1</groupindex>
            </link>
            <itemhistory>
              <uuid>312015D7-643E-4024-1BAD-BF0F4CB926BA</uuid>
            </itemhistory>
          </clipitem>
          <clipitem id="monsters_S01E45_lineal_V001 216">
            <name>monsters_S01E45_lineal_V001</name>
            <duration>6366</duration>
            <rate>
              <ntsc>FALSE</ntsc>
              <timebase>25</timebase>
            </rate>
            <in>4648</in>
            <out>4764</out>
            <start>5378</start>
            <end>5494</end>
            <file id="monsters_S01E45_lineal_V001 217">
              <name>monsters_S01E45_lineal_V001.aif</name>
              <pathurl>file://localhost/C:/Users/usuario/Dropbox%20(BigBangBoxSL)/PROYECTOS/My%20preschool%20monster%20serie/PRODUCCION/Story/EPISODIOS/FOTOS/XML/monsters_S01E45_lineal_V001.aif</pathurl>
              <rate>
                <timebase>25</timebase>
              </rate>
              <duration>6366</duration>
              <media>
                <audio>
                  <samplecharacteristics>
                    <samplerate>48000</samplerate>
                    <depth>16</depth>
                  </samplecharacteristics>
                  <channelcount>2</channelcount>
                  <layout>stereo</layout>
                  <audiochannel>
                    <sourcechannel>1</sourcechannel>
                    <channellabel>left</channellabel>
                  </audiochannel>
                  <audiochannel>
                    <sourcechannel>2</sourcechannel>
                    <channellabel>right</channellabel>
                  </audiochannel>
                </audio>
              </media>
            </file>
            <sourcetrack>
              <mediatype>audio</mediatype>
              <trackindex>1</trackindex>
            </sourcetrack>
            <link>
              <linkclipref>monsters_S01E45_lineal_V001 216</linkclipref>
              <mediatype>audio</mediatype>
              <trackindex>3</trackindex>
              <clipindex>35</clipindex>
              <groupindex>1</groupindex>
            </link>
            <link>
              <linkclipref>monsters_S01E45_lineal_V001 218</linkclipref>
              <mediatype>audio</mediatype>
              <trackindex>4</trackindex>
              <clipindex>35</clipindex>
              <groupindex>1</groupindex>
            </link>
            <itemhistory>
              <uuid>4B7F6D58-36E8-1CB5-1B78-C43107841A5A</uuid>
            </itemhistory>
          </clipitem>
          <clipitem id="monsters_S01E45_lineal_V001 219">
            <name>monsters_S01E45_lineal_V001</name>
            <duration>6366</duration>
            <rate>
              <ntsc>FALSE</ntsc>
              <timebase>25</timebase>
            </rate>
            <in>4952</in>
            <out>4977</out>
            <start>5639</start>
            <end>5664</end>
            <file id="monsters_S01E45_lineal_V001 220">
              <name>monsters_S01E45_lineal_V001.aif</name>
              <pathurl>file://localhost/C:/Users/usuario/Dropbox%20(BigBangBoxSL)/PROYECTOS/My%20preschool%20monster%20serie/PRODUCCION/Story/EPISODIOS/FOTOS/XML/monsters_S01E45_lineal_V001.aif</pathurl>
              <rate>
                <timebase>25</timebase>
              </rate>
              <duration>6366</duration>
              <media>
                <audio>
                  <samplecharacteristics>
                    <samplerate>48000</samplerate>
                    <depth>16</depth>
                  </samplecharacteristics>
                  <channelcount>2</channelcount>
                  <layout>stereo</layout>
                  <audiochannel>
                    <sourcechannel>1</sourcechannel>
                    <channellabel>left</channellabel>
                  </audiochannel>
                  <audiochannel>
                    <sourcechannel>2</sourcechannel>
                    <channellabel>right</channellabel>
                  </audiochannel>
                </audio>
              </media>
            </file>
            <sourcetrack>
              <mediatype>audio</mediatype>
              <trackindex>1</trackindex>
            </sourcetrack>
            <link>
              <linkclipref>monsters_S01E45_lineal_V001 219</linkclipref>
              <mediatype>audio</mediatype>
              <trackindex>3</trackindex>
              <clipindex>36</clipindex>
              <groupindex>1</groupindex>
            </link>
            <link>
              <linkclipref>monsters_S01E45_lineal_V001 221</linkclipref>
              <mediatype>audio</mediatype>
              <trackindex>4</trackindex>
              <clipindex>36</clipindex>
              <groupindex>1</groupindex>
            </link>
            <itemhistory>
              <uuid>3B8F1994-3A7F-1F29-1609-6F334BDE17B8</uuid>
            </itemhistory>
          </clipitem>
          <clipitem id="monsters_S01E45_lineal_V001 222">
            <name>monsters_S01E45_lineal_V001</name>
            <duration>6366</duration>
            <rate>
              <ntsc>FALSE</ntsc>
              <timebase>25</timebase>
            </rate>
            <in>4980</in>
            <out>5066</out>
            <start>5664</start>
            <end>5750</end>
            <file id="monsters_S01E45_lineal_V001 223">
              <name>monsters_S01E45_lineal_V001.aif</name>
              <pathurl>file://localhost/C:/Users/usuario/Dropbox%20(BigBangBoxSL)/PROYECTOS/My%20preschool%20monster%20serie/PRODUCCION/Story/EPISODIOS/FOTOS/XML/monsters_S01E45_lineal_V001.aif</pathurl>
              <rate>
                <timebase>25</timebase>
              </rate>
              <duration>6366</duration>
              <media>
                <audio>
                  <samplecharacteristics>
                    <samplerate>48000</samplerate>
                    <depth>16</depth>
                  </samplecharacteristics>
                  <channelcount>2</channelcount>
                  <layout>stereo</layout>
                  <audiochannel>
                    <sourcechannel>1</sourcechannel>
                    <channellabel>left</channellabel>
                  </audiochannel>
                  <audiochannel>
                    <sourcechannel>2</sourcechannel>
                    <channellabel>right</channellabel>
                  </audiochannel>
                </audio>
              </media>
            </file>
            <sourcetrack>
              <mediatype>audio</mediatype>
              <trackindex>1</trackindex>
            </sourcetrack>
            <link>
              <linkclipref>monsters_S01E45_lineal_V001 222</linkclipref>
              <mediatype>audio</mediatype>
              <trackindex>3</trackindex>
              <clipindex>37</clipindex>
              <groupindex>1</groupindex>
            </link>
            <link>
              <linkclipref>monsters_S01E45_lineal_V001 224</linkclipref>
              <mediatype>audio</mediatype>
              <trackindex>4</trackindex>
              <clipindex>37</clipindex>
              <groupindex>1</groupindex>
            </link>
            <itemhistory>
              <uuid>416F66D7-5F3B-7F16-3CD8-3A4053553F6B</uuid>
            </itemhistory>
          </clipitem>
          <clipitem id="monsters_S01E45_lineal_V001 225">
            <name>monsters_S01E45_lineal_V001</name>
            <duration>6366</duration>
            <rate>
              <ntsc>FALSE</ntsc>
              <timebase>25</timebase>
            </rate>
            <in>5236</in>
            <out>5297</out>
            <start>5886</start>
            <end>5947</end>
            <file id="monsters_S01E45_lineal_V001 226">
              <name>monsters_S01E45_lineal_V001.aif</name>
              <pathurl>file://localhost/C:/Users/usuario/Dropbox%20(BigBangBoxSL)/PROYECTOS/My%20preschool%20monster%20serie/PRODUCCION/Story/EPISODIOS/FOTOS/XML/monsters_S01E45_lineal_V001.aif</pathurl>
              <rate>
                <timebase>25</timebase>
              </rate>
              <duration>6366</duration>
              <media>
                <audio>
                  <samplecharacteristics>
                    <samplerate>48000</samplerate>
                    <depth>16</depth>
                  </samplecharacteristics>
                  <channelcount>2</channelcount>
                  <layout>stereo</layout>
                  <audiochannel>
                    <sourcechannel>1</sourcechannel>
                    <channellabel>left</channellabel>
                  </audiochannel>
                  <audiochannel>
                    <sourcechannel>2</sourcechannel>
                    <channellabel>right</channellabel>
                  </audiochannel>
                </audio>
              </media>
            </file>
            <sourcetrack>
              <mediatype>audio</mediatype>
              <trackindex>1</trackindex>
            </sourcetrack>
            <link>
              <linkclipref>monsters_S01E45_lineal_V001 225</linkclipref>
              <mediatype>audio</mediatype>
              <trackindex>3</trackindex>
              <clipindex>38</clipindex>
              <groupindex>1</groupindex>
            </link>
            <link>
              <linkclipref>monsters_S01E45_lineal_V001 227</linkclipref>
              <mediatype>audio</mediatype>
              <trackindex>4</trackindex>
              <clipindex>38</clipindex>
              <groupindex>1</groupindex>
            </link>
            <itemhistory>
              <uuid>12D23AFE-34D0-36D2-5C98-56C559FA3D11</uuid>
            </itemhistory>
          </clipitem>
          <clipitem id="monsters_S01E45_lineal_V001 228">
            <name>monsters_S01E45_lineal_V001</name>
            <duration>6366</duration>
            <rate>
              <ntsc>FALSE</ntsc>
              <timebase>25</timebase>
            </rate>
            <in>5299</in>
            <out>5376</out>
            <start>5962</start>
            <end>6039</end>
            <file id="monsters_S01E45_lineal_V001 229">
              <name>monsters_S01E45_lineal_V001.aif</name>
              <pathurl>file://localhost/C:/Users/usuario/Dropbox%20(BigBangBoxSL)/PROYECTOS/My%20preschool%20monster%20serie/PRODUCCION/Story/EPISODIOS/FOTOS/XML/monsters_S01E45_lineal_V001.aif</pathurl>
              <rate>
                <timebase>25</timebase>
              </rate>
              <duration>6366</duration>
              <media>
                <audio>
                  <samplecharacteristics>
                    <samplerate>48000</samplerate>
                    <depth>16</depth>
                  </samplecharacteristics>
                  <channelcount>2</channelcount>
                  <layout>stereo</layout>
                  <audiochannel>
                    <sourcechannel>1</sourcechannel>
                    <channellabel>left</channellabel>
                  </audiochannel>
                  <audiochannel>
                    <sourcechannel>2</sourcechannel>
                    <channellabel>right</channellabel>
                  </audiochannel>
                </audio>
              </media>
            </file>
            <sourcetrack>
              <mediatype>audio</mediatype>
              <trackindex>1</trackindex>
            </sourcetrack>
            <link>
              <linkclipref>monsters_S01E45_lineal_V001 228</linkclipref>
              <mediatype>audio</mediatype>
              <trackindex>3</trackindex>
              <clipindex>39</clipindex>
              <groupindex>1</groupindex>
            </link>
            <link>
              <linkclipref>monsters_S01E45_lineal_V001 230</linkclipref>
              <mediatype>audio</mediatype>
              <trackindex>4</trackindex>
              <clipindex>39</clipindex>
              <groupindex>1</groupindex>
            </link>
            <itemhistory>
              <uuid>5FFF1BF1-57B1-75BB-50D4-E190502A5B6F</uuid>
            </itemhistory>
          </clipitem>
          <clipitem id="monsters_S01E45_lineal_V001 231">
            <name>monsters_S01E45_lineal_V001</name>
            <duration>6366</duration>
            <rate>
              <ntsc>FALSE</ntsc>
              <timebase>25</timebase>
            </rate>
            <in>5479</in>
            <out>5535</out>
            <start>6080</start>
            <end>6136</end>
            <file id="monsters_S01E45_lineal_V001 232">
              <name>monsters_S01E45_lineal_V001.aif</name>
              <pathurl>file://localhost/C:/Users/usuario/Dropbox%20(BigBangBoxSL)/PROYECTOS/My%20preschool%20monster%20serie/PRODUCCION/Story/EPISODIOS/FOTOS/XML/monsters_S01E45_lineal_V001.aif</pathurl>
              <rate>
                <timebase>25</timebase>
              </rate>
              <duration>6366</duration>
              <media>
                <audio>
                  <samplecharacteristics>
                    <samplerate>48000</samplerate>
                    <depth>16</depth>
                  </samplecharacteristics>
                  <channelcount>2</channelcount>
                  <layout>stereo</layout>
                  <audiochannel>
                    <sourcechannel>1</sourcechannel>
                    <channellabel>left</channellabel>
                  </audiochannel>
                  <audiochannel>
                    <sourcechannel>2</sourcechannel>
                    <channellabel>right</channellabel>
                  </audiochannel>
                </audio>
              </media>
            </file>
            <sourcetrack>
              <mediatype>audio</mediatype>
              <trackindex>1</trackindex>
            </sourcetrack>
            <link>
              <linkclipref>monsters_S01E45_lineal_V001 231</linkclipref>
              <mediatype>audio</mediatype>
              <trackindex>3</trackindex>
              <clipindex>40</clipindex>
              <groupindex>1</groupindex>
            </link>
            <link>
              <linkclipref>monsters_S01E45_lineal_V001 233</linkclipref>
              <mediatype>audio</mediatype>
              <trackindex>4</trackindex>
              <clipindex>40</clipindex>
              <groupindex>1</groupindex>
            </link>
            <itemhistory>
              <uuid>A82335C7-5FE1-3348-2D94-2F091DDA74F9</uuid>
            </itemhistory>
          </clipitem>
          <clipitem id="monsters_S01E45_lineal_V001 234">
            <name>monsters_S01E45_lineal_V001</name>
            <duration>6366</duration>
            <rate>
              <ntsc>FALSE</ntsc>
              <timebase>25</timebase>
            </rate>
            <in>5602</in>
            <out>5626</out>
            <start>6216</start>
            <end>6240</end>
            <file id="monsters_S01E45_lineal_V001 235">
              <name>monsters_S01E45_lineal_V001.aif</name>
              <pathurl>file://localhost/C:/Users/usuario/Dropbox%20(BigBangBoxSL)/PROYECTOS/My%20preschool%20monster%20serie/PRODUCCION/Story/EPISODIOS/FOTOS/XML/monsters_S01E45_lineal_V001.aif</pathurl>
              <rate>
                <timebase>25</timebase>
              </rate>
              <duration>6366</duration>
              <media>
                <audio>
                  <samplecharacteristics>
                    <samplerate>48000</samplerate>
                    <depth>16</depth>
                  </samplecharacteristics>
                  <channelcount>2</channelcount>
                  <layout>stereo</layout>
                  <audiochannel>
                    <sourcechannel>1</sourcechannel>
                    <channellabel>left</channellabel>
                  </audiochannel>
                  <audiochannel>
                    <sourcechannel>2</sourcechannel>
                    <channellabel>right</channellabel>
                  </audiochannel>
                </audio>
              </media>
            </file>
            <sourcetrack>
              <mediatype>audio</mediatype>
              <trackindex>1</trackindex>
            </sourcetrack>
            <link>
              <linkclipref>monsters_S01E45_lineal_V001 234</linkclipref>
              <mediatype>audio</mediatype>
              <trackindex>3</trackindex>
              <clipindex>41</clipindex>
              <groupindex>1</groupindex>
            </link>
            <link>
              <linkclipref>monsters_S01E45_lineal_V001 236</linkclipref>
              <mediatype>audio</mediatype>
              <trackindex>4</trackindex>
              <clipindex>41</clipindex>
              <groupindex>1</groupindex>
            </link>
            <itemhistory>
              <uuid>517E4A94-402C-7C35-770F-FE62A3EC565D</uuid>
            </itemhistory>
          </clipitem>
          <clipitem id="monsters_S01E45_lineal_V001 237">
            <name>monsters_S01E45_lineal_V001</name>
            <duration>6366</duration>
            <rate>
              <ntsc>FALSE</ntsc>
              <timebase>25</timebase>
            </rate>
            <in>5632</in>
            <out>5673</out>
            <start>6242</start>
            <end>6283</end>
            <file id="monsters_S01E45_lineal_V001 238">
              <name>monsters_S01E45_lineal_V001.aif</name>
              <pathurl>file://localhost/C:/Users/usuario/Dropbox%20(BigBangBoxSL)/PROYECTOS/My%20preschool%20monster%20serie/PRODUCCION/Story/EPISODIOS/FOTOS/XML/monsters_S01E45_lineal_V001.aif</pathurl>
              <rate>
                <timebase>25</timebase>
              </rate>
              <duration>6366</duration>
              <media>
                <audio>
                  <samplecharacteristics>
                    <samplerate>48000</samplerate>
                    <depth>16</depth>
                  </samplecharacteristics>
                  <channelcount>2</channelcount>
                  <layout>stereo</layout>
                  <audiochannel>
                    <sourcechannel>1</sourcechannel>
                    <channellabel>left</channellabel>
                  </audiochannel>
                  <audiochannel>
                    <sourcechannel>2</sourcechannel>
                    <channellabel>right</channellabel>
                  </audiochannel>
                </audio>
              </media>
            </file>
            <sourcetrack>
              <mediatype>audio</mediatype>
              <trackindex>1</trackindex>
            </sourcetrack>
            <link>
              <linkclipref>monsters_S01E45_lineal_V001 237</linkclipref>
              <mediatype>audio</mediatype>
              <trackindex>3</trackindex>
              <clipindex>42</clipindex>
              <groupindex>1</groupindex>
            </link>
            <link>
              <linkclipref>monsters_S01E45_lineal_V001 239</linkclipref>
              <mediatype>audio</mediatype>
              <trackindex>4</trackindex>
              <clipindex>42</clipindex>
              <groupindex>1</groupindex>
            </link>
            <itemhistory>
              <uuid>35CA2CF6-2DC4-472B-1F85-2A1F754737E3</uuid>
            </itemhistory>
          </clipitem>
          <clipitem id="monsters_S01E45_lineal_V001 240">
            <name>monsters_S01E45_lineal_V001</name>
            <duration>6366</duration>
            <rate>
              <ntsc>FALSE</ntsc>
              <timebase>25</timebase>
            </rate>
            <in>6184</in>
            <out>6254</out>
            <start>6322</start>
            <end>6392</end>
            <file id="monsters_S01E45_lineal_V001 241">
              <name>monsters_S01E45_lineal_V001.aif</name>
              <pathurl>file://localhost/C:/Users/usuario/Dropbox%20(BigBangBoxSL)/PROYECTOS/My%20preschool%20monster%20serie/PRODUCCION/Story/EPISODIOS/FOTOS/XML/monsters_S01E45_lineal_V001.aif</pathurl>
              <rate>
                <timebase>25</timebase>
              </rate>
              <duration>6366</duration>
              <media>
                <audio>
                  <samplecharacteristics>
                    <samplerate>48000</samplerate>
                    <depth>16</depth>
                  </samplecharacteristics>
                  <channelcount>2</channelcount>
                  <layout>stereo</layout>
                  <audiochannel>
                    <sourcechannel>1</sourcechannel>
                    <channellabel>left</channellabel>
                  </audiochannel>
                  <audiochannel>
                    <sourcechannel>2</sourcechannel>
                    <channellabel>right</channellabel>
                  </audiochannel>
                </audio>
              </media>
            </file>
            <sourcetrack>
              <mediatype>audio</mediatype>
              <trackindex>1</trackindex>
            </sourcetrack>
            <link>
              <linkclipref>monsters_S01E45_lineal_V001 240</linkclipref>
              <mediatype>audio</mediatype>
              <trackindex>3</trackindex>
              <clipindex>43</clipindex>
              <groupindex>1</groupindex>
            </link>
            <link>
              <linkclipref>monsters_S01E45_lineal_V001 242</linkclipref>
              <mediatype>audio</mediatype>
              <trackindex>4</trackindex>
              <clipindex>43</clipindex>
              <groupindex>1</groupindex>
            </link>
            <itemhistory>
              <uuid>780C6250-55BC-418E-44EC-11AB5D1345B6</uuid>
            </itemhistory>
          </clipitem>
          <clipitem id="monsters_S01E43_lineal_v001">
            <name>monsters_S01E43_lineal_v001</name>
            <duration>6246</duration>
            <rate>
              <ntsc>FALSE</ntsc>
              <timebase>25</timebase>
            </rate>
            <in>6127</in>
            <out>6174</out>
            <start>6470</start>
            <end>6517</end>
            <file id="monsters_S01E43_lineal_v001 1">
              <name>monsters_S01E43_lineal_v001.aif</name>
              <pathurl>file://localhost/C:/Users/usuario/Dropbox%20(BigBangBoxSL)/PROYECTOS/My%20preschool%20monster%20serie/PRODUCCION/Story/EPISODIOS/FOTOS/XML/monsters_S01E43_lineal_v001.aif</pathurl>
              <rate>
                <timebase>25</timebase>
              </rate>
              <duration>6246</duration>
              <media>
                <audio>
                  <samplecharacteristics>
                    <samplerate>48000</samplerate>
                    <depth>16</depth>
                  </samplecharacteristics>
                  <channelcount>2</channelcount>
                  <layout>stereo</layout>
                  <audiochannel>
                    <sourcechannel>1</sourcechannel>
                    <channellabel>left</channellabel>
                  </audiochannel>
                  <audiochannel>
                    <sourcechannel>2</sourcechannel>
                    <channellabel>right</channellabel>
                  </audiochannel>
                </audio>
              </media>
            </file>
            <sourcetrack>
              <mediatype>audio</mediatype>
              <trackindex>1</trackindex>
            </sourcetrack>
            <link>
              <linkclipref>monsters_S01E43_lineal_v001</linkclipref>
              <mediatype>audio</mediatype>
              <trackindex>3</trackindex>
              <clipindex>44</clipindex>
              <groupindex>1</groupindex>
            </link>
            <link>
              <linkclipref>monsters_S01E43_lineal_v001 2</linkclipref>
              <mediatype>audio</mediatype>
              <trackindex>4</trackindex>
              <clipindex>44</clipindex>
              <groupindex>1</groupindex>
            </link>
            <itemhistory>
              <uuid>D7953186-17BF-5E89-1F4B-7D56767E654A</uuid>
            </itemhistory>
          </clipitem>
          <clipitem id="monsters_S01E45_lineal_V001 243">
            <name>monsters_S01E45_lineal_V001</name>
            <duration>6366</duration>
            <rate>
              <ntsc>FALSE</ntsc>
              <timebase>25</timebase>
            </rate>
            <in>5967</in>
            <out>6097</out>
            <start>7028</start>
            <end>7158</end>
            <file id="monsters_S01E45_lineal_V001 244">
              <name>monsters_S01E45_lineal_V001.aif</name>
              <pathurl>file://localhost/C:/Users/usuario/Dropbox%20(BigBangBoxSL)/PROYECTOS/My%20preschool%20monster%20serie/PRODUCCION/Story/EPISODIOS/FOTOS/XML/monsters_S01E45_lineal_V001.aif</pathurl>
              <rate>
                <timebase>25</timebase>
              </rate>
              <duration>6366</duration>
              <media>
                <audio>
                  <samplecharacteristics>
                    <samplerate>48000</samplerate>
                    <depth>16</depth>
                  </samplecharacteristics>
                  <channelcount>2</channelcount>
                  <layout>stereo</layout>
                  <audiochannel>
                    <sourcechannel>1</sourcechannel>
                    <channellabel>left</channellabel>
                  </audiochannel>
                  <audiochannel>
                    <sourcechannel>2</sourcechannel>
                    <channellabel>right</channellabel>
                  </audiochannel>
                </audio>
              </media>
            </file>
            <sourcetrack>
              <mediatype>audio</mediatype>
              <trackindex>1</trackindex>
            </sourcetrack>
            <link>
              <linkclipref>monsters_S01E45_lineal_V001 243</linkclipref>
              <mediatype>audio</mediatype>
              <trackindex>3</trackindex>
              <clipindex>45</clipindex>
              <groupindex>1</groupindex>
            </link>
            <link>
              <linkclipref>monsters_S01E45_lineal_V001 245</linkclipref>
              <mediatype>audio</mediatype>
              <trackindex>4</trackindex>
              <clipindex>45</clipindex>
              <groupindex>1</groupindex>
            </link>
            <itemhistory>
              <uuid>377B27B1-53F9-3D09-5F39-2C76104D6A03</uuid>
            </itemhistory>
          </clipitem>
        </track>
        <track>
          <clipitem id="monsters_S01E45_lineal_V001 116">
            <name>monsters_S01E45_lineal_V001</name>
            <duration>6366</duration>
            <rate>
              <ntsc>FALSE</ntsc>
              <timebase>25</timebase>
            </rate>
            <in>139</in>
            <out>202</out>
            <start>124</start>
            <end>187</end>
            <file id="monsters_S01E45_lineal_V001 115"/>
            <sourcetrack>
              <mediatype>audio</mediatype>
              <trackindex>2</trackindex>
            </sourcetrack>
            <link>
              <linkclipref>monsters_S01E45_lineal_V001 114</linkclipref>
              <mediatype>audio</mediatype>
              <trackindex>3</trackindex>
              <clipindex>1</clipindex>
              <groupindex>1</groupindex>
            </link>
            <link>
              <linkclipref>monsters_S01E45_lineal_V001 116</linkclipref>
              <mediatype>audio</mediatype>
              <trackindex>4</trackindex>
              <clipindex>1</clipindex>
              <groupindex>1</groupindex>
            </link>
            <itemhistory>
              <uuid>4A3C75D2-5C31-4360-5B93-728031CC544C</uuid>
            </itemhistory>
          </clipitem>
          <clipitem id="monsters_S01E45_lineal_V001 119">
            <name>monsters_S01E45_lineal_V001</name>
            <duration>6366</duration>
            <rate>
              <ntsc>FALSE</ntsc>
              <timebase>25</timebase>
            </rate>
            <in>235</in>
            <out>272</out>
            <start>350</start>
            <end>387</end>
            <file id="monsters_S01E45_lineal_V001 118"/>
            <sourcetrack>
              <mediatype>audio</mediatype>
              <trackindex>2</trackindex>
            </sourcetrack>
            <link>
              <linkclipref>monsters_S01E45_lineal_V001 117</linkclipref>
              <mediatype>audio</mediatype>
              <trackindex>3</trackindex>
              <clipindex>2</clipindex>
              <groupindex>1</groupindex>
            </link>
            <link>
              <linkclipref>monsters_S01E45_lineal_V001 119</linkclipref>
              <mediatype>audio</mediatype>
              <trackindex>4</trackindex>
              <clipindex>2</clipindex>
              <groupindex>1</groupindex>
            </link>
            <itemhistory>
              <uuid>6BC93664-4533-6B9C-14D3-0D7979D06C16</uuid>
            </itemhistory>
          </clipitem>
          <clipitem id="monsters_S01E45_lineal_V001 122">
            <name>monsters_S01E45_lineal_V001</name>
            <duration>6366</duration>
            <rate>
              <ntsc>FALSE</ntsc>
              <timebase>25</timebase>
            </rate>
            <in>338</in>
            <out>381</out>
            <start>409</start>
            <end>452</end>
            <file id="monsters_S01E45_lineal_V001 121"/>
            <sourcetrack>
              <mediatype>audio</mediatype>
              <trackindex>2</trackindex>
            </sourcetrack>
            <link>
              <linkclipref>monsters_S01E45_lineal_V001 120</linkclipref>
              <mediatype>audio</mediatype>
              <trackindex>3</trackindex>
              <clipindex>3</clipindex>
              <groupindex>1</groupindex>
            </link>
            <link>
              <linkclipref>monsters_S01E45_lineal_V001 122</linkclipref>
              <mediatype>audio</mediatype>
              <trackindex>4</trackindex>
              <clipindex>3</clipindex>
              <groupindex>1</groupindex>
            </link>
            <itemhistory>
              <uuid>657E2715-5DD1-2FBB-7366-522928081715</uuid>
            </itemhistory>
          </clipitem>
          <clipitem id="monsters_S01E45_lineal_V001 125">
            <name>monsters_S01E45_lineal_V001</name>
            <duration>6366</duration>
            <rate>
              <ntsc>FALSE</ntsc>
              <timebase>25</timebase>
            </rate>
            <in>390</in>
            <out>446</out>
            <start>469</start>
            <end>525</end>
            <file id="monsters_S01E45_lineal_V001 124"/>
            <sourcetrack>
              <mediatype>audio</mediatype>
              <trackindex>2</trackindex>
            </sourcetrack>
            <link>
              <linkclipref>monsters_S01E45_lineal_V001 123</linkclipref>
              <mediatype>audio</mediatype>
              <trackindex>3</trackindex>
              <clipindex>4</clipindex>
              <groupindex>1</groupindex>
            </link>
            <link>
              <linkclipref>monsters_S01E45_lineal_V001 125</linkclipref>
              <mediatype>audio</mediatype>
              <trackindex>4</trackindex>
              <clipindex>4</clipindex>
              <groupindex>1</groupindex>
            </link>
            <itemhistory>
              <uuid>3F256B33-7BCB-54FB-7B1F-6D287C5864BD</uuid>
            </itemhistory>
          </clipitem>
          <clipitem id="monsters_S01E45_lineal_V001 128">
            <name>monsters_S01E45_lineal_V001</name>
            <duration>6366</duration>
            <rate>
              <ntsc>FALSE</ntsc>
              <timebase>25</timebase>
            </rate>
            <in>569</in>
            <out>616</out>
            <start>688</start>
            <end>735</end>
            <file id="monsters_S01E45_lineal_V001 127"/>
            <sourcetrack>
              <mediatype>audio</mediatype>
              <trackindex>2</trackindex>
            </sourcetrack>
            <link>
              <linkclipref>monsters_S01E45_lineal_V001 126</linkclipref>
              <mediatype>audio</mediatype>
              <trackindex>3</trackindex>
              <clipindex>5</clipindex>
              <groupindex>1</groupindex>
            </link>
            <link>
              <linkclipref>monsters_S01E45_lineal_V001 128</linkclipref>
              <mediatype>audio</mediatype>
              <trackindex>4</trackindex>
              <clipindex>5</clipindex>
              <groupindex>1</groupindex>
            </link>
            <itemhistory>
              <uuid>6FDC6042-4133-3171-4DCE-C38F84EF6576</uuid>
            </itemhistory>
          </clipitem>
          <clipitem id="monsters_S01E45_lineal_V001 131">
            <name>monsters_S01E45_lineal_V001</name>
            <duration>6366</duration>
            <rate>
              <ntsc>FALSE</ntsc>
              <timebase>25</timebase>
            </rate>
            <in>618</in>
            <out>681</out>
            <start>750</start>
            <end>813</end>
            <file id="monsters_S01E45_lineal_V001 130"/>
            <sourcetrack>
              <mediatype>audio</mediatype>
              <trackindex>2</trackindex>
            </sourcetrack>
            <link>
              <linkclipref>monsters_S01E45_lineal_V001 129</linkclipref>
              <mediatype>audio</mediatype>
              <trackindex>3</trackindex>
              <clipindex>6</clipindex>
              <groupindex>1</groupindex>
            </link>
            <link>
              <linkclipref>monsters_S01E45_lineal_V001 131</linkclipref>
              <mediatype>audio</mediatype>
              <trackindex>4</trackindex>
              <clipindex>6</clipindex>
              <groupindex>1</groupindex>
            </link>
            <itemhistory>
              <uuid>B7BEB4D2-7584-674B-6718-175F20CC6126</uuid>
            </itemhistory>
          </clipitem>
          <clipitem id="monsters_S01E45_lineal_V001 134">
            <name>monsters_S01E45_lineal_V001</name>
            <duration>6366</duration>
            <rate>
              <ntsc>FALSE</ntsc>
              <timebase>25</timebase>
            </rate>
            <in>691</in>
            <out>748</out>
            <start>815</start>
            <end>872</end>
            <file id="monsters_S01E45_lineal_V001 133"/>
            <sourcetrack>
              <mediatype>audio</mediatype>
              <trackindex>2</trackindex>
            </sourcetrack>
            <link>
              <linkclipref>monsters_S01E45_lineal_V001 132</linkclipref>
              <mediatype>audio</mediatype>
              <trackindex>3</trackindex>
              <clipindex>7</clipindex>
              <groupindex>1</groupindex>
            </link>
            <link>
              <linkclipref>monsters_S01E45_lineal_V001 134</linkclipref>
              <mediatype>audio</mediatype>
              <trackindex>4</trackindex>
              <clipindex>7</clipindex>
              <groupindex>1</groupindex>
            </link>
            <itemhistory>
              <uuid>4F015FCC-6DD6-393A-6CD4-27C67C6452C8</uuid>
            </itemhistory>
          </clipitem>
          <clipitem id="monsters_S01E45_lineal_V001 137">
            <name>monsters_S01E45_lineal_V001</name>
            <duration>6366</duration>
            <rate>
              <ntsc>FALSE</ntsc>
              <timebase>25</timebase>
            </rate>
            <in>849</in>
            <out>925</out>
            <start>1096</start>
            <end>1172</end>
            <file id="monsters_S01E45_lineal_V001 136"/>
            <sourcetrack>
              <mediatype>audio</mediatype>
              <trackindex>2</trackindex>
            </sourcetrack>
            <link>
              <linkclipref>monsters_S01E45_lineal_V001 135</linkclipref>
              <mediatype>audio</mediatype>
              <trackindex>3</trackindex>
              <clipindex>8</clipindex>
              <groupindex>1</groupindex>
            </link>
            <link>
              <linkclipref>monsters_S01E45_lineal_V001 137</linkclipref>
              <mediatype>audio</mediatype>
              <trackindex>4</trackindex>
              <clipindex>8</clipindex>
              <groupindex>1</groupindex>
            </link>
            <itemhistory>
              <uuid>78CF20AB-170D-3E85-6FA2-491564E94A51</uuid>
            </itemhistory>
          </clipitem>
          <clipitem id="monsters_S01E45_lineal_V001 140">
            <name>monsters_S01E45_lineal_V001</name>
            <duration>6366</duration>
            <rate>
              <ntsc>FALSE</ntsc>
              <timebase>25</timebase>
            </rate>
            <in>1059</in>
            <out>1111</out>
            <start>1296</start>
            <end>1348</end>
            <file id="monsters_S01E45_lineal_V001 139"/>
            <sourcetrack>
              <mediatype>audio</mediatype>
              <trackindex>2</trackindex>
            </sourcetrack>
            <link>
              <linkclipref>monsters_S01E45_lineal_V001 138</linkclipref>
              <mediatype>audio</mediatype>
              <trackindex>3</trackindex>
              <clipindex>9</clipindex>
              <groupindex>1</groupindex>
            </link>
            <link>
              <linkclipref>monsters_S01E45_lineal_V001 140</linkclipref>
              <mediatype>audio</mediatype>
              <trackindex>4</trackindex>
              <clipindex>9</clipindex>
              <groupindex>1</groupindex>
            </link>
            <itemhistory>
              <uuid>682C108C-4256-666A-6A03-041528F9527B</uuid>
            </itemhistory>
          </clipitem>
          <clipitem id="monsters_S01E45_lineal_V001 143">
            <name>monsters_S01E45_lineal_V001</name>
            <duration>6366</duration>
            <rate>
              <ntsc>FALSE</ntsc>
              <timebase>25</timebase>
            </rate>
            <in>1117</in>
            <out>1181</out>
            <start>1367</start>
            <end>1431</end>
            <file id="monsters_S01E45_lineal_V001 142"/>
            <sourcetrack>
              <mediatype>audio</mediatype>
              <trackindex>2</trackindex>
            </sourcetrack>
            <link>
              <linkclipref>monsters_S01E45_lineal_V001 141</linkclipref>
              <mediatype>audio</mediatype>
              <trackindex>3</trackindex>
              <clipindex>10</clipindex>
              <groupindex>1</groupindex>
            </link>
            <link>
              <linkclipref>monsters_S01E45_lineal_V001 143</linkclipref>
              <mediatype>audio</mediatype>
              <trackindex>4</trackindex>
              <clipindex>10</clipindex>
              <groupindex>1</groupindex>
            </link>
            <itemhistory>
              <uuid>78155280-6A02-2796-6AF0-15B6678A7982</uuid>
            </itemhistory>
          </clipitem>
          <clipitem id="monsters_S01E45_lineal_V001 146">
            <name>monsters_S01E45_lineal_V001</name>
            <duration>6366</duration>
            <rate>
              <ntsc>FALSE</ntsc>
              <timebase>25</timebase>
            </rate>
            <in>1188</in>
            <out>1283</out>
            <start>1434</start>
            <end>1529</end>
            <file id="monsters_S01E45_lineal_V001 145"/>
            <sourcetrack>
              <mediatype>audio</mediatype>
              <trackindex>2</trackindex>
            </sourcetrack>
            <link>
              <linkclipref>monsters_S01E45_lineal_V001 144</linkclipref>
              <mediatype>audio</mediatype>
              <trackindex>3</trackindex>
              <clipindex>11</clipindex>
              <groupindex>1</groupindex>
            </link>
            <link>
              <linkclipref>monsters_S01E45_lineal_V001 146</linkclipref>
              <mediatype>audio</mediatype>
              <trackindex>4</trackindex>
              <clipindex>11</clipindex>
              <groupindex>1</groupindex>
            </link>
            <itemhistory>
              <uuid>536D4100-78AC-6829-3E89-674567196EA8</uuid>
            </itemhistory>
          </clipitem>
          <clipitem id="monsters_S01E45_lineal_V001 149">
            <name>monsters_S01E45_lineal_V001</name>
            <duration>6366</duration>
            <rate>
              <ntsc>FALSE</ntsc>
              <timebase>25</timebase>
            </rate>
            <in>1444</in>
            <out>1482</out>
            <start>1659</start>
            <end>1697</end>
            <file id="monsters_S01E45_lineal_V001 148"/>
            <sourcetrack>
              <mediatype>audio</mediatype>
              <trackindex>2</trackindex>
            </sourcetrack>
            <link>
              <linkclipref>monsters_S01E45_lineal_V001 147</linkclipref>
              <mediatype>audio</mediatype>
              <trackindex>3</trackindex>
              <clipindex>12</clipindex>
              <groupindex>1</groupindex>
            </link>
            <link>
              <linkclipref>monsters_S01E45_lineal_V001 149</linkclipref>
              <mediatype>audio</mediatype>
              <trackindex>4</trackindex>
              <clipindex>12</clipindex>
              <groupindex>1</groupindex>
            </link>
            <itemhistory>
              <uuid>47EF5A69-423E-2AF5-3090-56B63273600F</uuid>
            </itemhistory>
          </clipitem>
          <clipitem id="monsters_S01E45_lineal_V001 152">
            <name>monsters_S01E45_lineal_V001</name>
            <duration>6366</duration>
            <rate>
              <ntsc>FALSE</ntsc>
              <timebase>25</timebase>
            </rate>
            <in>1511</in>
            <out>1526</out>
            <start>1713</start>
            <end>1728</end>
            <file id="monsters_S01E45_lineal_V001 151"/>
            <sourcetrack>
              <mediatype>audio</mediatype>
              <trackindex>2</trackindex>
            </sourcetrack>
            <link>
              <linkclipref>monsters_S01E45_lineal_V001 150</linkclipref>
              <mediatype>audio</mediatype>
              <trackindex>3</trackindex>
              <clipindex>13</clipindex>
              <groupindex>1</groupindex>
            </link>
            <link>
              <linkclipref>monsters_S01E45_lineal_V001 152</linkclipref>
              <mediatype>audio</mediatype>
              <trackindex>4</trackindex>
              <clipindex>13</clipindex>
              <groupindex>1</groupindex>
            </link>
            <itemhistory>
              <uuid>35D055CE-222A-6B53-6528-65C633021648</uuid>
            </itemhistory>
          </clipitem>
          <clipitem id="monsters_S01E45_lineal_V001 155">
            <name>monsters_S01E45_lineal_V001</name>
            <duration>6366</duration>
            <rate>
              <ntsc>FALSE</ntsc>
              <timebase>25</timebase>
            </rate>
            <in>1613</in>
            <out>1786</out>
            <start>1899</start>
            <end>2072</end>
            <file id="monsters_S01E45_lineal_V001 154"/>
            <sourcetrack>
              <mediatype>audio</mediatype>
              <trackindex>2</trackindex>
            </sourcetrack>
            <link>
              <linkclipref>monsters_S01E45_lineal_V001 153</linkclipref>
              <mediatype>audio</mediatype>
              <trackindex>3</trackindex>
              <clipindex>14</clipindex>
              <groupindex>1</groupindex>
            </link>
            <link>
              <linkclipref>monsters_S01E45_lineal_V001 155</linkclipref>
              <mediatype>audio</mediatype>
              <trackindex>4</trackindex>
              <clipindex>14</clipindex>
              <groupindex>1</groupindex>
            </link>
            <itemhistory>
              <uuid>509D249D-1872-12BA-42B1-1AB17C66295B</uuid>
            </itemhistory>
          </clipitem>
          <clipitem id="monsters_S01E45_lineal_V001 158">
            <name>monsters_S01E45_lineal_V001</name>
            <duration>6366</duration>
            <rate>
              <ntsc>FALSE</ntsc>
              <timebase>25</timebase>
            </rate>
            <in>1973</in>
            <out>2027</out>
            <start>2355</start>
            <end>2409</end>
            <file id="monsters_S01E45_lineal_V001 157"/>
            <sourcetrack>
              <mediatype>audio</mediatype>
              <trackindex>2</trackindex>
            </sourcetrack>
            <link>
              <linkclipref>monsters_S01E45_lineal_V001 156</linkclipref>
              <mediatype>audio</mediatype>
              <trackindex>3</trackindex>
              <clipindex>15</clipindex>
              <groupindex>1</groupindex>
            </link>
            <link>
              <linkclipref>monsters_S01E45_lineal_V001 158</linkclipref>
              <mediatype>audio</mediatype>
              <trackindex>4</trackindex>
              <clipindex>15</clipindex>
              <groupindex>1</groupindex>
            </link>
            <itemhistory>
              <uuid>4D0067A7-1D9F-3758-422A-649252F072D2</uuid>
            </itemhistory>
          </clipitem>
          <clipitem id="monsters_S01E45_lineal_V001 161">
            <name>monsters_S01E45_lineal_V001</name>
            <duration>6366</duration>
            <rate>
              <ntsc>FALSE</ntsc>
              <timebase>25</timebase>
            </rate>
            <in>2044</in>
            <out>2134</out>
            <start>2416</start>
            <end>2506</end>
            <file id="monsters_S01E45_lineal_V001 160"/>
            <sourcetrack>
              <mediatype>audio</mediatype>
              <trackindex>2</trackindex>
            </sourcetrack>
            <link>
              <linkclipref>monsters_S01E45_lineal_V001 159</linkclipref>
              <mediatype>audio</mediatype>
              <trackindex>3</trackindex>
              <clipindex>16</clipindex>
              <groupindex>1</groupindex>
            </link>
            <link>
              <linkclipref>monsters_S01E45_lineal_V001 161</linkclipref>
              <mediatype>audio</mediatype>
              <trackindex>4</trackindex>
              <clipindex>16</clipindex>
              <groupindex>1</groupindex>
            </link>
            <itemhistory>
              <uuid>3D95790A-8AAC-5DD8-57B0-95C6038613B5</uuid>
            </itemhistory>
          </clipitem>
          <clipitem id="monsters_S01E45_lineal_V001 164">
            <name>monsters_S01E45_lineal_V001</name>
            <duration>6366</duration>
            <rate>
              <ntsc>FALSE</ntsc>
              <timebase>25</timebase>
            </rate>
            <in>2141</in>
            <out>2173</out>
            <start>2513</start>
            <end>2545</end>
            <file id="monsters_S01E45_lineal_V001 163"/>
            <sourcetrack>
              <mediatype>audio</mediatype>
              <trackindex>2</trackindex>
            </sourcetrack>
            <link>
              <linkclipref>monsters_S01E45_lineal_V001 162</linkclipref>
              <mediatype>audio</mediatype>
              <trackindex>3</trackindex>
              <clipindex>17</clipindex>
              <groupindex>1</groupindex>
            </link>
            <link>
              <linkclipref>monsters_S01E45_lineal_V001 164</linkclipref>
              <mediatype>audio</mediatype>
              <trackindex>4</trackindex>
              <clipindex>17</clipindex>
              <groupindex>1</groupindex>
            </link>
            <itemhistory>
              <uuid>D124399B-38BF-26F9-4D89-46102CFE69A3</uuid>
            </itemhistory>
          </clipitem>
          <clipitem id="monsters_S01E45_lineal_V001 167">
            <name>monsters_S01E45_lineal_V001</name>
            <duration>6366</duration>
            <rate>
              <ntsc>FALSE</ntsc>
              <timebase>25</timebase>
            </rate>
            <in>2206</in>
            <out>2314</out>
            <start>2574</start>
            <end>2682</end>
            <file id="monsters_S01E45_lineal_V001 166"/>
            <sourcetrack>
              <mediatype>audio</mediatype>
              <trackindex>2</trackindex>
            </sourcetrack>
            <link>
              <linkclipref>monsters_S01E45_lineal_V001 165</linkclipref>
              <mediatype>audio</mediatype>
              <trackindex>3</trackindex>
              <clipindex>18</clipindex>
              <groupindex>1</groupindex>
            </link>
            <link>
              <linkclipref>monsters_S01E45_lineal_V001 167</linkclipref>
              <mediatype>audio</mediatype>
              <trackindex>4</trackindex>
              <clipindex>18</clipindex>
              <groupindex>1</groupindex>
            </link>
            <itemhistory>
              <uuid>6B3B50B7-1275-2DC7-4128-BE37061FB5A7</uuid>
            </itemhistory>
          </clipitem>
          <clipitem id="monsters_S01E45_lineal_V001 170">
            <name>monsters_S01E45_lineal_V001</name>
            <duration>6366</duration>
            <rate>
              <ntsc>FALSE</ntsc>
              <timebase>25</timebase>
            </rate>
            <in>2411</in>
            <out>2532</out>
            <start>2905</start>
            <end>3026</end>
            <file id="monsters_S01E45_lineal_V001 169"/>
            <sourcetrack>
              <mediatype>audio</mediatype>
              <trackindex>2</trackindex>
            </sourcetrack>
            <link>
              <linkclipref>monsters_S01E45_lineal_V001 168</linkclipref>
              <mediatype>audio</mediatype>
              <trackindex>3</trackindex>
              <clipindex>19</clipindex>
              <groupindex>1</groupindex>
            </link>
            <link>
              <linkclipref>monsters_S01E45_lineal_V001 170</linkclipref>
              <mediatype>audio</mediatype>
              <trackindex>4</trackindex>
              <clipindex>19</clipindex>
              <groupindex>1</groupindex>
            </link>
            <itemhistory>
              <uuid>5EF26468-6461-1E07-6686-22695E163333</uuid>
            </itemhistory>
          </clipitem>
          <clipitem id="monsters_S01E45_lineal_V001 173">
            <name>monsters_S01E45_lineal_V001</name>
            <duration>6366</duration>
            <rate>
              <ntsc>FALSE</ntsc>
              <timebase>25</timebase>
            </rate>
            <in>2547</in>
            <out>2585</out>
            <start>3029</start>
            <end>3067</end>
            <file id="monsters_S01E45_lineal_V001 172"/>
            <sourcetrack>
              <mediatype>audio</mediatype>
              <trackindex>2</trackindex>
            </sourcetrack>
            <link>
              <linkclipref>monsters_S01E45_lineal_V001 171</linkclipref>
              <mediatype>audio</mediatype>
              <trackindex>3</trackindex>
              <clipindex>20</clipindex>
              <groupindex>1</groupindex>
            </link>
            <link>
              <linkclipref>monsters_S01E45_lineal_V001 173</linkclipref>
              <mediatype>audio</mediatype>
              <trackindex>4</trackindex>
              <clipindex>20</clipindex>
              <groupindex>1</groupindex>
            </link>
            <itemhistory>
              <uuid>68036AC7-7949-5807-6309-1F1871311DBC</uuid>
            </itemhistory>
          </clipitem>
          <clipitem id="monsters_S01E45_lineal_V001 176">
            <name>monsters_S01E45_lineal_V001</name>
            <duration>6366</duration>
            <rate>
              <ntsc>FALSE</ntsc>
              <timebase>25</timebase>
            </rate>
            <in>2600</in>
            <out>2646</out>
            <start>3068</start>
            <end>3114</end>
            <file id="monsters_S01E45_lineal_V001 175"/>
            <sourcetrack>
              <mediatype>audio</mediatype>
              <trackindex>2</trackindex>
            </sourcetrack>
            <link>
              <linkclipref>monsters_S01E45_lineal_V001 174</linkclipref>
              <mediatype>audio</mediatype>
              <trackindex>3</trackindex>
              <clipindex>21</clipindex>
              <groupindex>1</groupindex>
            </link>
            <link>
              <linkclipref>monsters_S01E45_lineal_V001 176</linkclipref>
              <mediatype>audio</mediatype>
              <trackindex>4</trackindex>
              <clipindex>21</clipindex>
              <groupindex>1</groupindex>
            </link>
            <itemhistory>
              <uuid>34B9C948-5535-49E8-4812-625176231D8F</uuid>
            </itemhistory>
          </clipitem>
          <clipitem id="monsters_S01E45_lineal_V001 179">
            <name>monsters_S01E45_lineal_V001</name>
            <duration>6366</duration>
            <rate>
              <ntsc>FALSE</ntsc>
              <timebase>25</timebase>
            </rate>
            <in>2836</in>
            <out>2933</out>
            <start>3253</start>
            <end>3350</end>
            <file id="monsters_S01E45_lineal_V001 178"/>
            <sourcetrack>
              <mediatype>audio</mediatype>
              <trackindex>2</trackindex>
            </sourcetrack>
            <link>
              <linkclipref>monsters_S01E45_lineal_V001 177</linkclipref>
              <mediatype>audio</mediatype>
              <trackindex>3</trackindex>
              <clipindex>22</clipindex>
              <groupindex>1</groupindex>
            </link>
            <link>
              <linkclipref>monsters_S01E45_lineal_V001 179</linkclipref>
              <mediatype>audio</mediatype>
              <trackindex>4</trackindex>
              <clipindex>22</clipindex>
              <groupindex>1</groupindex>
            </link>
            <itemhistory>
              <uuid>31E16FB6-5405-1911-4765-215E45FD30EE</uuid>
            </itemhistory>
          </clipitem>
          <clipitem id="monsters_S01E45_lineal_V001 182">
            <name>monsters_S01E45_lineal_V001</name>
            <duration>6366</duration>
            <rate>
              <ntsc>FALSE</ntsc>
              <timebase>25</timebase>
            </rate>
            <in>2950</in>
            <out>2979</out>
            <start>3505</start>
            <end>3534</end>
            <file id="monsters_S01E45_lineal_V001 181"/>
            <sourcetrack>
              <mediatype>audio</mediatype>
              <trackindex>2</trackindex>
            </sourcetrack>
            <link>
              <linkclipref>monsters_S01E45_lineal_V001 180</linkclipref>
              <mediatype>audio</mediatype>
              <trackindex>3</trackindex>
              <clipindex>23</clipindex>
              <groupindex>1</groupindex>
            </link>
            <link>
              <linkclipref>monsters_S01E45_lineal_V001 182</linkclipref>
              <mediatype>audio</mediatype>
              <trackindex>4</trackindex>
              <clipindex>23</clipindex>
              <groupindex>1</groupindex>
            </link>
            <itemhistory>
              <uuid>67555CB0-26E5-560D-3E4D-1D06161A4783</uuid>
            </itemhistory>
          </clipitem>
          <clipitem id="monsters_S01E45_lineal_V001 185">
            <name>monsters_S01E45_lineal_V001</name>
            <duration>6366</duration>
            <rate>
              <ntsc>FALSE</ntsc>
              <timebase>25</timebase>
            </rate>
            <in>3106</in>
            <out>3162</out>
            <start>3718</start>
            <end>3774</end>
            <file id="monsters_S01E45_lineal_V001 184"/>
            <sourcetrack>
              <mediatype>audio</mediatype>
              <trackindex>2</trackindex>
            </sourcetrack>
            <link>
              <linkclipref>monsters_S01E45_lineal_V001 183</linkclipref>
              <mediatype>audio</mediatype>
              <trackindex>3</trackindex>
              <clipindex>24</clipindex>
              <groupindex>1</groupindex>
            </link>
            <link>
              <linkclipref>monsters_S01E45_lineal_V001 185</linkclipref>
              <mediatype>audio</mediatype>
              <trackindex>4</trackindex>
              <clipindex>24</clipindex>
              <groupindex>1</groupindex>
            </link>
            <itemhistory>
              <uuid>20375984-327D-1D52-35A2-6409356C71EC</uuid>
            </itemhistory>
          </clipitem>
          <clipitem id="monsters_S01E45_lineal_V001 188">
            <name>monsters_S01E45_lineal_V001</name>
            <duration>6366</duration>
            <rate>
              <ntsc>FALSE</ntsc>
              <timebase>25</timebase>
            </rate>
            <in>3336</in>
            <out>3381</out>
            <start>3881</start>
            <end>3926</end>
            <file id="monsters_S01E45_lineal_V001 187"/>
            <sourcetrack>
              <mediatype>audio</mediatype>
              <trackindex>2</trackindex>
            </sourcetrack>
            <link>
              <linkclipref>monsters_S01E45_lineal_V001 186</linkclipref>
              <mediatype>audio</mediatype>
              <trackindex>3</trackindex>
              <clipindex>25</clipindex>
              <groupindex>1</groupindex>
            </link>
            <link>
              <linkclipref>monsters_S01E45_lineal_V001 188</linkclipref>
              <mediatype>audio</mediatype>
              <trackindex>4</trackindex>
              <clipindex>25</clipindex>
              <groupindex>1</groupindex>
            </link>
            <itemhistory>
              <uuid>4ABD7AFB-790C-1CAE-53D4-1AEE450443FD</uuid>
            </itemhistory>
          </clipitem>
          <clipitem id="monsters_S01E45_lineal_V001 191">
            <name>monsters_S01E45_lineal_V001</name>
            <duration>6366</duration>
            <rate>
              <ntsc>FALSE</ntsc>
              <timebase>25</timebase>
            </rate>
            <in>3707</in>
            <out>3757</out>
            <start>4211</start>
            <end>4261</end>
            <file id="monsters_S01E45_lineal_V001 190"/>
            <sourcetrack>
              <mediatype>audio</mediatype>
              <trackindex>2</trackindex>
            </sourcetrack>
            <link>
              <linkclipref>monsters_S01E45_lineal_V001 189</linkclipref>
              <mediatype>audio</mediatype>
              <trackindex>3</trackindex>
              <clipindex>26</clipindex>
              <groupindex>1</groupindex>
            </link>
            <link>
              <linkclipref>monsters_S01E45_lineal_V001 191</linkclipref>
              <mediatype>audio</mediatype>
              <trackindex>4</trackindex>
              <clipindex>26</clipindex>
              <groupindex>1</groupindex>
            </link>
            <itemhistory>
              <uuid>40AA2C27-385B-71DF-1212-2D41749D4E6A</uuid>
            </itemhistory>
          </clipitem>
          <clipitem id="monsters_S01E45_lineal_V001 194">
            <name>monsters_S01E45_lineal_V001</name>
            <duration>6366</duration>
            <rate>
              <ntsc>FALSE</ntsc>
              <timebase>25</timebase>
            </rate>
            <in>3779</in>
            <out>3840</out>
            <start>4374</start>
            <end>4435</end>
            <file id="monsters_S01E45_lineal_V001 193"/>
            <sourcetrack>
              <mediatype>audio</mediatype>
              <trackindex>2</trackindex>
            </sourcetrack>
            <link>
              <linkclipref>monsters_S01E45_lineal_V001 192</linkclipref>
              <mediatype>audio</mediatype>
              <trackindex>3</trackindex>
              <clipindex>27</clipindex>
              <groupindex>1</groupindex>
            </link>
            <link>
              <linkclipref>monsters_S01E45_lineal_V001 194</linkclipref>
              <mediatype>audio</mediatype>
              <trackindex>4</trackindex>
              <clipindex>27</clipindex>
              <groupindex>1</groupindex>
            </link>
            <itemhistory>
              <uuid>A32D3DBB-4285-4043-3DD9-55636BC632CC</uuid>
            </itemhistory>
          </clipitem>
          <clipitem id="monsters_S01E45_lineal_V001 197">
            <name>monsters_S01E45_lineal_V001</name>
            <duration>6366</duration>
            <rate>
              <ntsc>FALSE</ntsc>
              <timebase>25</timebase>
            </rate>
            <in>3870</in>
            <out>3885</out>
            <start>4440</start>
            <end>4455</end>
            <file id="monsters_S01E45_lineal_V001 196"/>
            <sourcetrack>
              <mediatype>audio</mediatype>
              <trackindex>2</trackindex>
            </sourcetrack>
            <link>
              <linkclipref>monsters_S01E45_lineal_V001 195</linkclipref>
              <mediatype>audio</mediatype>
              <trackindex>3</trackindex>
              <clipindex>28</clipindex>
              <groupindex>1</groupindex>
            </link>
            <link>
              <linkclipref>monsters_S01E45_lineal_V001 197</linkclipref>
              <mediatype>audio</mediatype>
              <trackindex>4</trackindex>
              <clipindex>28</clipindex>
              <groupindex>1</groupindex>
            </link>
            <itemhistory>
              <uuid>7D6B2CB2-7C74-1722-7C28-1CFD48E744CB</uuid>
            </itemhistory>
          </clipitem>
          <clipitem id="monsters_S01E45_lineal_V001 200">
            <name>monsters_S01E45_lineal_V001</name>
            <duration>6366</duration>
            <rate>
              <ntsc>FALSE</ntsc>
              <timebase>25</timebase>
            </rate>
            <in>3969</in>
            <out>4112</out>
            <start>4510</start>
            <end>4653</end>
            <file id="monsters_S01E45_lineal_V001 199"/>
            <sourcetrack>
              <mediatype>audio</mediatype>
              <trackindex>2</trackindex>
            </sourcetrack>
            <link>
              <linkclipref>monsters_S01E45_lineal_V001 198</linkclipref>
              <mediatype>audio</mediatype>
              <trackindex>3</trackindex>
              <clipindex>29</clipindex>
              <groupindex>1</groupindex>
            </link>
            <link>
              <linkclipref>monsters_S01E45_lineal_V001 200</linkclipref>
              <mediatype>audio</mediatype>
              <trackindex>4</trackindex>
              <clipindex>29</clipindex>
              <groupindex>1</groupindex>
            </link>
            <itemhistory>
              <uuid>2F065FF7-6F41-1B61-40D0-798D6F59738A</uuid>
            </itemhistory>
          </clipitem>
          <clipitem id="monsters_S01E45_lineal_V001 203">
            <name>monsters_S01E45_lineal_V001</name>
            <duration>6366</duration>
            <rate>
              <ntsc>FALSE</ntsc>
              <timebase>25</timebase>
            </rate>
            <in>4157</in>
            <out>4180</out>
            <start>4709</start>
            <end>4732</end>
            <file id="monsters_S01E45_lineal_V001 202"/>
            <sourcetrack>
              <mediatype>audio</mediatype>
              <trackindex>2</trackindex>
            </sourcetrack>
            <link>
              <linkclipref>monsters_S01E45_lineal_V001 201</linkclipref>
              <mediatype>audio</mediatype>
              <trackindex>3</trackindex>
              <clipindex>30</clipindex>
              <groupindex>1</groupindex>
            </link>
            <link>
              <linkclipref>monsters_S01E45_lineal_V001 203</linkclipref>
              <mediatype>audio</mediatype>
              <trackindex>4</trackindex>
              <clipindex>30</clipindex>
              <groupindex>1</groupindex>
            </link>
            <itemhistory>
              <uuid>75B9444A-697A-5B36-1D81-551713C91BAE</uuid>
            </itemhistory>
          </clipitem>
          <clipitem id="monsters_S01E45_lineal_V001 206">
            <name>monsters_S01E45_lineal_V001</name>
            <duration>6366</duration>
            <rate>
              <ntsc>FALSE</ntsc>
              <timebase>25</timebase>
            </rate>
            <in>4202</in>
            <out>4289</out>
            <start>4866</start>
            <end>4953</end>
            <file id="monsters_S01E45_lineal_V001 205"/>
            <sourcetrack>
              <mediatype>audio</mediatype>
              <trackindex>2</trackindex>
            </sourcetrack>
            <link>
              <linkclipref>monsters_S01E45_lineal_V001 204</linkclipref>
              <mediatype>audio</mediatype>
              <trackindex>3</trackindex>
              <clipindex>31</clipindex>
              <groupindex>1</groupindex>
            </link>
            <link>
              <linkclipref>monsters_S01E45_lineal_V001 206</linkclipref>
              <mediatype>audio</mediatype>
              <trackindex>4</trackindex>
              <clipindex>31</clipindex>
              <groupindex>1</groupindex>
            </link>
            <itemhistory>
              <uuid>6F3D1A0E-76FE-4333-48F5-755C67C52BE1</uuid>
            </itemhistory>
          </clipitem>
          <clipitem id="monsters_S01E45_lineal_V001 209">
            <name>monsters_S01E45_lineal_V001</name>
            <duration>6366</duration>
            <rate>
              <ntsc>FALSE</ntsc>
              <timebase>25</timebase>
            </rate>
            <in>4341</in>
            <out>4398</out>
            <start>5005</start>
            <end>5062</end>
            <file id="monsters_S01E45_lineal_V001 208"/>
            <sourcetrack>
              <mediatype>audio</mediatype>
              <trackindex>2</trackindex>
            </sourcetrack>
            <link>
              <linkclipref>monsters_S01E45_lineal_V001 207</linkclipref>
              <mediatype>audio</mediatype>
              <trackindex>3</trackindex>
              <clipindex>32</clipindex>
              <groupindex>1</groupindex>
            </link>
            <link>
              <linkclipref>monsters_S01E45_lineal_V001 209</linkclipref>
              <mediatype>audio</mediatype>
              <trackindex>4</trackindex>
              <clipindex>32</clipindex>
              <groupindex>1</groupindex>
            </link>
            <itemhistory>
              <uuid>67B2251B-14ED-1B85-7C45-25ABD4127D92</uuid>
            </itemhistory>
          </clipitem>
          <clipitem id="monsters_S01E45_lineal_V001 212">
            <name>monsters_S01E45_lineal_V001</name>
            <duration>6366</duration>
            <rate>
              <ntsc>FALSE</ntsc>
              <timebase>25</timebase>
            </rate>
            <in>4433</in>
            <out>4460</out>
            <start>5082</start>
            <end>5109</end>
            <file id="monsters_S01E45_lineal_V001 211"/>
            <sourcetrack>
              <mediatype>audio</mediatype>
              <trackindex>2</trackindex>
            </sourcetrack>
            <link>
              <linkclipref>monsters_S01E45_lineal_V001 210</linkclipref>
              <mediatype>audio</mediatype>
              <trackindex>3</trackindex>
              <clipindex>33</clipindex>
              <groupindex>1</groupindex>
            </link>
            <link>
              <linkclipref>monsters_S01E45_lineal_V001 212</linkclipref>
              <mediatype>audio</mediatype>
              <trackindex>4</trackindex>
              <clipindex>33</clipindex>
              <groupindex>1</groupindex>
            </link>
            <itemhistory>
              <uuid>503C76A6-40DB-3667-7C7F-33A33BEE2ED4</uuid>
            </itemhistory>
          </clipitem>
          <clipitem id="monsters_S01E45_lineal_V001 215">
            <name>monsters_S01E45_lineal_V001</name>
            <duration>6366</duration>
            <rate>
              <ntsc>FALSE</ntsc>
              <timebase>25</timebase>
            </rate>
            <in>4509</in>
            <out>4565</out>
            <start>5135</start>
            <end>5191</end>
            <file id="monsters_S01E45_lineal_V001 214"/>
            <sourcetrack>
              <mediatype>audio</mediatype>
              <trackindex>2</trackindex>
            </sourcetrack>
            <link>
              <linkclipref>monsters_S01E45_lineal_V001 213</linkclipref>
              <mediatype>audio</mediatype>
              <trackindex>3</trackindex>
              <clipindex>34</clipindex>
              <groupindex>1</groupindex>
            </link>
            <link>
              <linkclipref>monsters_S01E45_lineal_V001 215</linkclipref>
              <mediatype>audio</mediatype>
              <trackindex>4</trackindex>
              <clipindex>34</clipindex>
              <groupindex>1</groupindex>
            </link>
            <itemhistory>
              <uuid>796D34F0-1DA1-42D6-1AE0-3DA8419653DB</uuid>
            </itemhistory>
          </clipitem>
          <clipitem id="monsters_S01E45_lineal_V001 218">
            <name>monsters_S01E45_lineal_V001</name>
            <duration>6366</duration>
            <rate>
              <ntsc>FALSE</ntsc>
              <timebase>25</timebase>
            </rate>
            <in>4648</in>
            <out>4764</out>
            <start>5378</start>
            <end>5494</end>
            <file id="monsters_S01E45_lineal_V001 217"/>
            <sourcetrack>
              <mediatype>audio</mediatype>
              <trackindex>2</trackindex>
            </sourcetrack>
            <link>
              <linkclipref>monsters_S01E45_lineal_V001 216</linkclipref>
              <mediatype>audio</mediatype>
              <trackindex>3</trackindex>
              <clipindex>35</clipindex>
              <groupindex>1</groupindex>
            </link>
            <link>
              <linkclipref>monsters_S01E45_lineal_V001 218</linkclipref>
              <mediatype>audio</mediatype>
              <trackindex>4</trackindex>
              <clipindex>35</clipindex>
              <groupindex>1</groupindex>
            </link>
            <itemhistory>
              <uuid>51FC5603-60BF-7D6A-714F-1B644BFD4189</uuid>
            </itemhistory>
          </clipitem>
          <clipitem id="monsters_S01E45_lineal_V001 221">
            <name>monsters_S01E45_lineal_V001</name>
            <duration>6366</duration>
            <rate>
              <ntsc>FALSE</ntsc>
              <timebase>25</timebase>
            </rate>
            <in>4952</in>
            <out>4977</out>
            <start>5639</start>
            <end>5664</end>
            <file id="monsters_S01E45_lineal_V001 220"/>
            <sourcetrack>
              <mediatype>audio</mediatype>
              <trackindex>2</trackindex>
            </sourcetrack>
            <link>
              <linkclipref>monsters_S01E45_lineal_V001 219</linkclipref>
              <mediatype>audio</mediatype>
              <trackindex>3</trackindex>
              <clipindex>36</clipindex>
              <groupindex>1</groupindex>
            </link>
            <link>
              <linkclipref>monsters_S01E45_lineal_V001 221</linkclipref>
              <mediatype>audio</mediatype>
              <trackindex>4</trackindex>
              <clipindex>36</clipindex>
              <groupindex>1</groupindex>
            </link>
            <itemhistory>
              <uuid>163D21D1-752B-4ED8-3CD8-34C64C423A67</uuid>
            </itemhistory>
          </clipitem>
          <clipitem id="monsters_S01E45_lineal_V001 224">
            <name>monsters_S01E45_lineal_V001</name>
            <duration>6366</duration>
            <rate>
              <ntsc>FALSE</ntsc>
              <timebase>25</timebase>
            </rate>
            <in>4980</in>
            <out>5066</out>
            <start>5664</start>
            <end>5750</end>
            <file id="monsters_S01E45_lineal_V001 223"/>
            <sourcetrack>
              <mediatype>audio</mediatype>
              <trackindex>2</trackindex>
            </sourcetrack>
            <link>
              <linkclipref>monsters_S01E45_lineal_V001 222</linkclipref>
              <mediatype>audio</mediatype>
              <trackindex>3</trackindex>
              <clipindex>37</clipindex>
              <groupindex>1</groupindex>
            </link>
            <link>
              <linkclipref>monsters_S01E45_lineal_V001 224</linkclipref>
              <mediatype>audio</mediatype>
              <trackindex>4</trackindex>
              <clipindex>37</clipindex>
              <groupindex>1</groupindex>
            </link>
            <itemhistory>
              <uuid>7AEE4E17-7031-2626-7CEB-2B9C19417600</uuid>
            </itemhistory>
          </clipitem>
          <clipitem id="monsters_S01E45_lineal_V001 227">
            <name>monsters_S01E45_lineal_V001</name>
            <duration>6366</duration>
            <rate>
              <ntsc>FALSE</ntsc>
              <timebase>25</timebase>
            </rate>
            <in>5236</in>
            <out>5297</out>
            <start>5886</start>
            <end>5947</end>
            <file id="monsters_S01E45_lineal_V001 226"/>
            <sourcetrack>
              <mediatype>audio</mediatype>
              <trackindex>2</trackindex>
            </sourcetrack>
            <link>
              <linkclipref>monsters_S01E45_lineal_V001 225</linkclipref>
              <mediatype>audio</mediatype>
              <trackindex>3</trackindex>
              <clipindex>38</clipindex>
              <groupindex>1</groupindex>
            </link>
            <link>
              <linkclipref>monsters_S01E45_lineal_V001 227</linkclipref>
              <mediatype>audio</mediatype>
              <trackindex>4</trackindex>
              <clipindex>38</clipindex>
              <groupindex>1</groupindex>
            </link>
            <itemhistory>
              <uuid>3348C6F7-6D0A-7EFF-55A9-F75A0FD038A5</uuid>
            </itemhistory>
          </clipitem>
          <clipitem id="monsters_S01E45_lineal_V001 230">
            <name>monsters_S01E45_lineal_V001</name>
            <duration>6366</duration>
            <rate>
              <ntsc>FALSE</ntsc>
              <timebase>25</timebase>
            </rate>
            <in>5299</in>
            <out>5376</out>
            <start>5962</start>
            <end>6039</end>
            <file id="monsters_S01E45_lineal_V001 229"/>
            <sourcetrack>
              <mediatype>audio</mediatype>
              <trackindex>2</trackindex>
            </sourcetrack>
            <link>
              <linkclipref>monsters_S01E45_lineal_V001 228</linkclipref>
              <mediatype>audio</mediatype>
              <trackindex>3</trackindex>
              <clipindex>39</clipindex>
              <groupindex>1</groupindex>
            </link>
            <link>
              <linkclipref>monsters_S01E45_lineal_V001 230</linkclipref>
              <mediatype>audio</mediatype>
              <trackindex>4</trackindex>
              <clipindex>39</clipindex>
              <groupindex>1</groupindex>
            </link>
            <itemhistory>
              <uuid>55945ADF-4628-1901-19B7-74D03EB42FBC</uuid>
            </itemhistory>
          </clipitem>
          <clipitem id="monsters_S01E45_lineal_V001 233">
            <name>monsters_S01E45_lineal_V001</name>
            <duration>6366</duration>
            <rate>
              <ntsc>FALSE</ntsc>
              <timebase>25</timebase>
            </rate>
            <in>5479</in>
            <out>5535</out>
            <start>6080</start>
            <end>6136</end>
            <file id="monsters_S01E45_lineal_V001 232"/>
            <sourcetrack>
              <mediatype>audio</mediatype>
              <trackindex>2</trackindex>
            </sourcetrack>
            <link>
              <linkclipref>monsters_S01E45_lineal_V001 231</linkclipref>
              <mediatype>audio</mediatype>
              <trackindex>3</trackindex>
              <clipindex>40</clipindex>
              <groupindex>1</groupindex>
            </link>
            <link>
              <linkclipref>monsters_S01E45_lineal_V001 233</linkclipref>
              <mediatype>audio</mediatype>
              <trackindex>4</trackindex>
              <clipindex>40</clipindex>
              <groupindex>1</groupindex>
            </link>
            <itemhistory>
              <uuid>50031BED-6626-27DC-5F36-048416F04CB3</uuid>
            </itemhistory>
          </clipitem>
          <clipitem id="monsters_S01E45_lineal_V001 236">
            <name>monsters_S01E45_lineal_V001</name>
            <duration>6366</duration>
            <rate>
              <ntsc>FALSE</ntsc>
              <timebase>25</timebase>
            </rate>
            <in>5602</in>
            <out>5626</out>
            <start>6216</start>
            <end>6240</end>
            <file id="monsters_S01E45_lineal_V001 235"/>
            <sourcetrack>
              <mediatype>audio</mediatype>
              <trackindex>2</trackindex>
            </sourcetrack>
            <link>
              <linkclipref>monsters_S01E45_lineal_V001 234</linkclipref>
              <mediatype>audio</mediatype>
              <trackindex>3</trackindex>
              <clipindex>41</clipindex>
              <groupindex>1</groupindex>
            </link>
            <link>
              <linkclipref>monsters_S01E45_lineal_V001 236</linkclipref>
              <mediatype>audio</mediatype>
              <trackindex>4</trackindex>
              <clipindex>41</clipindex>
              <groupindex>1</groupindex>
            </link>
            <itemhistory>
              <uuid>3A1C5FEB-57B2-578A-694F-749A6A812976</uuid>
            </itemhistory>
          </clipitem>
          <clipitem id="monsters_S01E45_lineal_V001 239">
            <name>monsters_S01E45_lineal_V001</name>
            <duration>6366</duration>
            <rate>
              <ntsc>FALSE</ntsc>
              <timebase>25</timebase>
            </rate>
            <in>5632</in>
            <out>5673</out>
            <start>6242</start>
            <end>6283</end>
            <file id="monsters_S01E45_lineal_V001 238"/>
            <sourcetrack>
              <mediatype>audio</mediatype>
              <trackindex>2</trackindex>
            </sourcetrack>
            <link>
              <linkclipref>monsters_S01E45_lineal_V001 237</linkclipref>
              <mediatype>audio</mediatype>
              <trackindex>3</trackindex>
              <clipindex>42</clipindex>
              <groupindex>1</groupindex>
            </link>
            <link>
              <linkclipref>monsters_S01E45_lineal_V001 239</linkclipref>
              <mediatype>audio</mediatype>
              <trackindex>4</trackindex>
              <clipindex>42</clipindex>
              <groupindex>1</groupindex>
            </link>
            <itemhistory>
              <uuid>6C1957B1-7D00-6B5C-1A2A-4EEE73841F6E</uuid>
            </itemhistory>
          </clipitem>
          <clipitem id="monsters_S01E45_lineal_V001 242">
            <name>monsters_S01E45_lineal_V001</name>
            <duration>6366</duration>
            <rate>
              <ntsc>FALSE</ntsc>
              <timebase>25</timebase>
            </rate>
            <in>6184</in>
            <out>6254</out>
            <start>6322</start>
            <end>6392</end>
            <file id="monsters_S01E45_lineal_V001 241"/>
            <sourcetrack>
              <mediatype>audio</mediatype>
              <trackindex>2</trackindex>
            </sourcetrack>
            <link>
              <linkclipref>monsters_S01E45_lineal_V001 240</linkclipref>
              <mediatype>audio</mediatype>
              <trackindex>3</trackindex>
              <clipindex>43</clipindex>
              <groupindex>1</groupindex>
            </link>
            <link>
              <linkclipref>monsters_S01E45_lineal_V001 242</linkclipref>
              <mediatype>audio</mediatype>
              <trackindex>4</trackindex>
              <clipindex>43</clipindex>
              <groupindex>1</groupindex>
            </link>
            <itemhistory>
              <uuid>430015ED-A73A-5000-199E-3B7169073072</uuid>
            </itemhistory>
          </clipitem>
          <clipitem id="monsters_S01E43_lineal_v001 2">
            <name>monsters_S01E43_lineal_v001</name>
            <duration>6246</duration>
            <rate>
              <ntsc>FALSE</ntsc>
              <timebase>25</timebase>
            </rate>
            <in>6127</in>
            <out>6174</out>
            <start>6470</start>
            <end>6517</end>
            <file id="monsters_S01E43_lineal_v001 1"/>
            <sourcetrack>
              <mediatype>audio</mediatype>
              <trackindex>2</trackindex>
            </sourcetrack>
            <link>
              <linkclipref>monsters_S01E43_lineal_v001</linkclipref>
              <mediatype>audio</mediatype>
              <trackindex>3</trackindex>
              <clipindex>44</clipindex>
              <groupindex>1</groupindex>
            </link>
            <link>
              <linkclipref>monsters_S01E43_lineal_v001 2</linkclipref>
              <mediatype>audio</mediatype>
              <trackindex>4</trackindex>
              <clipindex>44</clipindex>
              <groupindex>1</groupindex>
            </link>
            <itemhistory>
              <uuid>36EE2C85-4189-1DB4-2848-11A05C9A6DFF</uuid>
            </itemhistory>
          </clipitem>
          <clipitem id="monsters_S01E45_lineal_V001 245">
            <name>monsters_S01E45_lineal_V001</name>
            <duration>6366</duration>
            <rate>
              <ntsc>FALSE</ntsc>
              <timebase>25</timebase>
            </rate>
            <in>5967</in>
            <out>6097</out>
            <start>7028</start>
            <end>7158</end>
            <file id="monsters_S01E45_lineal_V001 244"/>
            <sourcetrack>
              <mediatype>audio</mediatype>
              <trackindex>2</trackindex>
            </sourcetrack>
            <link>
              <linkclipref>monsters_S01E45_lineal_V001 243</linkclipref>
              <mediatype>audio</mediatype>
              <trackindex>3</trackindex>
              <clipindex>45</clipindex>
              <groupindex>1</groupindex>
            </link>
            <link>
              <linkclipref>monsters_S01E45_lineal_V001 245</linkclipref>
              <mediatype>audio</mediatype>
              <trackindex>4</trackindex>
              <clipindex>45</clipindex>
              <groupindex>1</groupindex>
            </link>
            <itemhistory>
              <uuid>6D024879-6C30-4C10-135C-211E7F273DBD</uuid>
            </itemhistory>
          </clipitem>
        </track>
        <track>
          <clipitem id="y2mate.com - cricket_sound_effect_Olfg9KK_bmE">
            <name>y2mate.com - cricket_sound_effect_Olfg9KK_bmE</name>
            <duration>554</duration>
            <rate>
              <ntsc>FALSE</ntsc>
              <timebase>25</timebase>
            </rate>
            <in>7</in>
            <out>68</out>
            <start>608</start>
            <end>669</end>
            <file id="y2mate.com - cricket_sound_effect_Olfg9KK_bmE 1">
              <name>y2mate.com - cricket_sound_effect_Olfg9KK_bmE.mp3</name>
              <pathurl>file://localhost/C:/Users/usuario/Dropbox%20(BigBangBoxSL)/PROYECTOS/My%20preschool%20monster%20serie/PRODUCCION/Story/EPISODIOS/FOTOS/XML/y2mate.com%20-%20cricket_sound_effect_Olfg9KK_bmE.mp3</pathurl>
              <rate>
                <timebase>25</timebase>
              </rate>
              <duration>554</duration>
              <media>
                <audio>
                  <samplecharacteristics>
                    <samplerate>44100</samplerate>
                    <depth>16</depth>
                  </samplecharacteristics>
                  <channelcount>2</channelcount>
                  <layout>stereo</layout>
                  <audiochannel>
                    <sourcechannel>1</sourcechannel>
                    <channellabel>left</channellabel>
                  </audiochannel>
                  <audiochannel>
                    <sourcechannel>2</sourcechannel>
                    <channellabel>right</channellabel>
                  </audiochannel>
                </audio>
              </media>
            </file>
            <filter>
              <enabled>TRUE</enabled>
              <effect>
                <name>Audio Levels</name>
                <effectid>audiolevels</effectid>
                <effectcategory>audiolevels</effectcategory>
                <effecttype>audiolevels</effecttype>
                <mediatype>audio</mediatype>
                <parameter>
                  <name>Level</name>
                  <parameterid>level</parameterid>
                  <keyframe>
                    <when>7.0000000000</when>
                    <value>0.0000000000</value>
                  </keyframe>
                  <keyframe>
                    <when>9.2786300629</when>
                    <value>0.9642860293</value>
                  </keyframe>
                  <keyframe>
                    <when>62.4470002651</when>
                    <value>1.0714299679</value>
                  </keyframe>
                  <keyframe>
                    <when>65.5285007954</when>
                    <value>0.0000000000</value>
                  </keyframe>
                  <interpolation>
                    <name>FCPCurve</name>
                  </interpolation>
                </parameter>
              </effect>
            </filter>
            <sourcetrack>
              <mediatype>audio</mediatype>
              <trackindex>1</trackindex>
            </sourcetrack>
            <link>
              <linkclipref>y2mate.com - cricket_sound_effect_Olfg9KK_bmE</linkclipref>
              <mediatype>audio</mediatype>
              <trackindex>5</trackindex>
              <clipindex>1</clipindex>
              <groupindex>1</groupindex>
            </link>
            <link>
              <linkclipref>y2mate.com - cricket_sound_effect_Olfg9KK_bmE 2</linkclipref>
              <mediatype>audio</mediatype>
              <trackindex>6</trackindex>
              <clipindex>1</clipindex>
              <groupindex>1</groupindex>
            </link>
            <itemhistory>
              <uuid>4F2040BF-4401-339B-797C-3B232E23259B</uuid>
            </itemhistory>
          </clipitem>
          <clipitem id="monsters_S01E45_lineal_V001 246">
            <name>monsters_S01E45_lineal_V001</name>
            <duration>6366</duration>
            <rate>
              <ntsc>FALSE</ntsc>
              <timebase>25</timebase>
            </rate>
            <in>536</in>
            <out>547</out>
            <start>669</start>
            <end>680</end>
            <file id="monsters_S01E45_lineal_V001 247">
              <name>monsters_S01E45_lineal_V001.aif</name>
              <pathurl>file://localhost/C:/Users/usuario/Dropbox%20(BigBangBoxSL)/PROYECTOS/My%20preschool%20monster%20serie/PRODUCCION/Story/EPISODIOS/FOTOS/XML/monsters_S01E45_lineal_V001.aif</pathurl>
              <rate>
                <timebase>25</timebase>
              </rate>
              <duration>6366</duration>
              <media>
                <audio>
                  <samplecharacteristics>
                    <samplerate>48000</samplerate>
                    <depth>16</depth>
                  </samplecharacteristics>
                  <channelcount>2</channelcount>
                  <layout>stereo</layout>
                  <audiochannel>
                    <sourcechannel>1</sourcechannel>
                    <channellabel>left</channellabel>
                  </audiochannel>
                  <audiochannel>
                    <sourcechannel>2</sourcechannel>
                    <channellabel>right</channellabel>
                  </audiochannel>
                </audio>
              </media>
            </file>
            <sourcetrack>
              <mediatype>audio</mediatype>
              <trackindex>1</trackindex>
            </sourcetrack>
            <link>
              <linkclipref>monsters_S01E45_lineal_V001 246</linkclipref>
              <mediatype>audio</mediatype>
              <trackindex>5</trackindex>
              <clipindex>2</clipindex>
              <groupindex>1</groupindex>
            </link>
            <link>
              <linkclipref>monsters_S01E45_lineal_V001 248</linkclipref>
              <mediatype>audio</mediatype>
              <trackindex>6</trackindex>
              <clipindex>2</clipindex>
              <groupindex>1</groupindex>
            </link>
            <itemhistory>
              <uuid>5F00541D-4CE7-7C67-20C1-1D5C12491A47</uuid>
            </itemhistory>
          </clipitem>
          <clipitem id="y2mate.com - camera_shutter_sound_effect_hd_q3VVxbJa61Q">
            <name>y2mate.com - camera_shutter_sound_effect_hd_q3VVxbJa61Q</name>
            <duration>451</duration>
            <rate>
              <ntsc>FALSE</ntsc>
              <timebase>25</timebase>
            </rate>
            <in>197</in>
            <out>212</out>
            <start>975</start>
            <end>990</end>
            <file id="y2mate.com - camera_shutter_sound_effect_hd_q3VVxbJa61Q 1">
              <name>y2mate.com - camera_shutter_sound_effect_hd_q3VVxbJa61Q.mp3</name>
              <pathurl>file://localhost/C:/Users/usuario/Dropbox%20(BigBangBoxSL)/PROYECTOS/My%20preschool%20monster%20serie/PRODUCCION/Story/EPISODIOS/FOTOS/XML/y2mate.com%20-%20camera_shutter_sound_effect_hd_q3VVxbJa61Q.mp3</pathurl>
              <rate>
                <timebase>25</timebase>
              </rate>
              <duration>451</duration>
              <media>
                <audio>
                  <samplecharacteristics>
                    <samplerate>44100</samplerate>
                    <depth>16</depth>
                  </samplecharacteristics>
                  <channelcount>2</channelcount>
                  <layout>stereo</layout>
                  <audiochannel>
                    <sourcechannel>1</sourcechannel>
                    <channellabel>left</channellabel>
                  </audiochannel>
                  <audiochannel>
                    <sourcechannel>2</sourcechannel>
                    <channellabel>right</channellabel>
                  </audiochannel>
                </audio>
              </media>
            </file>
            <sourcetrack>
              <mediatype>audio</mediatype>
              <trackindex>1</trackindex>
            </sourcetrack>
            <link>
              <linkclipref>y2mate.com - camera_shutter_sound_effect_hd_q3VVxbJa61Q</linkclipref>
              <mediatype>audio</mediatype>
              <trackindex>5</trackindex>
              <clipindex>3</clipindex>
              <groupindex>1</groupindex>
            </link>
            <link>
              <linkclipref>y2mate.com - camera_shutter_sound_effect_hd_q3VVxbJa61Q 2</linkclipref>
              <mediatype>audio</mediatype>
              <trackindex>6</trackindex>
              <clipindex>3</clipindex>
              <groupindex>1</groupindex>
            </link>
            <itemhistory>
              <uuid>126D5001-3297-7C3F-2C85-C726D11E145E</uuid>
            </itemhistory>
          </clipitem>
          <clipitem id="y2mate.com - camera_shutter_sound_effect_hd_q3VVxbJa61Q 3">
            <name>y2mate.com - camera_shutter_sound_effect_hd_q3VVxbJa61Q</name>
            <duration>451</duration>
            <rate>
              <ntsc>FALSE</ntsc>
              <timebase>25</timebase>
            </rate>
            <in>104</in>
            <out>138</out>
            <start>1042</start>
            <end>1076</end>
            <file id="y2mate.com - camera_shutter_sound_effect_hd_q3VVxbJa61Q 4">
              <name>y2mate.com - camera_shutter_sound_effect_hd_q3VVxbJa61Q.mp3</name>
              <pathurl>file://localhost/C:/Users/usuario/Dropbox%20(BigBangBoxSL)/PROYECTOS/My%20preschool%20monster%20serie/PRODUCCION/Story/EPISODIOS/FOTOS/XML/y2mate.com%20-%20camera_shutter_sound_effect_hd_q3VVxbJa61Q.mp3</pathurl>
              <rate>
                <timebase>25</timebase>
              </rate>
              <duration>451</duration>
              <media>
                <audio>
                  <samplecharacteristics>
                    <samplerate>44100</samplerate>
                    <depth>16</depth>
                  </samplecharacteristics>
                  <channelcount>2</channelcount>
                  <layout>stereo</layout>
                  <audiochannel>
                    <sourcechannel>1</sourcechannel>
                    <channellabel>left</channellabel>
                  </audiochannel>
                  <audiochannel>
                    <sourcechannel>2</sourcechannel>
                    <channellabel>right</channellabel>
                  </audiochannel>
                </audio>
              </media>
            </file>
            <sourcetrack>
              <mediatype>audio</mediatype>
              <trackindex>1</trackindex>
            </sourcetrack>
            <link>
              <linkclipref>y2mate.com - camera_shutter_sound_effect_hd_q3VVxbJa61Q 3</linkclipref>
              <mediatype>audio</mediatype>
              <trackindex>5</trackindex>
              <clipindex>4</clipindex>
              <groupindex>1</groupindex>
            </link>
            <link>
              <linkclipref>y2mate.com - camera_shutter_sound_effect_hd_q3VVxbJa61Q 5</linkclipref>
              <mediatype>audio</mediatype>
              <trackindex>6</trackindex>
              <clipindex>4</clipindex>
              <groupindex>1</groupindex>
            </link>
            <itemhistory>
              <uuid>75C43FB3-59AA-4083-5EA9-7E5831FC3E15</uuid>
            </itemhistory>
          </clipitem>
          <clipitem id="y2mate.com - cricket_sound_effect_Olfg9KK_bmE 3">
            <name>y2mate.com - cricket_sound_effect_Olfg9KK_bmE</name>
            <duration>554</duration>
            <rate>
              <ntsc>FALSE</ntsc>
              <timebase>25</timebase>
            </rate>
            <in>7</in>
            <out>68</out>
            <start>1753</start>
            <end>1814</end>
            <file id="y2mate.com - cricket_sound_effect_Olfg9KK_bmE 4">
              <name>y2mate.com - cricket_sound_effect_Olfg9KK_bmE.mp3</name>
              <pathurl>file://localhost/C:/Users/usuario/Dropbox%20(BigBangBoxSL)/PROYECTOS/My%20preschool%20monster%20serie/PRODUCCION/Story/EPISODIOS/FOTOS/XML/y2mate.com%20-%20cricket_sound_effect_Olfg9KK_bmE.mp3</pathurl>
              <rate>
                <timebase>25</timebase>
              </rate>
              <duration>554</duration>
              <media>
                <audio>
                  <samplecharacteristics>
                    <samplerate>44100</samplerate>
                    <depth>16</depth>
                  </samplecharacteristics>
                  <channelcount>2</channelcount>
                  <layout>stereo</layout>
                  <audiochannel>
                    <sourcechannel>1</sourcechannel>
                    <channellabel>left</channellabel>
                  </audiochannel>
                  <audiochannel>
                    <sourcechannel>2</sourcechannel>
                    <channellabel>right</channellabel>
                  </audiochannel>
                </audio>
              </media>
            </file>
            <filter>
              <enabled>TRUE</enabled>
              <effect>
                <name>Audio Levels</name>
                <effectid>audiolevels</effectid>
                <effectcategory>audiolevels</effectcategory>
                <effecttype>audiolevels</effecttype>
                <mediatype>audio</mediatype>
                <parameter>
                  <name>Level</name>
                  <parameterid>level</parameterid>
                  <keyframe>
                    <when>7.0000000000</when>
                    <value>0.0000000000</value>
                  </keyframe>
                  <keyframe>
                    <when>9.2786300629</when>
                    <value>0.9642860293</value>
                  </keyframe>
                  <keyframe>
                    <when>62.4470002651</when>
                    <value>1.0714299679</value>
                  </keyframe>
                  <keyframe>
                    <when>65.5285007954</when>
                    <value>0.0000000000</value>
                  </keyframe>
                  <interpolation>
                    <name>FCPCurve</name>
                  </interpolation>
                </parameter>
              </effect>
            </filter>
            <sourcetrack>
              <mediatype>audio</mediatype>
              <trackindex>1</trackindex>
            </sourcetrack>
            <link>
              <linkclipref>y2mate.com - cricket_sound_effect_Olfg9KK_bmE 3</linkclipref>
              <mediatype>audio</mediatype>
              <trackindex>5</trackindex>
              <clipindex>5</clipindex>
              <groupindex>1</groupindex>
            </link>
            <link>
              <linkclipref>y2mate.com - cricket_sound_effect_Olfg9KK_bmE 5</linkclipref>
              <mediatype>audio</mediatype>
              <trackindex>6</trackindex>
              <clipindex>5</clipindex>
              <groupindex>1</groupindex>
            </link>
            <itemhistory>
              <uuid>250E7455-7D97-6EDE-44BF-485B77775999</uuid>
            </itemhistory>
          </clipitem>
          <clipitem id="y2mate.com - camera_shutter_sound_effect_hd_q3VVxbJa61Q 6">
            <name>y2mate.com - camera_shutter_sound_effect_hd_q3VVxbJa61Q</name>
            <duration>451</duration>
            <rate>
              <ntsc>FALSE</ntsc>
              <timebase>25</timebase>
            </rate>
            <in>197</in>
            <out>212</out>
            <start>2748</start>
            <end>2763</end>
            <file id="y2mate.com - camera_shutter_sound_effect_hd_q3VVxbJa61Q 7">
              <name>y2mate.com - camera_shutter_sound_effect_hd_q3VVxbJa61Q.mp3</name>
              <pathurl>file://localhost/C:/Users/usuario/Dropbox%20(BigBangBoxSL)/PROYECTOS/My%20preschool%20monster%20serie/PRODUCCION/Story/EPISODIOS/FOTOS/XML/y2mate.com%20-%20camera_shutter_sound_effect_hd_q3VVxbJa61Q.mp3</pathurl>
              <rate>
                <timebase>25</timebase>
              </rate>
              <duration>451</duration>
              <media>
                <audio>
                  <samplecharacteristics>
                    <samplerate>44100</samplerate>
                    <depth>16</depth>
                  </samplecharacteristics>
                  <channelcount>2</channelcount>
                  <layout>stereo</layout>
                  <audiochannel>
                    <sourcechannel>1</sourcechannel>
                    <channellabel>left</channellabel>
                  </audiochannel>
                  <audiochannel>
                    <sourcechannel>2</sourcechannel>
                    <channellabel>right</channellabel>
                  </audiochannel>
                </audio>
              </media>
            </file>
            <sourcetrack>
              <mediatype>audio</mediatype>
              <trackindex>1</trackindex>
            </sourcetrack>
            <link>
              <linkclipref>y2mate.com - camera_shutter_sound_effect_hd_q3VVxbJa61Q 6</linkclipref>
              <mediatype>audio</mediatype>
              <trackindex>5</trackindex>
              <clipindex>6</clipindex>
              <groupindex>1</groupindex>
            </link>
            <link>
              <linkclipref>y2mate.com - camera_shutter_sound_effect_hd_q3VVxbJa61Q 8</linkclipref>
              <mediatype>audio</mediatype>
              <trackindex>6</trackindex>
              <clipindex>6</clipindex>
              <groupindex>1</groupindex>
            </link>
            <itemhistory>
              <uuid>22EB3AF8-3B00-5C27-5C29-67F211724DD7</uuid>
            </itemhistory>
          </clipitem>
          <clipitem id="y2mate.com - camera_shutter_sound_effect_hd_q3VVxbJa61Q 9">
            <name>y2mate.com - camera_shutter_sound_effect_hd_q3VVxbJa61Q</name>
            <duration>451</duration>
            <rate>
              <ntsc>FALSE</ntsc>
              <timebase>25</timebase>
            </rate>
            <in>197</in>
            <out>212</out>
            <start>2799</start>
            <end>2814</end>
            <file id="y2mate.com - camera_shutter_sound_effect_hd_q3VVxbJa61Q 10">
              <name>y2mate.com - camera_shutter_sound_effect_hd_q3VVxbJa61Q.mp3</name>
              <pathurl>file://localhost/C:/Users/usuario/Dropbox%20(BigBangBoxSL)/PROYECTOS/My%20preschool%20monster%20serie/PRODUCCION/Story/EPISODIOS/FOTOS/XML/y2mate.com%20-%20camera_shutter_sound_effect_hd_q3VVxbJa61Q.mp3</pathurl>
              <rate>
                <timebase>25</timebase>
              </rate>
              <duration>451</duration>
              <media>
                <audio>
                  <samplecharacteristics>
                    <samplerate>44100</samplerate>
                    <depth>16</depth>
                  </samplecharacteristics>
                  <channelcount>2</channelcount>
                  <layout>stereo</layout>
                  <audiochannel>
                    <sourcechannel>1</sourcechannel>
                    <channellabel>left</channellabel>
                  </audiochannel>
                  <audiochannel>
                    <sourcechannel>2</sourcechannel>
                    <channellabel>right</channellabel>
                  </audiochannel>
                </audio>
              </media>
            </file>
            <sourcetrack>
              <mediatype>audio</mediatype>
              <trackindex>1</trackindex>
            </sourcetrack>
            <link>
              <linkclipref>y2mate.com - camera_shutter_sound_effect_hd_q3VVxbJa61Q 9</linkclipref>
              <mediatype>audio</mediatype>
              <trackindex>5</trackindex>
              <clipindex>7</clipindex>
              <groupindex>1</groupindex>
            </link>
            <link>
              <linkclipref>y2mate.com - camera_shutter_sound_effect_hd_q3VVxbJa61Q 11</linkclipref>
              <mediatype>audio</mediatype>
              <trackindex>6</trackindex>
              <clipindex>7</clipindex>
              <groupindex>1</groupindex>
            </link>
            <itemhistory>
              <uuid>60CF5A3B-45A7-7957-2AE8-2BD474EA3299</uuid>
            </itemhistory>
          </clipitem>
          <clipitem id="y2mate.com - camera_shutter_sound_effect_hd_q3VVxbJa61Q 12">
            <name>y2mate.com - camera_shutter_sound_effect_hd_q3VVxbJa61Q</name>
            <duration>451</duration>
            <rate>
              <ntsc>FALSE</ntsc>
              <timebase>25</timebase>
            </rate>
            <in>104</in>
            <out>138</out>
            <start>2852</start>
            <end>2886</end>
            <file id="y2mate.com - camera_shutter_sound_effect_hd_q3VVxbJa61Q 13">
              <name>y2mate.com - camera_shutter_sound_effect_hd_q3VVxbJa61Q.mp3</name>
              <pathurl>file://localhost/C:/Users/usuario/Dropbox%20(BigBangBoxSL)/PROYECTOS/My%20preschool%20monster%20serie/PRODUCCION/Story/EPISODIOS/FOTOS/XML/y2mate.com%20-%20camera_shutter_sound_effect_hd_q3VVxbJa61Q.mp3</pathurl>
              <rate>
                <timebase>25</timebase>
              </rate>
              <duration>451</duration>
              <media>
                <audio>
                  <samplecharacteristics>
                    <samplerate>44100</samplerate>
                    <depth>16</depth>
                  </samplecharacteristics>
                  <channelcount>2</channelcount>
                  <layout>stereo</layout>
                  <audiochannel>
                    <sourcechannel>1</sourcechannel>
                    <channellabel>left</channellabel>
                  </audiochannel>
                  <audiochannel>
                    <sourcechannel>2</sourcechannel>
                    <channellabel>right</channellabel>
                  </audiochannel>
                </audio>
              </media>
            </file>
            <sourcetrack>
              <mediatype>audio</mediatype>
              <trackindex>1</trackindex>
            </sourcetrack>
            <link>
              <linkclipref>y2mate.com - camera_shutter_sound_effect_hd_q3VVxbJa61Q 12</linkclipref>
              <mediatype>audio</mediatype>
              <trackindex>5</trackindex>
              <clipindex>8</clipindex>
              <groupindex>1</groupindex>
            </link>
            <link>
              <linkclipref>y2mate.com - camera_shutter_sound_effect_hd_q3VVxbJa61Q 14</linkclipref>
              <mediatype>audio</mediatype>
              <trackindex>6</trackindex>
              <clipindex>8</clipindex>
              <groupindex>1</groupindex>
            </link>
            <itemhistory>
              <uuid>513D94F2-13DB-6834-6824-6BB962AB4D83</uuid>
            </itemhistory>
          </clipitem>
          <clipitem id="y2mate.com - camera_shutter_sound_effect_hd_q3VVxbJa61Q 15">
            <name>y2mate.com - camera_shutter_sound_effect_hd_q3VVxbJa61Q</name>
            <duration>451</duration>
            <rate>
              <ntsc>FALSE</ntsc>
              <timebase>25</timebase>
            </rate>
            <in>197</in>
            <out>212</out>
            <start>3127</start>
            <end>3142</end>
            <file id="y2mate.com - camera_shutter_sound_effect_hd_q3VVxbJa61Q 16">
              <name>y2mate.com - camera_shutter_sound_effect_hd_q3VVxbJa61Q.mp3</name>
              <pathurl>file://localhost/C:/Users/usuario/Dropbox%20(BigBangBoxSL)/PROYECTOS/My%20preschool%20monster%20serie/PRODUCCION/Story/EPISODIOS/FOTOS/XML/y2mate.com%20-%20camera_shutter_sound_effect_hd_q3VVxbJa61Q.mp3</pathurl>
              <rate>
                <timebase>25</timebase>
              </rate>
              <duration>451</duration>
              <media>
                <audio>
                  <samplecharacteristics>
                    <samplerate>44100</samplerate>
                    <depth>16</depth>
                  </samplecharacteristics>
                  <channelcount>2</channelcount>
                  <layout>stereo</layout>
                  <audiochannel>
                    <sourcechannel>1</sourcechannel>
                    <channellabel>left</channellabel>
                  </audiochannel>
                  <audiochannel>
                    <sourcechannel>2</sourcechannel>
                    <channellabel>right</channellabel>
                  </audiochannel>
                </audio>
              </media>
            </file>
            <sourcetrack>
              <mediatype>audio</mediatype>
              <trackindex>1</trackindex>
            </sourcetrack>
            <link>
              <linkclipref>y2mate.com - camera_shutter_sound_effect_hd_q3VVxbJa61Q 15</linkclipref>
              <mediatype>audio</mediatype>
              <trackindex>5</trackindex>
              <clipindex>9</clipindex>
              <groupindex>1</groupindex>
            </link>
            <link>
              <linkclipref>y2mate.com - camera_shutter_sound_effect_hd_q3VVxbJa61Q 17</linkclipref>
              <mediatype>audio</mediatype>
              <trackindex>6</trackindex>
              <clipindex>9</clipindex>
              <groupindex>1</groupindex>
            </link>
            <itemhistory>
              <uuid>43AB1BE6-5BD1-7F9C-250E-573661EA1918</uuid>
            </itemhistory>
          </clipitem>
          <clipitem id="y2mate.com - camera_shutter_sound_effect_hd_q3VVxbJa61Q 18">
            <name>y2mate.com - camera_shutter_sound_effect_hd_q3VVxbJa61Q</name>
            <duration>451</duration>
            <rate>
              <ntsc>FALSE</ntsc>
              <timebase>25</timebase>
            </rate>
            <in>197</in>
            <out>212</out>
            <start>3217</start>
            <end>3232</end>
            <file id="y2mate.com - camera_shutter_sound_effect_hd_q3VVxbJa61Q 19">
              <name>y2mate.com - camera_shutter_sound_effect_hd_q3VVxbJa61Q.mp3</name>
              <pathurl>file://localhost/C:/Users/usuario/Dropbox%20(BigBangBoxSL)/PROYECTOS/My%20preschool%20monster%20serie/PRODUCCION/Story/EPISODIOS/FOTOS/XML/y2mate.com%20-%20camera_shutter_sound_effect_hd_q3VVxbJa61Q.mp3</pathurl>
              <rate>
                <timebase>25</timebase>
              </rate>
              <duration>451</duration>
              <media>
                <audio>
                  <samplecharacteristics>
                    <samplerate>44100</samplerate>
                    <depth>16</depth>
                  </samplecharacteristics>
                  <channelcount>2</channelcount>
                  <layout>stereo</layout>
                  <audiochannel>
                    <sourcechannel>1</sourcechannel>
                    <channellabel>left</channellabel>
                  </audiochannel>
                  <audiochannel>
                    <sourcechannel>2</sourcechannel>
                    <channellabel>right</channellabel>
                  </audiochannel>
                </audio>
              </media>
            </file>
            <sourcetrack>
              <mediatype>audio</mediatype>
              <trackindex>1</trackindex>
            </sourcetrack>
            <link>
              <linkclipref>y2mate.com - camera_shutter_sound_effect_hd_q3VVxbJa61Q 18</linkclipref>
              <mediatype>audio</mediatype>
              <trackindex>5</trackindex>
              <clipindex>10</clipindex>
              <groupindex>1</groupindex>
            </link>
            <link>
              <linkclipref>y2mate.com - camera_shutter_sound_effect_hd_q3VVxbJa61Q 20</linkclipref>
              <mediatype>audio</mediatype>
              <trackindex>6</trackindex>
              <clipindex>10</clipindex>
              <groupindex>1</groupindex>
            </link>
            <itemhistory>
              <uuid>59FE1F59-47B6-2B24-45EF-4DCA55D13C54</uuid>
            </itemhistory>
          </clipitem>
          <clipitem id="y2mate.com - camera_shutter_sound_effect_hd_q3VVxbJa61Q 21">
            <name>y2mate.com - camera_shutter_sound_effect_hd_q3VVxbJa61Q</name>
            <duration>451</duration>
            <rate>
              <ntsc>FALSE</ntsc>
              <timebase>25</timebase>
            </rate>
            <in>197</in>
            <out>212</out>
            <start>3290</start>
            <end>3305</end>
            <file id="y2mate.com - camera_shutter_sound_effect_hd_q3VVxbJa61Q 22">
              <name>y2mate.com - camera_shutter_sound_effect_hd_q3VVxbJa61Q.mp3</name>
              <pathurl>file://localhost/C:/Users/usuario/Dropbox%20(BigBangBoxSL)/PROYECTOS/My%20preschool%20monster%20serie/PRODUCCION/Story/EPISODIOS/FOTOS/XML/y2mate.com%20-%20camera_shutter_sound_effect_hd_q3VVxbJa61Q.mp3</pathurl>
              <rate>
                <timebase>25</timebase>
              </rate>
              <duration>451</duration>
              <media>
                <audio>
                  <samplecharacteristics>
                    <samplerate>44100</samplerate>
                    <depth>16</depth>
                  </samplecharacteristics>
                  <channelcount>2</channelcount>
                  <layout>stereo</layout>
                  <audiochannel>
                    <sourcechannel>1</sourcechannel>
                    <channellabel>left</channellabel>
                  </audiochannel>
                  <audiochannel>
                    <sourcechannel>2</sourcechannel>
                    <channellabel>right</channellabel>
                  </audiochannel>
                </audio>
              </media>
            </file>
            <sourcetrack>
              <mediatype>audio</mediatype>
              <trackindex>1</trackindex>
            </sourcetrack>
            <link>
              <linkclipref>y2mate.com - camera_shutter_sound_effect_hd_q3VVxbJa61Q 21</linkclipref>
              <mediatype>audio</mediatype>
              <trackindex>5</trackindex>
              <clipindex>11</clipindex>
              <groupindex>1</groupindex>
            </link>
            <link>
              <linkclipref>y2mate.com - camera_shutter_sound_effect_hd_q3VVxbJa61Q 23</linkclipref>
              <mediatype>audio</mediatype>
              <trackindex>6</trackindex>
              <clipindex>11</clipindex>
              <groupindex>1</groupindex>
            </link>
            <itemhistory>
              <uuid>14412AA8-6EAF-247A-32C1-22AE981D491B</uuid>
            </itemhistory>
          </clipitem>
          <clipitem id="y2mate.com - camera_shutter_sound_effect_hd_q3VVxbJa61Q 24">
            <name>y2mate.com - camera_shutter_sound_effect_hd_q3VVxbJa61Q</name>
            <duration>451</duration>
            <rate>
              <ntsc>FALSE</ntsc>
              <timebase>25</timebase>
            </rate>
            <in>197</in>
            <out>212</out>
            <start>3478</start>
            <end>3493</end>
            <file id="y2mate.com - camera_shutter_sound_effect_hd_q3VVxbJa61Q 25">
              <name>y2mate.com - camera_shutter_sound_effect_hd_q3VVxbJa61Q.mp3</name>
              <pathurl>file://localhost/C:/Users/usuario/Dropbox%20(BigBangBoxSL)/PROYECTOS/My%20preschool%20monster%20serie/PRODUCCION/Story/EPISODIOS/FOTOS/XML/y2mate.com%20-%20camera_shutter_sound_effect_hd_q3VVxbJa61Q.mp3</pathurl>
              <rate>
                <timebase>25</timebase>
              </rate>
              <duration>451</duration>
              <media>
                <audio>
                  <samplecharacteristics>
                    <samplerate>44100</samplerate>
                    <depth>16</depth>
                  </samplecharacteristics>
                  <channelcount>2</channelcount>
                  <layout>stereo</layout>
                  <audiochannel>
                    <sourcechannel>1</sourcechannel>
                    <channellabel>left</channellabel>
                  </audiochannel>
                  <audiochannel>
                    <sourcechannel>2</sourcechannel>
                    <channellabel>right</channellabel>
                  </audiochannel>
                </audio>
              </media>
            </file>
            <sourcetrack>
              <mediatype>audio</mediatype>
              <trackindex>1</trackindex>
            </sourcetrack>
            <link>
              <linkclipref>y2mate.com - camera_shutter_sound_effect_hd_q3VVxbJa61Q 24</linkclipref>
              <mediatype>audio</mediatype>
              <trackindex>5</trackindex>
              <clipindex>12</clipindex>
              <groupindex>1</groupindex>
            </link>
            <link>
              <linkclipref>y2mate.com - camera_shutter_sound_effect_hd_q3VVxbJa61Q 26</linkclipref>
              <mediatype>audio</mediatype>
              <trackindex>6</trackindex>
              <clipindex>12</clipindex>
              <groupindex>1</groupindex>
            </link>
            <itemhistory>
              <uuid>5A3B665E-4895-1957-6E7B-570D343F21FA</uuid>
            </itemhistory>
          </clipitem>
          <clipitem id="y2mate.com - camera_shutter_sound_effect_hd_q3VVxbJa61Q 27">
            <name>y2mate.com - camera_shutter_sound_effect_hd_q3VVxbJa61Q</name>
            <duration>451</duration>
            <rate>
              <ntsc>FALSE</ntsc>
              <timebase>25</timebase>
            </rate>
            <in>104</in>
            <out>138</out>
            <start>3522</start>
            <end>3556</end>
            <file id="y2mate.com - camera_shutter_sound_effect_hd_q3VVxbJa61Q 28">
              <name>y2mate.com - camera_shutter_sound_effect_hd_q3VVxbJa61Q.mp3</name>
              <pathurl>file://localhost/C:/Users/usuario/Dropbox%20(BigBangBoxSL)/PROYECTOS/My%20preschool%20monster%20serie/PRODUCCION/Story/EPISODIOS/FOTOS/XML/y2mate.com%20-%20camera_shutter_sound_effect_hd_q3VVxbJa61Q.mp3</pathurl>
              <rate>
                <timebase>25</timebase>
              </rate>
              <duration>451</duration>
              <media>
                <audio>
                  <samplecharacteristics>
                    <samplerate>44100</samplerate>
                    <depth>16</depth>
                  </samplecharacteristics>
                  <channelcount>2</channelcount>
                  <layout>stereo</layout>
                  <audiochannel>
                    <sourcechannel>1</sourcechannel>
                    <channellabel>left</channellabel>
                  </audiochannel>
                  <audiochannel>
                    <sourcechannel>2</sourcechannel>
                    <channellabel>right</channellabel>
                  </audiochannel>
                </audio>
              </media>
            </file>
            <sourcetrack>
              <mediatype>audio</mediatype>
              <trackindex>1</trackindex>
            </sourcetrack>
            <link>
              <linkclipref>y2mate.com - camera_shutter_sound_effect_hd_q3VVxbJa61Q 27</linkclipref>
              <mediatype>audio</mediatype>
              <trackindex>5</trackindex>
              <clipindex>13</clipindex>
              <groupindex>1</groupindex>
            </link>
            <link>
              <linkclipref>y2mate.com - camera_shutter_sound_effect_hd_q3VVxbJa61Q 29</linkclipref>
              <mediatype>audio</mediatype>
              <trackindex>6</trackindex>
              <clipindex>13</clipindex>
              <groupindex>1</groupindex>
            </link>
            <itemhistory>
              <uuid>584C5844-6035-5F53-3A03-32BF9FF774A9</uuid>
            </itemhistory>
          </clipitem>
          <clipitem id="monsters_S01E45_lineal_V001 249">
            <name>monsters_S01E45_lineal_V001</name>
            <duration>6366</duration>
            <rate>
              <ntsc>FALSE</ntsc>
              <timebase>25</timebase>
            </rate>
            <in>3059</in>
            <out>3093</out>
            <start>3684</start>
            <end>3718</end>
            <file id="monsters_S01E45_lineal_V001 250">
              <name>monsters_S01E45_lineal_V001.aif</name>
              <pathurl>file://localhost/C:/Users/usuario/Dropbox%20(BigBangBoxSL)/PROYECTOS/My%20preschool%20monster%20serie/PRODUCCION/Story/EPISODIOS/FOTOS/XML/monsters_S01E45_lineal_V001.aif</pathurl>
              <rate>
                <timebase>25</timebase>
              </rate>
              <duration>6366</duration>
              <media>
                <audio>
                  <samplecharacteristics>
                    <samplerate>48000</samplerate>
                    <depth>16</depth>
                  </samplecharacteristics>
                  <channelcount>2</channelcount>
                  <layout>stereo</layout>
                  <audiochannel>
                    <sourcechannel>1</sourcechannel>
                    <channellabel>left</channellabel>
                  </audiochannel>
                  <audiochannel>
                    <sourcechannel>2</sourcechannel>
                    <channellabel>right</channellabel>
                  </audiochannel>
                </audio>
              </media>
            </file>
            <sourcetrack>
              <mediatype>audio</mediatype>
              <trackindex>1</trackindex>
            </sourcetrack>
            <link>
              <linkclipref>monsters_S01E45_lineal_V001 249</linkclipref>
              <mediatype>audio</mediatype>
              <trackindex>5</trackindex>
              <clipindex>14</clipindex>
              <groupindex>1</groupindex>
            </link>
            <link>
              <linkclipref>monsters_S01E45_lineal_V001 251</linkclipref>
              <mediatype>audio</mediatype>
              <trackindex>6</trackindex>
              <clipindex>14</clipindex>
              <groupindex>1</groupindex>
            </link>
            <itemhistory>
              <uuid>539A7661-3C1F-3F1E-21AE-27E36C914AD7</uuid>
            </itemhistory>
          </clipitem>
          <clipitem id="monsters_S01E45_lineal_V001 252">
            <name>monsters_S01E45_lineal_V001</name>
            <duration>6366</duration>
            <rate>
              <ntsc>FALSE</ntsc>
              <timebase>25</timebase>
            </rate>
            <in>3282</in>
            <out>3331</out>
            <start>3827</start>
            <end>3876</end>
            <file id="monsters_S01E45_lineal_V001 253">
              <name>monsters_S01E45_lineal_V001.aif</name>
              <pathurl>file://localhost/C:/Users/usuario/Dropbox%20(BigBangBoxSL)/PROYECTOS/My%20preschool%20monster%20serie/PRODUCCION/Story/EPISODIOS/FOTOS/XML/monsters_S01E45_lineal_V001.aif</pathurl>
              <rate>
                <timebase>25</timebase>
              </rate>
              <duration>6366</duration>
              <media>
                <audio>
                  <samplecharacteristics>
                    <samplerate>48000</samplerate>
                    <depth>16</depth>
                  </samplecharacteristics>
                  <channelcount>2</channelcount>
                  <layout>stereo</layout>
                  <audiochannel>
                    <sourcechannel>1</sourcechannel>
                    <channellabel>left</channellabel>
                  </audiochannel>
                  <audiochannel>
                    <sourcechannel>2</sourcechannel>
                    <channellabel>right</channellabel>
                  </audiochannel>
                </audio>
              </media>
            </file>
            <sourcetrack>
              <mediatype>audio</mediatype>
              <trackindex>1</trackindex>
            </sourcetrack>
            <link>
              <linkclipref>monsters_S01E45_lineal_V001 252</linkclipref>
              <mediatype>audio</mediatype>
              <trackindex>5</trackindex>
              <clipindex>15</clipindex>
              <groupindex>1</groupindex>
            </link>
            <link>
              <linkclipref>monsters_S01E45_lineal_V001 254</linkclipref>
              <mediatype>audio</mediatype>
              <trackindex>6</trackindex>
              <clipindex>15</clipindex>
              <groupindex>1</groupindex>
            </link>
            <itemhistory>
              <uuid>2BC85485-3815-6BB2-3513-545621CC14DA</uuid>
            </itemhistory>
          </clipitem>
          <clipitem id="y2mate.com - camera_shutter_sound_effect_hd_q3VVxbJa61Q 30">
            <name>y2mate.com - camera_shutter_sound_effect_hd_q3VVxbJa61Q</name>
            <duration>451</duration>
            <rate>
              <ntsc>FALSE</ntsc>
              <timebase>25</timebase>
            </rate>
            <in>197</in>
            <out>212</out>
            <start>4065</start>
            <end>4080</end>
            <file id="y2mate.com - camera_shutter_sound_effect_hd_q3VVxbJa61Q 31">
              <name>y2mate.com - camera_shutter_sound_effect_hd_q3VVxbJa61Q.mp3</name>
              <pathurl>file://localhost/C:/Users/usuario/Dropbox%20(BigBangBoxSL)/PROYECTOS/My%20preschool%20monster%20serie/PRODUCCION/Story/EPISODIOS/FOTOS/XML/y2mate.com%20-%20camera_shutter_sound_effect_hd_q3VVxbJa61Q.mp3</pathurl>
              <rate>
                <timebase>25</timebase>
              </rate>
              <duration>451</duration>
              <media>
                <audio>
                  <samplecharacteristics>
                    <samplerate>44100</samplerate>
                    <depth>16</depth>
                  </samplecharacteristics>
                  <channelcount>2</channelcount>
                  <layout>stereo</layout>
                  <audiochannel>
                    <sourcechannel>1</sourcechannel>
                    <channellabel>left</channellabel>
                  </audiochannel>
                  <audiochannel>
                    <sourcechannel>2</sourcechannel>
                    <channellabel>right</channellabel>
                  </audiochannel>
                </audio>
              </media>
            </file>
            <sourcetrack>
              <mediatype>audio</mediatype>
              <trackindex>1</trackindex>
            </sourcetrack>
            <link>
              <linkclipref>y2mate.com - camera_shutter_sound_effect_hd_q3VVxbJa61Q 30</linkclipref>
              <mediatype>audio</mediatype>
              <trackindex>5</trackindex>
              <clipindex>16</clipindex>
              <groupindex>1</groupindex>
            </link>
            <link>
              <linkclipref>y2mate.com - camera_shutter_sound_effect_hd_q3VVxbJa61Q 32</linkclipref>
              <mediatype>audio</mediatype>
              <trackindex>6</trackindex>
              <clipindex>16</clipindex>
              <groupindex>1</groupindex>
            </link>
            <itemhistory>
              <uuid>206D39C5-44D0-76C4-6724-72045C137931</uuid>
            </itemhistory>
          </clipitem>
          <clipitem id="y2mate.com - camera_shutter_sound_effect_hd_q3VVxbJa61Q 33">
            <name>y2mate.com - camera_shutter_sound_effect_hd_q3VVxbJa61Q</name>
            <duration>451</duration>
            <rate>
              <ntsc>FALSE</ntsc>
              <timebase>25</timebase>
            </rate>
            <in>104</in>
            <out>138</out>
            <start>4138</start>
            <end>4172</end>
            <file id="y2mate.com - camera_shutter_sound_effect_hd_q3VVxbJa61Q 34">
              <name>y2mate.com - camera_shutter_sound_effect_hd_q3VVxbJa61Q.mp3</name>
              <pathurl>file://localhost/C:/Users/usuario/Dropbox%20(BigBangBoxSL)/PROYECTOS/My%20preschool%20monster%20serie/PRODUCCION/Story/EPISODIOS/FOTOS/XML/y2mate.com%20-%20camera_shutter_sound_effect_hd_q3VVxbJa61Q.mp3</pathurl>
              <rate>
                <timebase>25</timebase>
              </rate>
              <duration>451</duration>
              <media>
                <audio>
                  <samplecharacteristics>
                    <samplerate>44100</samplerate>
                    <depth>16</depth>
                  </samplecharacteristics>
                  <channelcount>2</channelcount>
                  <layout>stereo</layout>
                  <audiochannel>
                    <sourcechannel>1</sourcechannel>
                    <channellabel>left</channellabel>
                  </audiochannel>
                  <audiochannel>
                    <sourcechannel>2</sourcechannel>
                    <channellabel>right</channellabel>
                  </audiochannel>
                </audio>
              </media>
            </file>
            <sourcetrack>
              <mediatype>audio</mediatype>
              <trackindex>1</trackindex>
            </sourcetrack>
            <link>
              <linkclipref>y2mate.com - camera_shutter_sound_effect_hd_q3VVxbJa61Q 33</linkclipref>
              <mediatype>audio</mediatype>
              <trackindex>5</trackindex>
              <clipindex>17</clipindex>
              <groupindex>1</groupindex>
            </link>
            <link>
              <linkclipref>y2mate.com - camera_shutter_sound_effect_hd_q3VVxbJa61Q 35</linkclipref>
              <mediatype>audio</mediatype>
              <trackindex>6</trackindex>
              <clipindex>17</clipindex>
              <groupindex>1</groupindex>
            </link>
            <itemhistory>
              <uuid>73397D7E-7F09-3624-36BD-30E46B046356</uuid>
            </itemhistory>
          </clipitem>
          <clipitem id="y2mate.com - camera_shutter_sound_effect_hd_q3VVxbJa61Q 36">
            <name>y2mate.com - camera_shutter_sound_effect_hd_q3VVxbJa61Q</name>
            <duration>451</duration>
            <rate>
              <ntsc>FALSE</ntsc>
              <timebase>25</timebase>
            </rate>
            <in>197</in>
            <out>212</out>
            <start>4329</start>
            <end>4344</end>
            <file id="y2mate.com - camera_shutter_sound_effect_hd_q3VVxbJa61Q 37">
              <name>y2mate.com - camera_shutter_sound_effect_hd_q3VVxbJa61Q.mp3</name>
              <pathurl>file://localhost/C:/Users/usuario/Dropbox%20(BigBangBoxSL)/PROYECTOS/My%20preschool%20monster%20serie/PRODUCCION/Story/EPISODIOS/FOTOS/XML/y2mate.com%20-%20camera_shutter_sound_effect_hd_q3VVxbJa61Q.mp3</pathurl>
              <rate>
                <timebase>25</timebase>
              </rate>
              <duration>451</duration>
              <media>
                <audio>
                  <samplecharacteristics>
                    <samplerate>44100</samplerate>
                    <depth>16</depth>
                  </samplecharacteristics>
                  <channelcount>2</channelcount>
                  <layout>stereo</layout>
                  <audiochannel>
                    <sourcechannel>1</sourcechannel>
                    <channellabel>left</channellabel>
                  </audiochannel>
                  <audiochannel>
                    <sourcechannel>2</sourcechannel>
                    <channellabel>right</channellabel>
                  </audiochannel>
                </audio>
              </media>
            </file>
            <sourcetrack>
              <mediatype>audio</mediatype>
              <trackindex>1</trackindex>
            </sourcetrack>
            <link>
              <linkclipref>y2mate.com - camera_shutter_sound_effect_hd_q3VVxbJa61Q 36</linkclipref>
              <mediatype>audio</mediatype>
              <trackindex>5</trackindex>
              <clipindex>18</clipindex>
              <groupindex>1</groupindex>
            </link>
            <link>
              <linkclipref>y2mate.com - camera_shutter_sound_effect_hd_q3VVxbJa61Q 38</linkclipref>
              <mediatype>audio</mediatype>
              <trackindex>6</trackindex>
              <clipindex>18</clipindex>
              <groupindex>1</groupindex>
            </link>
            <itemhistory>
              <uuid>53221505-21DF-3E51-4ECE-6FE0541C6870</uuid>
            </itemhistory>
          </clipitem>
          <clipitem id="y2mate.com - camera_shutter_sound_effect_hd_q3VVxbJa61Q 39">
            <name>y2mate.com - camera_shutter_sound_effect_hd_q3VVxbJa61Q</name>
            <duration>451</duration>
            <rate>
              <ntsc>FALSE</ntsc>
              <timebase>25</timebase>
            </rate>
            <in>104</in>
            <out>138</out>
            <start>4349</start>
            <end>4383</end>
            <file id="y2mate.com - camera_shutter_sound_effect_hd_q3VVxbJa61Q 40">
              <name>y2mate.com - camera_shutter_sound_effect_hd_q3VVxbJa61Q.mp3</name>
              <pathurl>file://localhost/C:/Users/usuario/Dropbox%20(BigBangBoxSL)/PROYECTOS/My%20preschool%20monster%20serie/PRODUCCION/Story/EPISODIOS/FOTOS/XML/y2mate.com%20-%20camera_shutter_sound_effect_hd_q3VVxbJa61Q.mp3</pathurl>
              <rate>
                <timebase>25</timebase>
              </rate>
              <duration>451</duration>
              <media>
                <audio>
                  <samplecharacteristics>
                    <samplerate>44100</samplerate>
                    <depth>16</depth>
                  </samplecharacteristics>
                  <channelcount>2</channelcount>
                  <layout>stereo</layout>
                  <audiochannel>
                    <sourcechannel>1</sourcechannel>
                    <channellabel>left</channellabel>
                  </audiochannel>
                  <audiochannel>
                    <sourcechannel>2</sourcechannel>
                    <channellabel>right</channellabel>
                  </audiochannel>
                </audio>
              </media>
            </file>
            <sourcetrack>
              <mediatype>audio</mediatype>
              <trackindex>1</trackindex>
            </sourcetrack>
            <link>
              <linkclipref>y2mate.com - camera_shutter_sound_effect_hd_q3VVxbJa61Q 39</linkclipref>
              <mediatype>audio</mediatype>
              <trackindex>5</trackindex>
              <clipindex>19</clipindex>
              <groupindex>1</groupindex>
            </link>
            <link>
              <linkclipref>y2mate.com - camera_shutter_sound_effect_hd_q3VVxbJa61Q 41</linkclipref>
              <mediatype>audio</mediatype>
              <trackindex>6</trackindex>
              <clipindex>19</clipindex>
              <groupindex>1</groupindex>
            </link>
            <itemhistory>
              <uuid>7B267772-1564-7513-398B-0447FE5C64CD</uuid>
            </itemhistory>
          </clipitem>
          <clipitem id="y2mate.com - camera_shutter_sound_effect_hd_q3VVxbJa61Q 42">
            <name>y2mate.com - camera_shutter_sound_effect_hd_q3VVxbJa61Q</name>
            <duration>451</duration>
            <rate>
              <ntsc>FALSE</ntsc>
              <timebase>25</timebase>
            </rate>
            <in>197</in>
            <out>212</out>
            <start>4779</start>
            <end>4794</end>
            <file id="y2mate.com - camera_shutter_sound_effect_hd_q3VVxbJa61Q 43">
              <name>y2mate.com - camera_shutter_sound_effect_hd_q3VVxbJa61Q.mp3</name>
              <pathurl>file://localhost/C:/Users/usuario/Dropbox%20(BigBangBoxSL)/PROYECTOS/My%20preschool%20monster%20serie/PRODUCCION/Story/EPISODIOS/FOTOS/XML/y2mate.com%20-%20camera_shutter_sound_effect_hd_q3VVxbJa61Q.mp3</pathurl>
              <rate>
                <timebase>25</timebase>
              </rate>
              <duration>451</duration>
              <media>
                <audio>
                  <samplecharacteristics>
                    <samplerate>44100</samplerate>
                    <depth>16</depth>
                  </samplecharacteristics>
                  <channelcount>2</channelcount>
                  <layout>stereo</layout>
                  <audiochannel>
                    <sourcechannel>1</sourcechannel>
                    <channellabel>left</channellabel>
                  </audiochannel>
                  <audiochannel>
                    <sourcechannel>2</sourcechannel>
                    <channellabel>right</channellabel>
                  </audiochannel>
                </audio>
              </media>
            </file>
            <sourcetrack>
              <mediatype>audio</mediatype>
              <trackindex>1</trackindex>
            </sourcetrack>
            <link>
              <linkclipref>y2mate.com - camera_shutter_sound_effect_hd_q3VVxbJa61Q 42</linkclipref>
              <mediatype>audio</mediatype>
              <trackindex>5</trackindex>
              <clipindex>20</clipindex>
              <groupindex>1</groupindex>
            </link>
            <link>
              <linkclipref>y2mate.com - camera_shutter_sound_effect_hd_q3VVxbJa61Q 44</linkclipref>
              <mediatype>audio</mediatype>
              <trackindex>6</trackindex>
              <clipindex>20</clipindex>
              <groupindex>1</groupindex>
            </link>
            <itemhistory>
              <uuid>7A1D61EF-24BF-293A-3475-34C7754A5CAD</uuid>
            </itemhistory>
          </clipitem>
          <clipitem id="y2mate.com - camera_shutter_sound_effect_hd_q3VVxbJa61Q 45">
            <name>y2mate.com - camera_shutter_sound_effect_hd_q3VVxbJa61Q</name>
            <duration>451</duration>
            <rate>
              <ntsc>FALSE</ntsc>
              <timebase>25</timebase>
            </rate>
            <in>104</in>
            <out>123</out>
            <start>4794</start>
            <end>4813</end>
            <file id="y2mate.com - camera_shutter_sound_effect_hd_q3VVxbJa61Q 46">
              <name>y2mate.com - camera_shutter_sound_effect_hd_q3VVxbJa61Q.mp3</name>
              <pathurl>file://localhost/C:/Users/usuario/Dropbox%20(BigBangBoxSL)/PROYECTOS/My%20preschool%20monster%20serie/PRODUCCION/Story/EPISODIOS/FOTOS/XML/y2mate.com%20-%20camera_shutter_sound_effect_hd_q3VVxbJa61Q.mp3</pathurl>
              <rate>
                <timebase>25</timebase>
              </rate>
              <duration>451</duration>
              <media>
                <audio>
                  <samplecharacteristics>
                    <samplerate>44100</samplerate>
                    <depth>16</depth>
                  </samplecharacteristics>
                  <channelcount>2</channelcount>
                  <layout>stereo</layout>
                  <audiochannel>
                    <sourcechannel>1</sourcechannel>
                    <channellabel>left</channellabel>
                  </audiochannel>
                  <audiochannel>
                    <sourcechannel>2</sourcechannel>
                    <channellabel>right</channellabel>
                  </audiochannel>
                </audio>
              </media>
            </file>
            <sourcetrack>
              <mediatype>audio</mediatype>
              <trackindex>1</trackindex>
            </sourcetrack>
            <link>
              <linkclipref>y2mate.com - camera_shutter_sound_effect_hd_q3VVxbJa61Q 45</linkclipref>
              <mediatype>audio</mediatype>
              <trackindex>5</trackindex>
              <clipindex>21</clipindex>
              <groupindex>1</groupindex>
            </link>
            <link>
              <linkclipref>y2mate.com - camera_shutter_sound_effect_hd_q3VVxbJa61Q 47</linkclipref>
              <mediatype>audio</mediatype>
              <trackindex>6</trackindex>
              <clipindex>21</clipindex>
              <groupindex>1</groupindex>
            </link>
            <itemhistory>
              <uuid>281D7F66-57F9-103F-6096-73A6202A7E16</uuid>
            </itemhistory>
          </clipitem>
          <clipitem id="monsters_S01E45_lineal_V001 255">
            <name>monsters_S01E45_lineal_V001</name>
            <duration>6366</duration>
            <rate>
              <ntsc>FALSE</ntsc>
              <timebase>25</timebase>
            </rate>
            <in>5079</in>
            <out>5148</out>
            <start>5854</start>
            <end>5923</end>
            <file id="monsters_S01E45_lineal_V001 256">
              <name>monsters_S01E45_lineal_V001.aif</name>
              <pathurl>file://localhost/C:/Users/usuario/Dropbox%20(BigBangBoxSL)/PROYECTOS/My%20preschool%20monster%20serie/PRODUCCION/Story/EPISODIOS/FOTOS/XML/monsters_S01E45_lineal_V001.aif</pathurl>
              <rate>
                <timebase>25</timebase>
              </rate>
              <duration>6366</duration>
              <media>
                <audio>
                  <samplecharacteristics>
                    <samplerate>48000</samplerate>
                    <depth>16</depth>
                  </samplecharacteristics>
                  <channelcount>2</channelcount>
                  <layout>stereo</layout>
                  <audiochannel>
                    <sourcechannel>1</sourcechannel>
                    <channellabel>left</channellabel>
                  </audiochannel>
                  <audiochannel>
                    <sourcechannel>2</sourcechannel>
                    <channellabel>right</channellabel>
                  </audiochannel>
                </audio>
              </media>
            </file>
            <filter>
              <enabled>TRUE</enabled>
              <effect>
                <name>Audio Levels</name>
                <effectid>audiolevels</effectid>
                <effectcategory>audiolevels</effectcategory>
                <effecttype>audiolevels</effecttype>
                <mediatype>audio</mediatype>
                <parameter>
                  <name>Level</name>
                  <parameterid>level</parameterid>
                  <keyframe>
                    <when>5079.0000000000</when>
                    <value>1.1785700321</value>
                  </keyframe>
                  <keyframe>
                    <when>5139.7637524605</when>
                    <value>0.4642859995</value>
                  </keyframe>
                  <interpolation>
                    <name>FCPCurve</name>
                  </interpolation>
                </parameter>
              </effect>
            </filter>
            <sourcetrack>
              <mediatype>audio</mediatype>
              <trackindex>1</trackindex>
            </sourcetrack>
            <link>
              <linkclipref>monsters_S01E45_lineal_V001 255</linkclipref>
              <mediatype>audio</mediatype>
              <trackindex>5</trackindex>
              <clipindex>22</clipindex>
              <groupindex>1</groupindex>
            </link>
            <link>
              <linkclipref>monsters_S01E45_lineal_V001 257</linkclipref>
              <mediatype>audio</mediatype>
              <trackindex>6</trackindex>
              <clipindex>22</clipindex>
              <groupindex>1</groupindex>
            </link>
            <itemhistory>
              <uuid>33CC4463-585A-25DC-66DB-295D473558E5</uuid>
            </itemhistory>
          </clipitem>
          <clipitem id="y2mate.com - camera_shutter_sound_effect_hd_q3VVxbJa61Q 48">
            <name>y2mate.com - camera_shutter_sound_effect_hd_q3VVxbJa61Q</name>
            <duration>451</duration>
            <rate>
              <ntsc>FALSE</ntsc>
              <timebase>25</timebase>
            </rate>
            <in>197</in>
            <out>212</out>
            <start>6208</start>
            <end>6223</end>
            <file id="y2mate.com - camera_shutter_sound_effect_hd_q3VVxbJa61Q 49">
              <name>y2mate.com - camera_shutter_sound_effect_hd_q3VVxbJa61Q.mp3</name>
              <pathurl>file://localhost/C:/Users/usuario/Dropbox%20(BigBangBoxSL)/PROYECTOS/My%20preschool%20monster%20serie/PRODUCCION/Story/EPISODIOS/FOTOS/XML/y2mate.com%20-%20camera_shutter_sound_effect_hd_q3VVxbJa61Q.mp3</pathurl>
              <rate>
                <timebase>25</timebase>
              </rate>
              <duration>451</duration>
              <media>
                <audio>
                  <samplecharacteristics>
                    <samplerate>44100</samplerate>
                    <depth>16</depth>
                  </samplecharacteristics>
                  <channelcount>2</channelcount>
                  <layout>stereo</layout>
                  <audiochannel>
                    <sourcechannel>1</sourcechannel>
                    <channellabel>left</channellabel>
                  </audiochannel>
                  <audiochannel>
                    <sourcechannel>2</sourcechannel>
                    <channellabel>right</channellabel>
                  </audiochannel>
                </audio>
              </media>
            </file>
            <sourcetrack>
              <mediatype>audio</mediatype>
              <trackindex>1</trackindex>
            </sourcetrack>
            <link>
              <linkclipref>y2mate.com - camera_shutter_sound_effect_hd_q3VVxbJa61Q 48</linkclipref>
              <mediatype>audio</mediatype>
              <trackindex>5</trackindex>
              <clipindex>23</clipindex>
              <groupindex>1</groupindex>
            </link>
            <link>
              <linkclipref>y2mate.com - camera_shutter_sound_effect_hd_q3VVxbJa61Q 50</linkclipref>
              <mediatype>audio</mediatype>
              <trackindex>6</trackindex>
              <clipindex>23</clipindex>
              <groupindex>1</groupindex>
            </link>
            <itemhistory>
              <uuid>79456BF8-5699-182E-6825-3C6579A94A13</uuid>
            </itemhistory>
          </clipitem>
        </track>
        <track>
          <clipitem id="y2mate.com - cricket_sound_effect_Olfg9KK_bmE 2">
            <name>y2mate.com - cricket_sound_effect_Olfg9KK_bmE</name>
            <duration>554</duration>
            <rate>
              <ntsc>FALSE</ntsc>
              <timebase>25</timebase>
            </rate>
            <in>7</in>
            <out>68</out>
            <start>608</start>
            <end>669</end>
            <file id="y2mate.com - cricket_sound_effect_Olfg9KK_bmE 1"/>
            <sourcetrack>
              <mediatype>audio</mediatype>
              <trackindex>2</trackindex>
            </sourcetrack>
            <link>
              <linkclipref>y2mate.com - cricket_sound_effect_Olfg9KK_bmE</linkclipref>
              <mediatype>audio</mediatype>
              <trackindex>5</trackindex>
              <clipindex>1</clipindex>
              <groupindex>1</groupindex>
            </link>
            <link>
              <linkclipref>y2mate.com - cricket_sound_effect_Olfg9KK_bmE 2</linkclipref>
              <mediatype>audio</mediatype>
              <trackindex>6</trackindex>
              <clipindex>1</clipindex>
              <groupindex>1</groupindex>
            </link>
            <itemhistory>
              <uuid>1B614AF2-475D-1415-5947-6E2759727FFD</uuid>
            </itemhistory>
          </clipitem>
          <clipitem id="monsters_S01E45_lineal_V001 248">
            <name>monsters_S01E45_lineal_V001</name>
            <duration>6366</duration>
            <rate>
              <ntsc>FALSE</ntsc>
              <timebase>25</timebase>
            </rate>
            <in>536</in>
            <out>547</out>
            <start>669</start>
            <end>680</end>
            <file id="monsters_S01E45_lineal_V001 247"/>
            <sourcetrack>
              <mediatype>audio</mediatype>
              <trackindex>2</trackindex>
            </sourcetrack>
            <link>
              <linkclipref>monsters_S01E45_lineal_V001 246</linkclipref>
              <mediatype>audio</mediatype>
              <trackindex>5</trackindex>
              <clipindex>2</clipindex>
              <groupindex>1</groupindex>
            </link>
            <link>
              <linkclipref>monsters_S01E45_lineal_V001 248</linkclipref>
              <mediatype>audio</mediatype>
              <trackindex>6</trackindex>
              <clipindex>2</clipindex>
              <groupindex>1</groupindex>
            </link>
            <itemhistory>
              <uuid>352A1597-5E28-50BE-4378-19D7330F399F</uuid>
            </itemhistory>
          </clipitem>
          <clipitem id="y2mate.com - camera_shutter_sound_effect_hd_q3VVxbJa61Q 2">
            <name>y2mate.com - camera_shutter_sound_effect_hd_q3VVxbJa61Q</name>
            <duration>451</duration>
            <rate>
              <ntsc>FALSE</ntsc>
              <timebase>25</timebase>
            </rate>
            <in>197</in>
            <out>212</out>
            <start>975</start>
            <end>990</end>
            <file id="y2mate.com - camera_shutter_sound_effect_hd_q3VVxbJa61Q 1"/>
            <sourcetrack>
              <mediatype>audio</mediatype>
              <trackindex>2</trackindex>
            </sourcetrack>
            <link>
              <linkclipref>y2mate.com - camera_shutter_sound_effect_hd_q3VVxbJa61Q</linkclipref>
              <mediatype>audio</mediatype>
              <trackindex>5</trackindex>
              <clipindex>3</clipindex>
              <groupindex>1</groupindex>
            </link>
            <link>
              <linkclipref>y2mate.com - camera_shutter_sound_effect_hd_q3VVxbJa61Q 2</linkclipref>
              <mediatype>audio</mediatype>
              <trackindex>6</trackindex>
              <clipindex>3</clipindex>
              <groupindex>1</groupindex>
            </link>
            <itemhistory>
              <uuid>6DF57C31-7CC7-7318-B437-5A6556664D17</uuid>
            </itemhistory>
          </clipitem>
          <clipitem id="y2mate.com - camera_shutter_sound_effect_hd_q3VVxbJa61Q 5">
            <name>y2mate.com - camera_shutter_sound_effect_hd_q3VVxbJa61Q</name>
            <duration>451</duration>
            <rate>
              <ntsc>FALSE</ntsc>
              <timebase>25</timebase>
            </rate>
            <in>104</in>
            <out>138</out>
            <start>1042</start>
            <end>1076</end>
            <file id="y2mate.com - camera_shutter_sound_effect_hd_q3VVxbJa61Q 4"/>
            <sourcetrack>
              <mediatype>audio</mediatype>
              <trackindex>2</trackindex>
            </sourcetrack>
            <link>
              <linkclipref>y2mate.com - camera_shutter_sound_effect_hd_q3VVxbJa61Q 3</linkclipref>
              <mediatype>audio</mediatype>
              <trackindex>5</trackindex>
              <clipindex>4</clipindex>
              <groupindex>1</groupindex>
            </link>
            <link>
              <linkclipref>y2mate.com - camera_shutter_sound_effect_hd_q3VVxbJa61Q 5</linkclipref>
              <mediatype>audio</mediatype>
              <trackindex>6</trackindex>
              <clipindex>4</clipindex>
              <groupindex>1</groupindex>
            </link>
            <itemhistory>
              <uuid>6A587ED0-46F3-5970-42E9-46D676C6278C</uuid>
            </itemhistory>
          </clipitem>
          <clipitem id="y2mate.com - cricket_sound_effect_Olfg9KK_bmE 5">
            <name>y2mate.com - cricket_sound_effect_Olfg9KK_bmE</name>
            <duration>554</duration>
            <rate>
              <ntsc>FALSE</ntsc>
              <timebase>25</timebase>
            </rate>
            <in>7</in>
            <out>68</out>
            <start>1753</start>
            <end>1814</end>
            <file id="y2mate.com - cricket_sound_effect_Olfg9KK_bmE 4"/>
            <sourcetrack>
              <mediatype>audio</mediatype>
              <trackindex>2</trackindex>
            </sourcetrack>
            <link>
              <linkclipref>y2mate.com - cricket_sound_effect_Olfg9KK_bmE 3</linkclipref>
              <mediatype>audio</mediatype>
              <trackindex>5</trackindex>
              <clipindex>5</clipindex>
              <groupindex>1</groupindex>
            </link>
            <link>
              <linkclipref>y2mate.com - cricket_sound_effect_Olfg9KK_bmE 5</linkclipref>
              <mediatype>audio</mediatype>
              <trackindex>6</trackindex>
              <clipindex>5</clipindex>
              <groupindex>1</groupindex>
            </link>
            <itemhistory>
              <uuid>63D32989-177E-5A14-14B4-3E245FE119AC</uuid>
            </itemhistory>
          </clipitem>
          <clipitem id="y2mate.com - camera_shutter_sound_effect_hd_q3VVxbJa61Q 8">
            <name>y2mate.com - camera_shutter_sound_effect_hd_q3VVxbJa61Q</name>
            <duration>451</duration>
            <rate>
              <ntsc>FALSE</ntsc>
              <timebase>25</timebase>
            </rate>
            <in>197</in>
            <out>212</out>
            <start>2748</start>
            <end>2763</end>
            <file id="y2mate.com - camera_shutter_sound_effect_hd_q3VVxbJa61Q 7"/>
            <sourcetrack>
              <mediatype>audio</mediatype>
              <trackindex>2</trackindex>
            </sourcetrack>
            <link>
              <linkclipref>y2mate.com - camera_shutter_sound_effect_hd_q3VVxbJa61Q 6</linkclipref>
              <mediatype>audio</mediatype>
              <trackindex>5</trackindex>
              <clipindex>6</clipindex>
              <groupindex>1</groupindex>
            </link>
            <link>
              <linkclipref>y2mate.com - camera_shutter_sound_effect_hd_q3VVxbJa61Q 8</linkclipref>
              <mediatype>audio</mediatype>
              <trackindex>6</trackindex>
              <clipindex>6</clipindex>
              <groupindex>1</groupindex>
            </link>
            <itemhistory>
              <uuid>6FD85759-54BE-3E0E-7168-6EF756F2425F</uuid>
            </itemhistory>
          </clipitem>
          <clipitem id="y2mate.com - camera_shutter_sound_effect_hd_q3VVxbJa61Q 11">
            <name>y2mate.com - camera_shutter_sound_effect_hd_q3VVxbJa61Q</name>
            <duration>451</duration>
            <rate>
              <ntsc>FALSE</ntsc>
              <timebase>25</timebase>
            </rate>
            <in>197</in>
            <out>212</out>
            <start>2799</start>
            <end>2814</end>
            <file id="y2mate.com - camera_shutter_sound_effect_hd_q3VVxbJa61Q 10"/>
            <sourcetrack>
              <mediatype>audio</mediatype>
              <trackindex>2</trackindex>
            </sourcetrack>
            <link>
              <linkclipref>y2mate.com - camera_shutter_sound_effect_hd_q3VVxbJa61Q 9</linkclipref>
              <mediatype>audio</mediatype>
              <trackindex>5</trackindex>
              <clipindex>7</clipindex>
              <groupindex>1</groupindex>
            </link>
            <link>
              <linkclipref>y2mate.com - camera_shutter_sound_effect_hd_q3VVxbJa61Q 11</linkclipref>
              <mediatype>audio</mediatype>
              <trackindex>6</trackindex>
              <clipindex>7</clipindex>
              <groupindex>1</groupindex>
            </link>
            <itemhistory>
              <uuid>233D66BD-25EE-4732-594F-6490ED4D690C</uuid>
            </itemhistory>
          </clipitem>
          <clipitem id="y2mate.com - camera_shutter_sound_effect_hd_q3VVxbJa61Q 14">
            <name>y2mate.com - camera_shutter_sound_effect_hd_q3VVxbJa61Q</name>
            <duration>451</duration>
            <rate>
              <ntsc>FALSE</ntsc>
              <timebase>25</timebase>
            </rate>
            <in>104</in>
            <out>138</out>
            <start>2852</start>
            <end>2886</end>
            <file id="y2mate.com - camera_shutter_sound_effect_hd_q3VVxbJa61Q 13"/>
            <sourcetrack>
              <mediatype>audio</mediatype>
              <trackindex>2</trackindex>
            </sourcetrack>
            <link>
              <linkclipref>y2mate.com - camera_shutter_sound_effect_hd_q3VVxbJa61Q 12</linkclipref>
              <mediatype>audio</mediatype>
              <trackindex>5</trackindex>
              <clipindex>8</clipindex>
              <groupindex>1</groupindex>
            </link>
            <link>
              <linkclipref>y2mate.com - camera_shutter_sound_effect_hd_q3VVxbJa61Q 14</linkclipref>
              <mediatype>audio</mediatype>
              <trackindex>6</trackindex>
              <clipindex>8</clipindex>
              <groupindex>1</groupindex>
            </link>
            <itemhistory>
              <uuid>45977D02-33AE-1EF3-538F-6759B3DF3218</uuid>
            </itemhistory>
          </clipitem>
          <clipitem id="y2mate.com - camera_shutter_sound_effect_hd_q3VVxbJa61Q 17">
            <name>y2mate.com - camera_shutter_sound_effect_hd_q3VVxbJa61Q</name>
            <duration>451</duration>
            <rate>
              <ntsc>FALSE</ntsc>
              <timebase>25</timebase>
            </rate>
            <in>197</in>
            <out>212</out>
            <start>3127</start>
            <end>3142</end>
            <file id="y2mate.com - camera_shutter_sound_effect_hd_q3VVxbJa61Q 16"/>
            <sourcetrack>
              <mediatype>audio</mediatype>
              <trackindex>2</trackindex>
            </sourcetrack>
            <link>
              <linkclipref>y2mate.com - camera_shutter_sound_effect_hd_q3VVxbJa61Q 15</linkclipref>
              <mediatype>audio</mediatype>
              <trackindex>5</trackindex>
              <clipindex>9</clipindex>
              <groupindex>1</groupindex>
            </link>
            <link>
              <linkclipref>y2mate.com - camera_shutter_sound_effect_hd_q3VVxbJa61Q 17</linkclipref>
              <mediatype>audio</mediatype>
              <trackindex>6</trackindex>
              <clipindex>9</clipindex>
              <groupindex>1</groupindex>
            </link>
            <itemhistory>
              <uuid>78247500-6555-1800-39B5-36FD31442EF7</uuid>
            </itemhistory>
          </clipitem>
          <clipitem id="y2mate.com - camera_shutter_sound_effect_hd_q3VVxbJa61Q 20">
            <name>y2mate.com - camera_shutter_sound_effect_hd_q3VVxbJa61Q</name>
            <duration>451</duration>
            <rate>
              <ntsc>FALSE</ntsc>
              <timebase>25</timebase>
            </rate>
            <in>197</in>
            <out>212</out>
            <start>3217</start>
            <end>3232</end>
            <file id="y2mate.com - camera_shutter_sound_effect_hd_q3VVxbJa61Q 19"/>
            <sourcetrack>
              <mediatype>audio</mediatype>
              <trackindex>2</trackindex>
            </sourcetrack>
            <link>
              <linkclipref>y2mate.com - camera_shutter_sound_effect_hd_q3VVxbJa61Q 18</linkclipref>
              <mediatype>audio</mediatype>
              <trackindex>5</trackindex>
              <clipindex>10</clipindex>
              <groupindex>1</groupindex>
            </link>
            <link>
              <linkclipref>y2mate.com - camera_shutter_sound_effect_hd_q3VVxbJa61Q 20</linkclipref>
              <mediatype>audio</mediatype>
              <trackindex>6</trackindex>
              <clipindex>10</clipindex>
              <groupindex>1</groupindex>
            </link>
            <itemhistory>
              <uuid>4A165525-73DB-5C62-181E-2D8749D169C5</uuid>
            </itemhistory>
          </clipitem>
          <clipitem id="y2mate.com - camera_shutter_sound_effect_hd_q3VVxbJa61Q 23">
            <name>y2mate.com - camera_shutter_sound_effect_hd_q3VVxbJa61Q</name>
            <duration>451</duration>
            <rate>
              <ntsc>FALSE</ntsc>
              <timebase>25</timebase>
            </rate>
            <in>197</in>
            <out>212</out>
            <start>3290</start>
            <end>3305</end>
            <file id="y2mate.com - camera_shutter_sound_effect_hd_q3VVxbJa61Q 22"/>
            <sourcetrack>
              <mediatype>audio</mediatype>
              <trackindex>2</trackindex>
            </sourcetrack>
            <link>
              <linkclipref>y2mate.com - camera_shutter_sound_effect_hd_q3VVxbJa61Q 21</linkclipref>
              <mediatype>audio</mediatype>
              <trackindex>5</trackindex>
              <clipindex>11</clipindex>
              <groupindex>1</groupindex>
            </link>
            <link>
              <linkclipref>y2mate.com - camera_shutter_sound_effect_hd_q3VVxbJa61Q 23</linkclipref>
              <mediatype>audio</mediatype>
              <trackindex>6</trackindex>
              <clipindex>11</clipindex>
              <groupindex>1</groupindex>
            </link>
            <itemhistory>
              <uuid>40E27DCE-2AA3-51D4-36AE-1FA67E476467</uuid>
            </itemhistory>
          </clipitem>
          <clipitem id="y2mate.com - camera_shutter_sound_effect_hd_q3VVxbJa61Q 26">
            <name>y2mate.com - camera_shutter_sound_effect_hd_q3VVxbJa61Q</name>
            <duration>451</duration>
            <rate>
              <ntsc>FALSE</ntsc>
              <timebase>25</timebase>
            </rate>
            <in>197</in>
            <out>212</out>
            <start>3478</start>
            <end>3493</end>
            <file id="y2mate.com - camera_shutter_sound_effect_hd_q3VVxbJa61Q 25"/>
            <sourcetrack>
              <mediatype>audio</mediatype>
              <trackindex>2</trackindex>
            </sourcetrack>
            <link>
              <linkclipref>y2mate.com - camera_shutter_sound_effect_hd_q3VVxbJa61Q 24</linkclipref>
              <mediatype>audio</mediatype>
              <trackindex>5</trackindex>
              <clipindex>12</clipindex>
              <groupindex>1</groupindex>
            </link>
            <link>
              <linkclipref>y2mate.com - camera_shutter_sound_effect_hd_q3VVxbJa61Q 26</linkclipref>
              <mediatype>audio</mediatype>
              <trackindex>6</trackindex>
              <clipindex>12</clipindex>
              <groupindex>1</groupindex>
            </link>
            <itemhistory>
              <uuid>42081F00-40AF-3A2B-1C48-62FE4EC82BCC</uuid>
            </itemhistory>
          </clipitem>
          <clipitem id="y2mate.com - camera_shutter_sound_effect_hd_q3VVxbJa61Q 29">
            <name>y2mate.com - camera_shutter_sound_effect_hd_q3VVxbJa61Q</name>
            <duration>451</duration>
            <rate>
              <ntsc>FALSE</ntsc>
              <timebase>25</timebase>
            </rate>
            <in>104</in>
            <out>138</out>
            <start>3522</start>
            <end>3556</end>
            <file id="y2mate.com - camera_shutter_sound_effect_hd_q3VVxbJa61Q 28"/>
            <sourcetrack>
              <mediatype>audio</mediatype>
              <trackindex>2</trackindex>
            </sourcetrack>
            <link>
              <linkclipref>y2mate.com - camera_shutter_sound_effect_hd_q3VVxbJa61Q 27</linkclipref>
              <mediatype>audio</mediatype>
              <trackindex>5</trackindex>
              <clipindex>13</clipindex>
              <groupindex>1</groupindex>
            </link>
            <link>
              <linkclipref>y2mate.com - camera_shutter_sound_effect_hd_q3VVxbJa61Q 29</linkclipref>
              <mediatype>audio</mediatype>
              <trackindex>6</trackindex>
              <clipindex>13</clipindex>
              <groupindex>1</groupindex>
            </link>
            <itemhistory>
              <uuid>7CE66AA7-46F9-4103-1CB3-45FD348626DD</uuid>
            </itemhistory>
          </clipitem>
          <clipitem id="monsters_S01E45_lineal_V001 251">
            <name>monsters_S01E45_lineal_V001</name>
            <duration>6366</duration>
            <rate>
              <ntsc>FALSE</ntsc>
              <timebase>25</timebase>
            </rate>
            <in>3059</in>
            <out>3093</out>
            <start>3684</start>
            <end>3718</end>
            <file id="monsters_S01E45_lineal_V001 250"/>
            <sourcetrack>
              <mediatype>audio</mediatype>
              <trackindex>2</trackindex>
            </sourcetrack>
            <link>
              <linkclipref>monsters_S01E45_lineal_V001 249</linkclipref>
              <mediatype>audio</mediatype>
              <trackindex>5</trackindex>
              <clipindex>14</clipindex>
              <groupindex>1</groupindex>
            </link>
            <link>
              <linkclipref>monsters_S01E45_lineal_V001 251</linkclipref>
              <mediatype>audio</mediatype>
              <trackindex>6</trackindex>
              <clipindex>14</clipindex>
              <groupindex>1</groupindex>
            </link>
            <itemhistory>
              <uuid>77133D5A-299A-7129-4203-7DF94CB52B1C</uuid>
            </itemhistory>
          </clipitem>
          <clipitem id="monsters_S01E45_lineal_V001 254">
            <name>monsters_S01E45_lineal_V001</name>
            <duration>6366</duration>
            <rate>
              <ntsc>FALSE</ntsc>
              <timebase>25</timebase>
            </rate>
            <in>3282</in>
            <out>3331</out>
            <start>3827</start>
            <end>3876</end>
            <file id="monsters_S01E45_lineal_V001 253"/>
            <sourcetrack>
              <mediatype>audio</mediatype>
              <trackindex>2</trackindex>
            </sourcetrack>
            <link>
              <linkclipref>monsters_S01E45_lineal_V001 252</linkclipref>
              <mediatype>audio</mediatype>
              <trackindex>5</trackindex>
              <clipindex>15</clipindex>
              <groupindex>1</groupindex>
            </link>
            <link>
              <linkclipref>monsters_S01E45_lineal_V001 254</linkclipref>
              <mediatype>audio</mediatype>
              <trackindex>6</trackindex>
              <clipindex>15</clipindex>
              <groupindex>1</groupindex>
            </link>
            <itemhistory>
              <uuid>15EB4729-1325-40C7-47AC-59243C9225D1</uuid>
            </itemhistory>
          </clipitem>
          <clipitem id="y2mate.com - camera_shutter_sound_effect_hd_q3VVxbJa61Q 32">
            <name>y2mate.com - camera_shutter_sound_effect_hd_q3VVxbJa61Q</name>
            <duration>451</duration>
            <rate>
              <ntsc>FALSE</ntsc>
              <timebase>25</timebase>
            </rate>
            <in>197</in>
            <out>212</out>
            <start>4065</start>
            <end>4080</end>
            <file id="y2mate.com - camera_shutter_sound_effect_hd_q3VVxbJa61Q 31"/>
            <sourcetrack>
              <mediatype>audio</mediatype>
              <trackindex>2</trackindex>
            </sourcetrack>
            <link>
              <linkclipref>y2mate.com - camera_shutter_sound_effect_hd_q3VVxbJa61Q 30</linkclipref>
              <mediatype>audio</mediatype>
              <trackindex>5</trackindex>
              <clipindex>16</clipindex>
              <groupindex>1</groupindex>
            </link>
            <link>
              <linkclipref>y2mate.com - camera_shutter_sound_effect_hd_q3VVxbJa61Q 32</linkclipref>
              <mediatype>audio</mediatype>
              <trackindex>6</trackindex>
              <clipindex>16</clipindex>
              <groupindex>1</groupindex>
            </link>
            <itemhistory>
              <uuid>40A7578F-46EF-7706-4CCD-03A89621729D</uuid>
            </itemhistory>
          </clipitem>
          <clipitem id="y2mate.com - camera_shutter_sound_effect_hd_q3VVxbJa61Q 35">
            <name>y2mate.com - camera_shutter_sound_effect_hd_q3VVxbJa61Q</name>
            <duration>451</duration>
            <rate>
              <ntsc>FALSE</ntsc>
              <timebase>25</timebase>
            </rate>
            <in>104</in>
            <out>138</out>
            <start>4138</start>
            <end>4172</end>
            <file id="y2mate.com - camera_shutter_sound_effect_hd_q3VVxbJa61Q 34"/>
            <sourcetrack>
              <mediatype>audio</mediatype>
              <trackindex>2</trackindex>
            </sourcetrack>
            <link>
              <linkclipref>y2mate.com - camera_shutter_sound_effect_hd_q3VVxbJa61Q 33</linkclipref>
              <mediatype>audio</mediatype>
              <trackindex>5</trackindex>
              <clipindex>17</clipindex>
              <groupindex>1</groupindex>
            </link>
            <link>
              <linkclipref>y2mate.com - camera_shutter_sound_effect_hd_q3VVxbJa61Q 35</linkclipref>
              <mediatype>audio</mediatype>
              <trackindex>6</trackindex>
              <clipindex>17</clipindex>
              <groupindex>1</groupindex>
            </link>
            <itemhistory>
              <uuid>F6BB4600-3E5D-7F73-73A8-686D6E1133EF</uuid>
            </itemhistory>
          </clipitem>
          <clipitem id="y2mate.com - camera_shutter_sound_effect_hd_q3VVxbJa61Q 38">
            <name>y2mate.com - camera_shutter_sound_effect_hd_q3VVxbJa61Q</name>
            <duration>451</duration>
            <rate>
              <ntsc>FALSE</ntsc>
              <timebase>25</timebase>
            </rate>
            <in>197</in>
            <out>212</out>
            <start>4329</start>
            <end>4344</end>
            <file id="y2mate.com - camera_shutter_sound_effect_hd_q3VVxbJa61Q 37"/>
            <sourcetrack>
              <mediatype>audio</mediatype>
              <trackindex>2</trackindex>
            </sourcetrack>
            <link>
              <linkclipref>y2mate.com - camera_shutter_sound_effect_hd_q3VVxbJa61Q 36</linkclipref>
              <mediatype>audio</mediatype>
              <trackindex>5</trackindex>
              <clipindex>18</clipindex>
              <groupindex>1</groupindex>
            </link>
            <link>
              <linkclipref>y2mate.com - camera_shutter_sound_effect_hd_q3VVxbJa61Q 38</linkclipref>
              <mediatype>audio</mediatype>
              <trackindex>6</trackindex>
              <clipindex>18</clipindex>
              <groupindex>1</groupindex>
            </link>
            <itemhistory>
              <uuid>247D43E8-5452-59AE-7294-0EE27F6A1ADD</uuid>
            </itemhistory>
          </clipitem>
          <clipitem id="y2mate.com - camera_shutter_sound_effect_hd_q3VVxbJa61Q 41">
            <name>y2mate.com - camera_shutter_sound_effect_hd_q3VVxbJa61Q</name>
            <duration>451</duration>
            <rate>
              <ntsc>FALSE</ntsc>
              <timebase>25</timebase>
            </rate>
            <in>104</in>
            <out>138</out>
            <start>4349</start>
            <end>4383</end>
            <file id="y2mate.com - camera_shutter_sound_effect_hd_q3VVxbJa61Q 40"/>
            <sourcetrack>
              <mediatype>audio</mediatype>
              <trackindex>2</trackindex>
            </sourcetrack>
            <link>
              <linkclipref>y2mate.com - camera_shutter_sound_effect_hd_q3VVxbJa61Q 39</linkclipref>
              <mediatype>audio</mediatype>
              <trackindex>5</trackindex>
              <clipindex>19</clipindex>
              <groupindex>1</groupindex>
            </link>
            <link>
              <linkclipref>y2mate.com - camera_shutter_sound_effect_hd_q3VVxbJa61Q 41</linkclipref>
              <mediatype>audio</mediatype>
              <trackindex>6</trackindex>
              <clipindex>19</clipindex>
              <groupindex>1</groupindex>
            </link>
            <itemhistory>
              <uuid>7A5947F5-4708-7E59-6220-33CC1B286BDA</uuid>
            </itemhistory>
          </clipitem>
          <clipitem id="y2mate.com - camera_shutter_sound_effect_hd_q3VVxbJa61Q 44">
            <name>y2mate.com - camera_shutter_sound_effect_hd_q3VVxbJa61Q</name>
            <duration>451</duration>
            <rate>
              <ntsc>FALSE</ntsc>
              <timebase>25</timebase>
            </rate>
            <in>197</in>
            <out>212</out>
            <start>4779</start>
            <end>4794</end>
            <file id="y2mate.com - camera_shutter_sound_effect_hd_q3VVxbJa61Q 43"/>
            <sourcetrack>
              <mediatype>audio</mediatype>
              <trackindex>2</trackindex>
            </sourcetrack>
            <link>
              <linkclipref>y2mate.com - camera_shutter_sound_effect_hd_q3VVxbJa61Q 42</linkclipref>
              <mediatype>audio</mediatype>
              <trackindex>5</trackindex>
              <clipindex>20</clipindex>
              <groupindex>1</groupindex>
            </link>
            <link>
              <linkclipref>y2mate.com - camera_shutter_sound_effect_hd_q3VVxbJa61Q 44</linkclipref>
              <mediatype>audio</mediatype>
              <trackindex>6</trackindex>
              <clipindex>20</clipindex>
              <groupindex>1</groupindex>
            </link>
            <itemhistory>
              <uuid>46331C26-1B2E-690E-7B5B-46383252450C</uuid>
            </itemhistory>
          </clipitem>
          <clipitem id="y2mate.com - camera_shutter_sound_effect_hd_q3VVxbJa61Q 47">
            <name>y2mate.com - camera_shutter_sound_effect_hd_q3VVxbJa61Q</name>
            <duration>451</duration>
            <rate>
              <ntsc>FALSE</ntsc>
              <timebase>25</timebase>
            </rate>
            <in>104</in>
            <out>123</out>
            <start>4794</start>
            <end>4813</end>
            <file id="y2mate.com - camera_shutter_sound_effect_hd_q3VVxbJa61Q 46"/>
            <sourcetrack>
              <mediatype>audio</mediatype>
              <trackindex>2</trackindex>
            </sourcetrack>
            <link>
              <linkclipref>y2mate.com - camera_shutter_sound_effect_hd_q3VVxbJa61Q 45</linkclipref>
              <mediatype>audio</mediatype>
              <trackindex>5</trackindex>
              <clipindex>21</clipindex>
              <groupindex>1</groupindex>
            </link>
            <link>
              <linkclipref>y2mate.com - camera_shutter_sound_effect_hd_q3VVxbJa61Q 47</linkclipref>
              <mediatype>audio</mediatype>
              <trackindex>6</trackindex>
              <clipindex>21</clipindex>
              <groupindex>1</groupindex>
            </link>
            <itemhistory>
              <uuid>501C6F8C-5A4D-4F65-50F5-BB5637923DE9</uuid>
            </itemhistory>
          </clipitem>
          <clipitem id="monsters_S01E45_lineal_V001 257">
            <name>monsters_S01E45_lineal_V001</name>
            <duration>6366</duration>
            <rate>
              <ntsc>FALSE</ntsc>
              <timebase>25</timebase>
            </rate>
            <in>5079</in>
            <out>5148</out>
            <start>5854</start>
            <end>5923</end>
            <file id="monsters_S01E45_lineal_V001 256"/>
            <sourcetrack>
              <mediatype>audio</mediatype>
              <trackindex>2</trackindex>
            </sourcetrack>
            <link>
              <linkclipref>monsters_S01E45_lineal_V001 255</linkclipref>
              <mediatype>audio</mediatype>
              <trackindex>5</trackindex>
              <clipindex>22</clipindex>
              <groupindex>1</groupindex>
            </link>
            <link>
              <linkclipref>monsters_S01E45_lineal_V001 257</linkclipref>
              <mediatype>audio</mediatype>
              <trackindex>6</trackindex>
              <clipindex>22</clipindex>
              <groupindex>1</groupindex>
            </link>
            <itemhistory>
              <uuid>166A5F73-3004-56FD-73AB-63A07E001288</uuid>
            </itemhistory>
          </clipitem>
          <clipitem id="y2mate.com - camera_shutter_sound_effect_hd_q3VVxbJa61Q 50">
            <name>y2mate.com - camera_shutter_sound_effect_hd_q3VVxbJa61Q</name>
            <duration>451</duration>
            <rate>
              <ntsc>FALSE</ntsc>
              <timebase>25</timebase>
            </rate>
            <in>197</in>
            <out>212</out>
            <start>6208</start>
            <end>6223</end>
            <file id="y2mate.com - camera_shutter_sound_effect_hd_q3VVxbJa61Q 49"/>
            <sourcetrack>
              <mediatype>audio</mediatype>
              <trackindex>2</trackindex>
            </sourcetrack>
            <link>
              <linkclipref>y2mate.com - camera_shutter_sound_effect_hd_q3VVxbJa61Q 48</linkclipref>
              <mediatype>audio</mediatype>
              <trackindex>5</trackindex>
              <clipindex>23</clipindex>
              <groupindex>1</groupindex>
            </link>
            <link>
              <linkclipref>y2mate.com - camera_shutter_sound_effect_hd_q3VVxbJa61Q 50</linkclipref>
              <mediatype>audio</mediatype>
              <trackindex>6</trackindex>
              <clipindex>23</clipindex>
              <groupindex>1</groupindex>
            </link>
            <itemhistory>
              <uuid>4AAD1137-7142-36A2-3EB7-5D982D991BB5</uuid>
            </itemhistory>
          </clipitem>
        </track>
        <track>
          <clipitem id="y2mate.com - camera_shutter_sound_effect_hd_q3VVxbJa61Q 51">
            <name>y2mate.com - camera_shutter_sound_effect_hd_q3VVxbJa61Q</name>
            <duration>451</duration>
            <rate>
              <ntsc>FALSE</ntsc>
              <timebase>25</timebase>
            </rate>
            <in>104</in>
            <out>128</out>
            <start>3146</start>
            <end>3170</end>
            <file id="y2mate.com - camera_shutter_sound_effect_hd_q3VVxbJa61Q 52">
              <name>y2mate.com - camera_shutter_sound_effect_hd_q3VVxbJa61Q.mp3</name>
              <pathurl>file://localhost/C:/Users/usuario/Dropbox%20(BigBangBoxSL)/PROYECTOS/My%20preschool%20monster%20serie/PRODUCCION/Story/EPISODIOS/FOTOS/XML/y2mate.com%20-%20camera_shutter_sound_effect_hd_q3VVxbJa61Q.mp3</pathurl>
              <rate>
                <timebase>25</timebase>
              </rate>
              <duration>451</duration>
              <media>
                <audio>
                  <samplecharacteristics>
                    <samplerate>44100</samplerate>
                    <depth>16</depth>
                  </samplecharacteristics>
                  <channelcount>2</channelcount>
                  <layout>stereo</layout>
                  <audiochannel>
                    <sourcechannel>1</sourcechannel>
                    <channellabel>left</channellabel>
                  </audiochannel>
                  <audiochannel>
                    <sourcechannel>2</sourcechannel>
                    <channellabel>right</channellabel>
                  </audiochannel>
                </audio>
              </media>
            </file>
            <filter>
              <enabled>TRUE</enabled>
              <effect>
                <name>Audio Levels</name>
                <effectid>audiolevels</effectid>
                <effectcategory>audiolevels</effectcategory>
                <effecttype>audiolevels</effecttype>
                <mediatype>audio</mediatype>
                <parameter>
                  <name>Level</name>
                  <parameterid>level</parameterid>
                  <keyframe>
                    <when>104.9764350019</when>
                    <value>0.4642859995</value>
                  </keyframe>
                  <keyframe>
                    <when>127.2423245907</when>
                    <value>0.4642859995</value>
                  </keyframe>
                  <interpolation>
                    <name>FCPCurve</name>
                  </interpolation>
                </parameter>
              </effect>
            </filter>
            <sourcetrack>
              <mediatype>audio</mediatype>
              <trackindex>1</trackindex>
            </sourcetrack>
            <link>
              <linkclipref>y2mate.com - camera_shutter_sound_effect_hd_q3VVxbJa61Q 51</linkclipref>
              <mediatype>audio</mediatype>
              <trackindex>7</trackindex>
              <clipindex>1</clipindex>
              <groupindex>1</groupindex>
            </link>
            <link>
              <linkclipref>y2mate.com - camera_shutter_sound_effect_hd_q3VVxbJa61Q 53</linkclipref>
              <mediatype>audio</mediatype>
              <trackindex>8</trackindex>
              <clipindex>1</clipindex>
              <groupindex>1</groupindex>
            </link>
            <itemhistory>
              <uuid>657C4032-24E1-6C7B-2D2F-532EA45F5960</uuid>
            </itemhistory>
          </clipitem>
          <clipitem id="y2mate.com - camera_shutter_sound_effect_hd_q3VVxbJa61Q 54">
            <name>y2mate.com - camera_shutter_sound_effect_hd_q3VVxbJa61Q</name>
            <duration>451</duration>
            <rate>
              <ntsc>FALSE</ntsc>
              <timebase>25</timebase>
            </rate>
            <in>104</in>
            <out>128</out>
            <start>3237</start>
            <end>3261</end>
            <file id="y2mate.com - camera_shutter_sound_effect_hd_q3VVxbJa61Q 55">
              <name>y2mate.com - camera_shutter_sound_effect_hd_q3VVxbJa61Q.mp3</name>
              <pathurl>file://localhost/C:/Users/usuario/Dropbox%20(BigBangBoxSL)/PROYECTOS/My%20preschool%20monster%20serie/PRODUCCION/Story/EPISODIOS/FOTOS/XML/y2mate.com%20-%20camera_shutter_sound_effect_hd_q3VVxbJa61Q.mp3</pathurl>
              <rate>
                <timebase>25</timebase>
              </rate>
              <duration>451</duration>
              <media>
                <audio>
                  <samplecharacteristics>
                    <samplerate>44100</samplerate>
                    <depth>16</depth>
                  </samplecharacteristics>
                  <channelcount>2</channelcount>
                  <layout>stereo</layout>
                  <audiochannel>
                    <sourcechannel>1</sourcechannel>
                    <channellabel>left</channellabel>
                  </audiochannel>
                  <audiochannel>
                    <sourcechannel>2</sourcechannel>
                    <channellabel>right</channellabel>
                  </audiochannel>
                </audio>
              </media>
            </file>
            <filter>
              <enabled>TRUE</enabled>
              <effect>
                <name>Audio Levels</name>
                <effectid>audiolevels</effectid>
                <effectcategory>audiolevels</effectcategory>
                <effecttype>audiolevels</effecttype>
                <mediatype>audio</mediatype>
                <parameter>
                  <name>Level</name>
                  <parameterid>level</parameterid>
                  <keyframe>
                    <when>104.9764350019</when>
                    <value>0.4642859995</value>
                  </keyframe>
                  <keyframe>
                    <when>127.2423245907</when>
                    <value>0.4642859995</value>
                  </keyframe>
                  <interpolation>
                    <name>FCPCurve</name>
                  </interpolation>
                </parameter>
              </effect>
            </filter>
            <sourcetrack>
              <mediatype>audio</mediatype>
              <trackindex>1</trackindex>
            </sourcetrack>
            <link>
              <linkclipref>y2mate.com - camera_shutter_sound_effect_hd_q3VVxbJa61Q 54</linkclipref>
              <mediatype>audio</mediatype>
              <trackindex>7</trackindex>
              <clipindex>2</clipindex>
              <groupindex>1</groupindex>
            </link>
            <link>
              <linkclipref>y2mate.com - camera_shutter_sound_effect_hd_q3VVxbJa61Q 56</linkclipref>
              <mediatype>audio</mediatype>
              <trackindex>8</trackindex>
              <clipindex>2</clipindex>
              <groupindex>1</groupindex>
            </link>
            <itemhistory>
              <uuid>4D02589B-2B02-5846-4C1B-3ADB392718AB</uuid>
            </itemhistory>
          </clipitem>
          <clipitem id="y2mate.com - camera_shutter_sound_effect_hd_q3VVxbJa61Q 57">
            <name>y2mate.com - camera_shutter_sound_effect_hd_q3VVxbJa61Q</name>
            <duration>451</duration>
            <rate>
              <ntsc>FALSE</ntsc>
              <timebase>25</timebase>
            </rate>
            <in>104</in>
            <out>128</out>
            <start>3315</start>
            <end>3339</end>
            <file id="y2mate.com - camera_shutter_sound_effect_hd_q3VVxbJa61Q 58">
              <name>y2mate.com - camera_shutter_sound_effect_hd_q3VVxbJa61Q.mp3</name>
              <pathurl>file://localhost/C:/Users/usuario/Dropbox%20(BigBangBoxSL)/PROYECTOS/My%20preschool%20monster%20serie/PRODUCCION/Story/EPISODIOS/FOTOS/XML/y2mate.com%20-%20camera_shutter_sound_effect_hd_q3VVxbJa61Q.mp3</pathurl>
              <rate>
                <timebase>25</timebase>
              </rate>
              <duration>451</duration>
              <media>
                <audio>
                  <samplecharacteristics>
                    <samplerate>44100</samplerate>
                    <depth>16</depth>
                  </samplecharacteristics>
                  <channelcount>2</channelcount>
                  <layout>stereo</layout>
                  <audiochannel>
                    <sourcechannel>1</sourcechannel>
                    <channellabel>left</channellabel>
                  </audiochannel>
                  <audiochannel>
                    <sourcechannel>2</sourcechannel>
                    <channellabel>right</channellabel>
                  </audiochannel>
                </audio>
              </media>
            </file>
            <filter>
              <enabled>TRUE</enabled>
              <effect>
                <name>Audio Levels</name>
                <effectid>audiolevels</effectid>
                <effectcategory>audiolevels</effectcategory>
                <effecttype>audiolevels</effecttype>
                <mediatype>audio</mediatype>
                <parameter>
                  <name>Level</name>
                  <parameterid>level</parameterid>
                  <keyframe>
                    <when>104.9764350019</when>
                    <value>0.4642859995</value>
                  </keyframe>
                  <keyframe>
                    <when>127.2423245907</when>
                    <value>0.4642859995</value>
                  </keyframe>
                  <interpolation>
                    <name>FCPCurve</name>
                  </interpolation>
                </parameter>
              </effect>
            </filter>
            <sourcetrack>
              <mediatype>audio</mediatype>
              <trackindex>1</trackindex>
            </sourcetrack>
            <link>
              <linkclipref>y2mate.com - camera_shutter_sound_effect_hd_q3VVxbJa61Q 57</linkclipref>
              <mediatype>audio</mediatype>
              <trackindex>7</trackindex>
              <clipindex>3</clipindex>
              <groupindex>1</groupindex>
            </link>
            <link>
              <linkclipref>y2mate.com - camera_shutter_sound_effect_hd_q3VVxbJa61Q 59</linkclipref>
              <mediatype>audio</mediatype>
              <trackindex>8</trackindex>
              <clipindex>3</clipindex>
              <groupindex>1</groupindex>
            </link>
            <itemhistory>
              <uuid>19F875E8-32A9-62EC-7751-4AAB41B14ACF</uuid>
            </itemhistory>
          </clipitem>
          <clipitem id="spy_music">
            <name>spy_music</name>
            <duration>658</duration>
            <rate>
              <ntsc>FALSE</ntsc>
              <timebase>25</timebase>
            </rate>
            <in>85</in>
            <out>196</out>
            <start>3371</start>
            <end>3482</end>
            <file id="spy_music 1">
              <name>spy_music.wav</name>
              <pathurl>file://localhost/C:/Users/usuario/Dropbox%20(BigBangBoxSL)/PROYECTOS/My%20preschool%20monster%20serie/PRODUCCION/Story/EPISODIOS/FOTOS/XML/spy_music.wav</pathurl>
              <rate>
                <timebase>25</timebase>
              </rate>
              <duration>658</duration>
              <media>
                <audio>
                  <samplecharacteristics>
                    <samplerate>44100</samplerate>
                    <depth>16</depth>
                  </samplecharacteristics>
                  <channelcount>2</channelcount>
                  <layout>stereo</layout>
                  <audiochannel>
                    <sourcechannel>1</sourcechannel>
                    <channellabel>left</channellabel>
                  </audiochannel>
                  <audiochannel>
                    <sourcechannel>2</sourcechannel>
                    <channellabel>right</channellabel>
                  </audiochannel>
                </audio>
              </media>
            </file>
            <filter>
              <enabled>TRUE</enabled>
              <effect>
                <name>Audio Levels</name>
                <effectid>audiolevels</effectid>
                <effectcategory>audiolevels</effectcategory>
                <effecttype>audiolevels</effecttype>
                <mediatype>audio</mediatype>
                <parameter>
                  <name>Level</name>
                  <parameterid>level</parameterid>
                  <keyframe>
                    <when>188.8192510605</when>
                    <value>1.0000000000</value>
                  </keyframe>
                  <keyframe>
                    <when>197.0000000000</when>
                    <value>0.0000000000</value>
                  </keyframe>
                  <interpolation>
                    <name>FCPCurve</name>
                  </interpolation>
                </parameter>
              </effect>
            </filter>
            <sourcetrack>
              <mediatype>audio</mediatype>
              <trackindex>1</trackindex>
            </sourcetrack>
            <link>
              <linkclipref>spy_music</linkclipref>
              <mediatype>audio</mediatype>
              <trackindex>7</trackindex>
              <clipindex>4</clipindex>
              <groupindex>1</groupindex>
            </link>
            <link>
              <linkclipref>spy_music 2</linkclipref>
              <mediatype>audio</mediatype>
              <trackindex>8</trackindex>
              <clipindex>4</clipindex>
              <groupindex>1</groupindex>
            </link>
            <itemhistory>
              <uuid>382736AE-57E9-1007-7591-326BF120B829</uuid>
            </itemhistory>
          </clipitem>
          <clipitem id="spy_music 3">
            <name>spy_music</name>
            <duration>658</duration>
            <rate>
              <ntsc>FALSE</ntsc>
              <timebase>25</timebase>
            </rate>
            <in>74</in>
            <out>154</out>
            <start>4702</start>
            <end>4782</end>
            <file id="spy_music 4">
              <name>spy_music.wav</name>
              <pathurl>file://localhost/C:/Users/usuario/Dropbox%20(BigBangBoxSL)/PROYECTOS/My%20preschool%20monster%20serie/PRODUCCION/Story/EPISODIOS/FOTOS/XML/spy_music.wav</pathurl>
              <rate>
                <timebase>25</timebase>
              </rate>
              <duration>658</duration>
              <media>
                <audio>
                  <samplecharacteristics>
                    <samplerate>44100</samplerate>
                    <depth>16</depth>
                  </samplecharacteristics>
                  <channelcount>2</channelcount>
                  <layout>stereo</layout>
                  <audiochannel>
                    <sourcechannel>1</sourcechannel>
                    <channellabel>left</channellabel>
                  </audiochannel>
                  <audiochannel>
                    <sourcechannel>2</sourcechannel>
                    <channellabel>right</channellabel>
                  </audiochannel>
                </audio>
              </media>
            </file>
            <sourcetrack>
              <mediatype>audio</mediatype>
              <trackindex>1</trackindex>
            </sourcetrack>
            <link>
              <linkclipref>spy_music 3</linkclipref>
              <mediatype>audio</mediatype>
              <trackindex>7</trackindex>
              <clipindex>5</clipindex>
              <groupindex>1</groupindex>
            </link>
            <link>
              <linkclipref>spy_music 5</linkclipref>
              <mediatype>audio</mediatype>
              <trackindex>8</trackindex>
              <clipindex>5</clipindex>
              <groupindex>1</groupindex>
            </link>
            <itemhistory>
              <uuid>4D3F20B8-1F96-1C90-53F6-4885692A496E</uuid>
            </itemhistory>
          </clipitem>
          <clipitem id="spy_music 6">
            <name>spy_music</name>
            <duration>658</duration>
            <rate>
              <ntsc>FALSE</ntsc>
              <timebase>25</timebase>
            </rate>
            <in>74</in>
            <out>147</out>
            <start>5204</start>
            <end>5277</end>
            <file id="spy_music 7">
              <name>spy_music.wav</name>
              <pathurl>file://localhost/C:/Users/usuario/Dropbox%20(BigBangBoxSL)/PROYECTOS/My%20preschool%20monster%20serie/PRODUCCION/Story/EPISODIOS/FOTOS/XML/spy_music.wav</pathurl>
              <rate>
                <timebase>25</timebase>
              </rate>
              <duration>658</duration>
              <media>
                <audio>
                  <samplecharacteristics>
                    <samplerate>44100</samplerate>
                    <depth>16</depth>
                  </samplecharacteristics>
                  <channelcount>2</channelcount>
                  <layout>stereo</layout>
                  <audiochannel>
                    <sourcechannel>1</sourcechannel>
                    <channellabel>left</channellabel>
                  </audiochannel>
                  <audiochannel>
                    <sourcechannel>2</sourcechannel>
                    <channellabel>right</channellabel>
                  </audiochannel>
                </audio>
              </media>
            </file>
            <filter>
              <enabled>TRUE</enabled>
              <effect>
                <name>Audio Levels</name>
                <effectid>audiolevels</effectid>
                <effectcategory>audiolevels</effectcategory>
                <effecttype>audiolevels</effecttype>
                <mediatype>audio</mediatype>
                <parameter>
                  <name>Level</name>
                  <parameterid>level</parameterid>
                  <keyframe>
                    <when>123.1317510605</when>
                    <value>1.0000000000</value>
                  </keyframe>
                  <keyframe>
                    <when>147.1119990349</when>
                    <value>0.0000000000</value>
                  </keyframe>
                  <interpolation>
                    <name>FCPCurve</name>
                  </interpolation>
                </parameter>
              </effect>
            </filter>
            <sourcetrack>
              <mediatype>audio</mediatype>
              <trackindex>1</trackindex>
            </sourcetrack>
            <link>
              <linkclipref>spy_music 6</linkclipref>
              <mediatype>audio</mediatype>
              <trackindex>7</trackindex>
              <clipindex>6</clipindex>
              <groupindex>1</groupindex>
            </link>
            <link>
              <linkclipref>spy_music 8</linkclipref>
              <mediatype>audio</mediatype>
              <trackindex>8</trackindex>
              <clipindex>6</clipindex>
              <groupindex>1</groupindex>
            </link>
            <itemhistory>
              <uuid>3762591E-678E-54B2-5B1E-1CC31E6A3A62</uuid>
            </itemhistory>
          </clipitem>
        </track>
        <track>
          <clipitem id="y2mate.com - camera_shutter_sound_effect_hd_q3VVxbJa61Q 53">
            <name>y2mate.com - camera_shutter_sound_effect_hd_q3VVxbJa61Q</name>
            <duration>451</duration>
            <rate>
              <ntsc>FALSE</ntsc>
              <timebase>25</timebase>
            </rate>
            <in>104</in>
            <out>128</out>
            <start>3146</start>
            <end>3170</end>
            <file id="y2mate.com - camera_shutter_sound_effect_hd_q3VVxbJa61Q 52"/>
            <sourcetrack>
              <mediatype>audio</mediatype>
              <trackindex>2</trackindex>
            </sourcetrack>
            <link>
              <linkclipref>y2mate.com - camera_shutter_sound_effect_hd_q3VVxbJa61Q 51</linkclipref>
              <mediatype>audio</mediatype>
              <trackindex>7</trackindex>
              <clipindex>1</clipindex>
              <groupindex>1</groupindex>
            </link>
            <link>
              <linkclipref>y2mate.com - camera_shutter_sound_effect_hd_q3VVxbJa61Q 53</linkclipref>
              <mediatype>audio</mediatype>
              <trackindex>8</trackindex>
              <clipindex>1</clipindex>
              <groupindex>1</groupindex>
            </link>
            <itemhistory>
              <uuid>18935868-464C-7206-1A9B-160533CC41FA</uuid>
            </itemhistory>
          </clipitem>
          <clipitem id="y2mate.com - camera_shutter_sound_effect_hd_q3VVxbJa61Q 56">
            <name>y2mate.com - camera_shutter_sound_effect_hd_q3VVxbJa61Q</name>
            <duration>451</duration>
            <rate>
              <ntsc>FALSE</ntsc>
              <timebase>25</timebase>
            </rate>
            <in>104</in>
            <out>128</out>
            <start>3237</start>
            <end>3261</end>
            <file id="y2mate.com - camera_shutter_sound_effect_hd_q3VVxbJa61Q 55"/>
            <sourcetrack>
              <mediatype>audio</mediatype>
              <trackindex>2</trackindex>
            </sourcetrack>
            <link>
              <linkclipref>y2mate.com - camera_shutter_sound_effect_hd_q3VVxbJa61Q 54</linkclipref>
              <mediatype>audio</mediatype>
              <trackindex>7</trackindex>
              <clipindex>2</clipindex>
              <groupindex>1</groupindex>
            </link>
            <link>
              <linkclipref>y2mate.com - camera_shutter_sound_effect_hd_q3VVxbJa61Q 56</linkclipref>
              <mediatype>audio</mediatype>
              <trackindex>8</trackindex>
              <clipindex>2</clipindex>
              <groupindex>1</groupindex>
            </link>
            <itemhistory>
              <uuid>4137373E-37A2-391D-78FA-492229B46569</uuid>
            </itemhistory>
          </clipitem>
          <clipitem id="y2mate.com - camera_shutter_sound_effect_hd_q3VVxbJa61Q 59">
            <name>y2mate.com - camera_shutter_sound_effect_hd_q3VVxbJa61Q</name>
            <duration>451</duration>
            <rate>
              <ntsc>FALSE</ntsc>
              <timebase>25</timebase>
            </rate>
            <in>104</in>
            <out>128</out>
            <start>3315</start>
            <end>3339</end>
            <file id="y2mate.com - camera_shutter_sound_effect_hd_q3VVxbJa61Q 58"/>
            <sourcetrack>
              <mediatype>audio</mediatype>
              <trackindex>2</trackindex>
            </sourcetrack>
            <link>
              <linkclipref>y2mate.com - camera_shutter_sound_effect_hd_q3VVxbJa61Q 57</linkclipref>
              <mediatype>audio</mediatype>
              <trackindex>7</trackindex>
              <clipindex>3</clipindex>
              <groupindex>1</groupindex>
            </link>
            <link>
              <linkclipref>y2mate.com - camera_shutter_sound_effect_hd_q3VVxbJa61Q 59</linkclipref>
              <mediatype>audio</mediatype>
              <trackindex>8</trackindex>
              <clipindex>3</clipindex>
              <groupindex>1</groupindex>
            </link>
            <itemhistory>
              <uuid>51A968DA-628D-69A2-1C70-4299C3504C1C</uuid>
            </itemhistory>
          </clipitem>
          <clipitem id="spy_music 2">
            <name>spy_music</name>
            <duration>658</duration>
            <rate>
              <ntsc>FALSE</ntsc>
              <timebase>25</timebase>
            </rate>
            <in>85</in>
            <out>196</out>
            <start>3371</start>
            <end>3482</end>
            <file id="spy_music 1"/>
            <sourcetrack>
              <mediatype>audio</mediatype>
              <trackindex>2</trackindex>
            </sourcetrack>
            <link>
              <linkclipref>spy_music</linkclipref>
              <mediatype>audio</mediatype>
              <trackindex>7</trackindex>
              <clipindex>4</clipindex>
              <groupindex>1</groupindex>
            </link>
            <link>
              <linkclipref>spy_music 2</linkclipref>
              <mediatype>audio</mediatype>
              <trackindex>8</trackindex>
              <clipindex>4</clipindex>
              <groupindex>1</groupindex>
            </link>
            <itemhistory>
              <uuid>62F717E7-2CF4-66BD-1D5D-34E61E5931EC</uuid>
            </itemhistory>
          </clipitem>
          <clipitem id="spy_music 5">
            <name>spy_music</name>
            <duration>658</duration>
            <rate>
              <ntsc>FALSE</ntsc>
              <timebase>25</timebase>
            </rate>
            <in>74</in>
            <out>154</out>
            <start>4702</start>
            <end>4782</end>
            <file id="spy_music 4"/>
            <sourcetrack>
              <mediatype>audio</mediatype>
              <trackindex>2</trackindex>
            </sourcetrack>
            <link>
              <linkclipref>spy_music 3</linkclipref>
              <mediatype>audio</mediatype>
              <trackindex>7</trackindex>
              <clipindex>5</clipindex>
              <groupindex>1</groupindex>
            </link>
            <link>
              <linkclipref>spy_music 5</linkclipref>
              <mediatype>audio</mediatype>
              <trackindex>8</trackindex>
              <clipindex>5</clipindex>
              <groupindex>1</groupindex>
            </link>
            <itemhistory>
              <uuid>1E595C56-3310-13C9-5D71-615D44A13293</uuid>
            </itemhistory>
          </clipitem>
          <clipitem id="spy_music 8">
            <name>spy_music</name>
            <duration>658</duration>
            <rate>
              <ntsc>FALSE</ntsc>
              <timebase>25</timebase>
            </rate>
            <in>74</in>
            <out>147</out>
            <start>5204</start>
            <end>5277</end>
            <file id="spy_music 7"/>
            <sourcetrack>
              <mediatype>audio</mediatype>
              <trackindex>2</trackindex>
            </sourcetrack>
            <link>
              <linkclipref>spy_music 6</linkclipref>
              <mediatype>audio</mediatype>
              <trackindex>7</trackindex>
              <clipindex>6</clipindex>
              <groupindex>1</groupindex>
            </link>
            <link>
              <linkclipref>spy_music 8</linkclipref>
              <mediatype>audio</mediatype>
              <trackindex>8</trackindex>
              <clipindex>6</clipindex>
              <groupindex>1</groupindex>
            </link>
            <itemhistory>
              <uuid>5A27106E-2220-21D2-5A5E-51431A7E68BD</uuid>
            </itemhistory>
          </clipitem>
        </track>
      </audio>
    </media>
    <ismasterclip>FALSE</ismasterclip>
  </sequence>
</xmeml>
