<?xml version="1.0" encoding="UTF-8"?>
<!DOCTYPE xmeml>
<xmeml version="4">
  <sequence authoringapp="Storyboard Pro" projectpath="/Users/pepesanchez/Documents/almacen1/SchollMonster/tb/MM_138_cajas de Carton_Cl_v1/MM_138_cajas de Carton_Cl_v1.sboard" id="MM_138_cajas_de_Carton_Cl_v1">
    <uuid>E88C9195-7A39-5E0D-487F-2514DAD4CDB8</uuid>
    <updatebehavior>add</updatebehavior>
    <name>MM_138_cajas_de_Carton_Cl_v1</name>
    <duration>7306</duration>
    <rate>
      <ntsc>FALSE</ntsc>
      <timebase>25</timebase>
    </rate>
    <timecode>
      <rate>
        <ntsc>FALSE</ntsc>
        <timebase>25</timebase>
      </rate>
      <string>00:00:00:00</string>
      <frame>0</frame>
      <source>source</source>
    </timecode>
    <in>-1</in>
    <out>-1</out>
    <media>
      <video>
        <format>
          <samplecharacteristics>
            <width>1280</width>
            <height>720</height>
            <anamorphic>FALSE</anamorphic>
            <pixelaspectratio>Square</pixelaspectratio>
            <rate>
              <ntsc>FALSE</ntsc>
              <timebase>25</timebase>
            </rate>
          </samplecharacteristics>
        </format>
        <track>
          <clipitem id="MM_138_Cajas de carton_FINAL-00">
            <name>MM_138_Cajas de carton_FINAL-00</name>
            <duration>25</duration>
            <rate>
              <ntsc>FALSE</ntsc>
              <timebase>25</timebase>
            </rate>
            <in>0</in>
            <out>25</out>
            <start>0</start>
            <end>25</end>
            <pixelaspectratio>Square</pixelaspectratio>
            <stillframe>FALSE</stillframe>
            <enabled>TRUE</enabled>
            <anamorphic>FALSE</anamorphic>
            <alphatype>straight</alphatype>
            <file id="MM_138_Cajas de carton_FINAL-00 1">
              <name>MM_138_Cajas de carton_FINAL-00.mov</name>
              <pathurl>file://localhost/Users/pepesanchez/Desktop/untitled%20folder/MM_138_Cajas%20de%20carton_FINAL-00.mov</pathurl>
              <rate>
                <timebase>25</timebase>
              </rate>
              <duration>25</duration>
              <width>1280</width>
              <height>720</height>
              <media>
                <video>
                  <duration>25</duration>
                  <stillframe>FALSE</stillframe>
                  <samplecharacteristics>
                    <width>1280</width>
                    <height>720</height>
                  </samplecharacteristics>
                </video>
              </media>
            </file>
            <sourcetrack>
              <mediatype>video</mediatype>
            </sourcetrack>
            <itemhistory>
              <uuid>B85C5B3A-54F0-88BB-E068-A3B3EEDA6D8A</uuid>
            </itemhistory>
          </clipitem>
          <clipitem id="MM_138_Cajas de carton_FINAL-01">
            <name>MM_138_Cajas de carton_FINAL-01</name>
            <duration>142</duration>
            <rate>
              <ntsc>FALSE</ntsc>
              <timebase>25</timebase>
            </rate>
            <in>0</in>
            <out>142</out>
            <start>25</start>
            <end>167</end>
            <pixelaspectratio>Square</pixelaspectratio>
            <stillframe>FALSE</stillframe>
            <enabled>TRUE</enabled>
            <anamorphic>FALSE</anamorphic>
            <alphatype>straight</alphatype>
            <file id="MM_138_Cajas de carton_FINAL-01 1">
              <name>MM_138_Cajas de carton_FINAL-01.mov</name>
              <pathurl>file://localhost/Users/pepesanchez/Desktop/untitled%20folder/MM_138_Cajas%20de%20carton_FINAL-01.mov</pathurl>
              <rate>
                <timebase>25</timebase>
              </rate>
              <duration>142</duration>
              <width>1280</width>
              <height>720</height>
              <media>
                <video>
                  <duration>142</duration>
                  <stillframe>FALSE</stillframe>
                  <samplecharacteristics>
                    <width>1280</width>
                    <height>720</height>
                  </samplecharacteristics>
                </video>
              </media>
            </file>
            <sourcetrack>
              <mediatype>video</mediatype>
            </sourcetrack>
            <itemhistory>
              <uuid>219D6076-8AA7-7630-E856-B13E95D18200</uuid>
            </itemhistory>
          </clipitem>
          <clipitem id="MM_138_Cajas de carton_FINAL-02">
            <name>MM_138_Cajas de carton_FINAL-02</name>
            <duration>46</duration>
            <rate>
              <ntsc>FALSE</ntsc>
              <timebase>25</timebase>
            </rate>
            <in>0</in>
            <out>46</out>
            <start>167</start>
            <end>213</end>
            <pixelaspectratio>Square</pixelaspectratio>
            <stillframe>FALSE</stillframe>
            <enabled>TRUE</enabled>
            <anamorphic>FALSE</anamorphic>
            <alphatype>straight</alphatype>
            <file id="MM_138_Cajas de carton_FINAL-02 1">
              <name>MM_138_Cajas de carton_FINAL-02.mov</name>
              <pathurl>file://localhost/Users/pepesanchez/Desktop/untitled%20folder/MM_138_Cajas%20de%20carton_FINAL-02.mov</pathurl>
              <rate>
                <timebase>25</timebase>
              </rate>
              <duration>46</duration>
              <width>1280</width>
              <height>720</height>
              <media>
                <video>
                  <duration>46</duration>
                  <stillframe>FALSE</stillframe>
                  <samplecharacteristics>
                    <width>1280</width>
                    <height>720</height>
                  </samplecharacteristics>
                </video>
              </media>
            </file>
            <sourcetrack>
              <mediatype>video</mediatype>
            </sourcetrack>
            <itemhistory>
              <uuid>9CADE67C-AA00-A462-6260-C398E9E6B8C5</uuid>
            </itemhistory>
          </clipitem>
          <clipitem id="MM_138_Cajas de carton_FINAL-03">
            <name>MM_138_Cajas de carton_FINAL-03</name>
            <duration>35</duration>
            <rate>
              <ntsc>FALSE</ntsc>
              <timebase>25</timebase>
            </rate>
            <in>0</in>
            <out>35</out>
            <start>213</start>
            <end>248</end>
            <pixelaspectratio>Square</pixelaspectratio>
            <stillframe>FALSE</stillframe>
            <enabled>TRUE</enabled>
            <anamorphic>FALSE</anamorphic>
            <alphatype>straight</alphatype>
            <file id="MM_138_Cajas de carton_FINAL-03 1">
              <name>MM_138_Cajas de carton_FINAL-03.mov</name>
              <pathurl>file://localhost/Users/pepesanchez/Desktop/untitled%20folder/MM_138_Cajas%20de%20carton_FINAL-03.mov</pathurl>
              <rate>
                <timebase>25</timebase>
              </rate>
              <duration>35</duration>
              <width>1280</width>
              <height>720</height>
              <media>
                <video>
                  <duration>35</duration>
                  <stillframe>FALSE</stillframe>
                  <samplecharacteristics>
                    <width>1280</width>
                    <height>720</height>
                  </samplecharacteristics>
                </video>
              </media>
            </file>
            <sourcetrack>
              <mediatype>video</mediatype>
            </sourcetrack>
            <itemhistory>
              <uuid>4CB0D20A-45D6-88FD-C0E8-7CF49E15B43A</uuid>
            </itemhistory>
          </clipitem>
          <clipitem id="MM_138_Cajas de carton_FINAL-04">
            <name>MM_138_Cajas de carton_FINAL-04</name>
            <duration>295</duration>
            <rate>
              <ntsc>FALSE</ntsc>
              <timebase>25</timebase>
            </rate>
            <in>0</in>
            <out>295</out>
            <start>248</start>
            <end>543</end>
            <pixelaspectratio>Square</pixelaspectratio>
            <stillframe>FALSE</stillframe>
            <enabled>TRUE</enabled>
            <anamorphic>FALSE</anamorphic>
            <alphatype>straight</alphatype>
            <file id="MM_138_Cajas de carton_FINAL-04 1">
              <name>MM_138_Cajas de carton_FINAL-04.mov</name>
              <pathurl>file://localhost/Users/pepesanchez/Desktop/untitled%20folder/MM_138_Cajas%20de%20carton_FINAL-04.mov</pathurl>
              <rate>
                <timebase>25</timebase>
              </rate>
              <duration>295</duration>
              <width>1280</width>
              <height>720</height>
              <media>
                <video>
                  <duration>295</duration>
                  <stillframe>FALSE</stillframe>
                  <samplecharacteristics>
                    <width>1280</width>
                    <height>720</height>
                  </samplecharacteristics>
                </video>
              </media>
            </file>
            <sourcetrack>
              <mediatype>video</mediatype>
            </sourcetrack>
            <itemhistory>
              <uuid>97151079-8A3A-A210-FF16-CC03A034F52B</uuid>
            </itemhistory>
          </clipitem>
          <clipitem id="MM_138_Cajas de carton_FINAL-05">
            <name>MM_138_Cajas de carton_FINAL-05</name>
            <duration>149</duration>
            <rate>
              <ntsc>FALSE</ntsc>
              <timebase>25</timebase>
            </rate>
            <in>0</in>
            <out>149</out>
            <start>543</start>
            <end>692</end>
            <pixelaspectratio>Square</pixelaspectratio>
            <stillframe>FALSE</stillframe>
            <enabled>TRUE</enabled>
            <anamorphic>FALSE</anamorphic>
            <alphatype>straight</alphatype>
            <file id="MM_138_Cajas de carton_FINAL-05 1">
              <name>MM_138_Cajas de carton_FINAL-05.mov</name>
              <pathurl>file://localhost/Users/pepesanchez/Desktop/untitled%20folder/MM_138_Cajas%20de%20carton_FINAL-05.mov</pathurl>
              <rate>
                <timebase>25</timebase>
              </rate>
              <duration>149</duration>
              <width>1280</width>
              <height>720</height>
              <media>
                <video>
                  <duration>149</duration>
                  <stillframe>FALSE</stillframe>
                  <samplecharacteristics>
                    <width>1280</width>
                    <height>720</height>
                  </samplecharacteristics>
                </video>
              </media>
            </file>
            <sourcetrack>
              <mediatype>video</mediatype>
            </sourcetrack>
            <itemhistory>
              <uuid>216588BD-678F-855D-CA3F-AC2B71FFC4CA</uuid>
            </itemhistory>
          </clipitem>
          <clipitem id="MM_138_Cajas de carton_FINAL-06">
            <name>MM_138_Cajas de carton_FINAL-06</name>
            <duration>288</duration>
            <rate>
              <ntsc>FALSE</ntsc>
              <timebase>25</timebase>
            </rate>
            <in>0</in>
            <out>288</out>
            <start>692</start>
            <end>980</end>
            <pixelaspectratio>Square</pixelaspectratio>
            <stillframe>FALSE</stillframe>
            <enabled>TRUE</enabled>
            <anamorphic>FALSE</anamorphic>
            <alphatype>straight</alphatype>
            <file id="MM_138_Cajas de carton_FINAL-06 1">
              <name>MM_138_Cajas de carton_FINAL-06.mov</name>
              <pathurl>file://localhost/Users/pepesanchez/Desktop/untitled%20folder/MM_138_Cajas%20de%20carton_FINAL-06.mov</pathurl>
              <rate>
                <timebase>25</timebase>
              </rate>
              <duration>288</duration>
              <width>1280</width>
              <height>720</height>
              <media>
                <video>
                  <duration>288</duration>
                  <stillframe>FALSE</stillframe>
                  <samplecharacteristics>
                    <width>1280</width>
                    <height>720</height>
                  </samplecharacteristics>
                </video>
              </media>
            </file>
            <sourcetrack>
              <mediatype>video</mediatype>
            </sourcetrack>
            <itemhistory>
              <uuid>EFAA5228-6696-1DEB-5333-510D46769219</uuid>
            </itemhistory>
          </clipitem>
          <clipitem id="MM_138_Cajas de carton_FINAL-07">
            <name>MM_138_Cajas de carton_FINAL-07</name>
            <duration>244</duration>
            <rate>
              <ntsc>FALSE</ntsc>
              <timebase>25</timebase>
            </rate>
            <in>0</in>
            <out>244</out>
            <start>980</start>
            <end>1224</end>
            <pixelaspectratio>Square</pixelaspectratio>
            <stillframe>FALSE</stillframe>
            <enabled>TRUE</enabled>
            <anamorphic>FALSE</anamorphic>
            <alphatype>straight</alphatype>
            <file id="MM_138_Cajas de carton_FINAL-07 1">
              <name>MM_138_Cajas de carton_FINAL-07.mov</name>
              <pathurl>file://localhost/Users/pepesanchez/Desktop/untitled%20folder/MM_138_Cajas%20de%20carton_FINAL-07.mov</pathurl>
              <rate>
                <timebase>25</timebase>
              </rate>
              <duration>244</duration>
              <width>1280</width>
              <height>720</height>
              <media>
                <video>
                  <duration>244</duration>
                  <stillframe>FALSE</stillframe>
                  <samplecharacteristics>
                    <width>1280</width>
                    <height>720</height>
                  </samplecharacteristics>
                </video>
              </media>
            </file>
            <sourcetrack>
              <mediatype>video</mediatype>
            </sourcetrack>
            <itemhistory>
              <uuid>DDDAD3AE-6C5C-AFDF-1B70-EE19F99EB810</uuid>
            </itemhistory>
          </clipitem>
          <clipitem id="MM_138_Cajas de carton_FINAL-08">
            <name>MM_138_Cajas de carton_FINAL-08</name>
            <duration>381</duration>
            <rate>
              <ntsc>FALSE</ntsc>
              <timebase>25</timebase>
            </rate>
            <in>0</in>
            <out>381</out>
            <start>1224</start>
            <end>1605</end>
            <pixelaspectratio>Square</pixelaspectratio>
            <stillframe>FALSE</stillframe>
            <enabled>TRUE</enabled>
            <anamorphic>FALSE</anamorphic>
            <alphatype>straight</alphatype>
            <file id="MM_138_Cajas de carton_FINAL-08 1">
              <name>MM_138_Cajas de carton_FINAL-08.mov</name>
              <pathurl>file://localhost/Users/pepesanchez/Desktop/untitled%20folder/MM_138_Cajas%20de%20carton_FINAL-08.mov</pathurl>
              <rate>
                <timebase>25</timebase>
              </rate>
              <duration>381</duration>
              <width>1280</width>
              <height>720</height>
              <media>
                <video>
                  <duration>381</duration>
                  <stillframe>FALSE</stillframe>
                  <samplecharacteristics>
                    <width>1280</width>
                    <height>720</height>
                  </samplecharacteristics>
                </video>
              </media>
            </file>
            <sourcetrack>
              <mediatype>video</mediatype>
            </sourcetrack>
            <itemhistory>
              <uuid>EA0AF5DC-3EC9-177A-DAA8-83FC4823A213</uuid>
            </itemhistory>
          </clipitem>
          <clipitem id="MM_138_Cajas de carton_FINAL-09">
            <name>MM_138_Cajas de carton_FINAL-09</name>
            <duration>157</duration>
            <rate>
              <ntsc>FALSE</ntsc>
              <timebase>25</timebase>
            </rate>
            <in>0</in>
            <out>157</out>
            <start>1605</start>
            <end>1762</end>
            <pixelaspectratio>Square</pixelaspectratio>
            <stillframe>FALSE</stillframe>
            <enabled>TRUE</enabled>
            <anamorphic>FALSE</anamorphic>
            <alphatype>straight</alphatype>
            <file id="MM_138_Cajas de carton_FINAL-09 1">
              <name>MM_138_Cajas de carton_FINAL-09.mov</name>
              <pathurl>file://localhost/Users/pepesanchez/Desktop/untitled%20folder/MM_138_Cajas%20de%20carton_FINAL-09.mov</pathurl>
              <rate>
                <timebase>25</timebase>
              </rate>
              <duration>157</duration>
              <width>1280</width>
              <height>720</height>
              <media>
                <video>
                  <duration>157</duration>
                  <stillframe>FALSE</stillframe>
                  <samplecharacteristics>
                    <width>1280</width>
                    <height>720</height>
                  </samplecharacteristics>
                </video>
              </media>
            </file>
            <sourcetrack>
              <mediatype>video</mediatype>
            </sourcetrack>
            <itemhistory>
              <uuid>4E80DA11-6664-562F-C2A9-20858EAAF444</uuid>
            </itemhistory>
          </clipitem>
          <clipitem id="MM_138_Cajas de carton_FINAL-10">
            <name>MM_138_Cajas de carton_FINAL-10</name>
            <duration>128</duration>
            <rate>
              <ntsc>FALSE</ntsc>
              <timebase>25</timebase>
            </rate>
            <in>0</in>
            <out>128</out>
            <start>1762</start>
            <end>1890</end>
            <pixelaspectratio>Square</pixelaspectratio>
            <stillframe>FALSE</stillframe>
            <enabled>TRUE</enabled>
            <anamorphic>FALSE</anamorphic>
            <alphatype>straight</alphatype>
            <file id="MM_138_Cajas de carton_FINAL-10 1">
              <name>MM_138_Cajas de carton_FINAL-10.mov</name>
              <pathurl>file://localhost/Users/pepesanchez/Desktop/untitled%20folder/MM_138_Cajas%20de%20carton_FINAL-10.mov</pathurl>
              <rate>
                <timebase>25</timebase>
              </rate>
              <duration>128</duration>
              <width>1280</width>
              <height>720</height>
              <media>
                <video>
                  <duration>128</duration>
                  <stillframe>FALSE</stillframe>
                  <samplecharacteristics>
                    <width>1280</width>
                    <height>720</height>
                  </samplecharacteristics>
                </video>
              </media>
            </file>
            <sourcetrack>
              <mediatype>video</mediatype>
            </sourcetrack>
            <itemhistory>
              <uuid>699DF354-58ED-CA56-A179-4B825B2A3D83</uuid>
            </itemhistory>
          </clipitem>
          <clipitem id="MM_138_Cajas de carton_FINAL-11">
            <name>MM_138_Cajas de carton_FINAL-11</name>
            <duration>83</duration>
            <rate>
              <ntsc>FALSE</ntsc>
              <timebase>25</timebase>
            </rate>
            <in>0</in>
            <out>83</out>
            <start>1890</start>
            <end>1973</end>
            <pixelaspectratio>Square</pixelaspectratio>
            <stillframe>FALSE</stillframe>
            <enabled>TRUE</enabled>
            <anamorphic>FALSE</anamorphic>
            <alphatype>straight</alphatype>
            <file id="MM_138_Cajas de carton_FINAL-11 1">
              <name>MM_138_Cajas de carton_FINAL-11.mov</name>
              <pathurl>file://localhost/Users/pepesanchez/Desktop/untitled%20folder/MM_138_Cajas%20de%20carton_FINAL-11.mov</pathurl>
              <rate>
                <timebase>25</timebase>
              </rate>
              <duration>83</duration>
              <width>1280</width>
              <height>720</height>
              <media>
                <video>
                  <duration>83</duration>
                  <stillframe>FALSE</stillframe>
                  <samplecharacteristics>
                    <width>1280</width>
                    <height>720</height>
                  </samplecharacteristics>
                </video>
              </media>
            </file>
            <sourcetrack>
              <mediatype>video</mediatype>
            </sourcetrack>
            <itemhistory>
              <uuid>8D31BF8C-3AF1-367B-D983-695F15F791F1</uuid>
            </itemhistory>
          </clipitem>
          <clipitem id="MM_138_Cajas de carton_FINAL-12">
            <name>MM_138_Cajas de carton_FINAL-12</name>
            <duration>220</duration>
            <rate>
              <ntsc>FALSE</ntsc>
              <timebase>25</timebase>
            </rate>
            <in>0</in>
            <out>220</out>
            <start>1973</start>
            <end>2193</end>
            <pixelaspectratio>Square</pixelaspectratio>
            <stillframe>FALSE</stillframe>
            <enabled>TRUE</enabled>
            <anamorphic>FALSE</anamorphic>
            <alphatype>straight</alphatype>
            <file id="MM_138_Cajas de carton_FINAL-12 1">
              <name>MM_138_Cajas de carton_FINAL-12.mov</name>
              <pathurl>file://localhost/Users/pepesanchez/Desktop/untitled%20folder/MM_138_Cajas%20de%20carton_FINAL-12.mov</pathurl>
              <rate>
                <timebase>25</timebase>
              </rate>
              <duration>220</duration>
              <width>1280</width>
              <height>720</height>
              <media>
                <video>
                  <duration>220</duration>
                  <stillframe>FALSE</stillframe>
                  <samplecharacteristics>
                    <width>1280</width>
                    <height>720</height>
                  </samplecharacteristics>
                </video>
              </media>
            </file>
            <sourcetrack>
              <mediatype>video</mediatype>
            </sourcetrack>
            <itemhistory>
              <uuid>936AD3FD-D1CA-F950-CDEE-1123B1834801</uuid>
            </itemhistory>
          </clipitem>
          <clipitem id="MM_138_Cajas de carton_FINAL-13">
            <name>MM_138_Cajas de carton_FINAL-13</name>
            <duration>56</duration>
            <rate>
              <ntsc>FALSE</ntsc>
              <timebase>25</timebase>
            </rate>
            <in>0</in>
            <out>56</out>
            <start>2193</start>
            <end>2249</end>
            <pixelaspectratio>Square</pixelaspectratio>
            <stillframe>FALSE</stillframe>
            <enabled>TRUE</enabled>
            <anamorphic>FALSE</anamorphic>
            <alphatype>straight</alphatype>
            <file id="MM_138_Cajas de carton_FINAL-13 1">
              <name>MM_138_Cajas de carton_FINAL-13.mov</name>
              <pathurl>file://localhost/Users/pepesanchez/Desktop/untitled%20folder/MM_138_Cajas%20de%20carton_FINAL-13.mov</pathurl>
              <rate>
                <timebase>25</timebase>
              </rate>
              <duration>56</duration>
              <width>1280</width>
              <height>720</height>
              <media>
                <video>
                  <duration>56</duration>
                  <stillframe>FALSE</stillframe>
                  <samplecharacteristics>
                    <width>1280</width>
                    <height>720</height>
                  </samplecharacteristics>
                </video>
              </media>
            </file>
            <sourcetrack>
              <mediatype>video</mediatype>
            </sourcetrack>
            <itemhistory>
              <uuid>E770368D-85E2-FAA7-4AA7-C26A7A97F113</uuid>
            </itemhistory>
          </clipitem>
          <clipitem id="MM_138_Cajas de carton_FINAL-14">
            <name>MM_138_Cajas de carton_FINAL-14</name>
            <duration>25</duration>
            <rate>
              <ntsc>FALSE</ntsc>
              <timebase>25</timebase>
            </rate>
            <in>0</in>
            <out>25</out>
            <start>2249</start>
            <end>2274</end>
            <pixelaspectratio>Square</pixelaspectratio>
            <stillframe>FALSE</stillframe>
            <enabled>TRUE</enabled>
            <anamorphic>FALSE</anamorphic>
            <alphatype>straight</alphatype>
            <file id="MM_138_Cajas de carton_FINAL-14 1">
              <name>MM_138_Cajas de carton_FINAL-14.mov</name>
              <pathurl>file://localhost/Users/pepesanchez/Desktop/untitled%20folder/MM_138_Cajas%20de%20carton_FINAL-14.mov</pathurl>
              <rate>
                <timebase>25</timebase>
              </rate>
              <duration>25</duration>
              <width>1280</width>
              <height>720</height>
              <media>
                <video>
                  <duration>25</duration>
                  <stillframe>FALSE</stillframe>
                  <samplecharacteristics>
                    <width>1280</width>
                    <height>720</height>
                  </samplecharacteristics>
                </video>
              </media>
            </file>
            <sourcetrack>
              <mediatype>video</mediatype>
            </sourcetrack>
            <itemhistory>
              <uuid>5C07684A-879F-102D-8ACA-9A14D41BF8CF</uuid>
            </itemhistory>
          </clipitem>
          <clipitem id="MM_138_Cajas de carton_FINAL-15">
            <name>MM_138_Cajas de carton_FINAL-15</name>
            <duration>73</duration>
            <rate>
              <ntsc>FALSE</ntsc>
              <timebase>25</timebase>
            </rate>
            <in>0</in>
            <out>73</out>
            <start>2274</start>
            <end>2347</end>
            <pixelaspectratio>Square</pixelaspectratio>
            <stillframe>FALSE</stillframe>
            <enabled>TRUE</enabled>
            <anamorphic>FALSE</anamorphic>
            <alphatype>straight</alphatype>
            <file id="MM_138_Cajas de carton_FINAL-15 1">
              <name>MM_138_Cajas de carton_FINAL-15.mov</name>
              <pathurl>file://localhost/Users/pepesanchez/Desktop/untitled%20folder/MM_138_Cajas%20de%20carton_FINAL-15.mov</pathurl>
              <rate>
                <timebase>25</timebase>
              </rate>
              <duration>73</duration>
              <width>1280</width>
              <height>720</height>
              <media>
                <video>
                  <duration>73</duration>
                  <stillframe>FALSE</stillframe>
                  <samplecharacteristics>
                    <width>1280</width>
                    <height>720</height>
                  </samplecharacteristics>
                </video>
              </media>
            </file>
            <sourcetrack>
              <mediatype>video</mediatype>
            </sourcetrack>
            <itemhistory>
              <uuid>34028AF0-BDB4-A56D-6177-68197B96E30C</uuid>
            </itemhistory>
          </clipitem>
          <clipitem id="MM_138_Cajas de carton_FINAL-16">
            <name>MM_138_Cajas de carton_FINAL-16</name>
            <duration>71</duration>
            <rate>
              <ntsc>FALSE</ntsc>
              <timebase>25</timebase>
            </rate>
            <in>0</in>
            <out>71</out>
            <start>2347</start>
            <end>2418</end>
            <pixelaspectratio>Square</pixelaspectratio>
            <stillframe>FALSE</stillframe>
            <enabled>TRUE</enabled>
            <anamorphic>FALSE</anamorphic>
            <alphatype>straight</alphatype>
            <file id="MM_138_Cajas de carton_FINAL-16 1">
              <name>MM_138_Cajas de carton_FINAL-16.mov</name>
              <pathurl>file://localhost/Users/pepesanchez/Desktop/untitled%20folder/MM_138_Cajas%20de%20carton_FINAL-16.mov</pathurl>
              <rate>
                <timebase>25</timebase>
              </rate>
              <duration>71</duration>
              <width>1280</width>
              <height>720</height>
              <media>
                <video>
                  <duration>71</duration>
                  <stillframe>FALSE</stillframe>
                  <samplecharacteristics>
                    <width>1280</width>
                    <height>720</height>
                  </samplecharacteristics>
                </video>
              </media>
            </file>
            <sourcetrack>
              <mediatype>video</mediatype>
            </sourcetrack>
            <itemhistory>
              <uuid>640926E5-154E-CA08-A70A-4198FBF56DA3</uuid>
            </itemhistory>
          </clipitem>
          <clipitem id="MM_138_Cajas de carton_FINAL-17">
            <name>MM_138_Cajas de carton_FINAL-17</name>
            <duration>83</duration>
            <rate>
              <ntsc>FALSE</ntsc>
              <timebase>25</timebase>
            </rate>
            <in>0</in>
            <out>83</out>
            <start>2418</start>
            <end>2501</end>
            <pixelaspectratio>Square</pixelaspectratio>
            <stillframe>FALSE</stillframe>
            <enabled>TRUE</enabled>
            <anamorphic>FALSE</anamorphic>
            <alphatype>straight</alphatype>
            <file id="MM_138_Cajas de carton_FINAL-17 1">
              <name>MM_138_Cajas de carton_FINAL-17.mov</name>
              <pathurl>file://localhost/Users/pepesanchez/Desktop/untitled%20folder/MM_138_Cajas%20de%20carton_FINAL-17.mov</pathurl>
              <rate>
                <timebase>25</timebase>
              </rate>
              <duration>83</duration>
              <width>1280</width>
              <height>720</height>
              <media>
                <video>
                  <duration>83</duration>
                  <stillframe>FALSE</stillframe>
                  <samplecharacteristics>
                    <width>1280</width>
                    <height>720</height>
                  </samplecharacteristics>
                </video>
              </media>
            </file>
            <sourcetrack>
              <mediatype>video</mediatype>
            </sourcetrack>
            <itemhistory>
              <uuid>1DB96AED-A4E3-6EDB-9A9B-E06495CA3038</uuid>
            </itemhistory>
          </clipitem>
          <clipitem id="MM_138_Cajas de carton_FINAL-18">
            <name>MM_138_Cajas de carton_FINAL-18</name>
            <duration>118</duration>
            <rate>
              <ntsc>FALSE</ntsc>
              <timebase>25</timebase>
            </rate>
            <in>0</in>
            <out>118</out>
            <start>2501</start>
            <end>2619</end>
            <pixelaspectratio>Square</pixelaspectratio>
            <stillframe>FALSE</stillframe>
            <enabled>TRUE</enabled>
            <anamorphic>FALSE</anamorphic>
            <alphatype>straight</alphatype>
            <file id="MM_138_Cajas de carton_FINAL-18 1">
              <name>MM_138_Cajas de carton_FINAL-18.mov</name>
              <pathurl>file://localhost/Users/pepesanchez/Desktop/untitled%20folder/MM_138_Cajas%20de%20carton_FINAL-18.mov</pathurl>
              <rate>
                <timebase>25</timebase>
              </rate>
              <duration>118</duration>
              <width>1280</width>
              <height>720</height>
              <media>
                <video>
                  <duration>118</duration>
                  <stillframe>FALSE</stillframe>
                  <samplecharacteristics>
                    <width>1280</width>
                    <height>720</height>
                  </samplecharacteristics>
                </video>
              </media>
            </file>
            <sourcetrack>
              <mediatype>video</mediatype>
            </sourcetrack>
            <itemhistory>
              <uuid>4D221EC1-1B0C-3C62-56C4-D01E1AACB827</uuid>
            </itemhistory>
          </clipitem>
          <clipitem id="MM_138_Cajas de carton_FINAL-19">
            <name>MM_138_Cajas de carton_FINAL-19</name>
            <duration>25</duration>
            <rate>
              <ntsc>FALSE</ntsc>
              <timebase>25</timebase>
            </rate>
            <in>0</in>
            <out>25</out>
            <start>2619</start>
            <end>2644</end>
            <pixelaspectratio>Square</pixelaspectratio>
            <stillframe>FALSE</stillframe>
            <enabled>TRUE</enabled>
            <anamorphic>FALSE</anamorphic>
            <alphatype>straight</alphatype>
            <file id="MM_138_Cajas de carton_FINAL-19 1">
              <name>MM_138_Cajas de carton_FINAL-19.mov</name>
              <pathurl>file://localhost/Users/pepesanchez/Desktop/untitled%20folder/MM_138_Cajas%20de%20carton_FINAL-19.mov</pathurl>
              <rate>
                <timebase>25</timebase>
              </rate>
              <duration>25</duration>
              <width>1280</width>
              <height>720</height>
              <media>
                <video>
                  <duration>25</duration>
                  <stillframe>FALSE</stillframe>
                  <samplecharacteristics>
                    <width>1280</width>
                    <height>720</height>
                  </samplecharacteristics>
                </video>
              </media>
            </file>
            <sourcetrack>
              <mediatype>video</mediatype>
            </sourcetrack>
            <itemhistory>
              <uuid>CFD4AE71-B211-C341-12A5-94EA50C08A8E</uuid>
            </itemhistory>
          </clipitem>
          <clipitem id="MM_138_Cajas de carton_FINAL-20">
            <name>MM_138_Cajas de carton_FINAL-20</name>
            <duration>397</duration>
            <rate>
              <ntsc>FALSE</ntsc>
              <timebase>25</timebase>
            </rate>
            <in>0</in>
            <out>397</out>
            <start>2644</start>
            <end>3041</end>
            <pixelaspectratio>Square</pixelaspectratio>
            <stillframe>FALSE</stillframe>
            <enabled>TRUE</enabled>
            <anamorphic>FALSE</anamorphic>
            <alphatype>straight</alphatype>
            <file id="MM_138_Cajas de carton_FINAL-20 1">
              <name>MM_138_Cajas de carton_FINAL-20.mov</name>
              <pathurl>file://localhost/Users/pepesanchez/Desktop/untitled%20folder/MM_138_Cajas%20de%20carton_FINAL-20.mov</pathurl>
              <rate>
                <timebase>25</timebase>
              </rate>
              <duration>397</duration>
              <width>1280</width>
              <height>720</height>
              <media>
                <video>
                  <duration>397</duration>
                  <stillframe>FALSE</stillframe>
                  <samplecharacteristics>
                    <width>1280</width>
                    <height>720</height>
                  </samplecharacteristics>
                </video>
              </media>
            </file>
            <sourcetrack>
              <mediatype>video</mediatype>
            </sourcetrack>
            <itemhistory>
              <uuid>B1DE2E65-86DF-BE38-9708-D0F8842FD88B</uuid>
            </itemhistory>
          </clipitem>
          <clipitem id="MM_138_Cajas de carton_FINAL-21">
            <name>MM_138_Cajas de carton_FINAL-21</name>
            <duration>197</duration>
            <rate>
              <ntsc>FALSE</ntsc>
              <timebase>25</timebase>
            </rate>
            <in>0</in>
            <out>197</out>
            <start>3041</start>
            <end>3238</end>
            <pixelaspectratio>Square</pixelaspectratio>
            <stillframe>FALSE</stillframe>
            <enabled>TRUE</enabled>
            <anamorphic>FALSE</anamorphic>
            <alphatype>straight</alphatype>
            <file id="MM_138_Cajas de carton_FINAL-21 1">
              <name>MM_138_Cajas de carton_FINAL-21.mov</name>
              <pathurl>file://localhost/Users/pepesanchez/Desktop/untitled%20folder/MM_138_Cajas%20de%20carton_FINAL-21.mov</pathurl>
              <rate>
                <timebase>25</timebase>
              </rate>
              <duration>197</duration>
              <width>1280</width>
              <height>720</height>
              <media>
                <video>
                  <duration>197</duration>
                  <stillframe>FALSE</stillframe>
                  <samplecharacteristics>
                    <width>1280</width>
                    <height>720</height>
                  </samplecharacteristics>
                </video>
              </media>
            </file>
            <sourcetrack>
              <mediatype>video</mediatype>
            </sourcetrack>
            <itemhistory>
              <uuid>C5456F46-FF7F-4889-C4D2-83FC445B4A2E</uuid>
            </itemhistory>
          </clipitem>
          <clipitem id="MM_138_Cajas de carton_FINAL-22">
            <name>MM_138_Cajas de carton_FINAL-22</name>
            <duration>209</duration>
            <rate>
              <ntsc>FALSE</ntsc>
              <timebase>25</timebase>
            </rate>
            <in>0</in>
            <out>209</out>
            <start>3238</start>
            <end>3447</end>
            <pixelaspectratio>Square</pixelaspectratio>
            <stillframe>FALSE</stillframe>
            <enabled>TRUE</enabled>
            <anamorphic>FALSE</anamorphic>
            <alphatype>straight</alphatype>
            <file id="MM_138_Cajas de carton_FINAL-22 1">
              <name>MM_138_Cajas de carton_FINAL-22.mov</name>
              <pathurl>file://localhost/Users/pepesanchez/Desktop/untitled%20folder/MM_138_Cajas%20de%20carton_FINAL-22.mov</pathurl>
              <rate>
                <timebase>25</timebase>
              </rate>
              <duration>209</duration>
              <width>1280</width>
              <height>720</height>
              <media>
                <video>
                  <duration>209</duration>
                  <stillframe>FALSE</stillframe>
                  <samplecharacteristics>
                    <width>1280</width>
                    <height>720</height>
                  </samplecharacteristics>
                </video>
              </media>
            </file>
            <sourcetrack>
              <mediatype>video</mediatype>
            </sourcetrack>
            <itemhistory>
              <uuid>B94A6B9E-8911-F113-F0AE-6E318BB14105</uuid>
            </itemhistory>
          </clipitem>
          <clipitem id="MM_138_Cajas de carton_FINAL-23">
            <name>MM_138_Cajas de carton_FINAL-23</name>
            <duration>25</duration>
            <rate>
              <ntsc>FALSE</ntsc>
              <timebase>25</timebase>
            </rate>
            <in>0</in>
            <out>25</out>
            <start>3447</start>
            <end>3472</end>
            <pixelaspectratio>Square</pixelaspectratio>
            <stillframe>FALSE</stillframe>
            <enabled>TRUE</enabled>
            <anamorphic>FALSE</anamorphic>
            <alphatype>straight</alphatype>
            <file id="MM_138_Cajas de carton_FINAL-23 1">
              <name>MM_138_Cajas de carton_FINAL-23.mov</name>
              <pathurl>file://localhost/Users/pepesanchez/Desktop/untitled%20folder/MM_138_Cajas%20de%20carton_FINAL-23.mov</pathurl>
              <rate>
                <timebase>25</timebase>
              </rate>
              <duration>25</duration>
              <width>1280</width>
              <height>720</height>
              <media>
                <video>
                  <duration>25</duration>
                  <stillframe>FALSE</stillframe>
                  <samplecharacteristics>
                    <width>1280</width>
                    <height>720</height>
                  </samplecharacteristics>
                </video>
              </media>
            </file>
            <sourcetrack>
              <mediatype>video</mediatype>
            </sourcetrack>
            <itemhistory>
              <uuid>DC52CADA-7C1B-84AB-31F8-B89239E0B4C3</uuid>
            </itemhistory>
          </clipitem>
          <clipitem id="MM_138_Cajas de carton_FINAL-24">
            <name>MM_138_Cajas de carton_FINAL-24</name>
            <duration>49</duration>
            <rate>
              <ntsc>FALSE</ntsc>
              <timebase>25</timebase>
            </rate>
            <in>0</in>
            <out>49</out>
            <start>3472</start>
            <end>3521</end>
            <pixelaspectratio>Square</pixelaspectratio>
            <stillframe>FALSE</stillframe>
            <enabled>TRUE</enabled>
            <anamorphic>FALSE</anamorphic>
            <alphatype>straight</alphatype>
            <file id="MM_138_Cajas de carton_FINAL-24 1">
              <name>MM_138_Cajas de carton_FINAL-24.mov</name>
              <pathurl>file://localhost/Users/pepesanchez/Desktop/untitled%20folder/MM_138_Cajas%20de%20carton_FINAL-24.mov</pathurl>
              <rate>
                <timebase>25</timebase>
              </rate>
              <duration>49</duration>
              <width>1280</width>
              <height>720</height>
              <media>
                <video>
                  <duration>49</duration>
                  <stillframe>FALSE</stillframe>
                  <samplecharacteristics>
                    <width>1280</width>
                    <height>720</height>
                  </samplecharacteristics>
                </video>
              </media>
            </file>
            <sourcetrack>
              <mediatype>video</mediatype>
            </sourcetrack>
            <itemhistory>
              <uuid>ACCD3448-95FF-DC9C-3F5D-BA82F235BAA5</uuid>
            </itemhistory>
          </clipitem>
          <clipitem id="MM_138_Cajas de carton_FINAL-25">
            <name>MM_138_Cajas de carton_FINAL-25</name>
            <duration>25</duration>
            <rate>
              <ntsc>FALSE</ntsc>
              <timebase>25</timebase>
            </rate>
            <in>0</in>
            <out>25</out>
            <start>3521</start>
            <end>3546</end>
            <pixelaspectratio>Square</pixelaspectratio>
            <stillframe>FALSE</stillframe>
            <enabled>TRUE</enabled>
            <anamorphic>FALSE</anamorphic>
            <alphatype>straight</alphatype>
            <file id="MM_138_Cajas de carton_FINAL-25 1">
              <name>MM_138_Cajas de carton_FINAL-25.mov</name>
              <pathurl>file://localhost/Users/pepesanchez/Desktop/untitled%20folder/MM_138_Cajas%20de%20carton_FINAL-25.mov</pathurl>
              <rate>
                <timebase>25</timebase>
              </rate>
              <duration>25</duration>
              <width>1280</width>
              <height>720</height>
              <media>
                <video>
                  <duration>25</duration>
                  <stillframe>FALSE</stillframe>
                  <samplecharacteristics>
                    <width>1280</width>
                    <height>720</height>
                  </samplecharacteristics>
                </video>
              </media>
            </file>
            <sourcetrack>
              <mediatype>video</mediatype>
            </sourcetrack>
            <itemhistory>
              <uuid>E9A72045-1E63-2EA2-AB13-AE7481C299F3</uuid>
            </itemhistory>
          </clipitem>
          <clipitem id="MM_138_Cajas de carton_FINAL-26">
            <name>MM_138_Cajas de carton_FINAL-26</name>
            <duration>53</duration>
            <rate>
              <ntsc>FALSE</ntsc>
              <timebase>25</timebase>
            </rate>
            <in>0</in>
            <out>53</out>
            <start>3546</start>
            <end>3599</end>
            <pixelaspectratio>Square</pixelaspectratio>
            <stillframe>FALSE</stillframe>
            <enabled>TRUE</enabled>
            <anamorphic>FALSE</anamorphic>
            <alphatype>straight</alphatype>
            <file id="MM_138_Cajas de carton_FINAL-26 1">
              <name>MM_138_Cajas de carton_FINAL-26.mov</name>
              <pathurl>file://localhost/Users/pepesanchez/Desktop/untitled%20folder/MM_138_Cajas%20de%20carton_FINAL-26.mov</pathurl>
              <rate>
                <timebase>25</timebase>
              </rate>
              <duration>53</duration>
              <width>1280</width>
              <height>720</height>
              <media>
                <video>
                  <duration>53</duration>
                  <stillframe>FALSE</stillframe>
                  <samplecharacteristics>
                    <width>1280</width>
                    <height>720</height>
                  </samplecharacteristics>
                </video>
              </media>
            </file>
            <sourcetrack>
              <mediatype>video</mediatype>
            </sourcetrack>
            <itemhistory>
              <uuid>604A3689-91C7-6303-7A05-9252F17E4C80</uuid>
            </itemhistory>
          </clipitem>
          <clipitem id="MM_138_Cajas de carton_FINAL-27">
            <name>MM_138_Cajas de carton_FINAL-27</name>
            <duration>100</duration>
            <rate>
              <ntsc>FALSE</ntsc>
              <timebase>25</timebase>
            </rate>
            <in>0</in>
            <out>100</out>
            <start>3599</start>
            <end>3699</end>
            <pixelaspectratio>Square</pixelaspectratio>
            <stillframe>FALSE</stillframe>
            <enabled>TRUE</enabled>
            <anamorphic>FALSE</anamorphic>
            <alphatype>straight</alphatype>
            <file id="MM_138_Cajas de carton_FINAL-27 1">
              <name>MM_138_Cajas de carton_FINAL-27.mov</name>
              <pathurl>file://localhost/Users/pepesanchez/Desktop/untitled%20folder/MM_138_Cajas%20de%20carton_FINAL-27.mov</pathurl>
              <rate>
                <timebase>25</timebase>
              </rate>
              <duration>100</duration>
              <width>1280</width>
              <height>720</height>
              <media>
                <video>
                  <duration>100</duration>
                  <stillframe>FALSE</stillframe>
                  <samplecharacteristics>
                    <width>1280</width>
                    <height>720</height>
                  </samplecharacteristics>
                </video>
              </media>
            </file>
            <sourcetrack>
              <mediatype>video</mediatype>
            </sourcetrack>
            <itemhistory>
              <uuid>3710201C-A83A-2FB8-83AC-74C472E147D6</uuid>
            </itemhistory>
          </clipitem>
          <clipitem id="MM_138_Cajas de carton_FINAL-28">
            <name>MM_138_Cajas de carton_FINAL-28</name>
            <duration>157</duration>
            <rate>
              <ntsc>FALSE</ntsc>
              <timebase>25</timebase>
            </rate>
            <in>0</in>
            <out>157</out>
            <start>3699</start>
            <end>3856</end>
            <pixelaspectratio>Square</pixelaspectratio>
            <stillframe>FALSE</stillframe>
            <enabled>TRUE</enabled>
            <anamorphic>FALSE</anamorphic>
            <alphatype>straight</alphatype>
            <file id="MM_138_Cajas de carton_FINAL-28 1">
              <name>MM_138_Cajas de carton_FINAL-28.mov</name>
              <pathurl>file://localhost/Users/pepesanchez/Desktop/untitled%20folder/MM_138_Cajas%20de%20carton_FINAL-28.mov</pathurl>
              <rate>
                <timebase>25</timebase>
              </rate>
              <duration>157</duration>
              <width>1280</width>
              <height>720</height>
              <media>
                <video>
                  <duration>157</duration>
                  <stillframe>FALSE</stillframe>
                  <samplecharacteristics>
                    <width>1280</width>
                    <height>720</height>
                  </samplecharacteristics>
                </video>
              </media>
            </file>
            <sourcetrack>
              <mediatype>video</mediatype>
            </sourcetrack>
            <itemhistory>
              <uuid>D5FDA1AE-E5DA-E7DD-1CDA-52F1747B5F48</uuid>
            </itemhistory>
          </clipitem>
          <clipitem id="MM_138_Cajas de carton_FINAL-29">
            <name>MM_138_Cajas de carton_FINAL-29</name>
            <duration>115</duration>
            <rate>
              <ntsc>FALSE</ntsc>
              <timebase>25</timebase>
            </rate>
            <in>0</in>
            <out>115</out>
            <start>3856</start>
            <end>3971</end>
            <pixelaspectratio>Square</pixelaspectratio>
            <stillframe>FALSE</stillframe>
            <enabled>TRUE</enabled>
            <anamorphic>FALSE</anamorphic>
            <alphatype>straight</alphatype>
            <file id="MM_138_Cajas de carton_FINAL-29 1">
              <name>MM_138_Cajas de carton_FINAL-29.mov</name>
              <pathurl>file://localhost/Users/pepesanchez/Desktop/untitled%20folder/MM_138_Cajas%20de%20carton_FINAL-29.mov</pathurl>
              <rate>
                <timebase>25</timebase>
              </rate>
              <duration>115</duration>
              <width>1280</width>
              <height>720</height>
              <media>
                <video>
                  <duration>115</duration>
                  <stillframe>FALSE</stillframe>
                  <samplecharacteristics>
                    <width>1280</width>
                    <height>720</height>
                  </samplecharacteristics>
                </video>
              </media>
            </file>
            <sourcetrack>
              <mediatype>video</mediatype>
            </sourcetrack>
            <itemhistory>
              <uuid>A0D480DE-1FE4-3CB9-2DEF-4F21AC33F936</uuid>
            </itemhistory>
          </clipitem>
          <clipitem id="MM_138_Cajas de carton_FINAL-30">
            <name>MM_138_Cajas de carton_FINAL-30</name>
            <duration>145</duration>
            <rate>
              <ntsc>FALSE</ntsc>
              <timebase>25</timebase>
            </rate>
            <in>0</in>
            <out>145</out>
            <start>3971</start>
            <end>4116</end>
            <pixelaspectratio>Square</pixelaspectratio>
            <stillframe>FALSE</stillframe>
            <enabled>TRUE</enabled>
            <anamorphic>FALSE</anamorphic>
            <alphatype>straight</alphatype>
            <file id="MM_138_Cajas de carton_FINAL-30 1">
              <name>MM_138_Cajas de carton_FINAL-30.mov</name>
              <pathurl>file://localhost/Users/pepesanchez/Desktop/untitled%20folder/MM_138_Cajas%20de%20carton_FINAL-30.mov</pathurl>
              <rate>
                <timebase>25</timebase>
              </rate>
              <duration>145</duration>
              <width>1280</width>
              <height>720</height>
              <media>
                <video>
                  <duration>145</duration>
                  <stillframe>FALSE</stillframe>
                  <samplecharacteristics>
                    <width>1280</width>
                    <height>720</height>
                  </samplecharacteristics>
                </video>
              </media>
            </file>
            <sourcetrack>
              <mediatype>video</mediatype>
            </sourcetrack>
            <itemhistory>
              <uuid>96D6EC0A-508C-BB2C-5DE1-96F56B7C5528</uuid>
            </itemhistory>
          </clipitem>
          <clipitem id="MM_138_Cajas de carton_FINAL-31">
            <name>MM_138_Cajas de carton_FINAL-31</name>
            <duration>197</duration>
            <rate>
              <ntsc>FALSE</ntsc>
              <timebase>25</timebase>
            </rate>
            <in>0</in>
            <out>197</out>
            <start>4116</start>
            <end>4313</end>
            <pixelaspectratio>Square</pixelaspectratio>
            <stillframe>FALSE</stillframe>
            <enabled>TRUE</enabled>
            <anamorphic>FALSE</anamorphic>
            <alphatype>straight</alphatype>
            <file id="MM_138_Cajas de carton_FINAL-31 1">
              <name>MM_138_Cajas de carton_FINAL-31.mov</name>
              <pathurl>file://localhost/Users/pepesanchez/Desktop/untitled%20folder/MM_138_Cajas%20de%20carton_FINAL-31.mov</pathurl>
              <rate>
                <timebase>25</timebase>
              </rate>
              <duration>197</duration>
              <width>1280</width>
              <height>720</height>
              <media>
                <video>
                  <duration>197</duration>
                  <stillframe>FALSE</stillframe>
                  <samplecharacteristics>
                    <width>1280</width>
                    <height>720</height>
                  </samplecharacteristics>
                </video>
              </media>
            </file>
            <sourcetrack>
              <mediatype>video</mediatype>
            </sourcetrack>
            <itemhistory>
              <uuid>DAD0CCF2-7801-BBDE-B085-9E234947F2CF</uuid>
            </itemhistory>
          </clipitem>
          <clipitem id="MM_138_Cajas de carton_FINAL-32">
            <name>MM_138_Cajas de carton_FINAL-32</name>
            <duration>108</duration>
            <rate>
              <ntsc>FALSE</ntsc>
              <timebase>25</timebase>
            </rate>
            <in>0</in>
            <out>108</out>
            <start>4313</start>
            <end>4421</end>
            <pixelaspectratio>Square</pixelaspectratio>
            <stillframe>FALSE</stillframe>
            <enabled>TRUE</enabled>
            <anamorphic>FALSE</anamorphic>
            <alphatype>straight</alphatype>
            <file id="MM_138_Cajas de carton_FINAL-32 1">
              <name>MM_138_Cajas de carton_FINAL-32.mov</name>
              <pathurl>file://localhost/Users/pepesanchez/Desktop/untitled%20folder/MM_138_Cajas%20de%20carton_FINAL-32.mov</pathurl>
              <rate>
                <timebase>25</timebase>
              </rate>
              <duration>108</duration>
              <width>1280</width>
              <height>720</height>
              <media>
                <video>
                  <duration>108</duration>
                  <stillframe>FALSE</stillframe>
                  <samplecharacteristics>
                    <width>1280</width>
                    <height>720</height>
                  </samplecharacteristics>
                </video>
              </media>
            </file>
            <sourcetrack>
              <mediatype>video</mediatype>
            </sourcetrack>
            <itemhistory>
              <uuid>4F4DFAD4-530F-A251-28A6-D04B3C0C5161</uuid>
            </itemhistory>
          </clipitem>
          <clipitem id="MM_138_Cajas de carton_FINAL-33">
            <name>MM_138_Cajas de carton_FINAL-33</name>
            <duration>84</duration>
            <rate>
              <ntsc>FALSE</ntsc>
              <timebase>25</timebase>
            </rate>
            <in>0</in>
            <out>84</out>
            <start>4421</start>
            <end>4505</end>
            <pixelaspectratio>Square</pixelaspectratio>
            <stillframe>FALSE</stillframe>
            <enabled>TRUE</enabled>
            <anamorphic>FALSE</anamorphic>
            <alphatype>straight</alphatype>
            <file id="MM_138_Cajas de carton_FINAL-33 1">
              <name>MM_138_Cajas de carton_FINAL-33.mov</name>
              <pathurl>file://localhost/Users/pepesanchez/Desktop/untitled%20folder/MM_138_Cajas%20de%20carton_FINAL-33.mov</pathurl>
              <rate>
                <timebase>25</timebase>
              </rate>
              <duration>84</duration>
              <width>1280</width>
              <height>720</height>
              <media>
                <video>
                  <duration>84</duration>
                  <stillframe>FALSE</stillframe>
                  <samplecharacteristics>
                    <width>1280</width>
                    <height>720</height>
                  </samplecharacteristics>
                </video>
              </media>
            </file>
            <sourcetrack>
              <mediatype>video</mediatype>
            </sourcetrack>
            <itemhistory>
              <uuid>58644056-6A7D-D7B4-2D7E-AF5EFC0B92D4</uuid>
            </itemhistory>
          </clipitem>
          <clipitem id="MM_138_Cajas de carton_FINAL-34">
            <name>MM_138_Cajas de carton_FINAL-34</name>
            <duration>64</duration>
            <rate>
              <ntsc>FALSE</ntsc>
              <timebase>25</timebase>
            </rate>
            <in>0</in>
            <out>64</out>
            <start>4505</start>
            <end>4569</end>
            <pixelaspectratio>Square</pixelaspectratio>
            <stillframe>FALSE</stillframe>
            <enabled>TRUE</enabled>
            <anamorphic>FALSE</anamorphic>
            <alphatype>straight</alphatype>
            <file id="MM_138_Cajas de carton_FINAL-34 1">
              <name>MM_138_Cajas de carton_FINAL-34.mov</name>
              <pathurl>file://localhost/Users/pepesanchez/Desktop/untitled%20folder/MM_138_Cajas%20de%20carton_FINAL-34.mov</pathurl>
              <rate>
                <timebase>25</timebase>
              </rate>
              <duration>64</duration>
              <width>1280</width>
              <height>720</height>
              <media>
                <video>
                  <duration>64</duration>
                  <stillframe>FALSE</stillframe>
                  <samplecharacteristics>
                    <width>1280</width>
                    <height>720</height>
                  </samplecharacteristics>
                </video>
              </media>
            </file>
            <sourcetrack>
              <mediatype>video</mediatype>
            </sourcetrack>
            <itemhistory>
              <uuid>DC8CBF9B-97E4-B303-4247-632D3A513709</uuid>
            </itemhistory>
          </clipitem>
          <clipitem id="MM_138_Cajas de carton_FINAL-35">
            <name>MM_138_Cajas de carton_FINAL-35</name>
            <duration>128</duration>
            <rate>
              <ntsc>FALSE</ntsc>
              <timebase>25</timebase>
            </rate>
            <in>0</in>
            <out>128</out>
            <start>4569</start>
            <end>4697</end>
            <pixelaspectratio>Square</pixelaspectratio>
            <stillframe>FALSE</stillframe>
            <enabled>TRUE</enabled>
            <anamorphic>FALSE</anamorphic>
            <alphatype>straight</alphatype>
            <file id="MM_138_Cajas de carton_FINAL-35 1">
              <name>MM_138_Cajas de carton_FINAL-35.mov</name>
              <pathurl>file://localhost/Users/pepesanchez/Desktop/untitled%20folder/MM_138_Cajas%20de%20carton_FINAL-35.mov</pathurl>
              <rate>
                <timebase>25</timebase>
              </rate>
              <duration>128</duration>
              <width>1280</width>
              <height>720</height>
              <media>
                <video>
                  <duration>128</duration>
                  <stillframe>FALSE</stillframe>
                  <samplecharacteristics>
                    <width>1280</width>
                    <height>720</height>
                  </samplecharacteristics>
                </video>
              </media>
            </file>
            <sourcetrack>
              <mediatype>video</mediatype>
            </sourcetrack>
            <itemhistory>
              <uuid>465F9CE7-2F8F-EB83-BCF5-7E45D4EC8A57</uuid>
            </itemhistory>
          </clipitem>
          <clipitem id="MM_138_Cajas de carton_FINAL-36">
            <name>MM_138_Cajas de carton_FINAL-36</name>
            <duration>50</duration>
            <rate>
              <ntsc>FALSE</ntsc>
              <timebase>25</timebase>
            </rate>
            <in>0</in>
            <out>50</out>
            <start>4697</start>
            <end>4747</end>
            <pixelaspectratio>Square</pixelaspectratio>
            <stillframe>FALSE</stillframe>
            <enabled>TRUE</enabled>
            <anamorphic>FALSE</anamorphic>
            <alphatype>straight</alphatype>
            <file id="MM_138_Cajas de carton_FINAL-36 1">
              <name>MM_138_Cajas de carton_FINAL-36.mov</name>
              <pathurl>file://localhost/Users/pepesanchez/Desktop/untitled%20folder/MM_138_Cajas%20de%20carton_FINAL-36.mov</pathurl>
              <rate>
                <timebase>25</timebase>
              </rate>
              <duration>50</duration>
              <width>1280</width>
              <height>720</height>
              <media>
                <video>
                  <duration>50</duration>
                  <stillframe>FALSE</stillframe>
                  <samplecharacteristics>
                    <width>1280</width>
                    <height>720</height>
                  </samplecharacteristics>
                </video>
              </media>
            </file>
            <sourcetrack>
              <mediatype>video</mediatype>
            </sourcetrack>
            <itemhistory>
              <uuid>76B385FD-4CCC-90AB-D8DC-9BF0EF97E55D</uuid>
            </itemhistory>
          </clipitem>
          <clipitem id="MM_138_Cajas de carton_FINAL-37">
            <name>MM_138_Cajas de carton_FINAL-37</name>
            <duration>112</duration>
            <rate>
              <ntsc>FALSE</ntsc>
              <timebase>25</timebase>
            </rate>
            <in>0</in>
            <out>112</out>
            <start>4747</start>
            <end>4859</end>
            <pixelaspectratio>Square</pixelaspectratio>
            <stillframe>FALSE</stillframe>
            <enabled>TRUE</enabled>
            <anamorphic>FALSE</anamorphic>
            <alphatype>straight</alphatype>
            <file id="MM_138_Cajas de carton_FINAL-37 1">
              <name>MM_138_Cajas de carton_FINAL-37.mov</name>
              <pathurl>file://localhost/Users/pepesanchez/Desktop/untitled%20folder/MM_138_Cajas%20de%20carton_FINAL-37.mov</pathurl>
              <rate>
                <timebase>25</timebase>
              </rate>
              <duration>112</duration>
              <width>1280</width>
              <height>720</height>
              <media>
                <video>
                  <duration>112</duration>
                  <stillframe>FALSE</stillframe>
                  <samplecharacteristics>
                    <width>1280</width>
                    <height>720</height>
                  </samplecharacteristics>
                </video>
              </media>
            </file>
            <sourcetrack>
              <mediatype>video</mediatype>
            </sourcetrack>
            <itemhistory>
              <uuid>10824F99-E324-9D6F-138E-FBC3DB105E9E</uuid>
            </itemhistory>
          </clipitem>
          <clipitem id="MM_138_Cajas de carton_FINAL-38">
            <name>MM_138_Cajas de carton_FINAL-38</name>
            <duration>311</duration>
            <rate>
              <ntsc>FALSE</ntsc>
              <timebase>25</timebase>
            </rate>
            <in>0</in>
            <out>311</out>
            <start>4859</start>
            <end>5170</end>
            <pixelaspectratio>Square</pixelaspectratio>
            <stillframe>FALSE</stillframe>
            <enabled>TRUE</enabled>
            <anamorphic>FALSE</anamorphic>
            <alphatype>straight</alphatype>
            <file id="MM_138_Cajas de carton_FINAL-38 1">
              <name>MM_138_Cajas de carton_FINAL-38.mov</name>
              <pathurl>file://localhost/Users/pepesanchez/Desktop/untitled%20folder/MM_138_Cajas%20de%20carton_FINAL-38.mov</pathurl>
              <rate>
                <timebase>25</timebase>
              </rate>
              <duration>311</duration>
              <width>1280</width>
              <height>720</height>
              <media>
                <video>
                  <duration>311</duration>
                  <stillframe>FALSE</stillframe>
                  <samplecharacteristics>
                    <width>1280</width>
                    <height>720</height>
                  </samplecharacteristics>
                </video>
              </media>
            </file>
            <sourcetrack>
              <mediatype>video</mediatype>
            </sourcetrack>
            <itemhistory>
              <uuid>80C26427-6567-F625-BE8A-8A6EDF422943</uuid>
            </itemhistory>
          </clipitem>
          <clipitem id="MM_138_Cajas de carton_FINAL-39">
            <name>MM_138_Cajas de carton_FINAL-39</name>
            <duration>60</duration>
            <rate>
              <ntsc>FALSE</ntsc>
              <timebase>25</timebase>
            </rate>
            <in>0</in>
            <out>60</out>
            <start>5170</start>
            <end>5230</end>
            <pixelaspectratio>Square</pixelaspectratio>
            <stillframe>FALSE</stillframe>
            <enabled>TRUE</enabled>
            <anamorphic>FALSE</anamorphic>
            <alphatype>straight</alphatype>
            <file id="MM_138_Cajas de carton_FINAL-39 1">
              <name>MM_138_Cajas de carton_FINAL-39.mov</name>
              <pathurl>file://localhost/Users/pepesanchez/Desktop/untitled%20folder/MM_138_Cajas%20de%20carton_FINAL-39.mov</pathurl>
              <rate>
                <timebase>25</timebase>
              </rate>
              <duration>60</duration>
              <width>1280</width>
              <height>720</height>
              <media>
                <video>
                  <duration>60</duration>
                  <stillframe>FALSE</stillframe>
                  <samplecharacteristics>
                    <width>1280</width>
                    <height>720</height>
                  </samplecharacteristics>
                </video>
              </media>
            </file>
            <sourcetrack>
              <mediatype>video</mediatype>
            </sourcetrack>
            <itemhistory>
              <uuid>FB5F654D-DA48-E52E-F8C1-10B5ECB11E8D</uuid>
            </itemhistory>
          </clipitem>
          <clipitem id="MM_138_Cajas de carton_FINAL-40">
            <name>MM_138_Cajas de carton_FINAL-40</name>
            <duration>283</duration>
            <rate>
              <ntsc>FALSE</ntsc>
              <timebase>25</timebase>
            </rate>
            <in>0</in>
            <out>283</out>
            <start>5230</start>
            <end>5513</end>
            <pixelaspectratio>Square</pixelaspectratio>
            <stillframe>FALSE</stillframe>
            <enabled>TRUE</enabled>
            <anamorphic>FALSE</anamorphic>
            <alphatype>straight</alphatype>
            <file id="MM_138_Cajas de carton_FINAL-40 1">
              <name>MM_138_Cajas de carton_FINAL-40.mov</name>
              <pathurl>file://localhost/Users/pepesanchez/Desktop/untitled%20folder/MM_138_Cajas%20de%20carton_FINAL-40.mov</pathurl>
              <rate>
                <timebase>25</timebase>
              </rate>
              <duration>283</duration>
              <width>1280</width>
              <height>720</height>
              <media>
                <video>
                  <duration>283</duration>
                  <stillframe>FALSE</stillframe>
                  <samplecharacteristics>
                    <width>1280</width>
                    <height>720</height>
                  </samplecharacteristics>
                </video>
              </media>
            </file>
            <sourcetrack>
              <mediatype>video</mediatype>
            </sourcetrack>
            <itemhistory>
              <uuid>5E8B154D-97E7-F20C-C165-A8F299CED078</uuid>
            </itemhistory>
          </clipitem>
          <clipitem id="MM_138_Cajas de carton_FINAL-41">
            <name>MM_138_Cajas de carton_FINAL-41</name>
            <duration>164</duration>
            <rate>
              <ntsc>FALSE</ntsc>
              <timebase>25</timebase>
            </rate>
            <in>0</in>
            <out>164</out>
            <start>5513</start>
            <end>5677</end>
            <pixelaspectratio>Square</pixelaspectratio>
            <stillframe>FALSE</stillframe>
            <enabled>TRUE</enabled>
            <anamorphic>FALSE</anamorphic>
            <alphatype>straight</alphatype>
            <file id="MM_138_Cajas de carton_FINAL-41 1">
              <name>MM_138_Cajas de carton_FINAL-41.mov</name>
              <pathurl>file://localhost/Users/pepesanchez/Desktop/untitled%20folder/MM_138_Cajas%20de%20carton_FINAL-41.mov</pathurl>
              <rate>
                <timebase>25</timebase>
              </rate>
              <duration>164</duration>
              <width>1280</width>
              <height>720</height>
              <media>
                <video>
                  <duration>164</duration>
                  <stillframe>FALSE</stillframe>
                  <samplecharacteristics>
                    <width>1280</width>
                    <height>720</height>
                  </samplecharacteristics>
                </video>
              </media>
            </file>
            <sourcetrack>
              <mediatype>video</mediatype>
            </sourcetrack>
            <itemhistory>
              <uuid>C51F41F6-272A-4564-C4A0-1ABC45C4F4E0</uuid>
            </itemhistory>
          </clipitem>
          <clipitem id="MM_138_Cajas de carton_FINAL-42">
            <name>MM_138_Cajas de carton_FINAL-42</name>
            <duration>280</duration>
            <rate>
              <ntsc>FALSE</ntsc>
              <timebase>25</timebase>
            </rate>
            <in>0</in>
            <out>280</out>
            <start>5677</start>
            <end>5957</end>
            <pixelaspectratio>Square</pixelaspectratio>
            <stillframe>FALSE</stillframe>
            <enabled>TRUE</enabled>
            <anamorphic>FALSE</anamorphic>
            <alphatype>straight</alphatype>
            <file id="MM_138_Cajas de carton_FINAL-42 1">
              <name>MM_138_Cajas de carton_FINAL-42.mov</name>
              <pathurl>file://localhost/Users/pepesanchez/Desktop/untitled%20folder/MM_138_Cajas%20de%20carton_FINAL-42.mov</pathurl>
              <rate>
                <timebase>25</timebase>
              </rate>
              <duration>280</duration>
              <width>1280</width>
              <height>720</height>
              <media>
                <video>
                  <duration>280</duration>
                  <stillframe>FALSE</stillframe>
                  <samplecharacteristics>
                    <width>1280</width>
                    <height>720</height>
                  </samplecharacteristics>
                </video>
              </media>
            </file>
            <sourcetrack>
              <mediatype>video</mediatype>
            </sourcetrack>
            <itemhistory>
              <uuid>FA23E839-38FD-9458-DA74-3008FAB486FA</uuid>
            </itemhistory>
          </clipitem>
          <clipitem id="MM_138_Cajas de carton_FINAL-43">
            <name>MM_138_Cajas de carton_FINAL-43</name>
            <duration>69</duration>
            <rate>
              <ntsc>FALSE</ntsc>
              <timebase>25</timebase>
            </rate>
            <in>0</in>
            <out>69</out>
            <start>5957</start>
            <end>6026</end>
            <pixelaspectratio>Square</pixelaspectratio>
            <stillframe>FALSE</stillframe>
            <enabled>TRUE</enabled>
            <anamorphic>FALSE</anamorphic>
            <alphatype>straight</alphatype>
            <file id="MM_138_Cajas de carton_FINAL-43 1">
              <name>MM_138_Cajas de carton_FINAL-43.mov</name>
              <pathurl>file://localhost/Users/pepesanchez/Desktop/untitled%20folder/MM_138_Cajas%20de%20carton_FINAL-43.mov</pathurl>
              <rate>
                <timebase>25</timebase>
              </rate>
              <duration>69</duration>
              <width>1280</width>
              <height>720</height>
              <media>
                <video>
                  <duration>69</duration>
                  <stillframe>FALSE</stillframe>
                  <samplecharacteristics>
                    <width>1280</width>
                    <height>720</height>
                  </samplecharacteristics>
                </video>
              </media>
            </file>
            <sourcetrack>
              <mediatype>video</mediatype>
            </sourcetrack>
            <itemhistory>
              <uuid>BAD940FA-7A4F-84F0-E016-4D278EAB395D</uuid>
            </itemhistory>
          </clipitem>
          <clipitem id="MM_138_Cajas de carton_FINAL-44">
            <name>MM_138_Cajas de carton_FINAL-44</name>
            <duration>169</duration>
            <rate>
              <ntsc>FALSE</ntsc>
              <timebase>25</timebase>
            </rate>
            <in>0</in>
            <out>169</out>
            <start>6026</start>
            <end>6195</end>
            <pixelaspectratio>Square</pixelaspectratio>
            <stillframe>FALSE</stillframe>
            <enabled>TRUE</enabled>
            <anamorphic>FALSE</anamorphic>
            <alphatype>straight</alphatype>
            <file id="MM_138_Cajas de carton_FINAL-44 1">
              <name>MM_138_Cajas de carton_FINAL-44.mov</name>
              <pathurl>file://localhost/Users/pepesanchez/Desktop/untitled%20folder/MM_138_Cajas%20de%20carton_FINAL-44.mov</pathurl>
              <rate>
                <timebase>25</timebase>
              </rate>
              <duration>169</duration>
              <width>1280</width>
              <height>720</height>
              <media>
                <video>
                  <duration>169</duration>
                  <stillframe>FALSE</stillframe>
                  <samplecharacteristics>
                    <width>1280</width>
                    <height>720</height>
                  </samplecharacteristics>
                </video>
              </media>
            </file>
            <sourcetrack>
              <mediatype>video</mediatype>
            </sourcetrack>
            <itemhistory>
              <uuid>30C4222A-15CC-1156-4449-8630CBB8568D</uuid>
            </itemhistory>
          </clipitem>
          <clipitem id="MM_138_Cajas de carton_FINAL-45">
            <name>MM_138_Cajas de carton_FINAL-45</name>
            <duration>113</duration>
            <rate>
              <ntsc>FALSE</ntsc>
              <timebase>25</timebase>
            </rate>
            <in>0</in>
            <out>113</out>
            <start>6195</start>
            <end>6308</end>
            <pixelaspectratio>Square</pixelaspectratio>
            <stillframe>FALSE</stillframe>
            <enabled>TRUE</enabled>
            <anamorphic>FALSE</anamorphic>
            <alphatype>straight</alphatype>
            <file id="MM_138_Cajas de carton_FINAL-45 1">
              <name>MM_138_Cajas de carton_FINAL-45.mov</name>
              <pathurl>file://localhost/Users/pepesanchez/Desktop/untitled%20folder/MM_138_Cajas%20de%20carton_FINAL-45.mov</pathurl>
              <rate>
                <timebase>25</timebase>
              </rate>
              <duration>113</duration>
              <width>1280</width>
              <height>720</height>
              <media>
                <video>
                  <duration>113</duration>
                  <stillframe>FALSE</stillframe>
                  <samplecharacteristics>
                    <width>1280</width>
                    <height>720</height>
                  </samplecharacteristics>
                </video>
              </media>
            </file>
            <sourcetrack>
              <mediatype>video</mediatype>
            </sourcetrack>
            <itemhistory>
              <uuid>E483953C-CC99-1EEA-1DC5-DA9CFF317DEF</uuid>
            </itemhistory>
          </clipitem>
          <clipitem id="MM_138_Cajas de carton_FINAL-46">
            <name>MM_138_Cajas de carton_FINAL-46</name>
            <duration>37</duration>
            <rate>
              <ntsc>FALSE</ntsc>
              <timebase>25</timebase>
            </rate>
            <in>0</in>
            <out>37</out>
            <start>6308</start>
            <end>6345</end>
            <pixelaspectratio>Square</pixelaspectratio>
            <stillframe>FALSE</stillframe>
            <enabled>TRUE</enabled>
            <anamorphic>FALSE</anamorphic>
            <alphatype>straight</alphatype>
            <file id="MM_138_Cajas de carton_FINAL-46 1">
              <name>MM_138_Cajas de carton_FINAL-46.mov</name>
              <pathurl>file://localhost/Users/pepesanchez/Desktop/untitled%20folder/MM_138_Cajas%20de%20carton_FINAL-46.mov</pathurl>
              <rate>
                <timebase>25</timebase>
              </rate>
              <duration>37</duration>
              <width>1280</width>
              <height>720</height>
              <media>
                <video>
                  <duration>37</duration>
                  <stillframe>FALSE</stillframe>
                  <samplecharacteristics>
                    <width>1280</width>
                    <height>720</height>
                  </samplecharacteristics>
                </video>
              </media>
            </file>
            <sourcetrack>
              <mediatype>video</mediatype>
            </sourcetrack>
            <itemhistory>
              <uuid>796D9A9C-B10A-4F58-310C-1DA1D556C2A2</uuid>
            </itemhistory>
          </clipitem>
          <clipitem id="MM_138_Cajas de carton_FINAL-47">
            <name>MM_138_Cajas de carton_FINAL-47</name>
            <duration>252</duration>
            <rate>
              <ntsc>FALSE</ntsc>
              <timebase>25</timebase>
            </rate>
            <in>0</in>
            <out>252</out>
            <start>6345</start>
            <end>6597</end>
            <pixelaspectratio>Square</pixelaspectratio>
            <stillframe>FALSE</stillframe>
            <enabled>TRUE</enabled>
            <anamorphic>FALSE</anamorphic>
            <alphatype>straight</alphatype>
            <file id="MM_138_Cajas de carton_FINAL-47 1">
              <name>MM_138_Cajas de carton_FINAL-47.mov</name>
              <pathurl>file://localhost/Users/pepesanchez/Desktop/untitled%20folder/MM_138_Cajas%20de%20carton_FINAL-47.mov</pathurl>
              <rate>
                <timebase>25</timebase>
              </rate>
              <duration>252</duration>
              <width>1280</width>
              <height>720</height>
              <media>
                <video>
                  <duration>252</duration>
                  <stillframe>FALSE</stillframe>
                  <samplecharacteristics>
                    <width>1280</width>
                    <height>720</height>
                  </samplecharacteristics>
                </video>
              </media>
            </file>
            <sourcetrack>
              <mediatype>video</mediatype>
            </sourcetrack>
            <itemhistory>
              <uuid>66375748-66AB-8585-3E93-CB9828F9850E</uuid>
            </itemhistory>
          </clipitem>
          <clipitem id="MM_138_Cajas de carton_FINAL-48">
            <name>MM_138_Cajas de carton_FINAL-48</name>
            <duration>463</duration>
            <rate>
              <ntsc>FALSE</ntsc>
              <timebase>25</timebase>
            </rate>
            <in>0</in>
            <out>463</out>
            <start>6597</start>
            <end>7060</end>
            <pixelaspectratio>Square</pixelaspectratio>
            <stillframe>FALSE</stillframe>
            <enabled>TRUE</enabled>
            <anamorphic>FALSE</anamorphic>
            <alphatype>straight</alphatype>
            <file id="MM_138_Cajas de carton_FINAL-48 1">
              <name>MM_138_Cajas de carton_FINAL-48.mov</name>
              <pathurl>file://localhost/Users/pepesanchez/Desktop/untitled%20folder/MM_138_Cajas%20de%20carton_FINAL-48.mov</pathurl>
              <rate>
                <timebase>25</timebase>
              </rate>
              <duration>463</duration>
              <width>1280</width>
              <height>720</height>
              <media>
                <video>
                  <duration>463</duration>
                  <stillframe>FALSE</stillframe>
                  <samplecharacteristics>
                    <width>1280</width>
                    <height>720</height>
                  </samplecharacteristics>
                </video>
              </media>
            </file>
            <sourcetrack>
              <mediatype>video</mediatype>
            </sourcetrack>
            <itemhistory>
              <uuid>73F4C100-9BC0-7FF5-4F25-A3576C388454</uuid>
            </itemhistory>
          </clipitem>
          <clipitem id="MM_138_Cajas de carton_FINAL-49">
            <name>MM_138_Cajas de carton_FINAL-49</name>
            <duration>233</duration>
            <rate>
              <ntsc>FALSE</ntsc>
              <timebase>25</timebase>
            </rate>
            <in>0</in>
            <out>233</out>
            <start>7060</start>
            <end>-1</end>
            <pixelaspectratio>Square</pixelaspectratio>
            <stillframe>FALSE</stillframe>
            <enabled>TRUE</enabled>
            <anamorphic>FALSE</anamorphic>
            <alphatype>straight</alphatype>
            <file id="MM_138_Cajas de carton_FINAL-49 1">
              <name>MM_138_Cajas de carton_FINAL-49.mov</name>
              <pathurl>file://localhost/Users/pepesanchez/Desktop/untitled%20folder/MM_138_Cajas%20de%20carton_FINAL-49.mov</pathurl>
              <rate>
                <timebase>25</timebase>
              </rate>
              <duration>233</duration>
              <width>1280</width>
              <height>720</height>
              <media>
                <video>
                  <duration>233</duration>
                  <stillframe>FALSE</stillframe>
                  <samplecharacteristics>
                    <width>1280</width>
                    <height>720</height>
                  </samplecharacteristics>
                </video>
              </media>
            </file>
            <sourcetrack>
              <mediatype>video</mediatype>
            </sourcetrack>
            <itemhistory>
              <uuid>D546B80A-48E2-1BEC-AFF1-A8F1A87094B6</uuid>
            </itemhistory>
          </clipitem>
          <transitionitem>
            <rate>
              <ntsc>FALSE</ntsc>
              <timebase>25</timebase>
            </rate>
            <start>7281</start>
            <end>7293</end>
            <effect>
              <name>Cross Dissolve</name>
              <effectid>Cross Dissolve</effectid>
              <effectcategory>Dissolve</effectcategory>
              <effecttype>transition</effecttype>
              <mediatype>video</mediatype>
            </effect>
          </transitionitem>
          <clipitem id="MM_138_Cajas de carton_FINAL-50">
            <name>MM_138_Cajas de carton_FINAL-50</name>
            <duration>25</duration>
            <rate>
              <ntsc>FALSE</ntsc>
              <timebase>25</timebase>
            </rate>
            <in>0</in>
            <out>25</out>
            <start>-1</start>
            <end>7306</end>
            <pixelaspectratio>Square</pixelaspectratio>
            <stillframe>FALSE</stillframe>
            <enabled>TRUE</enabled>
            <anamorphic>FALSE</anamorphic>
            <alphatype>straight</alphatype>
            <file id="MM_138_Cajas de carton_FINAL-50 1">
              <name>MM_138_Cajas de carton_FINAL-50.mov</name>
              <pathurl>file://localhost/Users/pepesanchez/Desktop/untitled%20folder/MM_138_Cajas%20de%20carton_FINAL-50.mov</pathurl>
              <rate>
                <timebase>25</timebase>
              </rate>
              <duration>25</duration>
              <width>1280</width>
              <height>720</height>
              <media>
                <video>
                  <duration>25</duration>
                  <stillframe>FALSE</stillframe>
                  <samplecharacteristics>
                    <width>1280</width>
                    <height>720</height>
                  </samplecharacteristics>
                </video>
              </media>
            </file>
            <sourcetrack>
              <mediatype>video</mediatype>
            </sourcetrack>
            <itemhistory>
              <uuid>E72F89B7-555E-C48D-BC8E-692DEEF635B1</uuid>
            </itemhistory>
          </clipitem>
          <enabled>TRUE</enabled>
          <locked>FALSE</locked>
        </track>
      </video>
      <audio>
        <format/>
        <track>
          <clipitem id="monsters_S01E38_lineal_v001">
            <name>monsters_S01E38_lineal_v001</name>
            <duration>6469</duration>
            <rate>
              <ntsc>FALSE</ntsc>
              <timebase>25</timebase>
            </rate>
            <in>0</in>
            <out>119</out>
            <start>29</start>
            <end>148</end>
            <file id="monsters_S01E38_lineal_v001 1">
              <name>monsters_S01E38_lineal_v001.aif</name>
              <pathurl>file://localhost/Users/pepesanchez/Desktop/untitled%20folder/monsters_S01E38_lineal_v001.aif</pathurl>
              <rate>
                <timebase>25</timebase>
              </rate>
              <duration>6469</duration>
              <media>
                <audio>
                  <samplecharacteristics>
                    <samplerate>48000</samplerate>
                    <depth>16</depth>
                  </samplecharacteristics>
                  <channelcount>2</channelcount>
                  <layout>stereo</layout>
                  <audiochannel>
                    <sourcechannel>1</sourcechannel>
                    <channellabel>left</channellabel>
                  </audiochannel>
                  <audiochannel>
                    <sourcechannel>2</sourcechannel>
                    <channellabel>right</channellabel>
                  </audiochannel>
                </audio>
              </media>
            </file>
            <sourcetrack>
              <mediatype>audio</mediatype>
              <trackindex>1</trackindex>
            </sourcetrack>
            <link>
              <linkclipref>monsters_S01E38_lineal_v001</linkclipref>
              <mediatype>audio</mediatype>
              <trackindex>1</trackindex>
              <clipindex>1</clipindex>
              <groupindex>1</groupindex>
            </link>
            <link>
              <linkclipref>monsters_S01E38_lineal_v001 2</linkclipref>
              <mediatype>audio</mediatype>
              <trackindex>2</trackindex>
              <clipindex>1</clipindex>
              <groupindex>1</groupindex>
            </link>
            <itemhistory>
              <uuid>9CB014B6-5C7D-B122-7400-DEFF8E9F9A9E</uuid>
            </itemhistory>
          </clipitem>
          <clipitem id="monsters_S01E38_lineal_v001 3">
            <name>monsters_S01E38_lineal_v001</name>
            <duration>6469</duration>
            <rate>
              <ntsc>FALSE</ntsc>
              <timebase>25</timebase>
            </rate>
            <in>233</in>
            <out>301</out>
            <start>216</start>
            <end>284</end>
            <file id="monsters_S01E38_lineal_v001 4">
              <name>monsters_S01E38_lineal_v001.aif</name>
              <pathurl>file://localhost/Users/pepesanchez/Desktop/untitled%20folder/monsters_S01E38_lineal_v001.aif</pathurl>
              <rate>
                <timebase>25</timebase>
              </rate>
              <duration>6469</duration>
              <media>
                <audio>
                  <samplecharacteristics>
                    <samplerate>48000</samplerate>
                    <depth>16</depth>
                  </samplecharacteristics>
                  <channelcount>2</channelcount>
                  <layout>stereo</layout>
                  <audiochannel>
                    <sourcechannel>1</sourcechannel>
                    <channellabel>left</channellabel>
                  </audiochannel>
                  <audiochannel>
                    <sourcechannel>2</sourcechannel>
                    <channellabel>right</channellabel>
                  </audiochannel>
                </audio>
              </media>
            </file>
            <sourcetrack>
              <mediatype>audio</mediatype>
              <trackindex>1</trackindex>
            </sourcetrack>
            <link>
              <linkclipref>monsters_S01E38_lineal_v001 3</linkclipref>
              <mediatype>audio</mediatype>
              <trackindex>1</trackindex>
              <clipindex>2</clipindex>
              <groupindex>1</groupindex>
            </link>
            <link>
              <linkclipref>monsters_S01E38_lineal_v001 5</linkclipref>
              <mediatype>audio</mediatype>
              <trackindex>2</trackindex>
              <clipindex>2</clipindex>
              <groupindex>1</groupindex>
            </link>
            <itemhistory>
              <uuid>2D9DBCD8-548E-EAC1-E718-A83D6BFC981A</uuid>
            </itemhistory>
          </clipitem>
          <clipitem id="monsters_S01E38_lineal_v001 6">
            <name>monsters_S01E38_lineal_v001</name>
            <duration>6469</duration>
            <rate>
              <ntsc>FALSE</ntsc>
              <timebase>25</timebase>
            </rate>
            <in>645</in>
            <out>726</out>
            <start>620</start>
            <end>701</end>
            <file id="monsters_S01E38_lineal_v001 7">
              <name>monsters_S01E38_lineal_v001.aif</name>
              <pathurl>file://localhost/Users/pepesanchez/Desktop/untitled%20folder/monsters_S01E38_lineal_v001.aif</pathurl>
              <rate>
                <timebase>25</timebase>
              </rate>
              <duration>6469</duration>
              <media>
                <audio>
                  <samplecharacteristics>
                    <samplerate>48000</samplerate>
                    <depth>16</depth>
                  </samplecharacteristics>
                  <channelcount>2</channelcount>
                  <layout>stereo</layout>
                  <audiochannel>
                    <sourcechannel>1</sourcechannel>
                    <channellabel>left</channellabel>
                  </audiochannel>
                  <audiochannel>
                    <sourcechannel>2</sourcechannel>
                    <channellabel>right</channellabel>
                  </audiochannel>
                </audio>
              </media>
            </file>
            <sourcetrack>
              <mediatype>audio</mediatype>
              <trackindex>1</trackindex>
            </sourcetrack>
            <link>
              <linkclipref>monsters_S01E38_lineal_v001 6</linkclipref>
              <mediatype>audio</mediatype>
              <trackindex>1</trackindex>
              <clipindex>3</clipindex>
              <groupindex>1</groupindex>
            </link>
            <link>
              <linkclipref>monsters_S01E38_lineal_v001 8</linkclipref>
              <mediatype>audio</mediatype>
              <trackindex>2</trackindex>
              <clipindex>3</clipindex>
              <groupindex>1</groupindex>
            </link>
            <itemhistory>
              <uuid>6973F479-7FE0-EE28-D563-8E4E4FDB176E</uuid>
            </itemhistory>
          </clipitem>
          <clipitem id="monsters_S01E38_lineal_v001 9">
            <name>monsters_S01E38_lineal_v001</name>
            <duration>6469</duration>
            <rate>
              <ntsc>FALSE</ntsc>
              <timebase>25</timebase>
            </rate>
            <in>848</in>
            <out>1024</out>
            <start>775</start>
            <end>951</end>
            <file id="monsters_S01E38_lineal_v001 10">
              <name>monsters_S01E38_lineal_v001.aif</name>
              <pathurl>file://localhost/Users/pepesanchez/Desktop/untitled%20folder/monsters_S01E38_lineal_v001.aif</pathurl>
              <rate>
                <timebase>25</timebase>
              </rate>
              <duration>6469</duration>
              <media>
                <audio>
                  <samplecharacteristics>
                    <samplerate>48000</samplerate>
                    <depth>16</depth>
                  </samplecharacteristics>
                  <channelcount>2</channelcount>
                  <layout>stereo</layout>
                  <audiochannel>
                    <sourcechannel>1</sourcechannel>
                    <channellabel>left</channellabel>
                  </audiochannel>
                  <audiochannel>
                    <sourcechannel>2</sourcechannel>
                    <channellabel>right</channellabel>
                  </audiochannel>
                </audio>
              </media>
            </file>
            <sourcetrack>
              <mediatype>audio</mediatype>
              <trackindex>1</trackindex>
            </sourcetrack>
            <link>
              <linkclipref>monsters_S01E38_lineal_v001 9</linkclipref>
              <mediatype>audio</mediatype>
              <trackindex>1</trackindex>
              <clipindex>4</clipindex>
              <groupindex>1</groupindex>
            </link>
            <link>
              <linkclipref>monsters_S01E38_lineal_v001 11</linkclipref>
              <mediatype>audio</mediatype>
              <trackindex>2</trackindex>
              <clipindex>4</clipindex>
              <groupindex>1</groupindex>
            </link>
            <itemhistory>
              <uuid>504F8ED5-F2BC-EFC5-B9F6-FE0945B193BE</uuid>
            </itemhistory>
          </clipitem>
          <clipitem id="monsters_S01E38_lineal_v001 12">
            <name>monsters_S01E38_lineal_v001</name>
            <duration>6469</duration>
            <rate>
              <ntsc>FALSE</ntsc>
              <timebase>25</timebase>
            </rate>
            <in>1581</in>
            <out>1629</out>
            <start>1466</start>
            <end>1514</end>
            <file id="monsters_S01E38_lineal_v001 13">
              <name>monsters_S01E38_lineal_v001.aif</name>
              <pathurl>file://localhost/Users/pepesanchez/Desktop/untitled%20folder/monsters_S01E38_lineal_v001.aif</pathurl>
              <rate>
                <timebase>25</timebase>
              </rate>
              <duration>6469</duration>
              <media>
                <audio>
                  <samplecharacteristics>
                    <samplerate>48000</samplerate>
                    <depth>16</depth>
                  </samplecharacteristics>
                  <channelcount>2</channelcount>
                  <layout>stereo</layout>
                  <audiochannel>
                    <sourcechannel>1</sourcechannel>
                    <channellabel>left</channellabel>
                  </audiochannel>
                  <audiochannel>
                    <sourcechannel>2</sourcechannel>
                    <channellabel>right</channellabel>
                  </audiochannel>
                </audio>
              </media>
            </file>
            <sourcetrack>
              <mediatype>audio</mediatype>
              <trackindex>1</trackindex>
            </sourcetrack>
            <link>
              <linkclipref>monsters_S01E38_lineal_v001 12</linkclipref>
              <mediatype>audio</mediatype>
              <trackindex>1</trackindex>
              <clipindex>5</clipindex>
              <groupindex>1</groupindex>
            </link>
            <link>
              <linkclipref>monsters_S01E38_lineal_v001 14</linkclipref>
              <mediatype>audio</mediatype>
              <trackindex>2</trackindex>
              <clipindex>5</clipindex>
              <groupindex>1</groupindex>
            </link>
            <itemhistory>
              <uuid>4BD2F514-40B2-7C20-570F-B4434DD8B5F5</uuid>
            </itemhistory>
          </clipitem>
          <clipitem id="monsters_S01E38_lineal_v001 15">
            <name>monsters_S01E38_lineal_v001</name>
            <duration>6469</duration>
            <rate>
              <ntsc>FALSE</ntsc>
              <timebase>25</timebase>
            </rate>
            <in>1826</in>
            <out>1889</out>
            <start>1685</start>
            <end>1748</end>
            <file id="monsters_S01E38_lineal_v001 16">
              <name>monsters_S01E38_lineal_v001.aif</name>
              <pathurl>file://localhost/Users/pepesanchez/Desktop/untitled%20folder/monsters_S01E38_lineal_v001.aif</pathurl>
              <rate>
                <timebase>25</timebase>
              </rate>
              <duration>6469</duration>
              <media>
                <audio>
                  <samplecharacteristics>
                    <samplerate>48000</samplerate>
                    <depth>16</depth>
                  </samplecharacteristics>
                  <channelcount>2</channelcount>
                  <layout>stereo</layout>
                  <audiochannel>
                    <sourcechannel>1</sourcechannel>
                    <channellabel>left</channellabel>
                  </audiochannel>
                  <audiochannel>
                    <sourcechannel>2</sourcechannel>
                    <channellabel>right</channellabel>
                  </audiochannel>
                </audio>
              </media>
            </file>
            <sourcetrack>
              <mediatype>audio</mediatype>
              <trackindex>1</trackindex>
            </sourcetrack>
            <link>
              <linkclipref>monsters_S01E38_lineal_v001 15</linkclipref>
              <mediatype>audio</mediatype>
              <trackindex>1</trackindex>
              <clipindex>6</clipindex>
              <groupindex>1</groupindex>
            </link>
            <link>
              <linkclipref>monsters_S01E38_lineal_v001 17</linkclipref>
              <mediatype>audio</mediatype>
              <trackindex>2</trackindex>
              <clipindex>6</clipindex>
              <groupindex>1</groupindex>
            </link>
            <itemhistory>
              <uuid>A98B2A43-2085-8343-59E0-A39E1756B488</uuid>
            </itemhistory>
          </clipitem>
          <clipitem id="monsters_S01E38_lineal_v001 18">
            <name>monsters_S01E38_lineal_v001</name>
            <duration>6469</duration>
            <rate>
              <ntsc>FALSE</ntsc>
              <timebase>25</timebase>
            </rate>
            <in>1889</in>
            <out>1929</out>
            <start>1784</start>
            <end>1824</end>
            <file id="monsters_S01E38_lineal_v001 19">
              <name>monsters_S01E38_lineal_v001.aif</name>
              <pathurl>file://localhost/Users/pepesanchez/Desktop/untitled%20folder/monsters_S01E38_lineal_v001.aif</pathurl>
              <rate>
                <timebase>25</timebase>
              </rate>
              <duration>6469</duration>
              <media>
                <audio>
                  <samplecharacteristics>
                    <samplerate>48000</samplerate>
                    <depth>16</depth>
                  </samplecharacteristics>
                  <channelcount>2</channelcount>
                  <layout>stereo</layout>
                  <audiochannel>
                    <sourcechannel>1</sourcechannel>
                    <channellabel>left</channellabel>
                  </audiochannel>
                  <audiochannel>
                    <sourcechannel>2</sourcechannel>
                    <channellabel>right</channellabel>
                  </audiochannel>
                </audio>
              </media>
            </file>
            <sourcetrack>
              <mediatype>audio</mediatype>
              <trackindex>1</trackindex>
            </sourcetrack>
            <link>
              <linkclipref>monsters_S01E38_lineal_v001 18</linkclipref>
              <mediatype>audio</mediatype>
              <trackindex>1</trackindex>
              <clipindex>7</clipindex>
              <groupindex>1</groupindex>
            </link>
            <link>
              <linkclipref>monsters_S01E38_lineal_v001 20</linkclipref>
              <mediatype>audio</mediatype>
              <trackindex>2</trackindex>
              <clipindex>7</clipindex>
              <groupindex>1</groupindex>
            </link>
            <itemhistory>
              <uuid>FC461AEF-5CAD-90D1-4CCD-54E8F7EBC0D0</uuid>
            </itemhistory>
          </clipitem>
          <clipitem id="monsters_S01E38_lineal_v001 21">
            <name>monsters_S01E38_lineal_v001</name>
            <duration>6469</duration>
            <rate>
              <ntsc>FALSE</ntsc>
              <timebase>25</timebase>
            </rate>
            <in>1929</in>
            <out>1979</out>
            <start>1865</start>
            <end>1915</end>
            <file id="monsters_S01E38_lineal_v001 22">
              <name>monsters_S01E38_lineal_v001.aif</name>
              <pathurl>file://localhost/Users/pepesanchez/Desktop/untitled%20folder/monsters_S01E38_lineal_v001.aif</pathurl>
              <rate>
                <timebase>25</timebase>
              </rate>
              <duration>6469</duration>
              <media>
                <audio>
                  <samplecharacteristics>
                    <samplerate>48000</samplerate>
                    <depth>16</depth>
                  </samplecharacteristics>
                  <channelcount>2</channelcount>
                  <layout>stereo</layout>
                  <audiochannel>
                    <sourcechannel>1</sourcechannel>
                    <channellabel>left</channellabel>
                  </audiochannel>
                  <audiochannel>
                    <sourcechannel>2</sourcechannel>
                    <channellabel>right</channellabel>
                  </audiochannel>
                </audio>
              </media>
            </file>
            <sourcetrack>
              <mediatype>audio</mediatype>
              <trackindex>1</trackindex>
            </sourcetrack>
            <link>
              <linkclipref>monsters_S01E38_lineal_v001 21</linkclipref>
              <mediatype>audio</mediatype>
              <trackindex>1</trackindex>
              <clipindex>8</clipindex>
              <groupindex>1</groupindex>
            </link>
            <link>
              <linkclipref>monsters_S01E38_lineal_v001 23</linkclipref>
              <mediatype>audio</mediatype>
              <trackindex>2</trackindex>
              <clipindex>8</clipindex>
              <groupindex>1</groupindex>
            </link>
            <itemhistory>
              <uuid>D0B9EC27-353B-4F5D-95E0-DD40E2B863E0</uuid>
            </itemhistory>
          </clipitem>
          <clipitem id="monsters_S01E38_lineal_v001 24">
            <name>monsters_S01E38_lineal_v001</name>
            <duration>6469</duration>
            <rate>
              <ntsc>FALSE</ntsc>
              <timebase>25</timebase>
            </rate>
            <in>2179</in>
            <out>2215</out>
            <start>2080</start>
            <end>2116</end>
            <file id="monsters_S01E38_lineal_v001 25">
              <name>monsters_S01E38_lineal_v001.aif</name>
              <pathurl>file://localhost/Users/pepesanchez/Desktop/untitled%20folder/monsters_S01E38_lineal_v001.aif</pathurl>
              <rate>
                <timebase>25</timebase>
              </rate>
              <duration>6469</duration>
              <media>
                <audio>
                  <samplecharacteristics>
                    <samplerate>48000</samplerate>
                    <depth>16</depth>
                  </samplecharacteristics>
                  <channelcount>2</channelcount>
                  <layout>stereo</layout>
                  <audiochannel>
                    <sourcechannel>1</sourcechannel>
                    <channellabel>left</channellabel>
                  </audiochannel>
                  <audiochannel>
                    <sourcechannel>2</sourcechannel>
                    <channellabel>right</channellabel>
                  </audiochannel>
                </audio>
              </media>
            </file>
            <sourcetrack>
              <mediatype>audio</mediatype>
              <trackindex>1</trackindex>
            </sourcetrack>
            <link>
              <linkclipref>monsters_S01E38_lineal_v001 24</linkclipref>
              <mediatype>audio</mediatype>
              <trackindex>1</trackindex>
              <clipindex>9</clipindex>
              <groupindex>1</groupindex>
            </link>
            <link>
              <linkclipref>monsters_S01E38_lineal_v001 26</linkclipref>
              <mediatype>audio</mediatype>
              <trackindex>2</trackindex>
              <clipindex>9</clipindex>
              <groupindex>1</groupindex>
            </link>
            <itemhistory>
              <uuid>B624C0C9-2A7D-659E-14B8-54EDC1D9472F</uuid>
            </itemhistory>
          </clipitem>
          <clipitem id="monsters_S01E38_lineal_v001 27">
            <name>monsters_S01E38_lineal_v001</name>
            <duration>6469</duration>
            <rate>
              <ntsc>FALSE</ntsc>
              <timebase>25</timebase>
            </rate>
            <in>2362</in>
            <out>2501</out>
            <start>2273</start>
            <end>2412</end>
            <file id="monsters_S01E38_lineal_v001 28">
              <name>monsters_S01E38_lineal_v001.aif</name>
              <pathurl>file://localhost/Users/pepesanchez/Desktop/untitled%20folder/monsters_S01E38_lineal_v001.aif</pathurl>
              <rate>
                <timebase>25</timebase>
              </rate>
              <duration>6469</duration>
              <media>
                <audio>
                  <samplecharacteristics>
                    <samplerate>48000</samplerate>
                    <depth>16</depth>
                  </samplecharacteristics>
                  <channelcount>2</channelcount>
                  <layout>stereo</layout>
                  <audiochannel>
                    <sourcechannel>1</sourcechannel>
                    <channellabel>left</channellabel>
                  </audiochannel>
                  <audiochannel>
                    <sourcechannel>2</sourcechannel>
                    <channellabel>right</channellabel>
                  </audiochannel>
                </audio>
              </media>
            </file>
            <sourcetrack>
              <mediatype>audio</mediatype>
              <trackindex>1</trackindex>
            </sourcetrack>
            <link>
              <linkclipref>monsters_S01E38_lineal_v001 27</linkclipref>
              <mediatype>audio</mediatype>
              <trackindex>1</trackindex>
              <clipindex>10</clipindex>
              <groupindex>1</groupindex>
            </link>
            <link>
              <linkclipref>monsters_S01E38_lineal_v001 29</linkclipref>
              <mediatype>audio</mediatype>
              <trackindex>2</trackindex>
              <clipindex>10</clipindex>
              <groupindex>1</groupindex>
            </link>
            <itemhistory>
              <uuid>6716C9BE-A5CD-FE33-24CB-2BDE12E8D380</uuid>
            </itemhistory>
          </clipitem>
          <clipitem id="monsters_S01E38_lineal_v001 30">
            <name>monsters_S01E38_lineal_v001</name>
            <duration>6469</duration>
            <rate>
              <ntsc>FALSE</ntsc>
              <timebase>25</timebase>
            </rate>
            <in>2762</in>
            <out>2908</out>
            <start>2632</start>
            <end>2778</end>
            <file id="monsters_S01E38_lineal_v001 31">
              <name>monsters_S01E38_lineal_v001.aif</name>
              <pathurl>file://localhost/Users/pepesanchez/Desktop/untitled%20folder/monsters_S01E38_lineal_v001.aif</pathurl>
              <rate>
                <timebase>25</timebase>
              </rate>
              <duration>6469</duration>
              <media>
                <audio>
                  <samplecharacteristics>
                    <samplerate>48000</samplerate>
                    <depth>16</depth>
                  </samplecharacteristics>
                  <channelcount>2</channelcount>
                  <layout>stereo</layout>
                  <audiochannel>
                    <sourcechannel>1</sourcechannel>
                    <channellabel>left</channellabel>
                  </audiochannel>
                  <audiochannel>
                    <sourcechannel>2</sourcechannel>
                    <channellabel>right</channellabel>
                  </audiochannel>
                </audio>
              </media>
            </file>
            <sourcetrack>
              <mediatype>audio</mediatype>
              <trackindex>1</trackindex>
            </sourcetrack>
            <link>
              <linkclipref>monsters_S01E38_lineal_v001 30</linkclipref>
              <mediatype>audio</mediatype>
              <trackindex>1</trackindex>
              <clipindex>11</clipindex>
              <groupindex>1</groupindex>
            </link>
            <link>
              <linkclipref>monsters_S01E38_lineal_v001 32</linkclipref>
              <mediatype>audio</mediatype>
              <trackindex>2</trackindex>
              <clipindex>11</clipindex>
              <groupindex>1</groupindex>
            </link>
            <itemhistory>
              <uuid>CF65B50F-23C9-6C1E-41B9-6337CA2184CF</uuid>
            </itemhistory>
          </clipitem>
          <clipitem id="monsters_S01E38_lineal_v001 33">
            <name>monsters_S01E38_lineal_v001</name>
            <duration>6469</duration>
            <rate>
              <ntsc>FALSE</ntsc>
              <timebase>25</timebase>
            </rate>
            <in>2978</in>
            <out>3387</out>
            <start>2821</start>
            <end>3230</end>
            <file id="monsters_S01E38_lineal_v001 34">
              <name>monsters_S01E38_lineal_v001.aif</name>
              <pathurl>file://localhost/Users/pepesanchez/Desktop/untitled%20folder/monsters_S01E38_lineal_v001.aif</pathurl>
              <rate>
                <timebase>25</timebase>
              </rate>
              <duration>6469</duration>
              <media>
                <audio>
                  <samplecharacteristics>
                    <samplerate>48000</samplerate>
                    <depth>16</depth>
                  </samplecharacteristics>
                  <channelcount>2</channelcount>
                  <layout>stereo</layout>
                  <audiochannel>
                    <sourcechannel>1</sourcechannel>
                    <channellabel>left</channellabel>
                  </audiochannel>
                  <audiochannel>
                    <sourcechannel>2</sourcechannel>
                    <channellabel>right</channellabel>
                  </audiochannel>
                </audio>
              </media>
            </file>
            <sourcetrack>
              <mediatype>audio</mediatype>
              <trackindex>1</trackindex>
            </sourcetrack>
            <link>
              <linkclipref>monsters_S01E38_lineal_v001 33</linkclipref>
              <mediatype>audio</mediatype>
              <trackindex>1</trackindex>
              <clipindex>12</clipindex>
              <groupindex>1</groupindex>
            </link>
            <link>
              <linkclipref>monsters_S01E38_lineal_v001 35</linkclipref>
              <mediatype>audio</mediatype>
              <trackindex>2</trackindex>
              <clipindex>12</clipindex>
              <groupindex>1</groupindex>
            </link>
            <itemhistory>
              <uuid>6B9E748F-855A-1068-B00C-A3E67CDDCFDB</uuid>
            </itemhistory>
          </clipitem>
          <clipitem id="monsters_S01E38_lineal_v001 36">
            <name>monsters_S01E38_lineal_v001</name>
            <duration>6469</duration>
            <rate>
              <ntsc>FALSE</ntsc>
              <timebase>25</timebase>
            </rate>
            <in>3479</in>
            <out>3600</out>
            <start>3321</start>
            <end>3442</end>
            <file id="monsters_S01E38_lineal_v001 37">
              <name>monsters_S01E38_lineal_v001.aif</name>
              <pathurl>file://localhost/Users/pepesanchez/Desktop/untitled%20folder/monsters_S01E38_lineal_v001.aif</pathurl>
              <rate>
                <timebase>25</timebase>
              </rate>
              <duration>6469</duration>
              <media>
                <audio>
                  <samplecharacteristics>
                    <samplerate>48000</samplerate>
                    <depth>16</depth>
                  </samplecharacteristics>
                  <channelcount>2</channelcount>
                  <layout>stereo</layout>
                  <audiochannel>
                    <sourcechannel>1</sourcechannel>
                    <channellabel>left</channellabel>
                  </audiochannel>
                  <audiochannel>
                    <sourcechannel>2</sourcechannel>
                    <channellabel>right</channellabel>
                  </audiochannel>
                </audio>
              </media>
            </file>
            <sourcetrack>
              <mediatype>audio</mediatype>
              <trackindex>1</trackindex>
            </sourcetrack>
            <link>
              <linkclipref>monsters_S01E38_lineal_v001 36</linkclipref>
              <mediatype>audio</mediatype>
              <trackindex>1</trackindex>
              <clipindex>13</clipindex>
              <groupindex>1</groupindex>
            </link>
            <link>
              <linkclipref>monsters_S01E38_lineal_v001 38</linkclipref>
              <mediatype>audio</mediatype>
              <trackindex>2</trackindex>
              <clipindex>13</clipindex>
              <groupindex>1</groupindex>
            </link>
            <itemhistory>
              <uuid>6EE3B4EF-8073-AAFD-F999-76FCD3736DF3</uuid>
            </itemhistory>
          </clipitem>
          <clipitem id="monsters_S01E38_lineal_v001 39">
            <name>monsters_S01E38_lineal_v001</name>
            <duration>6469</duration>
            <rate>
              <ntsc>FALSE</ntsc>
              <timebase>25</timebase>
            </rate>
            <in>3704</in>
            <out>3844</out>
            <start>3699</start>
            <end>3839</end>
            <file id="monsters_S01E38_lineal_v001 40">
              <name>monsters_S01E38_lineal_v001.aif</name>
              <pathurl>file://localhost/Users/pepesanchez/Desktop/untitled%20folder/monsters_S01E38_lineal_v001.aif</pathurl>
              <rate>
                <timebase>25</timebase>
              </rate>
              <duration>6469</duration>
              <media>
                <audio>
                  <samplecharacteristics>
                    <samplerate>48000</samplerate>
                    <depth>16</depth>
                  </samplecharacteristics>
                  <channelcount>2</channelcount>
                  <layout>stereo</layout>
                  <audiochannel>
                    <sourcechannel>1</sourcechannel>
                    <channellabel>left</channellabel>
                  </audiochannel>
                  <audiochannel>
                    <sourcechannel>2</sourcechannel>
                    <channellabel>right</channellabel>
                  </audiochannel>
                </audio>
              </media>
            </file>
            <sourcetrack>
              <mediatype>audio</mediatype>
              <trackindex>1</trackindex>
            </sourcetrack>
            <link>
              <linkclipref>monsters_S01E38_lineal_v001 39</linkclipref>
              <mediatype>audio</mediatype>
              <trackindex>1</trackindex>
              <clipindex>14</clipindex>
              <groupindex>1</groupindex>
            </link>
            <link>
              <linkclipref>monsters_S01E38_lineal_v001 41</linkclipref>
              <mediatype>audio</mediatype>
              <trackindex>2</trackindex>
              <clipindex>14</clipindex>
              <groupindex>1</groupindex>
            </link>
            <itemhistory>
              <uuid>89F621B2-498C-381B-A2E2-6C4E2E6447F8</uuid>
            </itemhistory>
          </clipitem>
          <clipitem id="monsters_S01E38_lineal_v001 42">
            <name>monsters_S01E38_lineal_v001</name>
            <duration>6469</duration>
            <rate>
              <ntsc>FALSE</ntsc>
              <timebase>25</timebase>
            </rate>
            <in>4186</in>
            <out>4221</out>
            <start>4556</start>
            <end>4591</end>
            <file id="monsters_S01E38_lineal_v001 43">
              <name>monsters_S01E38_lineal_v001.aif</name>
              <pathurl>file://localhost/Users/pepesanchez/Desktop/untitled%20folder/monsters_S01E38_lineal_v001.aif</pathurl>
              <rate>
                <timebase>25</timebase>
              </rate>
              <duration>6469</duration>
              <media>
                <audio>
                  <samplecharacteristics>
                    <samplerate>48000</samplerate>
                    <depth>16</depth>
                  </samplecharacteristics>
                  <channelcount>2</channelcount>
                  <layout>stereo</layout>
                  <audiochannel>
                    <sourcechannel>1</sourcechannel>
                    <channellabel>left</channellabel>
                  </audiochannel>
                  <audiochannel>
                    <sourcechannel>2</sourcechannel>
                    <channellabel>right</channellabel>
                  </audiochannel>
                </audio>
              </media>
            </file>
            <sourcetrack>
              <mediatype>audio</mediatype>
              <trackindex>1</trackindex>
            </sourcetrack>
            <link>
              <linkclipref>monsters_S01E38_lineal_v001 42</linkclipref>
              <mediatype>audio</mediatype>
              <trackindex>1</trackindex>
              <clipindex>15</clipindex>
              <groupindex>1</groupindex>
            </link>
            <link>
              <linkclipref>monsters_S01E38_lineal_v001 44</linkclipref>
              <mediatype>audio</mediatype>
              <trackindex>2</trackindex>
              <clipindex>15</clipindex>
              <groupindex>1</groupindex>
            </link>
            <itemhistory>
              <uuid>8C657BAB-C41D-85C5-8343-4806A32F25D2</uuid>
            </itemhistory>
          </clipitem>
          <clipitem id="monsters_S01E38_lineal_v001 45">
            <name>monsters_S01E38_lineal_v001</name>
            <duration>6469</duration>
            <rate>
              <ntsc>FALSE</ntsc>
              <timebase>25</timebase>
            </rate>
            <in>4221</in>
            <out>4547</out>
            <start>4747</start>
            <end>5073</end>
            <file id="monsters_S01E38_lineal_v001 46">
              <name>monsters_S01E38_lineal_v001.aif</name>
              <pathurl>file://localhost/Users/pepesanchez/Desktop/untitled%20folder/monsters_S01E38_lineal_v001.aif</pathurl>
              <rate>
                <timebase>25</timebase>
              </rate>
              <duration>6469</duration>
              <media>
                <audio>
                  <samplecharacteristics>
                    <samplerate>48000</samplerate>
                    <depth>16</depth>
                  </samplecharacteristics>
                  <channelcount>2</channelcount>
                  <layout>stereo</layout>
                  <audiochannel>
                    <sourcechannel>1</sourcechannel>
                    <channellabel>left</channellabel>
                  </audiochannel>
                  <audiochannel>
                    <sourcechannel>2</sourcechannel>
                    <channellabel>right</channellabel>
                  </audiochannel>
                </audio>
              </media>
            </file>
            <sourcetrack>
              <mediatype>audio</mediatype>
              <trackindex>1</trackindex>
            </sourcetrack>
            <link>
              <linkclipref>monsters_S01E38_lineal_v001 45</linkclipref>
              <mediatype>audio</mediatype>
              <trackindex>1</trackindex>
              <clipindex>16</clipindex>
              <groupindex>1</groupindex>
            </link>
            <link>
              <linkclipref>monsters_S01E38_lineal_v001 47</linkclipref>
              <mediatype>audio</mediatype>
              <trackindex>2</trackindex>
              <clipindex>16</clipindex>
              <groupindex>1</groupindex>
            </link>
            <itemhistory>
              <uuid>A1ED8784-ADC9-31CA-E18D-44DFB7CCF705</uuid>
            </itemhistory>
          </clipitem>
          <clipitem id="monsters_S01E38_lineal_v001 48">
            <name>monsters_S01E38_lineal_v001</name>
            <duration>6469</duration>
            <rate>
              <ntsc>FALSE</ntsc>
              <timebase>25</timebase>
            </rate>
            <in>4737</in>
            <out>4989</out>
            <start>5226</start>
            <end>5478</end>
            <file id="monsters_S01E38_lineal_v001 49">
              <name>monsters_S01E38_lineal_v001.aif</name>
              <pathurl>file://localhost/Users/pepesanchez/Desktop/untitled%20folder/monsters_S01E38_lineal_v001.aif</pathurl>
              <rate>
                <timebase>25</timebase>
              </rate>
              <duration>6469</duration>
              <media>
                <audio>
                  <samplecharacteristics>
                    <samplerate>48000</samplerate>
                    <depth>16</depth>
                  </samplecharacteristics>
                  <channelcount>2</channelcount>
                  <layout>stereo</layout>
                  <audiochannel>
                    <sourcechannel>1</sourcechannel>
                    <channellabel>left</channellabel>
                  </audiochannel>
                  <audiochannel>
                    <sourcechannel>2</sourcechannel>
                    <channellabel>right</channellabel>
                  </audiochannel>
                </audio>
              </media>
            </file>
            <sourcetrack>
              <mediatype>audio</mediatype>
              <trackindex>1</trackindex>
            </sourcetrack>
            <link>
              <linkclipref>monsters_S01E38_lineal_v001 48</linkclipref>
              <mediatype>audio</mediatype>
              <trackindex>1</trackindex>
              <clipindex>17</clipindex>
              <groupindex>1</groupindex>
            </link>
            <link>
              <linkclipref>monsters_S01E38_lineal_v001 50</linkclipref>
              <mediatype>audio</mediatype>
              <trackindex>2</trackindex>
              <clipindex>17</clipindex>
              <groupindex>1</groupindex>
            </link>
            <itemhistory>
              <uuid>C0D86A02-E28D-5D61-AE69-A4FAC5FFA6F5</uuid>
            </itemhistory>
          </clipitem>
          <clipitem id="monsters_S01E38_lineal_v001 51">
            <name>monsters_S01E38_lineal_v001</name>
            <duration>6469</duration>
            <rate>
              <ntsc>FALSE</ntsc>
              <timebase>25</timebase>
            </rate>
            <in>5054</in>
            <out>5158</out>
            <start>5516</start>
            <end>5620</end>
            <file id="monsters_S01E38_lineal_v001 52">
              <name>monsters_S01E38_lineal_v001.aif</name>
              <pathurl>file://localhost/Users/pepesanchez/Desktop/untitled%20folder/monsters_S01E38_lineal_v001.aif</pathurl>
              <rate>
                <timebase>25</timebase>
              </rate>
              <duration>6469</duration>
              <media>
                <audio>
                  <samplecharacteristics>
                    <samplerate>48000</samplerate>
                    <depth>16</depth>
                  </samplecharacteristics>
                  <channelcount>2</channelcount>
                  <layout>stereo</layout>
                  <audiochannel>
                    <sourcechannel>1</sourcechannel>
                    <channellabel>left</channellabel>
                  </audiochannel>
                  <audiochannel>
                    <sourcechannel>2</sourcechannel>
                    <channellabel>right</channellabel>
                  </audiochannel>
                </audio>
              </media>
            </file>
            <sourcetrack>
              <mediatype>audio</mediatype>
              <trackindex>1</trackindex>
            </sourcetrack>
            <link>
              <linkclipref>monsters_S01E38_lineal_v001 51</linkclipref>
              <mediatype>audio</mediatype>
              <trackindex>1</trackindex>
              <clipindex>18</clipindex>
              <groupindex>1</groupindex>
            </link>
            <link>
              <linkclipref>monsters_S01E38_lineal_v001 53</linkclipref>
              <mediatype>audio</mediatype>
              <trackindex>2</trackindex>
              <clipindex>18</clipindex>
              <groupindex>1</groupindex>
            </link>
            <itemhistory>
              <uuid>5368E955-9BB3-37E0-FA0F-2F6676272C7B</uuid>
            </itemhistory>
          </clipitem>
          <clipitem id="monsters_S01E38_lineal_v001 54">
            <name>monsters_S01E38_lineal_v001</name>
            <duration>6469</duration>
            <rate>
              <ntsc>FALSE</ntsc>
              <timebase>25</timebase>
            </rate>
            <in>6435</in>
            <out>6469</out>
            <start>6527</start>
            <end>6562</end>
            <file id="monsters_S01E38_lineal_v001 55">
              <name>monsters_S01E38_lineal_v001.aif</name>
              <pathurl>file://localhost/Users/pepesanchez/Desktop/untitled%20folder/monsters_S01E38_lineal_v001.aif</pathurl>
              <rate>
                <timebase>25</timebase>
              </rate>
              <duration>6469</duration>
              <media>
                <audio>
                  <samplecharacteristics>
                    <samplerate>48000</samplerate>
                    <depth>16</depth>
                  </samplecharacteristics>
                  <channelcount>2</channelcount>
                  <layout>stereo</layout>
                  <audiochannel>
                    <sourcechannel>1</sourcechannel>
                    <channellabel>left</channellabel>
                  </audiochannel>
                  <audiochannel>
                    <sourcechannel>2</sourcechannel>
                    <channellabel>right</channellabel>
                  </audiochannel>
                </audio>
              </media>
            </file>
            <sourcetrack>
              <mediatype>audio</mediatype>
              <trackindex>1</trackindex>
            </sourcetrack>
            <link>
              <linkclipref>monsters_S01E38_lineal_v001 54</linkclipref>
              <mediatype>audio</mediatype>
              <trackindex>1</trackindex>
              <clipindex>19</clipindex>
              <groupindex>1</groupindex>
            </link>
            <link>
              <linkclipref>monsters_S01E38_lineal_v001 56</linkclipref>
              <mediatype>audio</mediatype>
              <trackindex>2</trackindex>
              <clipindex>19</clipindex>
              <groupindex>1</groupindex>
            </link>
            <itemhistory>
              <uuid>69EE33F5-2B7C-84BF-57D8-F7BD25DE77F2</uuid>
            </itemhistory>
          </clipitem>
          <clipitem id="monsters_S01E38_lineal_v001 57">
            <name>monsters_S01E38_lineal_v001</name>
            <duration>6469</duration>
            <rate>
              <ntsc>FALSE</ntsc>
              <timebase>25</timebase>
            </rate>
            <in>5961</in>
            <out>6099</out>
            <start>7056</start>
            <end>7194</end>
            <file id="monsters_S01E38_lineal_v001 58">
              <name>monsters_S01E38_lineal_v001.aif</name>
              <pathurl>file://localhost/Users/pepesanchez/Desktop/untitled%20folder/monsters_S01E38_lineal_v001.aif</pathurl>
              <rate>
                <timebase>25</timebase>
              </rate>
              <duration>6469</duration>
              <media>
                <audio>
                  <samplecharacteristics>
                    <samplerate>48000</samplerate>
                    <depth>16</depth>
                  </samplecharacteristics>
                  <channelcount>2</channelcount>
                  <layout>stereo</layout>
                  <audiochannel>
                    <sourcechannel>1</sourcechannel>
                    <channellabel>left</channellabel>
                  </audiochannel>
                  <audiochannel>
                    <sourcechannel>2</sourcechannel>
                    <channellabel>right</channellabel>
                  </audiochannel>
                </audio>
              </media>
            </file>
            <sourcetrack>
              <mediatype>audio</mediatype>
              <trackindex>1</trackindex>
            </sourcetrack>
            <link>
              <linkclipref>monsters_S01E38_lineal_v001 57</linkclipref>
              <mediatype>audio</mediatype>
              <trackindex>1</trackindex>
              <clipindex>20</clipindex>
              <groupindex>1</groupindex>
            </link>
            <link>
              <linkclipref>monsters_S01E38_lineal_v001 59</linkclipref>
              <mediatype>audio</mediatype>
              <trackindex>2</trackindex>
              <clipindex>20</clipindex>
              <groupindex>1</groupindex>
            </link>
            <itemhistory>
              <uuid>6DCE6E45-289C-B194-2F29-3C51859739EA</uuid>
            </itemhistory>
          </clipitem>
          <clipitem id="monsters_S01E38_lineal_v001 60">
            <name>monsters_S01E38_lineal_v001</name>
            <duration>6469</duration>
            <rate>
              <ntsc>FALSE</ntsc>
              <timebase>25</timebase>
            </rate>
            <in>6435</in>
            <out>6469</out>
            <start>7229</start>
            <end>7264</end>
            <file id="monsters_S01E38_lineal_v001 61">
              <name>monsters_S01E38_lineal_v001.aif</name>
              <pathurl>file://localhost/Users/pepesanchez/Desktop/untitled%20folder/monsters_S01E38_lineal_v001.aif</pathurl>
              <rate>
                <timebase>25</timebase>
              </rate>
              <duration>6469</duration>
              <media>
                <audio>
                  <samplecharacteristics>
                    <samplerate>48000</samplerate>
                    <depth>16</depth>
                  </samplecharacteristics>
                  <channelcount>2</channelcount>
                  <layout>stereo</layout>
                  <audiochannel>
                    <sourcechannel>1</sourcechannel>
                    <channellabel>left</channellabel>
                  </audiochannel>
                  <audiochannel>
                    <sourcechannel>2</sourcechannel>
                    <channellabel>right</channellabel>
                  </audiochannel>
                </audio>
              </media>
            </file>
            <sourcetrack>
              <mediatype>audio</mediatype>
              <trackindex>1</trackindex>
            </sourcetrack>
            <link>
              <linkclipref>monsters_S01E38_lineal_v001 60</linkclipref>
              <mediatype>audio</mediatype>
              <trackindex>1</trackindex>
              <clipindex>21</clipindex>
              <groupindex>1</groupindex>
            </link>
            <link>
              <linkclipref>monsters_S01E38_lineal_v001 62</linkclipref>
              <mediatype>audio</mediatype>
              <trackindex>2</trackindex>
              <clipindex>21</clipindex>
              <groupindex>1</groupindex>
            </link>
            <itemhistory>
              <uuid>DF5585B0-8C8F-2C49-7EA8-7CA16E4EFE6E</uuid>
            </itemhistory>
          </clipitem>
        </track>
        <track>
          <clipitem id="monsters_S01E38_lineal_v001 2">
            <name>monsters_S01E38_lineal_v001</name>
            <duration>6469</duration>
            <rate>
              <ntsc>FALSE</ntsc>
              <timebase>25</timebase>
            </rate>
            <in>0</in>
            <out>119</out>
            <start>29</start>
            <end>148</end>
            <file id="monsters_S01E38_lineal_v001 1"/>
            <sourcetrack>
              <mediatype>audio</mediatype>
              <trackindex>2</trackindex>
            </sourcetrack>
            <link>
              <linkclipref>monsters_S01E38_lineal_v001</linkclipref>
              <mediatype>audio</mediatype>
              <trackindex>1</trackindex>
              <clipindex>1</clipindex>
              <groupindex>1</groupindex>
            </link>
            <link>
              <linkclipref>monsters_S01E38_lineal_v001 2</linkclipref>
              <mediatype>audio</mediatype>
              <trackindex>2</trackindex>
              <clipindex>1</clipindex>
              <groupindex>1</groupindex>
            </link>
            <itemhistory>
              <uuid>448B16DA-E899-F12A-50CE-29A05FA43579</uuid>
            </itemhistory>
          </clipitem>
          <clipitem id="monsters_S01E38_lineal_v001 5">
            <name>monsters_S01E38_lineal_v001</name>
            <duration>6469</duration>
            <rate>
              <ntsc>FALSE</ntsc>
              <timebase>25</timebase>
            </rate>
            <in>233</in>
            <out>301</out>
            <start>216</start>
            <end>284</end>
            <file id="monsters_S01E38_lineal_v001 4"/>
            <sourcetrack>
              <mediatype>audio</mediatype>
              <trackindex>2</trackindex>
            </sourcetrack>
            <link>
              <linkclipref>monsters_S01E38_lineal_v001 3</linkclipref>
              <mediatype>audio</mediatype>
              <trackindex>1</trackindex>
              <clipindex>2</clipindex>
              <groupindex>1</groupindex>
            </link>
            <link>
              <linkclipref>monsters_S01E38_lineal_v001 5</linkclipref>
              <mediatype>audio</mediatype>
              <trackindex>2</trackindex>
              <clipindex>2</clipindex>
              <groupindex>1</groupindex>
            </link>
            <itemhistory>
              <uuid>2D0F4DAB-3E13-F2C1-34E7-48B8DB7123C3</uuid>
            </itemhistory>
          </clipitem>
          <clipitem id="monsters_S01E38_lineal_v001 8">
            <name>monsters_S01E38_lineal_v001</name>
            <duration>6469</duration>
            <rate>
              <ntsc>FALSE</ntsc>
              <timebase>25</timebase>
            </rate>
            <in>645</in>
            <out>726</out>
            <start>620</start>
            <end>701</end>
            <file id="monsters_S01E38_lineal_v001 7"/>
            <sourcetrack>
              <mediatype>audio</mediatype>
              <trackindex>2</trackindex>
            </sourcetrack>
            <link>
              <linkclipref>monsters_S01E38_lineal_v001 6</linkclipref>
              <mediatype>audio</mediatype>
              <trackindex>1</trackindex>
              <clipindex>3</clipindex>
              <groupindex>1</groupindex>
            </link>
            <link>
              <linkclipref>monsters_S01E38_lineal_v001 8</linkclipref>
              <mediatype>audio</mediatype>
              <trackindex>2</trackindex>
              <clipindex>3</clipindex>
              <groupindex>1</groupindex>
            </link>
            <itemhistory>
              <uuid>7234D607-B76E-61E3-2AF0-7FC84552227B</uuid>
            </itemhistory>
          </clipitem>
          <clipitem id="monsters_S01E38_lineal_v001 11">
            <name>monsters_S01E38_lineal_v001</name>
            <duration>6469</duration>
            <rate>
              <ntsc>FALSE</ntsc>
              <timebase>25</timebase>
            </rate>
            <in>848</in>
            <out>1024</out>
            <start>775</start>
            <end>951</end>
            <file id="monsters_S01E38_lineal_v001 10"/>
            <sourcetrack>
              <mediatype>audio</mediatype>
              <trackindex>2</trackindex>
            </sourcetrack>
            <link>
              <linkclipref>monsters_S01E38_lineal_v001 9</linkclipref>
              <mediatype>audio</mediatype>
              <trackindex>1</trackindex>
              <clipindex>4</clipindex>
              <groupindex>1</groupindex>
            </link>
            <link>
              <linkclipref>monsters_S01E38_lineal_v001 11</linkclipref>
              <mediatype>audio</mediatype>
              <trackindex>2</trackindex>
              <clipindex>4</clipindex>
              <groupindex>1</groupindex>
            </link>
            <itemhistory>
              <uuid>4635EBB0-C242-C909-246A-4056E48398CF</uuid>
            </itemhistory>
          </clipitem>
          <clipitem id="monsters_S01E38_lineal_v001 14">
            <name>monsters_S01E38_lineal_v001</name>
            <duration>6469</duration>
            <rate>
              <ntsc>FALSE</ntsc>
              <timebase>25</timebase>
            </rate>
            <in>1581</in>
            <out>1629</out>
            <start>1466</start>
            <end>1514</end>
            <file id="monsters_S01E38_lineal_v001 13"/>
            <sourcetrack>
              <mediatype>audio</mediatype>
              <trackindex>2</trackindex>
            </sourcetrack>
            <link>
              <linkclipref>monsters_S01E38_lineal_v001 12</linkclipref>
              <mediatype>audio</mediatype>
              <trackindex>1</trackindex>
              <clipindex>5</clipindex>
              <groupindex>1</groupindex>
            </link>
            <link>
              <linkclipref>monsters_S01E38_lineal_v001 14</linkclipref>
              <mediatype>audio</mediatype>
              <trackindex>2</trackindex>
              <clipindex>5</clipindex>
              <groupindex>1</groupindex>
            </link>
            <itemhistory>
              <uuid>766F1EE3-D91E-C958-FCA7-962A56D09898</uuid>
            </itemhistory>
          </clipitem>
          <clipitem id="monsters_S01E38_lineal_v001 17">
            <name>monsters_S01E38_lineal_v001</name>
            <duration>6469</duration>
            <rate>
              <ntsc>FALSE</ntsc>
              <timebase>25</timebase>
            </rate>
            <in>1826</in>
            <out>1889</out>
            <start>1685</start>
            <end>1748</end>
            <file id="monsters_S01E38_lineal_v001 16"/>
            <sourcetrack>
              <mediatype>audio</mediatype>
              <trackindex>2</trackindex>
            </sourcetrack>
            <link>
              <linkclipref>monsters_S01E38_lineal_v001 15</linkclipref>
              <mediatype>audio</mediatype>
              <trackindex>1</trackindex>
              <clipindex>6</clipindex>
              <groupindex>1</groupindex>
            </link>
            <link>
              <linkclipref>monsters_S01E38_lineal_v001 17</linkclipref>
              <mediatype>audio</mediatype>
              <trackindex>2</trackindex>
              <clipindex>6</clipindex>
              <groupindex>1</groupindex>
            </link>
            <itemhistory>
              <uuid>DBF9F2E0-A23E-CAD9-357B-3ED53AD39313</uuid>
            </itemhistory>
          </clipitem>
          <clipitem id="monsters_S01E38_lineal_v001 20">
            <name>monsters_S01E38_lineal_v001</name>
            <duration>6469</duration>
            <rate>
              <ntsc>FALSE</ntsc>
              <timebase>25</timebase>
            </rate>
            <in>1889</in>
            <out>1929</out>
            <start>1784</start>
            <end>1824</end>
            <file id="monsters_S01E38_lineal_v001 19"/>
            <sourcetrack>
              <mediatype>audio</mediatype>
              <trackindex>2</trackindex>
            </sourcetrack>
            <link>
              <linkclipref>monsters_S01E38_lineal_v001 18</linkclipref>
              <mediatype>audio</mediatype>
              <trackindex>1</trackindex>
              <clipindex>7</clipindex>
              <groupindex>1</groupindex>
            </link>
            <link>
              <linkclipref>monsters_S01E38_lineal_v001 20</linkclipref>
              <mediatype>audio</mediatype>
              <trackindex>2</trackindex>
              <clipindex>7</clipindex>
              <groupindex>1</groupindex>
            </link>
            <itemhistory>
              <uuid>6A21490A-5109-BAB9-7A90-31AAB8C68F89</uuid>
            </itemhistory>
          </clipitem>
          <clipitem id="monsters_S01E38_lineal_v001 23">
            <name>monsters_S01E38_lineal_v001</name>
            <duration>6469</duration>
            <rate>
              <ntsc>FALSE</ntsc>
              <timebase>25</timebase>
            </rate>
            <in>1929</in>
            <out>1979</out>
            <start>1865</start>
            <end>1915</end>
            <file id="monsters_S01E38_lineal_v001 22"/>
            <sourcetrack>
              <mediatype>audio</mediatype>
              <trackindex>2</trackindex>
            </sourcetrack>
            <link>
              <linkclipref>monsters_S01E38_lineal_v001 21</linkclipref>
              <mediatype>audio</mediatype>
              <trackindex>1</trackindex>
              <clipindex>8</clipindex>
              <groupindex>1</groupindex>
            </link>
            <link>
              <linkclipref>monsters_S01E38_lineal_v001 23</linkclipref>
              <mediatype>audio</mediatype>
              <trackindex>2</trackindex>
              <clipindex>8</clipindex>
              <groupindex>1</groupindex>
            </link>
            <itemhistory>
              <uuid>AB5C6592-DFB5-C2D9-5093-17C3963675D7</uuid>
            </itemhistory>
          </clipitem>
          <clipitem id="monsters_S01E38_lineal_v001 26">
            <name>monsters_S01E38_lineal_v001</name>
            <duration>6469</duration>
            <rate>
              <ntsc>FALSE</ntsc>
              <timebase>25</timebase>
            </rate>
            <in>2179</in>
            <out>2215</out>
            <start>2080</start>
            <end>2116</end>
            <file id="monsters_S01E38_lineal_v001 25"/>
            <sourcetrack>
              <mediatype>audio</mediatype>
              <trackindex>2</trackindex>
            </sourcetrack>
            <link>
              <linkclipref>monsters_S01E38_lineal_v001 24</linkclipref>
              <mediatype>audio</mediatype>
              <trackindex>1</trackindex>
              <clipindex>9</clipindex>
              <groupindex>1</groupindex>
            </link>
            <link>
              <linkclipref>monsters_S01E38_lineal_v001 26</linkclipref>
              <mediatype>audio</mediatype>
              <trackindex>2</trackindex>
              <clipindex>9</clipindex>
              <groupindex>1</groupindex>
            </link>
            <itemhistory>
              <uuid>27BC4B9F-DF8D-6797-E255-1156B653B5A6</uuid>
            </itemhistory>
          </clipitem>
          <clipitem id="monsters_S01E38_lineal_v001 29">
            <name>monsters_S01E38_lineal_v001</name>
            <duration>6469</duration>
            <rate>
              <ntsc>FALSE</ntsc>
              <timebase>25</timebase>
            </rate>
            <in>2362</in>
            <out>2501</out>
            <start>2273</start>
            <end>2412</end>
            <file id="monsters_S01E38_lineal_v001 28"/>
            <sourcetrack>
              <mediatype>audio</mediatype>
              <trackindex>2</trackindex>
            </sourcetrack>
            <link>
              <linkclipref>monsters_S01E38_lineal_v001 27</linkclipref>
              <mediatype>audio</mediatype>
              <trackindex>1</trackindex>
              <clipindex>10</clipindex>
              <groupindex>1</groupindex>
            </link>
            <link>
              <linkclipref>monsters_S01E38_lineal_v001 29</linkclipref>
              <mediatype>audio</mediatype>
              <trackindex>2</trackindex>
              <clipindex>10</clipindex>
              <groupindex>1</groupindex>
            </link>
            <itemhistory>
              <uuid>581626A7-4849-CB64-4CB2-CF2E1F8024BF</uuid>
            </itemhistory>
          </clipitem>
          <clipitem id="monsters_S01E38_lineal_v001 32">
            <name>monsters_S01E38_lineal_v001</name>
            <duration>6469</duration>
            <rate>
              <ntsc>FALSE</ntsc>
              <timebase>25</timebase>
            </rate>
            <in>2762</in>
            <out>2908</out>
            <start>2632</start>
            <end>2778</end>
            <file id="monsters_S01E38_lineal_v001 31"/>
            <sourcetrack>
              <mediatype>audio</mediatype>
              <trackindex>2</trackindex>
            </sourcetrack>
            <link>
              <linkclipref>monsters_S01E38_lineal_v001 30</linkclipref>
              <mediatype>audio</mediatype>
              <trackindex>1</trackindex>
              <clipindex>11</clipindex>
              <groupindex>1</groupindex>
            </link>
            <link>
              <linkclipref>monsters_S01E38_lineal_v001 32</linkclipref>
              <mediatype>audio</mediatype>
              <trackindex>2</trackindex>
              <clipindex>11</clipindex>
              <groupindex>1</groupindex>
            </link>
            <itemhistory>
              <uuid>A1374EEC-1C5A-7AFA-6AF8-F54E2C3E3E38</uuid>
            </itemhistory>
          </clipitem>
          <clipitem id="monsters_S01E38_lineal_v001 35">
            <name>monsters_S01E38_lineal_v001</name>
            <duration>6469</duration>
            <rate>
              <ntsc>FALSE</ntsc>
              <timebase>25</timebase>
            </rate>
            <in>2978</in>
            <out>3387</out>
            <start>2821</start>
            <end>3230</end>
            <file id="monsters_S01E38_lineal_v001 34"/>
            <sourcetrack>
              <mediatype>audio</mediatype>
              <trackindex>2</trackindex>
            </sourcetrack>
            <link>
              <linkclipref>monsters_S01E38_lineal_v001 33</linkclipref>
              <mediatype>audio</mediatype>
              <trackindex>1</trackindex>
              <clipindex>12</clipindex>
              <groupindex>1</groupindex>
            </link>
            <link>
              <linkclipref>monsters_S01E38_lineal_v001 35</linkclipref>
              <mediatype>audio</mediatype>
              <trackindex>2</trackindex>
              <clipindex>12</clipindex>
              <groupindex>1</groupindex>
            </link>
            <itemhistory>
              <uuid>E4777FF4-ABE2-B45B-BBB5-A999C19558B4</uuid>
            </itemhistory>
          </clipitem>
          <clipitem id="monsters_S01E38_lineal_v001 38">
            <name>monsters_S01E38_lineal_v001</name>
            <duration>6469</duration>
            <rate>
              <ntsc>FALSE</ntsc>
              <timebase>25</timebase>
            </rate>
            <in>3479</in>
            <out>3600</out>
            <start>3321</start>
            <end>3442</end>
            <file id="monsters_S01E38_lineal_v001 37"/>
            <sourcetrack>
              <mediatype>audio</mediatype>
              <trackindex>2</trackindex>
            </sourcetrack>
            <link>
              <linkclipref>monsters_S01E38_lineal_v001 36</linkclipref>
              <mediatype>audio</mediatype>
              <trackindex>1</trackindex>
              <clipindex>13</clipindex>
              <groupindex>1</groupindex>
            </link>
            <link>
              <linkclipref>monsters_S01E38_lineal_v001 38</linkclipref>
              <mediatype>audio</mediatype>
              <trackindex>2</trackindex>
              <clipindex>13</clipindex>
              <groupindex>1</groupindex>
            </link>
            <itemhistory>
              <uuid>C4D73FF5-FFE9-E7A7-DF46-3E739A77A2ED</uuid>
            </itemhistory>
          </clipitem>
          <clipitem id="monsters_S01E38_lineal_v001 41">
            <name>monsters_S01E38_lineal_v001</name>
            <duration>6469</duration>
            <rate>
              <ntsc>FALSE</ntsc>
              <timebase>25</timebase>
            </rate>
            <in>3704</in>
            <out>3844</out>
            <start>3699</start>
            <end>3839</end>
            <file id="monsters_S01E38_lineal_v001 40"/>
            <sourcetrack>
              <mediatype>audio</mediatype>
              <trackindex>2</trackindex>
            </sourcetrack>
            <link>
              <linkclipref>monsters_S01E38_lineal_v001 39</linkclipref>
              <mediatype>audio</mediatype>
              <trackindex>1</trackindex>
              <clipindex>14</clipindex>
              <groupindex>1</groupindex>
            </link>
            <link>
              <linkclipref>monsters_S01E38_lineal_v001 41</linkclipref>
              <mediatype>audio</mediatype>
              <trackindex>2</trackindex>
              <clipindex>14</clipindex>
              <groupindex>1</groupindex>
            </link>
            <itemhistory>
              <uuid>23C8B5B3-C194-2410-ADE6-1909B25F364E</uuid>
            </itemhistory>
          </clipitem>
          <clipitem id="monsters_S01E38_lineal_v001 44">
            <name>monsters_S01E38_lineal_v001</name>
            <duration>6469</duration>
            <rate>
              <ntsc>FALSE</ntsc>
              <timebase>25</timebase>
            </rate>
            <in>4186</in>
            <out>4221</out>
            <start>4556</start>
            <end>4591</end>
            <file id="monsters_S01E38_lineal_v001 43"/>
            <sourcetrack>
              <mediatype>audio</mediatype>
              <trackindex>2</trackindex>
            </sourcetrack>
            <link>
              <linkclipref>monsters_S01E38_lineal_v001 42</linkclipref>
              <mediatype>audio</mediatype>
              <trackindex>1</trackindex>
              <clipindex>15</clipindex>
              <groupindex>1</groupindex>
            </link>
            <link>
              <linkclipref>monsters_S01E38_lineal_v001 44</linkclipref>
              <mediatype>audio</mediatype>
              <trackindex>2</trackindex>
              <clipindex>15</clipindex>
              <groupindex>1</groupindex>
            </link>
            <itemhistory>
              <uuid>D43BAB90-C5BA-7688-8D20-E26A59C8711F</uuid>
            </itemhistory>
          </clipitem>
          <clipitem id="monsters_S01E38_lineal_v001 47">
            <name>monsters_S01E38_lineal_v001</name>
            <duration>6469</duration>
            <rate>
              <ntsc>FALSE</ntsc>
              <timebase>25</timebase>
            </rate>
            <in>4221</in>
            <out>4547</out>
            <start>4747</start>
            <end>5073</end>
            <file id="monsters_S01E38_lineal_v001 46"/>
            <sourcetrack>
              <mediatype>audio</mediatype>
              <trackindex>2</trackindex>
            </sourcetrack>
            <link>
              <linkclipref>monsters_S01E38_lineal_v001 45</linkclipref>
              <mediatype>audio</mediatype>
              <trackindex>1</trackindex>
              <clipindex>16</clipindex>
              <groupindex>1</groupindex>
            </link>
            <link>
              <linkclipref>monsters_S01E38_lineal_v001 47</linkclipref>
              <mediatype>audio</mediatype>
              <trackindex>2</trackindex>
              <clipindex>16</clipindex>
              <groupindex>1</groupindex>
            </link>
            <itemhistory>
              <uuid>507B6B89-96CB-98FE-9023-1D9C86A83A50</uuid>
            </itemhistory>
          </clipitem>
          <clipitem id="monsters_S01E38_lineal_v001 50">
            <name>monsters_S01E38_lineal_v001</name>
            <duration>6469</duration>
            <rate>
              <ntsc>FALSE</ntsc>
              <timebase>25</timebase>
            </rate>
            <in>4737</in>
            <out>4989</out>
            <start>5226</start>
            <end>5478</end>
            <file id="monsters_S01E38_lineal_v001 49"/>
            <sourcetrack>
              <mediatype>audio</mediatype>
              <trackindex>2</trackindex>
            </sourcetrack>
            <link>
              <linkclipref>monsters_S01E38_lineal_v001 48</linkclipref>
              <mediatype>audio</mediatype>
              <trackindex>1</trackindex>
              <clipindex>17</clipindex>
              <groupindex>1</groupindex>
            </link>
            <link>
              <linkclipref>monsters_S01E38_lineal_v001 50</linkclipref>
              <mediatype>audio</mediatype>
              <trackindex>2</trackindex>
              <clipindex>17</clipindex>
              <groupindex>1</groupindex>
            </link>
            <itemhistory>
              <uuid>F10FD150-18D7-D475-96AA-31FD6C2B217A</uuid>
            </itemhistory>
          </clipitem>
          <clipitem id="monsters_S01E38_lineal_v001 53">
            <name>monsters_S01E38_lineal_v001</name>
            <duration>6469</duration>
            <rate>
              <ntsc>FALSE</ntsc>
              <timebase>25</timebase>
            </rate>
            <in>5054</in>
            <out>5158</out>
            <start>5516</start>
            <end>5620</end>
            <file id="monsters_S01E38_lineal_v001 52"/>
            <sourcetrack>
              <mediatype>audio</mediatype>
              <trackindex>2</trackindex>
            </sourcetrack>
            <link>
              <linkclipref>monsters_S01E38_lineal_v001 51</linkclipref>
              <mediatype>audio</mediatype>
              <trackindex>1</trackindex>
              <clipindex>18</clipindex>
              <groupindex>1</groupindex>
            </link>
            <link>
              <linkclipref>monsters_S01E38_lineal_v001 53</linkclipref>
              <mediatype>audio</mediatype>
              <trackindex>2</trackindex>
              <clipindex>18</clipindex>
              <groupindex>1</groupindex>
            </link>
            <itemhistory>
              <uuid>E418A753-E816-D5D4-2258-6827915F3787</uuid>
            </itemhistory>
          </clipitem>
          <clipitem id="monsters_S01E38_lineal_v001 56">
            <name>monsters_S01E38_lineal_v001</name>
            <duration>6469</duration>
            <rate>
              <ntsc>FALSE</ntsc>
              <timebase>25</timebase>
            </rate>
            <in>6435</in>
            <out>6469</out>
            <start>6527</start>
            <end>6562</end>
            <file id="monsters_S01E38_lineal_v001 55"/>
            <sourcetrack>
              <mediatype>audio</mediatype>
              <trackindex>2</trackindex>
            </sourcetrack>
            <link>
              <linkclipref>monsters_S01E38_lineal_v001 54</linkclipref>
              <mediatype>audio</mediatype>
              <trackindex>1</trackindex>
              <clipindex>19</clipindex>
              <groupindex>1</groupindex>
            </link>
            <link>
              <linkclipref>monsters_S01E38_lineal_v001 56</linkclipref>
              <mediatype>audio</mediatype>
              <trackindex>2</trackindex>
              <clipindex>19</clipindex>
              <groupindex>1</groupindex>
            </link>
            <itemhistory>
              <uuid>13A69AB7-196E-9CFF-59AD-194F1CD03F6D</uuid>
            </itemhistory>
          </clipitem>
          <clipitem id="monsters_S01E38_lineal_v001 59">
            <name>monsters_S01E38_lineal_v001</name>
            <duration>6469</duration>
            <rate>
              <ntsc>FALSE</ntsc>
              <timebase>25</timebase>
            </rate>
            <in>5961</in>
            <out>6099</out>
            <start>7056</start>
            <end>7194</end>
            <file id="monsters_S01E38_lineal_v001 58"/>
            <sourcetrack>
              <mediatype>audio</mediatype>
              <trackindex>2</trackindex>
            </sourcetrack>
            <link>
              <linkclipref>monsters_S01E38_lineal_v001 57</linkclipref>
              <mediatype>audio</mediatype>
              <trackindex>1</trackindex>
              <clipindex>20</clipindex>
              <groupindex>1</groupindex>
            </link>
            <link>
              <linkclipref>monsters_S01E38_lineal_v001 59</linkclipref>
              <mediatype>audio</mediatype>
              <trackindex>2</trackindex>
              <clipindex>20</clipindex>
              <groupindex>1</groupindex>
            </link>
            <itemhistory>
              <uuid>2B5EBFF5-B9B5-4F49-F0EB-31EA92D0D7B4</uuid>
            </itemhistory>
          </clipitem>
          <clipitem id="monsters_S01E38_lineal_v001 62">
            <name>monsters_S01E38_lineal_v001</name>
            <duration>6469</duration>
            <rate>
              <ntsc>FALSE</ntsc>
              <timebase>25</timebase>
            </rate>
            <in>6435</in>
            <out>6469</out>
            <start>7229</start>
            <end>7264</end>
            <file id="monsters_S01E38_lineal_v001 61"/>
            <sourcetrack>
              <mediatype>audio</mediatype>
              <trackindex>2</trackindex>
            </sourcetrack>
            <link>
              <linkclipref>monsters_S01E38_lineal_v001 60</linkclipref>
              <mediatype>audio</mediatype>
              <trackindex>1</trackindex>
              <clipindex>21</clipindex>
              <groupindex>1</groupindex>
            </link>
            <link>
              <linkclipref>monsters_S01E38_lineal_v001 62</linkclipref>
              <mediatype>audio</mediatype>
              <trackindex>2</trackindex>
              <clipindex>21</clipindex>
              <groupindex>1</groupindex>
            </link>
            <itemhistory>
              <uuid>B65814B1-9477-426E-DF39-F131237D7F1B</uuid>
            </itemhistory>
          </clipitem>
        </track>
        <track>
          <clipitem id="monsters_S01E38_lineal_v001 63">
            <name>monsters_S01E38_lineal_v001</name>
            <duration>6469</duration>
            <rate>
              <ntsc>FALSE</ntsc>
              <timebase>25</timebase>
            </rate>
            <in>119</in>
            <out>233</out>
            <start>127</start>
            <end>241</end>
            <file id="monsters_S01E38_lineal_v001 64">
              <name>monsters_S01E38_lineal_v001.aif</name>
              <pathurl>file://localhost/Users/pepesanchez/Desktop/untitled%20folder/monsters_S01E38_lineal_v001.aif</pathurl>
              <rate>
                <timebase>25</timebase>
              </rate>
              <duration>6469</duration>
              <media>
                <audio>
                  <samplecharacteristics>
                    <samplerate>48000</samplerate>
                    <depth>16</depth>
                  </samplecharacteristics>
                  <channelcount>2</channelcount>
                  <layout>stereo</layout>
                  <audiochannel>
                    <sourcechannel>1</sourcechannel>
                    <channellabel>left</channellabel>
                  </audiochannel>
                  <audiochannel>
                    <sourcechannel>2</sourcechannel>
                    <channellabel>right</channellabel>
                  </audiochannel>
                </audio>
              </media>
            </file>
            <sourcetrack>
              <mediatype>audio</mediatype>
              <trackindex>1</trackindex>
            </sourcetrack>
            <link>
              <linkclipref>monsters_S01E38_lineal_v001 63</linkclipref>
              <mediatype>audio</mediatype>
              <trackindex>3</trackindex>
              <clipindex>1</clipindex>
              <groupindex>1</groupindex>
            </link>
            <link>
              <linkclipref>monsters_S01E38_lineal_v001 65</linkclipref>
              <mediatype>audio</mediatype>
              <trackindex>4</trackindex>
              <clipindex>1</clipindex>
              <groupindex>1</groupindex>
            </link>
            <itemhistory>
              <uuid>8295AAB3-1545-C037-5C20-6E513AA741A4</uuid>
            </itemhistory>
          </clipitem>
          <clipitem id="monsters_S01E38_lineal_v001 66">
            <name>monsters_S01E38_lineal_v001</name>
            <duration>6469</duration>
            <rate>
              <ntsc>FALSE</ntsc>
              <timebase>25</timebase>
            </rate>
            <in>301</in>
            <out>645</out>
            <start>310</start>
            <end>654</end>
            <file id="monsters_S01E38_lineal_v001 67">
              <name>monsters_S01E38_lineal_v001.aif</name>
              <pathurl>file://localhost/Users/pepesanchez/Desktop/untitled%20folder/monsters_S01E38_lineal_v001.aif</pathurl>
              <rate>
                <timebase>25</timebase>
              </rate>
              <duration>6469</duration>
              <media>
                <audio>
                  <samplecharacteristics>
                    <samplerate>48000</samplerate>
                    <depth>16</depth>
                  </samplecharacteristics>
                  <channelcount>2</channelcount>
                  <layout>stereo</layout>
                  <audiochannel>
                    <sourcechannel>1</sourcechannel>
                    <channellabel>left</channellabel>
                  </audiochannel>
                  <audiochannel>
                    <sourcechannel>2</sourcechannel>
                    <channellabel>right</channellabel>
                  </audiochannel>
                </audio>
              </media>
            </file>
            <sourcetrack>
              <mediatype>audio</mediatype>
              <trackindex>1</trackindex>
            </sourcetrack>
            <link>
              <linkclipref>monsters_S01E38_lineal_v001 66</linkclipref>
              <mediatype>audio</mediatype>
              <trackindex>3</trackindex>
              <clipindex>2</clipindex>
              <groupindex>1</groupindex>
            </link>
            <link>
              <linkclipref>monsters_S01E38_lineal_v001 68</linkclipref>
              <mediatype>audio</mediatype>
              <trackindex>4</trackindex>
              <clipindex>2</clipindex>
              <groupindex>1</groupindex>
            </link>
            <itemhistory>
              <uuid>260C6DA2-6396-26C6-1F4D-82F0103AF282</uuid>
            </itemhistory>
          </clipitem>
          <clipitem id="monsters_S01E38_lineal_v001 69">
            <name>monsters_S01E38_lineal_v001</name>
            <duration>6469</duration>
            <rate>
              <ntsc>FALSE</ntsc>
              <timebase>25</timebase>
            </rate>
            <in>726</in>
            <out>792</out>
            <start>665</start>
            <end>731</end>
            <file id="monsters_S01E38_lineal_v001 70">
              <name>monsters_S01E38_lineal_v001.aif</name>
              <pathurl>file://localhost/Users/pepesanchez/Desktop/untitled%20folder/monsters_S01E38_lineal_v001.aif</pathurl>
              <rate>
                <timebase>25</timebase>
              </rate>
              <duration>6469</duration>
              <media>
                <audio>
                  <samplecharacteristics>
                    <samplerate>48000</samplerate>
                    <depth>16</depth>
                  </samplecharacteristics>
                  <channelcount>2</channelcount>
                  <layout>stereo</layout>
                  <audiochannel>
                    <sourcechannel>1</sourcechannel>
                    <channellabel>left</channellabel>
                  </audiochannel>
                  <audiochannel>
                    <sourcechannel>2</sourcechannel>
                    <channellabel>right</channellabel>
                  </audiochannel>
                </audio>
              </media>
            </file>
            <sourcetrack>
              <mediatype>audio</mediatype>
              <trackindex>1</trackindex>
            </sourcetrack>
            <link>
              <linkclipref>monsters_S01E38_lineal_v001 69</linkclipref>
              <mediatype>audio</mediatype>
              <trackindex>3</trackindex>
              <clipindex>3</clipindex>
              <groupindex>1</groupindex>
            </link>
            <link>
              <linkclipref>monsters_S01E38_lineal_v001 71</linkclipref>
              <mediatype>audio</mediatype>
              <trackindex>4</trackindex>
              <clipindex>3</clipindex>
              <groupindex>1</groupindex>
            </link>
            <itemhistory>
              <uuid>6909FF44-1A8D-B7B5-9738-220A5C5F8B1E</uuid>
            </itemhistory>
          </clipitem>
          <clipitem id="monsters_S01E38_lineal_v001 72">
            <name>monsters_S01E38_lineal_v001</name>
            <duration>6469</duration>
            <rate>
              <ntsc>FALSE</ntsc>
              <timebase>25</timebase>
            </rate>
            <in>798</in>
            <out>848</out>
            <start>738</start>
            <end>788</end>
            <file id="monsters_S01E38_lineal_v001 73">
              <name>monsters_S01E38_lineal_v001.aif</name>
              <pathurl>file://localhost/Users/pepesanchez/Desktop/untitled%20folder/monsters_S01E38_lineal_v001.aif</pathurl>
              <rate>
                <timebase>25</timebase>
              </rate>
              <duration>6469</duration>
              <media>
                <audio>
                  <samplecharacteristics>
                    <samplerate>48000</samplerate>
                    <depth>16</depth>
                  </samplecharacteristics>
                  <channelcount>2</channelcount>
                  <layout>stereo</layout>
                  <audiochannel>
                    <sourcechannel>1</sourcechannel>
                    <channellabel>left</channellabel>
                  </audiochannel>
                  <audiochannel>
                    <sourcechannel>2</sourcechannel>
                    <channellabel>right</channellabel>
                  </audiochannel>
                </audio>
              </media>
            </file>
            <sourcetrack>
              <mediatype>audio</mediatype>
              <trackindex>1</trackindex>
            </sourcetrack>
            <link>
              <linkclipref>monsters_S01E38_lineal_v001 72</linkclipref>
              <mediatype>audio</mediatype>
              <trackindex>3</trackindex>
              <clipindex>4</clipindex>
              <groupindex>1</groupindex>
            </link>
            <link>
              <linkclipref>monsters_S01E38_lineal_v001 74</linkclipref>
              <mediatype>audio</mediatype>
              <trackindex>4</trackindex>
              <clipindex>4</clipindex>
              <groupindex>1</groupindex>
            </link>
            <itemhistory>
              <uuid>5031EFFA-CD1A-2AF5-C7EB-55198A7BCE0C</uuid>
            </itemhistory>
          </clipitem>
          <clipitem id="monsters_S01E38_lineal_v001 75">
            <name>monsters_S01E38_lineal_v001</name>
            <duration>6469</duration>
            <rate>
              <ntsc>FALSE</ntsc>
              <timebase>25</timebase>
            </rate>
            <in>1024</in>
            <out>1317</out>
            <start>931</start>
            <end>1224</end>
            <file id="monsters_S01E38_lineal_v001 76">
              <name>monsters_S01E38_lineal_v001.aif</name>
              <pathurl>file://localhost/Users/pepesanchez/Desktop/untitled%20folder/monsters_S01E38_lineal_v001.aif</pathurl>
              <rate>
                <timebase>25</timebase>
              </rate>
              <duration>6469</duration>
              <media>
                <audio>
                  <samplecharacteristics>
                    <samplerate>48000</samplerate>
                    <depth>16</depth>
                  </samplecharacteristics>
                  <channelcount>2</channelcount>
                  <layout>stereo</layout>
                  <audiochannel>
                    <sourcechannel>1</sourcechannel>
                    <channellabel>left</channellabel>
                  </audiochannel>
                  <audiochannel>
                    <sourcechannel>2</sourcechannel>
                    <channellabel>right</channellabel>
                  </audiochannel>
                </audio>
              </media>
            </file>
            <sourcetrack>
              <mediatype>audio</mediatype>
              <trackindex>1</trackindex>
            </sourcetrack>
            <link>
              <linkclipref>monsters_S01E38_lineal_v001 75</linkclipref>
              <mediatype>audio</mediatype>
              <trackindex>3</trackindex>
              <clipindex>5</clipindex>
              <groupindex>1</groupindex>
            </link>
            <link>
              <linkclipref>monsters_S01E38_lineal_v001 77</linkclipref>
              <mediatype>audio</mediatype>
              <trackindex>4</trackindex>
              <clipindex>5</clipindex>
              <groupindex>1</groupindex>
            </link>
            <itemhistory>
              <uuid>BD5A10E1-2E96-9657-E5D0-7E3BFDED326A</uuid>
            </itemhistory>
          </clipitem>
          <clipitem id="monsters_S01E38_lineal_v001 78">
            <name>monsters_S01E38_lineal_v001</name>
            <duration>6469</duration>
            <rate>
              <ntsc>FALSE</ntsc>
              <timebase>25</timebase>
            </rate>
            <in>1700</in>
            <out>1807</out>
            <start>1505</start>
            <end>1612</end>
            <file id="monsters_S01E38_lineal_v001 79">
              <name>monsters_S01E38_lineal_v001.aif</name>
              <pathurl>file://localhost/Users/pepesanchez/Desktop/untitled%20folder/monsters_S01E38_lineal_v001.aif</pathurl>
              <rate>
                <timebase>25</timebase>
              </rate>
              <duration>6469</duration>
              <media>
                <audio>
                  <samplecharacteristics>
                    <samplerate>48000</samplerate>
                    <depth>16</depth>
                  </samplecharacteristics>
                  <channelcount>2</channelcount>
                  <layout>stereo</layout>
                  <audiochannel>
                    <sourcechannel>1</sourcechannel>
                    <channellabel>left</channellabel>
                  </audiochannel>
                  <audiochannel>
                    <sourcechannel>2</sourcechannel>
                    <channellabel>right</channellabel>
                  </audiochannel>
                </audio>
              </media>
            </file>
            <sourcetrack>
              <mediatype>audio</mediatype>
              <trackindex>1</trackindex>
            </sourcetrack>
            <link>
              <linkclipref>monsters_S01E38_lineal_v001 78</linkclipref>
              <mediatype>audio</mediatype>
              <trackindex>3</trackindex>
              <clipindex>6</clipindex>
              <groupindex>1</groupindex>
            </link>
            <link>
              <linkclipref>monsters_S01E38_lineal_v001 80</linkclipref>
              <mediatype>audio</mediatype>
              <trackindex>4</trackindex>
              <clipindex>6</clipindex>
              <groupindex>1</groupindex>
            </link>
            <itemhistory>
              <uuid>60EB843B-6A27-CA24-538B-624C144BEADF</uuid>
            </itemhistory>
          </clipitem>
          <clipitem id="monsters_S01E38_lineal_v001 81">
            <name>monsters_S01E38_lineal_v001</name>
            <duration>6469</duration>
            <rate>
              <ntsc>FALSE</ntsc>
              <timebase>25</timebase>
            </rate>
            <in>1986</in>
            <out>2178</out>
            <start>1906</start>
            <end>2098</end>
            <file id="monsters_S01E38_lineal_v001 82">
              <name>monsters_S01E38_lineal_v001.aif</name>
              <pathurl>file://localhost/Users/pepesanchez/Desktop/untitled%20folder/monsters_S01E38_lineal_v001.aif</pathurl>
              <rate>
                <timebase>25</timebase>
              </rate>
              <duration>6469</duration>
              <media>
                <audio>
                  <samplecharacteristics>
                    <samplerate>48000</samplerate>
                    <depth>16</depth>
                  </samplecharacteristics>
                  <channelcount>2</channelcount>
                  <layout>stereo</layout>
                  <audiochannel>
                    <sourcechannel>1</sourcechannel>
                    <channellabel>left</channellabel>
                  </audiochannel>
                  <audiochannel>
                    <sourcechannel>2</sourcechannel>
                    <channellabel>right</channellabel>
                  </audiochannel>
                </audio>
              </media>
            </file>
            <sourcetrack>
              <mediatype>audio</mediatype>
              <trackindex>1</trackindex>
            </sourcetrack>
            <link>
              <linkclipref>monsters_S01E38_lineal_v001 81</linkclipref>
              <mediatype>audio</mediatype>
              <trackindex>3</trackindex>
              <clipindex>7</clipindex>
              <groupindex>1</groupindex>
            </link>
            <link>
              <linkclipref>monsters_S01E38_lineal_v001 83</linkclipref>
              <mediatype>audio</mediatype>
              <trackindex>4</trackindex>
              <clipindex>7</clipindex>
              <groupindex>1</groupindex>
            </link>
            <itemhistory>
              <uuid>96008DAC-5849-C92C-272A-59A99A05F0F7</uuid>
            </itemhistory>
          </clipitem>
          <clipitem id="monsters_S01E38_lineal_v001 84">
            <name>monsters_S01E38_lineal_v001</name>
            <duration>6469</duration>
            <rate>
              <ntsc>FALSE</ntsc>
              <timebase>25</timebase>
            </rate>
            <in>2215</in>
            <out>2362</out>
            <start>2102</start>
            <end>2249</end>
            <file id="monsters_S01E38_lineal_v001 85">
              <name>monsters_S01E38_lineal_v001.aif</name>
              <pathurl>file://localhost/Users/pepesanchez/Desktop/untitled%20folder/monsters_S01E38_lineal_v001.aif</pathurl>
              <rate>
                <timebase>25</timebase>
              </rate>
              <duration>6469</duration>
              <media>
                <audio>
                  <samplecharacteristics>
                    <samplerate>48000</samplerate>
                    <depth>16</depth>
                  </samplecharacteristics>
                  <channelcount>2</channelcount>
                  <layout>stereo</layout>
                  <audiochannel>
                    <sourcechannel>1</sourcechannel>
                    <channellabel>left</channellabel>
                  </audiochannel>
                  <audiochannel>
                    <sourcechannel>2</sourcechannel>
                    <channellabel>right</channellabel>
                  </audiochannel>
                </audio>
              </media>
            </file>
            <sourcetrack>
              <mediatype>audio</mediatype>
              <trackindex>1</trackindex>
            </sourcetrack>
            <link>
              <linkclipref>monsters_S01E38_lineal_v001 84</linkclipref>
              <mediatype>audio</mediatype>
              <trackindex>3</trackindex>
              <clipindex>8</clipindex>
              <groupindex>1</groupindex>
            </link>
            <link>
              <linkclipref>monsters_S01E38_lineal_v001 86</linkclipref>
              <mediatype>audio</mediatype>
              <trackindex>4</trackindex>
              <clipindex>8</clipindex>
              <groupindex>1</groupindex>
            </link>
            <itemhistory>
              <uuid>2A4D3AA5-4BF3-618B-A2EA-5C611BD5C517</uuid>
            </itemhistory>
          </clipitem>
          <clipitem id="monsters_S01E38_lineal_v001 87">
            <name>monsters_S01E38_lineal_v001</name>
            <duration>6469</duration>
            <rate>
              <ntsc>FALSE</ntsc>
              <timebase>25</timebase>
            </rate>
            <in>2522</in>
            <out>2762</out>
            <start>2413</start>
            <end>2653</end>
            <file id="monsters_S01E38_lineal_v001 88">
              <name>monsters_S01E38_lineal_v001.aif</name>
              <pathurl>file://localhost/Users/pepesanchez/Desktop/untitled%20folder/monsters_S01E38_lineal_v001.aif</pathurl>
              <rate>
                <timebase>25</timebase>
              </rate>
              <duration>6469</duration>
              <media>
                <audio>
                  <samplecharacteristics>
                    <samplerate>48000</samplerate>
                    <depth>16</depth>
                  </samplecharacteristics>
                  <channelcount>2</channelcount>
                  <layout>stereo</layout>
                  <audiochannel>
                    <sourcechannel>1</sourcechannel>
                    <channellabel>left</channellabel>
                  </audiochannel>
                  <audiochannel>
                    <sourcechannel>2</sourcechannel>
                    <channellabel>right</channellabel>
                  </audiochannel>
                </audio>
              </media>
            </file>
            <sourcetrack>
              <mediatype>audio</mediatype>
              <trackindex>1</trackindex>
            </sourcetrack>
            <link>
              <linkclipref>monsters_S01E38_lineal_v001 87</linkclipref>
              <mediatype>audio</mediatype>
              <trackindex>3</trackindex>
              <clipindex>9</clipindex>
              <groupindex>1</groupindex>
            </link>
            <link>
              <linkclipref>monsters_S01E38_lineal_v001 89</linkclipref>
              <mediatype>audio</mediatype>
              <trackindex>4</trackindex>
              <clipindex>9</clipindex>
              <groupindex>1</groupindex>
            </link>
            <itemhistory>
              <uuid>ACA9D1B3-A6E3-B82F-5F89-4302CDA953E5</uuid>
            </itemhistory>
          </clipitem>
          <clipitem id="monsters_S01E38_lineal_v001 90">
            <name>monsters_S01E38_lineal_v001</name>
            <duration>6469</duration>
            <rate>
              <ntsc>FALSE</ntsc>
              <timebase>25</timebase>
            </rate>
            <in>2908</in>
            <out>2978</out>
            <start>2767</start>
            <end>2837</end>
            <file id="monsters_S01E38_lineal_v001 91">
              <name>monsters_S01E38_lineal_v001.aif</name>
              <pathurl>file://localhost/Users/pepesanchez/Desktop/untitled%20folder/monsters_S01E38_lineal_v001.aif</pathurl>
              <rate>
                <timebase>25</timebase>
              </rate>
              <duration>6469</duration>
              <media>
                <audio>
                  <samplecharacteristics>
                    <samplerate>48000</samplerate>
                    <depth>16</depth>
                  </samplecharacteristics>
                  <channelcount>2</channelcount>
                  <layout>stereo</layout>
                  <audiochannel>
                    <sourcechannel>1</sourcechannel>
                    <channellabel>left</channellabel>
                  </audiochannel>
                  <audiochannel>
                    <sourcechannel>2</sourcechannel>
                    <channellabel>right</channellabel>
                  </audiochannel>
                </audio>
              </media>
            </file>
            <sourcetrack>
              <mediatype>audio</mediatype>
              <trackindex>1</trackindex>
            </sourcetrack>
            <link>
              <linkclipref>monsters_S01E38_lineal_v001 90</linkclipref>
              <mediatype>audio</mediatype>
              <trackindex>3</trackindex>
              <clipindex>10</clipindex>
              <groupindex>1</groupindex>
            </link>
            <link>
              <linkclipref>monsters_S01E38_lineal_v001 92</linkclipref>
              <mediatype>audio</mediatype>
              <trackindex>4</trackindex>
              <clipindex>10</clipindex>
              <groupindex>1</groupindex>
            </link>
            <itemhistory>
              <uuid>78BEA5A1-A963-531F-ADBC-4506B8B5B965</uuid>
            </itemhistory>
          </clipitem>
          <clipitem id="monsters_S01E38_lineal_v001 93">
            <name>monsters_S01E38_lineal_v001</name>
            <duration>6469</duration>
            <rate>
              <ntsc>FALSE</ntsc>
              <timebase>25</timebase>
            </rate>
            <in>3387</in>
            <out>3479</out>
            <start>3238</start>
            <end>3330</end>
            <file id="monsters_S01E38_lineal_v001 94">
              <name>monsters_S01E38_lineal_v001.aif</name>
              <pathurl>file://localhost/Users/pepesanchez/Desktop/untitled%20folder/monsters_S01E38_lineal_v001.aif</pathurl>
              <rate>
                <timebase>25</timebase>
              </rate>
              <duration>6469</duration>
              <media>
                <audio>
                  <samplecharacteristics>
                    <samplerate>48000</samplerate>
                    <depth>16</depth>
                  </samplecharacteristics>
                  <channelcount>2</channelcount>
                  <layout>stereo</layout>
                  <audiochannel>
                    <sourcechannel>1</sourcechannel>
                    <channellabel>left</channellabel>
                  </audiochannel>
                  <audiochannel>
                    <sourcechannel>2</sourcechannel>
                    <channellabel>right</channellabel>
                  </audiochannel>
                </audio>
              </media>
            </file>
            <sourcetrack>
              <mediatype>audio</mediatype>
              <trackindex>1</trackindex>
            </sourcetrack>
            <link>
              <linkclipref>monsters_S01E38_lineal_v001 93</linkclipref>
              <mediatype>audio</mediatype>
              <trackindex>3</trackindex>
              <clipindex>11</clipindex>
              <groupindex>1</groupindex>
            </link>
            <link>
              <linkclipref>monsters_S01E38_lineal_v001 95</linkclipref>
              <mediatype>audio</mediatype>
              <trackindex>4</trackindex>
              <clipindex>11</clipindex>
              <groupindex>1</groupindex>
            </link>
            <itemhistory>
              <uuid>65CD9774-EE69-737C-6DE1-CFEDA57BE14D</uuid>
            </itemhistory>
          </clipitem>
          <clipitem id="monsters_S01E38_lineal_v001 96">
            <name>monsters_S01E38_lineal_v001</name>
            <duration>6469</duration>
            <rate>
              <ntsc>FALSE</ntsc>
              <timebase>25</timebase>
            </rate>
            <in>3600</in>
            <out>3704</out>
            <start>3612</start>
            <end>3716</end>
            <file id="monsters_S01E38_lineal_v001 97">
              <name>monsters_S01E38_lineal_v001.aif</name>
              <pathurl>file://localhost/Users/pepesanchez/Desktop/untitled%20folder/monsters_S01E38_lineal_v001.aif</pathurl>
              <rate>
                <timebase>25</timebase>
              </rate>
              <duration>6469</duration>
              <media>
                <audio>
                  <samplecharacteristics>
                    <samplerate>48000</samplerate>
                    <depth>16</depth>
                  </samplecharacteristics>
                  <channelcount>2</channelcount>
                  <layout>stereo</layout>
                  <audiochannel>
                    <sourcechannel>1</sourcechannel>
                    <channellabel>left</channellabel>
                  </audiochannel>
                  <audiochannel>
                    <sourcechannel>2</sourcechannel>
                    <channellabel>right</channellabel>
                  </audiochannel>
                </audio>
              </media>
            </file>
            <sourcetrack>
              <mediatype>audio</mediatype>
              <trackindex>1</trackindex>
            </sourcetrack>
            <link>
              <linkclipref>monsters_S01E38_lineal_v001 96</linkclipref>
              <mediatype>audio</mediatype>
              <trackindex>3</trackindex>
              <clipindex>12</clipindex>
              <groupindex>1</groupindex>
            </link>
            <link>
              <linkclipref>monsters_S01E38_lineal_v001 98</linkclipref>
              <mediatype>audio</mediatype>
              <trackindex>4</trackindex>
              <clipindex>12</clipindex>
              <groupindex>1</groupindex>
            </link>
            <itemhistory>
              <uuid>CE51E3E7-354B-E339-EE46-83E1E5C948E0</uuid>
            </itemhistory>
          </clipitem>
          <clipitem id="monsters_S01E38_lineal_v001 99">
            <name>monsters_S01E38_lineal_v001</name>
            <duration>6469</duration>
            <rate>
              <ntsc>FALSE</ntsc>
              <timebase>25</timebase>
            </rate>
            <in>3844</in>
            <out>3934</out>
            <start>3854</start>
            <end>3944</end>
            <file id="monsters_S01E38_lineal_v001 100">
              <name>monsters_S01E38_lineal_v001.aif</name>
              <pathurl>file://localhost/Users/pepesanchez/Desktop/untitled%20folder/monsters_S01E38_lineal_v001.aif</pathurl>
              <rate>
                <timebase>25</timebase>
              </rate>
              <duration>6469</duration>
              <media>
                <audio>
                  <samplecharacteristics>
                    <samplerate>48000</samplerate>
                    <depth>16</depth>
                  </samplecharacteristics>
                  <channelcount>2</channelcount>
                  <layout>stereo</layout>
                  <audiochannel>
                    <sourcechannel>1</sourcechannel>
                    <channellabel>left</channellabel>
                  </audiochannel>
                  <audiochannel>
                    <sourcechannel>2</sourcechannel>
                    <channellabel>right</channellabel>
                  </audiochannel>
                </audio>
              </media>
            </file>
            <sourcetrack>
              <mediatype>audio</mediatype>
              <trackindex>1</trackindex>
            </sourcetrack>
            <link>
              <linkclipref>monsters_S01E38_lineal_v001 99</linkclipref>
              <mediatype>audio</mediatype>
              <trackindex>3</trackindex>
              <clipindex>13</clipindex>
              <groupindex>1</groupindex>
            </link>
            <link>
              <linkclipref>monsters_S01E38_lineal_v001 101</linkclipref>
              <mediatype>audio</mediatype>
              <trackindex>4</trackindex>
              <clipindex>13</clipindex>
              <groupindex>1</groupindex>
            </link>
            <itemhistory>
              <uuid>BBBC6976-7D69-B453-E596-1B9DEE907FEA</uuid>
            </itemhistory>
          </clipitem>
          <clipitem id="monsters_S01E38_lineal_v001 102">
            <name>monsters_S01E38_lineal_v001</name>
            <duration>6469</duration>
            <rate>
              <ntsc>FALSE</ntsc>
              <timebase>25</timebase>
            </rate>
            <in>3934</in>
            <out>3973</out>
            <start>3996</start>
            <end>4035</end>
            <file id="monsters_S01E38_lineal_v001 103">
              <name>monsters_S01E38_lineal_v001.aif</name>
              <pathurl>file://localhost/Users/pepesanchez/Desktop/untitled%20folder/monsters_S01E38_lineal_v001.aif</pathurl>
              <rate>
                <timebase>25</timebase>
              </rate>
              <duration>6469</duration>
              <media>
                <audio>
                  <samplecharacteristics>
                    <samplerate>48000</samplerate>
                    <depth>16</depth>
                  </samplecharacteristics>
                  <channelcount>2</channelcount>
                  <layout>stereo</layout>
                  <audiochannel>
                    <sourcechannel>1</sourcechannel>
                    <channellabel>left</channellabel>
                  </audiochannel>
                  <audiochannel>
                    <sourcechannel>2</sourcechannel>
                    <channellabel>right</channellabel>
                  </audiochannel>
                </audio>
              </media>
            </file>
            <sourcetrack>
              <mediatype>audio</mediatype>
              <trackindex>1</trackindex>
            </sourcetrack>
            <link>
              <linkclipref>monsters_S01E38_lineal_v001 102</linkclipref>
              <mediatype>audio</mediatype>
              <trackindex>3</trackindex>
              <clipindex>14</clipindex>
              <groupindex>1</groupindex>
            </link>
            <link>
              <linkclipref>monsters_S01E38_lineal_v001 104</linkclipref>
              <mediatype>audio</mediatype>
              <trackindex>4</trackindex>
              <clipindex>14</clipindex>
              <groupindex>1</groupindex>
            </link>
            <itemhistory>
              <uuid>8EA6ED26-B668-14E2-1E69-220850CCA925</uuid>
            </itemhistory>
          </clipitem>
          <clipitem id="monsters_S01E38_lineal_v001 105">
            <name>monsters_S01E38_lineal_v001</name>
            <duration>6469</duration>
            <rate>
              <ntsc>FALSE</ntsc>
              <timebase>25</timebase>
            </rate>
            <in>2522</in>
            <out>2609</out>
            <start>4119</start>
            <end>4206</end>
            <file id="monsters_S01E38_lineal_v001 106">
              <name>monsters_S01E38_lineal_v001.aif</name>
              <pathurl>file://localhost/Users/pepesanchez/Desktop/untitled%20folder/monsters_S01E38_lineal_v001.aif</pathurl>
              <rate>
                <timebase>25</timebase>
              </rate>
              <duration>6469</duration>
              <media>
                <audio>
                  <samplecharacteristics>
                    <samplerate>48000</samplerate>
                    <depth>16</depth>
                  </samplecharacteristics>
                  <channelcount>2</channelcount>
                  <layout>stereo</layout>
                  <audiochannel>
                    <sourcechannel>1</sourcechannel>
                    <channellabel>left</channellabel>
                  </audiochannel>
                  <audiochannel>
                    <sourcechannel>2</sourcechannel>
                    <channellabel>right</channellabel>
                  </audiochannel>
                </audio>
              </media>
            </file>
            <filter>
              <enabled>TRUE</enabled>
              <effect>
                <name>Audio Levels</name>
                <effectid>audiolevels</effectid>
                <effectcategory>audiolevels</effectcategory>
                <effecttype>audiolevels</effecttype>
                <mediatype>audio</mediatype>
                <parameter>
                  <name>Level</name>
                  <parameterid>level</parameterid>
                  <keyframe>
                    <when>2527.4795999080</when>
                    <value>0.6428570151</value>
                  </keyframe>
                  <interpolation>
                    <name>FCPCurve</name>
                  </interpolation>
                </parameter>
              </effect>
            </filter>
            <sourcetrack>
              <mediatype>audio</mediatype>
              <trackindex>1</trackindex>
            </sourcetrack>
            <link>
              <linkclipref>monsters_S01E38_lineal_v001 105</linkclipref>
              <mediatype>audio</mediatype>
              <trackindex>3</trackindex>
              <clipindex>15</clipindex>
              <groupindex>1</groupindex>
            </link>
            <link>
              <linkclipref>monsters_S01E38_lineal_v001 107</linkclipref>
              <mediatype>audio</mediatype>
              <trackindex>4</trackindex>
              <clipindex>15</clipindex>
              <groupindex>1</groupindex>
            </link>
            <itemhistory>
              <uuid>727923C9-81C9-5681-E00B-12AD1FF9B539</uuid>
            </itemhistory>
          </clipitem>
          <clipitem id="monsters_S01E38_lineal_v001 108">
            <name>monsters_S01E38_lineal_v001</name>
            <duration>6469</duration>
            <rate>
              <ntsc>FALSE</ntsc>
              <timebase>25</timebase>
            </rate>
            <in>3973</in>
            <out>4051</out>
            <start>4270</start>
            <end>4348</end>
            <file id="monsters_S01E38_lineal_v001 109">
              <name>monsters_S01E38_lineal_v001.aif</name>
              <pathurl>file://localhost/Users/pepesanchez/Desktop/untitled%20folder/monsters_S01E38_lineal_v001.aif</pathurl>
              <rate>
                <timebase>25</timebase>
              </rate>
              <duration>6469</duration>
              <media>
                <audio>
                  <samplecharacteristics>
                    <samplerate>48000</samplerate>
                    <depth>16</depth>
                  </samplecharacteristics>
                  <channelcount>2</channelcount>
                  <layout>stereo</layout>
                  <audiochannel>
                    <sourcechannel>1</sourcechannel>
                    <channellabel>left</channellabel>
                  </audiochannel>
                  <audiochannel>
                    <sourcechannel>2</sourcechannel>
                    <channellabel>right</channellabel>
                  </audiochannel>
                </audio>
              </media>
            </file>
            <sourcetrack>
              <mediatype>audio</mediatype>
              <trackindex>1</trackindex>
            </sourcetrack>
            <link>
              <linkclipref>monsters_S01E38_lineal_v001 108</linkclipref>
              <mediatype>audio</mediatype>
              <trackindex>3</trackindex>
              <clipindex>16</clipindex>
              <groupindex>1</groupindex>
            </link>
            <link>
              <linkclipref>monsters_S01E38_lineal_v001 110</linkclipref>
              <mediatype>audio</mediatype>
              <trackindex>4</trackindex>
              <clipindex>16</clipindex>
              <groupindex>1</groupindex>
            </link>
            <itemhistory>
              <uuid>E0911C8E-C48B-C33D-20D8-E0C235961EE9</uuid>
            </itemhistory>
          </clipitem>
          <clipitem id="monsters_S01E38_lineal_v001 111">
            <name>monsters_S01E38_lineal_v001</name>
            <duration>6469</duration>
            <rate>
              <ntsc>FALSE</ntsc>
              <timebase>25</timebase>
            </rate>
            <in>4056</in>
            <out>4186</out>
            <start>4385</start>
            <end>4515</end>
            <file id="monsters_S01E38_lineal_v001 112">
              <name>monsters_S01E38_lineal_v001.aif</name>
              <pathurl>file://localhost/Users/pepesanchez/Desktop/untitled%20folder/monsters_S01E38_lineal_v001.aif</pathurl>
              <rate>
                <timebase>25</timebase>
              </rate>
              <duration>6469</duration>
              <media>
                <audio>
                  <samplecharacteristics>
                    <samplerate>48000</samplerate>
                    <depth>16</depth>
                  </samplecharacteristics>
                  <channelcount>2</channelcount>
                  <layout>stereo</layout>
                  <audiochannel>
                    <sourcechannel>1</sourcechannel>
                    <channellabel>left</channellabel>
                  </audiochannel>
                  <audiochannel>
                    <sourcechannel>2</sourcechannel>
                    <channellabel>right</channellabel>
                  </audiochannel>
                </audio>
              </media>
            </file>
            <sourcetrack>
              <mediatype>audio</mediatype>
              <trackindex>1</trackindex>
            </sourcetrack>
            <link>
              <linkclipref>monsters_S01E38_lineal_v001 111</linkclipref>
              <mediatype>audio</mediatype>
              <trackindex>3</trackindex>
              <clipindex>17</clipindex>
              <groupindex>1</groupindex>
            </link>
            <link>
              <linkclipref>monsters_S01E38_lineal_v001 113</linkclipref>
              <mediatype>audio</mediatype>
              <trackindex>4</trackindex>
              <clipindex>17</clipindex>
              <groupindex>1</groupindex>
            </link>
            <itemhistory>
              <uuid>6A147B7B-EC7E-1D82-5D14-EFD1605A5241</uuid>
            </itemhistory>
          </clipitem>
          <clipitem id="monsters_S01E38_lineal_v001 114">
            <name>monsters_S01E38_lineal_v001</name>
            <duration>6469</duration>
            <rate>
              <ntsc>FALSE</ntsc>
              <timebase>25</timebase>
            </rate>
            <in>4547</in>
            <out>4737</out>
            <start>5053</start>
            <end>5243</end>
            <file id="monsters_S01E38_lineal_v001 115">
              <name>monsters_S01E38_lineal_v001.aif</name>
              <pathurl>file://localhost/Users/pepesanchez/Desktop/untitled%20folder/monsters_S01E38_lineal_v001.aif</pathurl>
              <rate>
                <timebase>25</timebase>
              </rate>
              <duration>6469</duration>
              <media>
                <audio>
                  <samplecharacteristics>
                    <samplerate>48000</samplerate>
                    <depth>16</depth>
                  </samplecharacteristics>
                  <channelcount>2</channelcount>
                  <layout>stereo</layout>
                  <audiochannel>
                    <sourcechannel>1</sourcechannel>
                    <channellabel>left</channellabel>
                  </audiochannel>
                  <audiochannel>
                    <sourcechannel>2</sourcechannel>
                    <channellabel>right</channellabel>
                  </audiochannel>
                </audio>
              </media>
            </file>
            <sourcetrack>
              <mediatype>audio</mediatype>
              <trackindex>1</trackindex>
            </sourcetrack>
            <link>
              <linkclipref>monsters_S01E38_lineal_v001 114</linkclipref>
              <mediatype>audio</mediatype>
              <trackindex>3</trackindex>
              <clipindex>18</clipindex>
              <groupindex>1</groupindex>
            </link>
            <link>
              <linkclipref>monsters_S01E38_lineal_v001 116</linkclipref>
              <mediatype>audio</mediatype>
              <trackindex>4</trackindex>
              <clipindex>18</clipindex>
              <groupindex>1</groupindex>
            </link>
            <itemhistory>
              <uuid>CD64950C-7432-A691-C514-4EB866A2B860</uuid>
            </itemhistory>
          </clipitem>
          <clipitem id="monsters_S01E38_lineal_v001 117">
            <name>monsters_S01E38_lineal_v001</name>
            <duration>6469</duration>
            <rate>
              <ntsc>FALSE</ntsc>
              <timebase>25</timebase>
            </rate>
            <in>4989</in>
            <out>5054</out>
            <start>5472</start>
            <end>5537</end>
            <file id="monsters_S01E38_lineal_v001 118">
              <name>monsters_S01E38_lineal_v001.aif</name>
              <pathurl>file://localhost/Users/pepesanchez/Desktop/untitled%20folder/monsters_S01E38_lineal_v001.aif</pathurl>
              <rate>
                <timebase>25</timebase>
              </rate>
              <duration>6469</duration>
              <media>
                <audio>
                  <samplecharacteristics>
                    <samplerate>48000</samplerate>
                    <depth>16</depth>
                  </samplecharacteristics>
                  <channelcount>2</channelcount>
                  <layout>stereo</layout>
                  <audiochannel>
                    <sourcechannel>1</sourcechannel>
                    <channellabel>left</channellabel>
                  </audiochannel>
                  <audiochannel>
                    <sourcechannel>2</sourcechannel>
                    <channellabel>right</channellabel>
                  </audiochannel>
                </audio>
              </media>
            </file>
            <sourcetrack>
              <mediatype>audio</mediatype>
              <trackindex>1</trackindex>
            </sourcetrack>
            <link>
              <linkclipref>monsters_S01E38_lineal_v001 117</linkclipref>
              <mediatype>audio</mediatype>
              <trackindex>3</trackindex>
              <clipindex>19</clipindex>
              <groupindex>1</groupindex>
            </link>
            <link>
              <linkclipref>monsters_S01E38_lineal_v001 119</linkclipref>
              <mediatype>audio</mediatype>
              <trackindex>4</trackindex>
              <clipindex>19</clipindex>
              <groupindex>1</groupindex>
            </link>
            <itemhistory>
              <uuid>69869844-3F85-DDAB-4478-B783B791452F</uuid>
            </itemhistory>
          </clipitem>
          <clipitem id="monsters_S01E38_lineal_v001 120">
            <name>monsters_S01E38_lineal_v001</name>
            <duration>6469</duration>
            <rate>
              <ntsc>FALSE</ntsc>
              <timebase>25</timebase>
            </rate>
            <in>5158</in>
            <out>5222</out>
            <start>5611</start>
            <end>5675</end>
            <file id="monsters_S01E38_lineal_v001 121">
              <name>monsters_S01E38_lineal_v001.aif</name>
              <pathurl>file://localhost/Users/pepesanchez/Desktop/untitled%20folder/monsters_S01E38_lineal_v001.aif</pathurl>
              <rate>
                <timebase>25</timebase>
              </rate>
              <duration>6469</duration>
              <media>
                <audio>
                  <samplecharacteristics>
                    <samplerate>48000</samplerate>
                    <depth>16</depth>
                  </samplecharacteristics>
                  <channelcount>2</channelcount>
                  <layout>stereo</layout>
                  <audiochannel>
                    <sourcechannel>1</sourcechannel>
                    <channellabel>left</channellabel>
                  </audiochannel>
                  <audiochannel>
                    <sourcechannel>2</sourcechannel>
                    <channellabel>right</channellabel>
                  </audiochannel>
                </audio>
              </media>
            </file>
            <sourcetrack>
              <mediatype>audio</mediatype>
              <trackindex>1</trackindex>
            </sourcetrack>
            <link>
              <linkclipref>monsters_S01E38_lineal_v001 120</linkclipref>
              <mediatype>audio</mediatype>
              <trackindex>3</trackindex>
              <clipindex>20</clipindex>
              <groupindex>1</groupindex>
            </link>
            <link>
              <linkclipref>monsters_S01E38_lineal_v001 122</linkclipref>
              <mediatype>audio</mediatype>
              <trackindex>4</trackindex>
              <clipindex>20</clipindex>
              <groupindex>1</groupindex>
            </link>
            <itemhistory>
              <uuid>4142F5CF-4448-6CA7-7142-D0D7982B5C64</uuid>
            </itemhistory>
          </clipitem>
          <clipitem id="monsters_S01E38_lineal_v001 123">
            <name>monsters_S01E38_lineal_v001</name>
            <duration>6469</duration>
            <rate>
              <ntsc>FALSE</ntsc>
              <timebase>25</timebase>
            </rate>
            <in>5220</in>
            <out>5691</out>
            <start>5742</start>
            <end>6213</end>
            <file id="monsters_S01E38_lineal_v001 124">
              <name>monsters_S01E38_lineal_v001.aif</name>
              <pathurl>file://localhost/Users/pepesanchez/Desktop/untitled%20folder/monsters_S01E38_lineal_v001.aif</pathurl>
              <rate>
                <timebase>25</timebase>
              </rate>
              <duration>6469</duration>
              <media>
                <audio>
                  <samplecharacteristics>
                    <samplerate>48000</samplerate>
                    <depth>16</depth>
                  </samplecharacteristics>
                  <channelcount>2</channelcount>
                  <layout>stereo</layout>
                  <audiochannel>
                    <sourcechannel>1</sourcechannel>
                    <channellabel>left</channellabel>
                  </audiochannel>
                  <audiochannel>
                    <sourcechannel>2</sourcechannel>
                    <channellabel>right</channellabel>
                  </audiochannel>
                </audio>
              </media>
            </file>
            <sourcetrack>
              <mediatype>audio</mediatype>
              <trackindex>1</trackindex>
            </sourcetrack>
            <link>
              <linkclipref>monsters_S01E38_lineal_v001 123</linkclipref>
              <mediatype>audio</mediatype>
              <trackindex>3</trackindex>
              <clipindex>21</clipindex>
              <groupindex>1</groupindex>
            </link>
            <link>
              <linkclipref>monsters_S01E38_lineal_v001 125</linkclipref>
              <mediatype>audio</mediatype>
              <trackindex>4</trackindex>
              <clipindex>21</clipindex>
              <groupindex>1</groupindex>
            </link>
            <itemhistory>
              <uuid>C5BBACA0-817B-D9AF-2CC9-E4121A5A19E7</uuid>
            </itemhistory>
          </clipitem>
          <clipitem id="monsters_S01E38_lineal_v001 126">
            <name>monsters_S01E38_lineal_v001</name>
            <duration>6469</duration>
            <rate>
              <ntsc>FALSE</ntsc>
              <timebase>25</timebase>
            </rate>
            <in>5695</in>
            <out>5761</out>
            <start>6231</start>
            <end>6297</end>
            <file id="monsters_S01E38_lineal_v001 127">
              <name>monsters_S01E38_lineal_v001.aif</name>
              <pathurl>file://localhost/Users/pepesanchez/Desktop/untitled%20folder/monsters_S01E38_lineal_v001.aif</pathurl>
              <rate>
                <timebase>25</timebase>
              </rate>
              <duration>6469</duration>
              <media>
                <audio>
                  <samplecharacteristics>
                    <samplerate>48000</samplerate>
                    <depth>16</depth>
                  </samplecharacteristics>
                  <channelcount>2</channelcount>
                  <layout>stereo</layout>
                  <audiochannel>
                    <sourcechannel>1</sourcechannel>
                    <channellabel>left</channellabel>
                  </audiochannel>
                  <audiochannel>
                    <sourcechannel>2</sourcechannel>
                    <channellabel>right</channellabel>
                  </audiochannel>
                </audio>
              </media>
            </file>
            <sourcetrack>
              <mediatype>audio</mediatype>
              <trackindex>1</trackindex>
            </sourcetrack>
            <link>
              <linkclipref>monsters_S01E38_lineal_v001 126</linkclipref>
              <mediatype>audio</mediatype>
              <trackindex>3</trackindex>
              <clipindex>22</clipindex>
              <groupindex>1</groupindex>
            </link>
            <link>
              <linkclipref>monsters_S01E38_lineal_v001 128</linkclipref>
              <mediatype>audio</mediatype>
              <trackindex>4</trackindex>
              <clipindex>22</clipindex>
              <groupindex>1</groupindex>
            </link>
            <itemhistory>
              <uuid>98D242CD-4DCB-7AE1-E06B-5F10414B3CC6</uuid>
            </itemhistory>
          </clipitem>
          <clipitem id="monsters_S01E38_lineal_v001 129">
            <name>monsters_S01E38_lineal_v001</name>
            <duration>6469</duration>
            <rate>
              <ntsc>FALSE</ntsc>
              <timebase>25</timebase>
            </rate>
            <in>6247</in>
            <out>6319</out>
            <start>6350</start>
            <end>6422</end>
            <file id="monsters_S01E38_lineal_v001 130">
              <name>monsters_S01E38_lineal_v001.aif</name>
              <pathurl>file://localhost/Users/pepesanchez/Desktop/untitled%20folder/monsters_S01E38_lineal_v001.aif</pathurl>
              <rate>
                <timebase>25</timebase>
              </rate>
              <duration>6469</duration>
              <media>
                <audio>
                  <samplecharacteristics>
                    <samplerate>48000</samplerate>
                    <depth>16</depth>
                  </samplecharacteristics>
                  <channelcount>2</channelcount>
                  <layout>stereo</layout>
                  <audiochannel>
                    <sourcechannel>1</sourcechannel>
                    <channellabel>left</channellabel>
                  </audiochannel>
                  <audiochannel>
                    <sourcechannel>2</sourcechannel>
                    <channellabel>right</channellabel>
                  </audiochannel>
                </audio>
              </media>
            </file>
            <sourcetrack>
              <mediatype>audio</mediatype>
              <trackindex>1</trackindex>
            </sourcetrack>
            <link>
              <linkclipref>monsters_S01E38_lineal_v001 129</linkclipref>
              <mediatype>audio</mediatype>
              <trackindex>3</trackindex>
              <clipindex>23</clipindex>
              <groupindex>1</groupindex>
            </link>
            <link>
              <linkclipref>monsters_S01E38_lineal_v001 131</linkclipref>
              <mediatype>audio</mediatype>
              <trackindex>4</trackindex>
              <clipindex>23</clipindex>
              <groupindex>1</groupindex>
            </link>
            <itemhistory>
              <uuid>8718DF13-1E91-66FA-55C9-A68E7743F947</uuid>
            </itemhistory>
          </clipitem>
          <clipitem id="monsters_S01E38_lineal_v001 132">
            <name>monsters_S01E38_lineal_v001</name>
            <duration>6469</duration>
            <rate>
              <ntsc>FALSE</ntsc>
              <timebase>25</timebase>
            </rate>
            <in>5775</in>
            <out>5850</out>
            <start>6433</start>
            <end>6508</end>
            <file id="monsters_S01E38_lineal_v001 133">
              <name>monsters_S01E38_lineal_v001.aif</name>
              <pathurl>file://localhost/Users/pepesanchez/Desktop/untitled%20folder/monsters_S01E38_lineal_v001.aif</pathurl>
              <rate>
                <timebase>25</timebase>
              </rate>
              <duration>6469</duration>
              <media>
                <audio>
                  <samplecharacteristics>
                    <samplerate>48000</samplerate>
                    <depth>16</depth>
                  </samplecharacteristics>
                  <channelcount>2</channelcount>
                  <layout>stereo</layout>
                  <audiochannel>
                    <sourcechannel>1</sourcechannel>
                    <channellabel>left</channellabel>
                  </audiochannel>
                  <audiochannel>
                    <sourcechannel>2</sourcechannel>
                    <channellabel>right</channellabel>
                  </audiochannel>
                </audio>
              </media>
            </file>
            <sourcetrack>
              <mediatype>audio</mediatype>
              <trackindex>1</trackindex>
            </sourcetrack>
            <link>
              <linkclipref>monsters_S01E38_lineal_v001 132</linkclipref>
              <mediatype>audio</mediatype>
              <trackindex>3</trackindex>
              <clipindex>24</clipindex>
              <groupindex>1</groupindex>
            </link>
            <link>
              <linkclipref>monsters_S01E38_lineal_v001 134</linkclipref>
              <mediatype>audio</mediatype>
              <trackindex>4</trackindex>
              <clipindex>24</clipindex>
              <groupindex>1</groupindex>
            </link>
            <itemhistory>
              <uuid>FD53A618-23E6-E451-57AE-48B59201B2ED</uuid>
            </itemhistory>
          </clipitem>
          <clipitem id="monsters_S01E38_lineal_v001 135">
            <name>monsters_S01E38_lineal_v001</name>
            <duration>6469</duration>
            <rate>
              <ntsc>FALSE</ntsc>
              <timebase>25</timebase>
            </rate>
            <in>6348</in>
            <out>6430</out>
            <start>6509</start>
            <end>6591</end>
            <file id="monsters_S01E38_lineal_v001 136">
              <name>monsters_S01E38_lineal_v001.aif</name>
              <pathurl>file://localhost/Users/pepesanchez/Desktop/untitled%20folder/monsters_S01E38_lineal_v001.aif</pathurl>
              <rate>
                <timebase>25</timebase>
              </rate>
              <duration>6469</duration>
              <media>
                <audio>
                  <samplecharacteristics>
                    <samplerate>48000</samplerate>
                    <depth>16</depth>
                  </samplecharacteristics>
                  <channelcount>2</channelcount>
                  <layout>stereo</layout>
                  <audiochannel>
                    <sourcechannel>1</sourcechannel>
                    <channellabel>left</channellabel>
                  </audiochannel>
                  <audiochannel>
                    <sourcechannel>2</sourcechannel>
                    <channellabel>right</channellabel>
                  </audiochannel>
                </audio>
              </media>
            </file>
            <sourcetrack>
              <mediatype>audio</mediatype>
              <trackindex>1</trackindex>
            </sourcetrack>
            <link>
              <linkclipref>monsters_S01E38_lineal_v001 135</linkclipref>
              <mediatype>audio</mediatype>
              <trackindex>3</trackindex>
              <clipindex>25</clipindex>
              <groupindex>1</groupindex>
            </link>
            <link>
              <linkclipref>monsters_S01E38_lineal_v001 137</linkclipref>
              <mediatype>audio</mediatype>
              <trackindex>4</trackindex>
              <clipindex>25</clipindex>
              <groupindex>1</groupindex>
            </link>
            <itemhistory>
              <uuid>21A43172-4406-4145-C2FB-217FAD1D9785</uuid>
            </itemhistory>
          </clipitem>
          <clipitem id="Opening MASTER v2 A">
            <name>Opening MASTER v2 A</name>
            <duration>803</duration>
            <rate>
              <ntsc>FALSE</ntsc>
              <timebase>25</timebase>
            </rate>
            <in>12</in>
            <out>481</out>
            <start>6591</start>
            <end>7060</end>
            <file id="Opening MASTER v2 A 1">
              <name>Opening MASTER v2 A.wav</name>
              <pathurl>file://localhost/Users/pepesanchez/Desktop/untitled%20folder/Opening%20MASTER%20v2%20A.wav</pathurl>
              <rate>
                <timebase>25</timebase>
              </rate>
              <duration>803</duration>
              <media>
                <audio>
                  <samplecharacteristics>
                    <samplerate>44100</samplerate>
                    <depth>16</depth>
                  </samplecharacteristics>
                  <channelcount>2</channelcount>
                  <layout>stereo</layout>
                  <audiochannel>
                    <sourcechannel>1</sourcechannel>
                    <channellabel>left</channellabel>
                  </audiochannel>
                  <audiochannel>
                    <sourcechannel>2</sourcechannel>
                    <channellabel>right</channellabel>
                  </audiochannel>
                </audio>
              </media>
            </file>
            <filter>
              <enabled>TRUE</enabled>
              <effect>
                <name>Audio Levels</name>
                <effectid>audiolevels</effectid>
                <effectcategory>audiolevels</effectcategory>
                <effecttype>audiolevels</effecttype>
                <mediatype>audio</mediatype>
                <parameter>
                  <name>Level</name>
                  <parameterid>level</parameterid>
                  <keyframe>
                    <when>12.0000000000</when>
                    <value>0.3571430147</value>
                  </keyframe>
                  <interpolation>
                    <name>FCPCurve</name>
                  </interpolation>
                </parameter>
              </effect>
            </filter>
            <sourcetrack>
              <mediatype>audio</mediatype>
              <trackindex>1</trackindex>
            </sourcetrack>
            <link>
              <linkclipref>Opening MASTER v2 A</linkclipref>
              <mediatype>audio</mediatype>
              <trackindex>3</trackindex>
              <clipindex>26</clipindex>
              <groupindex>1</groupindex>
            </link>
            <link>
              <linkclipref>Opening MASTER v2 A 2</linkclipref>
              <mediatype>audio</mediatype>
              <trackindex>4</trackindex>
              <clipindex>26</clipindex>
              <groupindex>1</groupindex>
            </link>
            <itemhistory>
              <uuid>C7792C06-DEE8-8E55-2A07-DCC69D13F83D</uuid>
            </itemhistory>
          </clipitem>
          <clipitem id="monsters_S01E38_lineal_v001 138">
            <name>monsters_S01E38_lineal_v001</name>
            <duration>6469</duration>
            <rate>
              <ntsc>FALSE</ntsc>
              <timebase>25</timebase>
            </rate>
            <in>6348</in>
            <out>6430</out>
            <start>7200</start>
            <end>7282</end>
            <file id="monsters_S01E38_lineal_v001 139">
              <name>monsters_S01E38_lineal_v001.aif</name>
              <pathurl>file://localhost/Users/pepesanchez/Desktop/untitled%20folder/monsters_S01E38_lineal_v001.aif</pathurl>
              <rate>
                <timebase>25</timebase>
              </rate>
              <duration>6469</duration>
              <media>
                <audio>
                  <samplecharacteristics>
                    <samplerate>48000</samplerate>
                    <depth>16</depth>
                  </samplecharacteristics>
                  <channelcount>2</channelcount>
                  <layout>stereo</layout>
                  <audiochannel>
                    <sourcechannel>1</sourcechannel>
                    <channellabel>left</channellabel>
                  </audiochannel>
                  <audiochannel>
                    <sourcechannel>2</sourcechannel>
                    <channellabel>right</channellabel>
                  </audiochannel>
                </audio>
              </media>
            </file>
            <sourcetrack>
              <mediatype>audio</mediatype>
              <trackindex>1</trackindex>
            </sourcetrack>
            <link>
              <linkclipref>monsters_S01E38_lineal_v001 138</linkclipref>
              <mediatype>audio</mediatype>
              <trackindex>3</trackindex>
              <clipindex>27</clipindex>
              <groupindex>1</groupindex>
            </link>
            <link>
              <linkclipref>monsters_S01E38_lineal_v001 140</linkclipref>
              <mediatype>audio</mediatype>
              <trackindex>4</trackindex>
              <clipindex>27</clipindex>
              <groupindex>1</groupindex>
            </link>
            <itemhistory>
              <uuid>3C396409-3BA5-7C61-F8A8-1F0A64945A9F</uuid>
            </itemhistory>
          </clipitem>
        </track>
        <track>
          <clipitem id="monsters_S01E38_lineal_v001 65">
            <name>monsters_S01E38_lineal_v001</name>
            <duration>6469</duration>
            <rate>
              <ntsc>FALSE</ntsc>
              <timebase>25</timebase>
            </rate>
            <in>119</in>
            <out>233</out>
            <start>127</start>
            <end>241</end>
            <file id="monsters_S01E38_lineal_v001 64"/>
            <sourcetrack>
              <mediatype>audio</mediatype>
              <trackindex>2</trackindex>
            </sourcetrack>
            <link>
              <linkclipref>monsters_S01E38_lineal_v001 63</linkclipref>
              <mediatype>audio</mediatype>
              <trackindex>3</trackindex>
              <clipindex>1</clipindex>
              <groupindex>1</groupindex>
            </link>
            <link>
              <linkclipref>monsters_S01E38_lineal_v001 65</linkclipref>
              <mediatype>audio</mediatype>
              <trackindex>4</trackindex>
              <clipindex>1</clipindex>
              <groupindex>1</groupindex>
            </link>
            <itemhistory>
              <uuid>3161F518-3AEF-B9CB-7581-19A12A6F6AD0</uuid>
            </itemhistory>
          </clipitem>
          <clipitem id="monsters_S01E38_lineal_v001 68">
            <name>monsters_S01E38_lineal_v001</name>
            <duration>6469</duration>
            <rate>
              <ntsc>FALSE</ntsc>
              <timebase>25</timebase>
            </rate>
            <in>301</in>
            <out>645</out>
            <start>310</start>
            <end>654</end>
            <file id="monsters_S01E38_lineal_v001 67"/>
            <sourcetrack>
              <mediatype>audio</mediatype>
              <trackindex>2</trackindex>
            </sourcetrack>
            <link>
              <linkclipref>monsters_S01E38_lineal_v001 66</linkclipref>
              <mediatype>audio</mediatype>
              <trackindex>3</trackindex>
              <clipindex>2</clipindex>
              <groupindex>1</groupindex>
            </link>
            <link>
              <linkclipref>monsters_S01E38_lineal_v001 68</linkclipref>
              <mediatype>audio</mediatype>
              <trackindex>4</trackindex>
              <clipindex>2</clipindex>
              <groupindex>1</groupindex>
            </link>
            <itemhistory>
              <uuid>ABCA8CC4-D6F0-F6A5-284C-222A8FB36E05</uuid>
            </itemhistory>
          </clipitem>
          <clipitem id="monsters_S01E38_lineal_v001 71">
            <name>monsters_S01E38_lineal_v001</name>
            <duration>6469</duration>
            <rate>
              <ntsc>FALSE</ntsc>
              <timebase>25</timebase>
            </rate>
            <in>726</in>
            <out>792</out>
            <start>665</start>
            <end>731</end>
            <file id="monsters_S01E38_lineal_v001 70"/>
            <sourcetrack>
              <mediatype>audio</mediatype>
              <trackindex>2</trackindex>
            </sourcetrack>
            <link>
              <linkclipref>monsters_S01E38_lineal_v001 69</linkclipref>
              <mediatype>audio</mediatype>
              <trackindex>3</trackindex>
              <clipindex>3</clipindex>
              <groupindex>1</groupindex>
            </link>
            <link>
              <linkclipref>monsters_S01E38_lineal_v001 71</linkclipref>
              <mediatype>audio</mediatype>
              <trackindex>4</trackindex>
              <clipindex>3</clipindex>
              <groupindex>1</groupindex>
            </link>
            <itemhistory>
              <uuid>3721FC43-D8A2-38D1-BA76-494229CD76A3</uuid>
            </itemhistory>
          </clipitem>
          <clipitem id="monsters_S01E38_lineal_v001 74">
            <name>monsters_S01E38_lineal_v001</name>
            <duration>6469</duration>
            <rate>
              <ntsc>FALSE</ntsc>
              <timebase>25</timebase>
            </rate>
            <in>798</in>
            <out>848</out>
            <start>738</start>
            <end>788</end>
            <file id="monsters_S01E38_lineal_v001 73"/>
            <sourcetrack>
              <mediatype>audio</mediatype>
              <trackindex>2</trackindex>
            </sourcetrack>
            <link>
              <linkclipref>monsters_S01E38_lineal_v001 72</linkclipref>
              <mediatype>audio</mediatype>
              <trackindex>3</trackindex>
              <clipindex>4</clipindex>
              <groupindex>1</groupindex>
            </link>
            <link>
              <linkclipref>monsters_S01E38_lineal_v001 74</linkclipref>
              <mediatype>audio</mediatype>
              <trackindex>4</trackindex>
              <clipindex>4</clipindex>
              <groupindex>1</groupindex>
            </link>
            <itemhistory>
              <uuid>81E78D3B-CB80-FEB5-6DD6-A4D9D6802FA2</uuid>
            </itemhistory>
          </clipitem>
          <clipitem id="monsters_S01E38_lineal_v001 77">
            <name>monsters_S01E38_lineal_v001</name>
            <duration>6469</duration>
            <rate>
              <ntsc>FALSE</ntsc>
              <timebase>25</timebase>
            </rate>
            <in>1024</in>
            <out>1317</out>
            <start>931</start>
            <end>1224</end>
            <file id="monsters_S01E38_lineal_v001 76"/>
            <sourcetrack>
              <mediatype>audio</mediatype>
              <trackindex>2</trackindex>
            </sourcetrack>
            <link>
              <linkclipref>monsters_S01E38_lineal_v001 75</linkclipref>
              <mediatype>audio</mediatype>
              <trackindex>3</trackindex>
              <clipindex>5</clipindex>
              <groupindex>1</groupindex>
            </link>
            <link>
              <linkclipref>monsters_S01E38_lineal_v001 77</linkclipref>
              <mediatype>audio</mediatype>
              <trackindex>4</trackindex>
              <clipindex>5</clipindex>
              <groupindex>1</groupindex>
            </link>
            <itemhistory>
              <uuid>575679D1-3302-7401-AA99-DF5ADC0E6C71</uuid>
            </itemhistory>
          </clipitem>
          <clipitem id="monsters_S01E38_lineal_v001 80">
            <name>monsters_S01E38_lineal_v001</name>
            <duration>6469</duration>
            <rate>
              <ntsc>FALSE</ntsc>
              <timebase>25</timebase>
            </rate>
            <in>1700</in>
            <out>1807</out>
            <start>1505</start>
            <end>1612</end>
            <file id="monsters_S01E38_lineal_v001 79"/>
            <sourcetrack>
              <mediatype>audio</mediatype>
              <trackindex>2</trackindex>
            </sourcetrack>
            <link>
              <linkclipref>monsters_S01E38_lineal_v001 78</linkclipref>
              <mediatype>audio</mediatype>
              <trackindex>3</trackindex>
              <clipindex>6</clipindex>
              <groupindex>1</groupindex>
            </link>
            <link>
              <linkclipref>monsters_S01E38_lineal_v001 80</linkclipref>
              <mediatype>audio</mediatype>
              <trackindex>4</trackindex>
              <clipindex>6</clipindex>
              <groupindex>1</groupindex>
            </link>
            <itemhistory>
              <uuid>A4D35139-8D30-814D-8C68-3059C72DA1F8</uuid>
            </itemhistory>
          </clipitem>
          <clipitem id="monsters_S01E38_lineal_v001 83">
            <name>monsters_S01E38_lineal_v001</name>
            <duration>6469</duration>
            <rate>
              <ntsc>FALSE</ntsc>
              <timebase>25</timebase>
            </rate>
            <in>1986</in>
            <out>2178</out>
            <start>1906</start>
            <end>2098</end>
            <file id="monsters_S01E38_lineal_v001 82"/>
            <sourcetrack>
              <mediatype>audio</mediatype>
              <trackindex>2</trackindex>
            </sourcetrack>
            <link>
              <linkclipref>monsters_S01E38_lineal_v001 81</linkclipref>
              <mediatype>audio</mediatype>
              <trackindex>3</trackindex>
              <clipindex>7</clipindex>
              <groupindex>1</groupindex>
            </link>
            <link>
              <linkclipref>monsters_S01E38_lineal_v001 83</linkclipref>
              <mediatype>audio</mediatype>
              <trackindex>4</trackindex>
              <clipindex>7</clipindex>
              <groupindex>1</groupindex>
            </link>
            <itemhistory>
              <uuid>5A31F6E4-C473-9B92-5032-A3BC511EB857</uuid>
            </itemhistory>
          </clipitem>
          <clipitem id="monsters_S01E38_lineal_v001 86">
            <name>monsters_S01E38_lineal_v001</name>
            <duration>6469</duration>
            <rate>
              <ntsc>FALSE</ntsc>
              <timebase>25</timebase>
            </rate>
            <in>2215</in>
            <out>2362</out>
            <start>2102</start>
            <end>2249</end>
            <file id="monsters_S01E38_lineal_v001 85"/>
            <sourcetrack>
              <mediatype>audio</mediatype>
              <trackindex>2</trackindex>
            </sourcetrack>
            <link>
              <linkclipref>monsters_S01E38_lineal_v001 84</linkclipref>
              <mediatype>audio</mediatype>
              <trackindex>3</trackindex>
              <clipindex>8</clipindex>
              <groupindex>1</groupindex>
            </link>
            <link>
              <linkclipref>monsters_S01E38_lineal_v001 86</linkclipref>
              <mediatype>audio</mediatype>
              <trackindex>4</trackindex>
              <clipindex>8</clipindex>
              <groupindex>1</groupindex>
            </link>
            <itemhistory>
              <uuid>16FD4EF7-69E2-9BC3-DA15-D4791A8398B0</uuid>
            </itemhistory>
          </clipitem>
          <clipitem id="monsters_S01E38_lineal_v001 89">
            <name>monsters_S01E38_lineal_v001</name>
            <duration>6469</duration>
            <rate>
              <ntsc>FALSE</ntsc>
              <timebase>25</timebase>
            </rate>
            <in>2522</in>
            <out>2762</out>
            <start>2413</start>
            <end>2653</end>
            <file id="monsters_S01E38_lineal_v001 88"/>
            <sourcetrack>
              <mediatype>audio</mediatype>
              <trackindex>2</trackindex>
            </sourcetrack>
            <link>
              <linkclipref>monsters_S01E38_lineal_v001 87</linkclipref>
              <mediatype>audio</mediatype>
              <trackindex>3</trackindex>
              <clipindex>9</clipindex>
              <groupindex>1</groupindex>
            </link>
            <link>
              <linkclipref>monsters_S01E38_lineal_v001 89</linkclipref>
              <mediatype>audio</mediatype>
              <trackindex>4</trackindex>
              <clipindex>9</clipindex>
              <groupindex>1</groupindex>
            </link>
            <itemhistory>
              <uuid>7B195225-17DF-4577-9FA9-D18DC82A10EE</uuid>
            </itemhistory>
          </clipitem>
          <clipitem id="monsters_S01E38_lineal_v001 92">
            <name>monsters_S01E38_lineal_v001</name>
            <duration>6469</duration>
            <rate>
              <ntsc>FALSE</ntsc>
              <timebase>25</timebase>
            </rate>
            <in>2908</in>
            <out>2978</out>
            <start>2767</start>
            <end>2837</end>
            <file id="monsters_S01E38_lineal_v001 91"/>
            <sourcetrack>
              <mediatype>audio</mediatype>
              <trackindex>2</trackindex>
            </sourcetrack>
            <link>
              <linkclipref>monsters_S01E38_lineal_v001 90</linkclipref>
              <mediatype>audio</mediatype>
              <trackindex>3</trackindex>
              <clipindex>10</clipindex>
              <groupindex>1</groupindex>
            </link>
            <link>
              <linkclipref>monsters_S01E38_lineal_v001 92</linkclipref>
              <mediatype>audio</mediatype>
              <trackindex>4</trackindex>
              <clipindex>10</clipindex>
              <groupindex>1</groupindex>
            </link>
            <itemhistory>
              <uuid>4C957A8F-F37A-952B-7EF8-576FDC937551</uuid>
            </itemhistory>
          </clipitem>
          <clipitem id="monsters_S01E38_lineal_v001 95">
            <name>monsters_S01E38_lineal_v001</name>
            <duration>6469</duration>
            <rate>
              <ntsc>FALSE</ntsc>
              <timebase>25</timebase>
            </rate>
            <in>3387</in>
            <out>3479</out>
            <start>3238</start>
            <end>3330</end>
            <file id="monsters_S01E38_lineal_v001 94"/>
            <sourcetrack>
              <mediatype>audio</mediatype>
              <trackindex>2</trackindex>
            </sourcetrack>
            <link>
              <linkclipref>monsters_S01E38_lineal_v001 93</linkclipref>
              <mediatype>audio</mediatype>
              <trackindex>3</trackindex>
              <clipindex>11</clipindex>
              <groupindex>1</groupindex>
            </link>
            <link>
              <linkclipref>monsters_S01E38_lineal_v001 95</linkclipref>
              <mediatype>audio</mediatype>
              <trackindex>4</trackindex>
              <clipindex>11</clipindex>
              <groupindex>1</groupindex>
            </link>
            <itemhistory>
              <uuid>426186F6-AD61-F28C-9598-6941D01FF5F6</uuid>
            </itemhistory>
          </clipitem>
          <clipitem id="monsters_S01E38_lineal_v001 98">
            <name>monsters_S01E38_lineal_v001</name>
            <duration>6469</duration>
            <rate>
              <ntsc>FALSE</ntsc>
              <timebase>25</timebase>
            </rate>
            <in>3600</in>
            <out>3704</out>
            <start>3612</start>
            <end>3716</end>
            <file id="monsters_S01E38_lineal_v001 97"/>
            <sourcetrack>
              <mediatype>audio</mediatype>
              <trackindex>2</trackindex>
            </sourcetrack>
            <link>
              <linkclipref>monsters_S01E38_lineal_v001 96</linkclipref>
              <mediatype>audio</mediatype>
              <trackindex>3</trackindex>
              <clipindex>12</clipindex>
              <groupindex>1</groupindex>
            </link>
            <link>
              <linkclipref>monsters_S01E38_lineal_v001 98</linkclipref>
              <mediatype>audio</mediatype>
              <trackindex>4</trackindex>
              <clipindex>12</clipindex>
              <groupindex>1</groupindex>
            </link>
            <itemhistory>
              <uuid>BD1977E5-131E-3C19-A356-29288D72F4C6</uuid>
            </itemhistory>
          </clipitem>
          <clipitem id="monsters_S01E38_lineal_v001 101">
            <name>monsters_S01E38_lineal_v001</name>
            <duration>6469</duration>
            <rate>
              <ntsc>FALSE</ntsc>
              <timebase>25</timebase>
            </rate>
            <in>3844</in>
            <out>3934</out>
            <start>3854</start>
            <end>3944</end>
            <file id="monsters_S01E38_lineal_v001 100"/>
            <sourcetrack>
              <mediatype>audio</mediatype>
              <trackindex>2</trackindex>
            </sourcetrack>
            <link>
              <linkclipref>monsters_S01E38_lineal_v001 99</linkclipref>
              <mediatype>audio</mediatype>
              <trackindex>3</trackindex>
              <clipindex>13</clipindex>
              <groupindex>1</groupindex>
            </link>
            <link>
              <linkclipref>monsters_S01E38_lineal_v001 101</linkclipref>
              <mediatype>audio</mediatype>
              <trackindex>4</trackindex>
              <clipindex>13</clipindex>
              <groupindex>1</groupindex>
            </link>
            <itemhistory>
              <uuid>D2B2F78A-E362-767C-91C2-9B08F0229D1D</uuid>
            </itemhistory>
          </clipitem>
          <clipitem id="monsters_S01E38_lineal_v001 104">
            <name>monsters_S01E38_lineal_v001</name>
            <duration>6469</duration>
            <rate>
              <ntsc>FALSE</ntsc>
              <timebase>25</timebase>
            </rate>
            <in>3934</in>
            <out>3973</out>
            <start>3996</start>
            <end>4035</end>
            <file id="monsters_S01E38_lineal_v001 103"/>
            <sourcetrack>
              <mediatype>audio</mediatype>
              <trackindex>2</trackindex>
            </sourcetrack>
            <link>
              <linkclipref>monsters_S01E38_lineal_v001 102</linkclipref>
              <mediatype>audio</mediatype>
              <trackindex>3</trackindex>
              <clipindex>14</clipindex>
              <groupindex>1</groupindex>
            </link>
            <link>
              <linkclipref>monsters_S01E38_lineal_v001 104</linkclipref>
              <mediatype>audio</mediatype>
              <trackindex>4</trackindex>
              <clipindex>14</clipindex>
              <groupindex>1</groupindex>
            </link>
            <itemhistory>
              <uuid>1ACF99E9-3F19-14FD-FD54-5ABD5C834CAD</uuid>
            </itemhistory>
          </clipitem>
          <clipitem id="monsters_S01E38_lineal_v001 107">
            <name>monsters_S01E38_lineal_v001</name>
            <duration>6469</duration>
            <rate>
              <ntsc>FALSE</ntsc>
              <timebase>25</timebase>
            </rate>
            <in>2522</in>
            <out>2609</out>
            <start>4119</start>
            <end>4206</end>
            <file id="monsters_S01E38_lineal_v001 106"/>
            <sourcetrack>
              <mediatype>audio</mediatype>
              <trackindex>2</trackindex>
            </sourcetrack>
            <link>
              <linkclipref>monsters_S01E38_lineal_v001 105</linkclipref>
              <mediatype>audio</mediatype>
              <trackindex>3</trackindex>
              <clipindex>15</clipindex>
              <groupindex>1</groupindex>
            </link>
            <link>
              <linkclipref>monsters_S01E38_lineal_v001 107</linkclipref>
              <mediatype>audio</mediatype>
              <trackindex>4</trackindex>
              <clipindex>15</clipindex>
              <groupindex>1</groupindex>
            </link>
            <itemhistory>
              <uuid>9AA23CE7-8BCE-30EF-3574-7BEFB761797C</uuid>
            </itemhistory>
          </clipitem>
          <clipitem id="monsters_S01E38_lineal_v001 110">
            <name>monsters_S01E38_lineal_v001</name>
            <duration>6469</duration>
            <rate>
              <ntsc>FALSE</ntsc>
              <timebase>25</timebase>
            </rate>
            <in>3973</in>
            <out>4051</out>
            <start>4270</start>
            <end>4348</end>
            <file id="monsters_S01E38_lineal_v001 109"/>
            <sourcetrack>
              <mediatype>audio</mediatype>
              <trackindex>2</trackindex>
            </sourcetrack>
            <link>
              <linkclipref>monsters_S01E38_lineal_v001 108</linkclipref>
              <mediatype>audio</mediatype>
              <trackindex>3</trackindex>
              <clipindex>16</clipindex>
              <groupindex>1</groupindex>
            </link>
            <link>
              <linkclipref>monsters_S01E38_lineal_v001 110</linkclipref>
              <mediatype>audio</mediatype>
              <trackindex>4</trackindex>
              <clipindex>16</clipindex>
              <groupindex>1</groupindex>
            </link>
            <itemhistory>
              <uuid>6E8448F0-A940-5CAE-504C-60A58D8A9C22</uuid>
            </itemhistory>
          </clipitem>
          <clipitem id="monsters_S01E38_lineal_v001 113">
            <name>monsters_S01E38_lineal_v001</name>
            <duration>6469</duration>
            <rate>
              <ntsc>FALSE</ntsc>
              <timebase>25</timebase>
            </rate>
            <in>4056</in>
            <out>4186</out>
            <start>4385</start>
            <end>4515</end>
            <file id="monsters_S01E38_lineal_v001 112"/>
            <sourcetrack>
              <mediatype>audio</mediatype>
              <trackindex>2</trackindex>
            </sourcetrack>
            <link>
              <linkclipref>monsters_S01E38_lineal_v001 111</linkclipref>
              <mediatype>audio</mediatype>
              <trackindex>3</trackindex>
              <clipindex>17</clipindex>
              <groupindex>1</groupindex>
            </link>
            <link>
              <linkclipref>monsters_S01E38_lineal_v001 113</linkclipref>
              <mediatype>audio</mediatype>
              <trackindex>4</trackindex>
              <clipindex>17</clipindex>
              <groupindex>1</groupindex>
            </link>
            <itemhistory>
              <uuid>2F17356E-75E8-CC35-ED85-8D66507347DB</uuid>
            </itemhistory>
          </clipitem>
          <clipitem id="monsters_S01E38_lineal_v001 116">
            <name>monsters_S01E38_lineal_v001</name>
            <duration>6469</duration>
            <rate>
              <ntsc>FALSE</ntsc>
              <timebase>25</timebase>
            </rate>
            <in>4547</in>
            <out>4737</out>
            <start>5053</start>
            <end>5243</end>
            <file id="monsters_S01E38_lineal_v001 115"/>
            <sourcetrack>
              <mediatype>audio</mediatype>
              <trackindex>2</trackindex>
            </sourcetrack>
            <link>
              <linkclipref>monsters_S01E38_lineal_v001 114</linkclipref>
              <mediatype>audio</mediatype>
              <trackindex>3</trackindex>
              <clipindex>18</clipindex>
              <groupindex>1</groupindex>
            </link>
            <link>
              <linkclipref>monsters_S01E38_lineal_v001 116</linkclipref>
              <mediatype>audio</mediatype>
              <trackindex>4</trackindex>
              <clipindex>18</clipindex>
              <groupindex>1</groupindex>
            </link>
            <itemhistory>
              <uuid>13B49AD3-4198-7008-D8C2-E080BFA59ED6</uuid>
            </itemhistory>
          </clipitem>
          <clipitem id="monsters_S01E38_lineal_v001 119">
            <name>monsters_S01E38_lineal_v001</name>
            <duration>6469</duration>
            <rate>
              <ntsc>FALSE</ntsc>
              <timebase>25</timebase>
            </rate>
            <in>4989</in>
            <out>5054</out>
            <start>5472</start>
            <end>5537</end>
            <file id="monsters_S01E38_lineal_v001 118"/>
            <sourcetrack>
              <mediatype>audio</mediatype>
              <trackindex>2</trackindex>
            </sourcetrack>
            <link>
              <linkclipref>monsters_S01E38_lineal_v001 117</linkclipref>
              <mediatype>audio</mediatype>
              <trackindex>3</trackindex>
              <clipindex>19</clipindex>
              <groupindex>1</groupindex>
            </link>
            <link>
              <linkclipref>monsters_S01E38_lineal_v001 119</linkclipref>
              <mediatype>audio</mediatype>
              <trackindex>4</trackindex>
              <clipindex>19</clipindex>
              <groupindex>1</groupindex>
            </link>
            <itemhistory>
              <uuid>1E99763A-8E6D-3C6A-6AD3-EF35D9E250E0</uuid>
            </itemhistory>
          </clipitem>
          <clipitem id="monsters_S01E38_lineal_v001 122">
            <name>monsters_S01E38_lineal_v001</name>
            <duration>6469</duration>
            <rate>
              <ntsc>FALSE</ntsc>
              <timebase>25</timebase>
            </rate>
            <in>5158</in>
            <out>5222</out>
            <start>5611</start>
            <end>5675</end>
            <file id="monsters_S01E38_lineal_v001 121"/>
            <sourcetrack>
              <mediatype>audio</mediatype>
              <trackindex>2</trackindex>
            </sourcetrack>
            <link>
              <linkclipref>monsters_S01E38_lineal_v001 120</linkclipref>
              <mediatype>audio</mediatype>
              <trackindex>3</trackindex>
              <clipindex>20</clipindex>
              <groupindex>1</groupindex>
            </link>
            <link>
              <linkclipref>monsters_S01E38_lineal_v001 122</linkclipref>
              <mediatype>audio</mediatype>
              <trackindex>4</trackindex>
              <clipindex>20</clipindex>
              <groupindex>1</groupindex>
            </link>
            <itemhistory>
              <uuid>D246ACE9-C16F-A6ED-5B8F-3FB7A05B7D05</uuid>
            </itemhistory>
          </clipitem>
          <clipitem id="monsters_S01E38_lineal_v001 125">
            <name>monsters_S01E38_lineal_v001</name>
            <duration>6469</duration>
            <rate>
              <ntsc>FALSE</ntsc>
              <timebase>25</timebase>
            </rate>
            <in>5220</in>
            <out>5691</out>
            <start>5742</start>
            <end>6213</end>
            <file id="monsters_S01E38_lineal_v001 124"/>
            <sourcetrack>
              <mediatype>audio</mediatype>
              <trackindex>2</trackindex>
            </sourcetrack>
            <link>
              <linkclipref>monsters_S01E38_lineal_v001 123</linkclipref>
              <mediatype>audio</mediatype>
              <trackindex>3</trackindex>
              <clipindex>21</clipindex>
              <groupindex>1</groupindex>
            </link>
            <link>
              <linkclipref>monsters_S01E38_lineal_v001 125</linkclipref>
              <mediatype>audio</mediatype>
              <trackindex>4</trackindex>
              <clipindex>21</clipindex>
              <groupindex>1</groupindex>
            </link>
            <itemhistory>
              <uuid>9867D89A-269A-D4C8-67A8-01DC9616C22F</uuid>
            </itemhistory>
          </clipitem>
          <clipitem id="monsters_S01E38_lineal_v001 128">
            <name>monsters_S01E38_lineal_v001</name>
            <duration>6469</duration>
            <rate>
              <ntsc>FALSE</ntsc>
              <timebase>25</timebase>
            </rate>
            <in>5695</in>
            <out>5761</out>
            <start>6231</start>
            <end>6297</end>
            <file id="monsters_S01E38_lineal_v001 127"/>
            <sourcetrack>
              <mediatype>audio</mediatype>
              <trackindex>2</trackindex>
            </sourcetrack>
            <link>
              <linkclipref>monsters_S01E38_lineal_v001 126</linkclipref>
              <mediatype>audio</mediatype>
              <trackindex>3</trackindex>
              <clipindex>22</clipindex>
              <groupindex>1</groupindex>
            </link>
            <link>
              <linkclipref>monsters_S01E38_lineal_v001 128</linkclipref>
              <mediatype>audio</mediatype>
              <trackindex>4</trackindex>
              <clipindex>22</clipindex>
              <groupindex>1</groupindex>
            </link>
            <itemhistory>
              <uuid>64DCDA4B-2BA3-6BD1-2DC6-BF397EE4E644</uuid>
            </itemhistory>
          </clipitem>
          <clipitem id="monsters_S01E38_lineal_v001 131">
            <name>monsters_S01E38_lineal_v001</name>
            <duration>6469</duration>
            <rate>
              <ntsc>FALSE</ntsc>
              <timebase>25</timebase>
            </rate>
            <in>6247</in>
            <out>6319</out>
            <start>6350</start>
            <end>6422</end>
            <file id="monsters_S01E38_lineal_v001 130"/>
            <sourcetrack>
              <mediatype>audio</mediatype>
              <trackindex>2</trackindex>
            </sourcetrack>
            <link>
              <linkclipref>monsters_S01E38_lineal_v001 129</linkclipref>
              <mediatype>audio</mediatype>
              <trackindex>3</trackindex>
              <clipindex>23</clipindex>
              <groupindex>1</groupindex>
            </link>
            <link>
              <linkclipref>monsters_S01E38_lineal_v001 131</linkclipref>
              <mediatype>audio</mediatype>
              <trackindex>4</trackindex>
              <clipindex>23</clipindex>
              <groupindex>1</groupindex>
            </link>
            <itemhistory>
              <uuid>D28BEF0D-DD11-4532-FC9E-376A32CC976D</uuid>
            </itemhistory>
          </clipitem>
          <clipitem id="monsters_S01E38_lineal_v001 134">
            <name>monsters_S01E38_lineal_v001</name>
            <duration>6469</duration>
            <rate>
              <ntsc>FALSE</ntsc>
              <timebase>25</timebase>
            </rate>
            <in>5775</in>
            <out>5850</out>
            <start>6433</start>
            <end>6508</end>
            <file id="monsters_S01E38_lineal_v001 133"/>
            <sourcetrack>
              <mediatype>audio</mediatype>
              <trackindex>2</trackindex>
            </sourcetrack>
            <link>
              <linkclipref>monsters_S01E38_lineal_v001 132</linkclipref>
              <mediatype>audio</mediatype>
              <trackindex>3</trackindex>
              <clipindex>24</clipindex>
              <groupindex>1</groupindex>
            </link>
            <link>
              <linkclipref>monsters_S01E38_lineal_v001 134</linkclipref>
              <mediatype>audio</mediatype>
              <trackindex>4</trackindex>
              <clipindex>24</clipindex>
              <groupindex>1</groupindex>
            </link>
            <itemhistory>
              <uuid>2BAEC8BA-F8C0-6518-2D00-7B0133DB1287</uuid>
            </itemhistory>
          </clipitem>
          <clipitem id="monsters_S01E38_lineal_v001 137">
            <name>monsters_S01E38_lineal_v001</name>
            <duration>6469</duration>
            <rate>
              <ntsc>FALSE</ntsc>
              <timebase>25</timebase>
            </rate>
            <in>6348</in>
            <out>6430</out>
            <start>6509</start>
            <end>6591</end>
            <file id="monsters_S01E38_lineal_v001 136"/>
            <sourcetrack>
              <mediatype>audio</mediatype>
              <trackindex>2</trackindex>
            </sourcetrack>
            <link>
              <linkclipref>monsters_S01E38_lineal_v001 135</linkclipref>
              <mediatype>audio</mediatype>
              <trackindex>3</trackindex>
              <clipindex>25</clipindex>
              <groupindex>1</groupindex>
            </link>
            <link>
              <linkclipref>monsters_S01E38_lineal_v001 137</linkclipref>
              <mediatype>audio</mediatype>
              <trackindex>4</trackindex>
              <clipindex>25</clipindex>
              <groupindex>1</groupindex>
            </link>
            <itemhistory>
              <uuid>E637E6DD-1157-83C7-A1B1-28266B203B5A</uuid>
            </itemhistory>
          </clipitem>
          <clipitem id="Opening MASTER v2 A 2">
            <name>Opening MASTER v2 A</name>
            <duration>803</duration>
            <rate>
              <ntsc>FALSE</ntsc>
              <timebase>25</timebase>
            </rate>
            <in>12</in>
            <out>481</out>
            <start>6591</start>
            <end>7060</end>
            <file id="Opening MASTER v2 A 1"/>
            <sourcetrack>
              <mediatype>audio</mediatype>
              <trackindex>2</trackindex>
            </sourcetrack>
            <link>
              <linkclipref>Opening MASTER v2 A</linkclipref>
              <mediatype>audio</mediatype>
              <trackindex>3</trackindex>
              <clipindex>26</clipindex>
              <groupindex>1</groupindex>
            </link>
            <link>
              <linkclipref>Opening MASTER v2 A 2</linkclipref>
              <mediatype>audio</mediatype>
              <trackindex>4</trackindex>
              <clipindex>26</clipindex>
              <groupindex>1</groupindex>
            </link>
            <itemhistory>
              <uuid>35916D45-85A8-861B-C5B8-F7D8D9E59505</uuid>
            </itemhistory>
          </clipitem>
          <clipitem id="monsters_S01E38_lineal_v001 140">
            <name>monsters_S01E38_lineal_v001</name>
            <duration>6469</duration>
            <rate>
              <ntsc>FALSE</ntsc>
              <timebase>25</timebase>
            </rate>
            <in>6348</in>
            <out>6430</out>
            <start>7200</start>
            <end>7282</end>
            <file id="monsters_S01E38_lineal_v001 139"/>
            <sourcetrack>
              <mediatype>audio</mediatype>
              <trackindex>2</trackindex>
            </sourcetrack>
            <link>
              <linkclipref>monsters_S01E38_lineal_v001 138</linkclipref>
              <mediatype>audio</mediatype>
              <trackindex>3</trackindex>
              <clipindex>27</clipindex>
              <groupindex>1</groupindex>
            </link>
            <link>
              <linkclipref>monsters_S01E38_lineal_v001 140</linkclipref>
              <mediatype>audio</mediatype>
              <trackindex>4</trackindex>
              <clipindex>27</clipindex>
              <groupindex>1</groupindex>
            </link>
            <itemhistory>
              <uuid>2C6DCD96-EA61-43F5-2231-D8A3F6C0166A</uuid>
            </itemhistory>
          </clipitem>
        </track>
        <track>
          <clipitem id="monsters_S01E38_lineal_v001 141">
            <name>monsters_S01E38_lineal_v001</name>
            <duration>6469</duration>
            <rate>
              <ntsc>FALSE</ntsc>
              <timebase>25</timebase>
            </rate>
            <in>1317</in>
            <out>1568</out>
            <start>1217</start>
            <end>1468</end>
            <file id="monsters_S01E38_lineal_v001 142">
              <name>monsters_S01E38_lineal_v001.aif</name>
              <pathurl>file://localhost/Users/pepesanchez/Desktop/untitled%20folder/monsters_S01E38_lineal_v001.aif</pathurl>
              <rate>
                <timebase>25</timebase>
              </rate>
              <duration>6469</duration>
              <media>
                <audio>
                  <samplecharacteristics>
                    <samplerate>48000</samplerate>
                    <depth>16</depth>
                  </samplecharacteristics>
                  <channelcount>2</channelcount>
                  <layout>stereo</layout>
                  <audiochannel>
                    <sourcechannel>1</sourcechannel>
                    <channellabel>left</channellabel>
                  </audiochannel>
                  <audiochannel>
                    <sourcechannel>2</sourcechannel>
                    <channellabel>right</channellabel>
                  </audiochannel>
                </audio>
              </media>
            </file>
            <sourcetrack>
              <mediatype>audio</mediatype>
              <trackindex>1</trackindex>
            </sourcetrack>
            <link>
              <linkclipref>monsters_S01E38_lineal_v001 141</linkclipref>
              <mediatype>audio</mediatype>
              <trackindex>5</trackindex>
              <clipindex>1</clipindex>
              <groupindex>1</groupindex>
            </link>
            <link>
              <linkclipref>monsters_S01E38_lineal_v001 143</linkclipref>
              <mediatype>audio</mediatype>
              <trackindex>6</trackindex>
              <clipindex>1</clipindex>
              <groupindex>1</groupindex>
            </link>
            <itemhistory>
              <uuid>91B05F9B-EE07-E966-6392-24399676BA27</uuid>
            </itemhistory>
          </clipitem>
        </track>
        <track>
          <clipitem id="monsters_S01E38_lineal_v001 143">
            <name>monsters_S01E38_lineal_v001</name>
            <duration>6469</duration>
            <rate>
              <ntsc>FALSE</ntsc>
              <timebase>25</timebase>
            </rate>
            <in>1317</in>
            <out>1568</out>
            <start>1217</start>
            <end>1468</end>
            <file id="monsters_S01E38_lineal_v001 142"/>
            <sourcetrack>
              <mediatype>audio</mediatype>
              <trackindex>2</trackindex>
            </sourcetrack>
            <link>
              <linkclipref>monsters_S01E38_lineal_v001 141</linkclipref>
              <mediatype>audio</mediatype>
              <trackindex>5</trackindex>
              <clipindex>1</clipindex>
              <groupindex>1</groupindex>
            </link>
            <link>
              <linkclipref>monsters_S01E38_lineal_v001 143</linkclipref>
              <mediatype>audio</mediatype>
              <trackindex>6</trackindex>
              <clipindex>1</clipindex>
              <groupindex>1</groupindex>
            </link>
            <itemhistory>
              <uuid>935CA616-9A77-B057-59DD-5D7E25EC48AE</uuid>
            </itemhistory>
          </clipitem>
        </track>
        <track>
          <clipitem id="el-reparto-de-star-wars-vii-tararea-la-musica-de-la-pelicula-junto-a-jimmy-fallon-bluper">
            <name>el-reparto-de-star-wars-vii-tararea-la-musica-de-la-pelicula-junto-a-jimmy-fallon-bluper</name>
            <duration>2517</duration>
            <rate>
              <ntsc>FALSE</ntsc>
              <timebase>25</timebase>
            </rate>
            <in>303</in>
            <out>516</out>
            <start>4097</start>
            <end>4310</end>
            <file id="el-reparto-de-star-wars-vii-tararea-la-musica-de-la-pelicula-junto-a-jimmy-fallon-bluper 1">
              <name>el-reparto-de-star-wars-vii-tararea-la-musica-de-la-pelicula-junto-a-jimmy-fallon-bluper.mp3</name>
              <pathurl>file://localhost/Users/pepesanchez/Desktop/untitled%20folder/el-reparto-de-star-wars-vii-tararea-la-musica-de-la-pelicula-junto-a-jimmy-fallon-bluper.mp3</pathurl>
              <rate>
                <timebase>25</timebase>
              </rate>
              <duration>2517</duration>
              <media>
                <audio>
                  <samplecharacteristics>
                    <samplerate>48000</samplerate>
                    <depth>16</depth>
                  </samplecharacteristics>
                  <channelcount>2</channelcount>
                  <layout>stereo</layout>
                  <audiochannel>
                    <sourcechannel>1</sourcechannel>
                    <channellabel>left</channellabel>
                  </audiochannel>
                  <audiochannel>
                    <sourcechannel>2</sourcechannel>
                    <channellabel>right</channellabel>
                  </audiochannel>
                </audio>
              </media>
            </file>
            <sourcetrack>
              <mediatype>audio</mediatype>
              <trackindex>1</trackindex>
            </sourcetrack>
            <link>
              <linkclipref>el-reparto-de-star-wars-vii-tararea-la-musica-de-la-pelicula-junto-a-jimmy-fallon-bluper</linkclipref>
              <mediatype>audio</mediatype>
              <trackindex>7</trackindex>
              <clipindex>1</clipindex>
              <groupindex>1</groupindex>
            </link>
            <link>
              <linkclipref>el-reparto-de-star-wars-vii-tararea-la-musica-de-la-pelicula-junto-a-jimmy-fallon-bluper 2</linkclipref>
              <mediatype>audio</mediatype>
              <trackindex>8</trackindex>
              <clipindex>1</clipindex>
              <groupindex>1</groupindex>
            </link>
            <itemhistory>
              <uuid>B87415C4-8915-70F3-10B9-E8888652B105</uuid>
            </itemhistory>
          </clipitem>
        </track>
        <track>
          <clipitem id="el-reparto-de-star-wars-vii-tararea-la-musica-de-la-pelicula-junto-a-jimmy-fallon-bluper 2">
            <name>el-reparto-de-star-wars-vii-tararea-la-musica-de-la-pelicula-junto-a-jimmy-fallon-bluper</name>
            <duration>2517</duration>
            <rate>
              <ntsc>FALSE</ntsc>
              <timebase>25</timebase>
            </rate>
            <in>303</in>
            <out>516</out>
            <start>4097</start>
            <end>4310</end>
            <file id="el-reparto-de-star-wars-vii-tararea-la-musica-de-la-pelicula-junto-a-jimmy-fallon-bluper 1"/>
            <sourcetrack>
              <mediatype>audio</mediatype>
              <trackindex>2</trackindex>
            </sourcetrack>
            <link>
              <linkclipref>el-reparto-de-star-wars-vii-tararea-la-musica-de-la-pelicula-junto-a-jimmy-fallon-bluper</linkclipref>
              <mediatype>audio</mediatype>
              <trackindex>7</trackindex>
              <clipindex>1</clipindex>
              <groupindex>1</groupindex>
            </link>
            <link>
              <linkclipref>el-reparto-de-star-wars-vii-tararea-la-musica-de-la-pelicula-junto-a-jimmy-fallon-bluper 2</linkclipref>
              <mediatype>audio</mediatype>
              <trackindex>8</trackindex>
              <clipindex>1</clipindex>
              <groupindex>1</groupindex>
            </link>
            <itemhistory>
              <uuid>8762D639-7556-9F61-DB8A-945D2199DFFE</uuid>
            </itemhistory>
          </clipitem>
        </track>
      </audio>
    </media>
    <ismasterclip>FALSE</ismasterclip>
  </sequence>
</xmeml>
